<?xml version="1.0" encoding="UTF-8" standalone="no"?>
<!DOCTYPE svg PUBLIC "-//W3C//DTD SVG 1.1//EN" "http://www.w3.org/Graphics/SVG/1.1/DTD/svg11.dtd">
<svg xmlns="http://www.w3.org/2000/svg" version="1.1" viewBox="0.00 0.00 431.00 501.00">
<g stroke-width="2.00" fill="none" stroke-linecap="butt">
<path stroke="#284e8d" vector-effect="non-scaling-stroke" d="
  M 150.70 68.87
  A 1.91 1.90 -76.3 0 1 152.10 71.18
  L 149.82 80.48
  A 0.62 0.62 0.0 0 0 150.49 81.24
  L 159.29 80.33
  A 3.05 3.04 75.2 0 1 162.41 82.15
  L 167.37 93.61
  A 0.52 0.52 0.0 0 0 168.26 93.72
  L 175.01 84.92
  A 2.92 2.91 26.3 0 1 178.10 83.88
  L 189.73 87.06
  Q 190.62 87.30 190.42 86.40
  L 187.41 73.50
  Q 186.71 70.49 189.74 69.90
  L 197.77 68.35
  A 0.70 0.70 0.0 0 0 198.22 67.28
  L 192.16 57.91
  A 2.87 2.86 55.8 0 1 192.90 54.02
  L 201.59 47.80
  A 0.34 0.34 0.0 0 0 201.53 47.21
  C 198.02 45.61 187.95 41.55 191.83 36.33
  Q 195.04 32.01 198.44 27.73
  Q 198.84 27.22 198.19 27.21
  C 194.87 27.16 185.74 28.63 186.82 23.33
  Q 188.05 17.31 188.99 11.43
  A 0.39 0.39 0.0 0 0 188.43 11.02
  L 175.67 17.75
  A 2.61 2.60 64.7 0 1 172.06 16.45
  L 167.62 5.76
  A 0.33 0.33 0.0 0 0 167.03 5.74
  L 160.14 18.66
  A 2.16 2.15 21.7 0 1 157.66 19.72
  L 148.28 17.14
  Q 147.55 16.94 147.81 17.65
  C 148.77 20.31 152.69 27.40 152.20 30.36
  Q 152.12 30.87 151.66 31.11
  Q 149.90 32.02 147.87 32.10
  Q 143.41 32.28 139.02 33.29
  Q 138.44 33.43 138.89 33.81
  L 146.59 40.53
  A 1.94 1.94 0.0 0 1 146.31 43.66
  L 136.89 49.29
  A 0.65 0.65 0.0 0 0 136.82 50.36
  L 144.59 56.38
  A 2.27 2.27 0.0 0 1 145.09 59.43
  L 140.76 65.94
  A 0.38 0.38 0.0 0 0 140.98 66.52
  L 150.70 68.87"
/>
<path stroke="#38613f" vector-effect="non-scaling-stroke" d="
  M 225.88 472.87
  C 225.93 478.99 225.56 485.71 227.15 490.41
  A 1.43 1.38 -83.8 0 0 227.71 491.13
  L 237.05 497.11
  Q 237.49 497.39 237.97 497.16
  C 240.78 495.79 244.32 492.17 247.37 492.54
  Q 257.12 493.70 266.93 493.99
  C 269.61 494.07 270.83 493.63 272.72 491.96
  Q 285.93 480.25 293.38 473.14
  Q 298.47 468.27 301.21 461.84
  C 303.67 456.06 311.21 454.82 312.41 447.94
  Q 313.92 439.24 314.59 434.32
  C 314.96 431.58 315.78 430.61 317.94 429.18
  Q 322.23 426.36 326.57 423.60
  C 330.79 420.92 331.18 416.31 331.90 411.88
  A 2.80 2.77 26.4 0 0 331.05 409.40
  C 327.44 406.04 321.48 401.48 325.62 395.89
  C 329.20 391.06 334.34 383.87 340.03 381.56
  C 349.73 377.61 359.06 375.47 360.50 362.98
  Q 361.65 353.07 361.25 346.33
  C 361.06 343.20 362.47 337.38 360.27 334.97
  Q 356.80 331.17 353.65 327.09
  C 350.72 323.31 351.61 320.18 353.35 316.10
  C 354.98 312.27 350.86 311.05 348.38 309.52
  A 1.03 1.03 0.0 0 1 347.90 308.77
  Q 347.61 306.76 348.48 305.48
  Q 355.12 295.60 361.09 285.30
  C 363.34 281.43 365.65 278.15 368.83 275.82
  C 381.30 266.65 392.43 258.20 401.08 248.55
  C 413.20 235.03 421.05 216.29 426.57 198.70
  A 0.42 0.42 0.0 0 0 426.18 198.16
  C 419.05 197.94 411.75 199.78 405.05 202.01
  Q 398.48 204.21 395.60 204.76
  Q 389.18 206.00 385.75 205.67
  C 381.50 205.27 381.30 201.45 379.97 198.46
  C 378.44 195.03 376.34 194.79 373.16 193.12
  Q 370.36 191.66 367.08 187.44
  Q 362.82 181.96 357.57 177.48
  C 352.66 173.28 351.47 169.33 350.08 162.79
  C 348.78 156.65 340.70 156.52 340.09 149.71
  C 339.59 144.12 339.60 134.67 336.15 130.09
  C 332.89 125.75 330.69 123.60 329.22 117.26
  Q 328.87 115.76 326.41 112.45
  C 321.79 106.24 318.08 99.25 315.83 92.22
  C 314.54 88.19 319.26 86.68 321.79 85.00
  A 2.54 2.53 73.4 0 0 322.93 82.88
  L 322.90 71.85
  A 1.69 1.68 -89.7 0 0 321.25 70.17
  C 314.56 70.03 308.51 69.59 302.48 66.48
  A 1.94 1.91 44.2 0 0 300.68 66.49
  C 297.36 68.27 291.23 71.30 287.52 69.96
  C 280.68 67.48 274.83 65.34 267.08 63.52
  C 261.14 62.13 255.55 59.25 250.01 56.73
  C 246.40 55.09 241.19 58.99 237.80 60.55
  A 0.86 0.85 79.8 0 0 237.30 61.28
  C 237.14 64.24 237.81 67.93 236.19 70.19
  C 232.87 74.83 223.88 70.44 219.75 69.09
  Q 215.46 67.68 209.48 67.84
  C 206.16 67.92 204.09 66.88 201.28 65.51
  Q 200.89 65.32 201.04 65.73
  Q 201.34 66.59 201.74 67.39
  Q 203.11 70.12 200.28 70.77
  Q 195.72 71.81 191.22 72.66
  A 0.80 0.80 0.0 0 0 190.58 73.62
  L 193.67 87.53
  A 1.35 1.32 -40.2 0 1 193.59 88.37
  Q 192.56 90.80 189.00 89.92
  Q 183.36 88.54 178.09 86.91
  A 0.96 0.94 -63.6 0 0 177.04 87.27
  C 175.45 89.55 167.89 102.17 164.77 95.27
  Q 162.18 89.54 159.88 83.90
  A 1.12 1.11 72.4 0 0 158.60 83.23
  Q 154.25 84.23 149.61 84.24
  C 146.69 84.24 146.36 82.78 146.83 80.25
  Q 147.57 76.34 148.54 72.57
  A 1.08 1.07 13.3 0 0 147.73 71.26
  L 139.59 69.38
  Q 135.27 68.38 137.77 64.72
  L 141.70 58.97
  A 0.76 0.75 -54.6 0 0 141.53 57.94
  Q 138.04 55.31 134.48 52.50
  C 129.22 48.34 140.22 43.67 142.72 42.30
  A 0.49 0.48 52.8 0 0 142.82 41.53
  Q 139.23 38.04 135.63 35.07
  Q 134.58 34.20 134.36 33.52
  Q 133.94 32.25 135.34 31.39
  Q 135.93 31.04 136.49 30.56
  Q 136.82 30.28 136.39 30.24
  C 134.11 30.02 132.06 30.04 129.73 29.55
  C 126.58 28.88 124.31 28.54 121.24 30.11
  Q 113.70 33.97 105.76 36.92
  C 102.24 38.23 98.11 41.48 94.24 40.45
  Q 85.84 38.20 77.02 36.33
  A 1.02 1.02 0.0 0 0 76.01 36.70
  C 72.35 41.38 71.23 46.21 66.22 50.08
  C 62.69 52.80 57.50 54.99 55.40 59.10
  Q 51.86 66.05 52.19 73.78
  C 52.31 76.55 51.53 78.17 49.74 80.00
  Q 44.83 85.01 39.05 88.97
  C 35.51 91.39 33.46 95.58 31.09 99.04
  C 28.77 102.44 25.50 103.81 23.72 107.75
  C 22.07 111.41 21.01 114.09 17.61 117.26
  C 14.96 119.72 14.09 123.33 12.24 126.06
  Q 9.78 129.67 6.73 132.89
  A 2.32 2.31 -46.5 0 0 6.81 136.16
  Q 8.18 137.47 9.92 139.09
  C 12.21 141.21 11.14 152.08 10.77 155.27
  C 10.18 160.51 10.11 166.56 8.96 172.22
  C 8.51 174.43 6.66 175.08 5.03 176.17
  Q 4.63 176.44 4.45 176.88
  Q 3.43 179.44 4.83 181.18
  C 8.04 185.16 8.25 186.26 7.95 191.45
  A 2.02 2.00 -71.4 0 0 8.83 193.24
  Q 13.31 196.28 17.89 199.41
  C 20.50 201.20 20.67 202.37 22.05 204.59
  C 24.78 208.98 30.40 209.15 31.54 215.01
  C 31.91 216.92 31.76 220.49 33.18 221.81
  C 41.64 229.69 50.60 234.40 61.58 240.13
  C 63.07 240.91 64.58 241.24 65.99 240.45
  C 70.20 238.10 73.41 236.11 78.24 236.99
  Q 88.62 238.90 99.01 240.67
  C 104.57 241.62 108.13 237.96 113.30 234.01
  Q 115.63 232.23 116.99 232.00
  C 121.58 231.21 138.37 229.09 141.71 232.54
  Q 145.30 236.25 148.89 239.43
  A 2.94 2.94 0.0 0 0 150.57 240.16
  Q 155.57 240.63 160.06 240.79
  C 164.45 240.96 166.00 243.41 168.67 246.38
  C 171.63 249.69 171.84 251.46 171.13 255.75
  Q 169.90 263.15 168.41 270.50
  C 167.57 274.63 167.11 276.57 169.98 280.01
  Q 178.06 289.68 186.20 299.30
  C 190.87 304.80 191.81 309.63 193.76 317.81
  C 194.58 321.24 193.02 324.51 192.19 327.64
  C 191.37 330.68 193.66 332.55 195.85 334.90
  C 198.16 337.36 196.83 340.62 195.39 343.43
  Q 191.13 351.76 186.96 359.13
  Q 186.05 360.74 185.97 362.59
  Q 185.63 370.84 185.77 379.48
  C 185.79 380.41 186.43 382.10 186.89 382.91
  Q 191.82 391.63 195.09 401.08
  C 196.44 404.98 199.28 407.87 200.11 411.95
  C 202.03 421.30 203.01 431.06 204.38 440.40
  Q 204.47 441.06 204.89 441.59
  Q 215.71 455.22 224.85 470.07
  Q 225.87 471.72 225.88 472.87"
/>
<path stroke="#284e8d" vector-effect="non-scaling-stroke" d="
  M 177.33 45.73
  C 178.20 44.64 180.14 44.00 181.07 42.61
  C 183.37 39.16 181.42 37.03 179.16 34.54
  A 1.74 1.73 43.1 0 1 179.08 32.30
  Q 180.62 30.36 182.29 28.27
  C 184.43 25.60 180.30 19.92 176.61 23.08
  Q 175.79 23.79 175.12 24.04
  Q 174.09 24.42 173.42 23.55
  C 169.66 18.72 166.83 21.77 163.10 23.64
  C 159.21 25.59 156.88 27.89 156.96 32.25
  C 157.01 34.61 158.89 36.57 160.23 38.43
  A 2.10 2.09 -42.9 0 1 160.13 41.02
  C 156.90 44.80 152.17 47.13 154.57 53.18
  Q 155.92 56.60 159.31 58.66
  C 161.81 60.18 162.28 61.30 163.09 63.90
  Q 166.05 73.44 167.34 78.96
  Q 167.71 80.55 168.55 81.13
  A 2.51 2.50 39.5 0 0 171.78 80.82
  Q 175.33 77.15 176.44 72.27
  C 176.90 70.27 176.26 68.24 175.95 66.21
  A 2.45 2.44 -24.9 0 1 176.77 63.98
  C 179.41 61.68 182.11 59.56 183.05 55.98
  C 184.08 52.11 180.35 50.87 177.83 49.13
  Q 175.76 47.70 177.33 45.73"
/>
<path stroke="#65738d" vector-effect="non-scaling-stroke" d="
  M 173.12 63.62
  C 174.66 61.04 178.33 59.01 180.00 55.74
  A 1.40 1.40 0.0 0 0 179.26 53.80
  Q 175.77 52.43 173.97 49.04
  C 171.39 44.20 176.08 43.26 178.45 40.62
  A 1.47 1.47 0.0 0 0 178.50 38.71
  C 174.04 33.22 175.30 31.99 179.42 26.87
  A 0.80 0.79 -43.7 0 0 179.45 25.92
  Q 179.12 25.46 178.54 25.78
  Q 176.66 26.87 174.85 27.72
  A 2.26 2.26 0.0 0 1 172.11 27.09
  L 170.05 24.52
  A 1.14 1.14 0.0 0 0 168.66 24.21
  C 165.54 25.78 160.11 27.43 160.12 31.68
  C 160.13 34.19 162.74 35.86 163.47 38.25
  C 165.35 44.37 156.79 45.43 157.14 50.77
  Q 157.34 53.73 160.00 55.32
  Q 164.06 57.74 165.25 61.14
  Q 168.09 69.16 170.07 77.38
  A 0.35 0.35 0.0 0 0 170.69 77.51
  C 172.10 75.55 173.94 72.45 173.58 69.92
  C 173.29 67.96 172.12 65.32 173.12 63.62"
/>
</g>
<path fill="#1c1b1a" d="
  M 148.66 28.15
  L 143.00 15.92
  A 1.24 1.23 64.5 0 1 143.57 14.29
  C 146.63 12.79 154.10 15.59 157.39 16.42
  A 0.52 0.51 21.4 0 0 157.97 16.17
  L 165.57 2.05
  A 1.92 1.92 0.0 0 1 167.95 1.17
  Q 169.17 1.64 169.78 3.03
  Q 172.28 8.71 174.27 14.27
  A 0.57 0.57 0.0 0 0 175.07 14.58
  L 189.24 7.28
  A 1.91 1.91 0.0 0 1 191.99 8.64
  Q 192.20 9.82 191.95 11.50
  Q 191.12 17.03 189.89 23.24
  A 0.61 0.61 0.0 0 0 190.48 23.97
  L 200.83 24.20
  A 1.47 1.47 0.0 0 1 201.82 24.63
  Q 203.54 26.39 201.78 28.53
  Q 197.95 33.17 194.17 38.38
  Q 193.47 39.34 194.50 39.92
  L 204.63 45.59
  A 2.08 2.08 0.0 0 1 204.85 49.07
  L 195.52 55.98
  A 0.93 0.91 -34.9 0 0 195.29 57.22
  L 197.42 60.55
  Q 197.72 61.02 198.24 61.20
  C 201.87 62.47 205.60 64.77 209.47 64.80
  Q 218.28 64.88 226.44 68.18
  C 228.32 68.94 230.11 69.28 231.94 69.25
  A 2.00 1.99 -0.3 0 0 233.90 67.28
  C 233.92 64.35 233.39 59.27 236.64 57.77
  C 240.62 55.92 246.17 51.61 251.25 53.96
  Q 256.07 56.19 260.92 58.31
  C 264.74 59.97 268.37 60.71 272.41 61.64
  C 277.56 62.83 282.73 65.10 287.73 66.87
  C 291.26 68.12 296.20 65.41 299.49 63.80
  C 302.85 62.14 306.08 65.44 309.31 65.99
  Q 313.37 66.67 320.96 67.06
  C 327.77 67.41 326.17 78.52 325.96 82.75
  C 325.76 86.67 322.65 88.34 319.61 89.89
  A 1.57 1.57 0.0 0 0 318.85 91.82
  Q 323.25 103.88 330.76 113.50
  Q 331.96 115.03 332.87 118.78
  C 333.82 122.67 335.72 124.77 338.05 127.71
  Q 341.30 131.79 341.74 137.01
  Q 342.31 143.83 343.29 150.11
  A 4.26 4.22 -73.9 0 0 344.65 152.60
  C 347.69 155.30 351.28 156.55 352.89 161.06
  C 354.85 166.54 353.75 170.16 359.14 174.86
  Q 364.44 179.49 368.84 184.97
  Q 371.49 188.26 373.50 189.66
  C 378.75 193.29 382.02 193.19 383.88 200.24
  C 384.55 202.80 385.57 202.99 387.99 202.72
  Q 395.99 201.82 402.37 199.88
  C 405.59 198.90 432.49 189.75 429.53 199.27
  C 423.44 218.85 414.67 239.24 400.13 253.88
  C 391.47 262.61 380.86 270.54 370.68 278.28
  C 369.11 279.47 366.70 281.68 365.72 283.40
  Q 359.02 295.10 351.66 306.13
  A 1.33 1.32 34.0 0 0 352.02 307.96
  C 358.34 312.30 357.17 314.23 354.93 320.49
  C 353.11 325.54 363.26 331.08 364.34 337.08
  C 364.90 340.19 363.89 344.50 364.35 348.27
  Q 364.72 351.25 364.43 353.73
  C 363.77 359.32 364.11 363.09 361.79 369.34
  C 358.13 379.17 348.87 381.15 340.23 384.68
  C 336.45 386.22 330.38 394.53 327.92 397.94
  C 324.59 402.55 335.80 406.36 334.80 412.40
  C 333.96 417.43 333.45 422.30 329.39 425.10
  Q 324.26 428.64 319.05 432.05
  C 318.07 432.69 317.65 433.40 317.51 434.63
  Q 316.54 443.56 314.41 452.51
  A 3.03 2.99 -12.8 0 1 313.35 454.17
  Q 309.46 457.21 305.47 460.72
  C 303.90 462.11 302.98 465.39 302.05 466.95
  Q 299.14 471.81 294.24 476.49
  Q 288.29 482.17 276.33 492.82
  C 271.91 496.75 270.06 497.51 264.00 497.02
  Q 255.33 496.32 246.68 495.46
  A 1.18 1.13 29.7 0 0 245.92 495.65
  L 240.23 499.43
  A 4.75 4.73 -45.1 0 1 235.01 499.45
  Q 231.52 497.15 227.14 494.41
  C 225.38 493.32 224.21 492.16 223.88 489.97
  Q 222.58 481.54 222.87 473.01
  C 222.91 471.87 222.07 471.00 221.53 470.15
  Q 212.09 455.30 201.27 441.92
  A 2.41 2.37 -61.8 0 1 200.76 440.18
  C 201.13 436.86 200.20 433.20 199.90 430.69
  C 199.29 425.69 198.38 420.90 197.88 415.71
  C 197.34 410.11 194.11 407.27 192.40 402.45
  Q 188.82 392.30 183.53 382.91
  C 183.05 382.06 182.99 381.17 182.97 380.25
  Q 182.77 370.99 182.86 361.74
  Q 182.88 360.07 185.08 356.29
  Q 189.74 348.31 193.79 339.85
  A 2.62 2.61 -51.5 0 0 193.48 337.09
  C 191.34 334.41 188.24 331.64 188.98 327.50
  C 189.57 324.21 191.76 321.49 190.43 316.79
  C 189.04 311.88 188.47 306.97 185.09 302.89
  Q 176.42 292.43 167.70 282.00
  Q 163.83 277.36 164.94 272.25
  Q 166.42 265.46 168.39 253.63
  Q 168.79 251.26 167.39 249.59
  C 165.19 246.97 163.15 243.67 159.25 243.54
  Q 154.70 243.40 150.16 243.15
  C 144.28 242.83 142.08 233.88 136.75 233.90
  Q 126.03 233.93 121.50 234.22
  C 113.35 234.73 110.15 242.74 102.53 243.88
  Q 100.56 244.17 96.51 243.40
  Q 87.51 241.69 78.49 240.17
  C 75.61 239.68 73.61 239.82 70.86 241.22
  C 67.79 242.79 64.69 245.17 61.00 243.21
  C 48.44 236.55 40.61 232.57 32.14 224.85
  Q 29.01 221.99 28.96 220.25
  C 28.86 217.34 29.35 214.31 26.43 212.22
  C 22.91 209.72 20.05 208.42 18.24 203.73
  Q 17.97 203.04 15.90 201.66
  Q 11.41 198.66 7.01 195.52
  C 3.81 193.24 5.07 189.60 4.82 186.35
  Q 4.78 185.85 4.47 185.46
  C 0.92 181.01 -1.42 175.89 5.14 172.50
  A 1.63 1.62 -88.6 0 0 5.81 171.86
  Q 6.73 170.24 6.74 169.00
  C 6.78 163.48 7.67 157.91 7.88 152.66
  C 8.02 149.22 8.81 144.62 7.73 141.36
  Q 7.57 140.89 7.17 140.57
  C 2.61 136.93 1.61 134.15 5.76 129.50
  C 9.38 125.43 10.59 122.74 12.62 118.81
  C 14.53 115.13 18.37 112.85 19.92 109.15
  C 21.37 105.69 21.55 104.14 24.54 101.64
  C 28.66 98.20 30.70 93.78 33.68 90.05
  C 37.64 85.10 45.69 82.00 48.81 76.06
  Q 49.39 74.94 49.30 72.84
  Q 48.96 64.57 52.91 57.20
  C 56.29 50.89 64.41 49.85 68.10 43.64
  Q 70.47 39.65 72.97 35.74
  Q 74.63 33.14 77.72 33.68
  Q 86.75 35.27 95.28 37.71
  A 2.58 2.55 -49.0 0 0 97.02 37.58
  C 104.98 33.99 113.21 30.90 121.06 26.76
  C 124.46 24.97 127.85 26.55 131.23 26.80
  Q 134.82 27.06 138.27 28.06
  C 142.03 29.14 144.69 28.82 148.37 28.62
  A 0.33 0.33 0.0 0 0 148.66 28.15
  Z
  M 150.70 68.87
  A 1.91 1.90 -76.3 0 1 152.10 71.18
  L 149.82 80.48
  A 0.62 0.62 0.0 0 0 150.49 81.24
  L 159.29 80.33
  A 3.05 3.04 75.2 0 1 162.41 82.15
  L 167.37 93.61
  A 0.52 0.52 0.0 0 0 168.26 93.72
  L 175.01 84.92
  A 2.92 2.91 26.3 0 1 178.10 83.88
  L 189.73 87.06
  Q 190.62 87.30 190.42 86.40
  L 187.41 73.50
  Q 186.71 70.49 189.74 69.90
  L 197.77 68.35
  A 0.70 0.70 0.0 0 0 198.22 67.28
  L 192.16 57.91
  A 2.87 2.86 55.8 0 1 192.90 54.02
  L 201.59 47.80
  A 0.34 0.34 0.0 0 0 201.53 47.21
  C 198.02 45.61 187.95 41.55 191.83 36.33
  Q 195.04 32.01 198.44 27.73
  Q 198.84 27.22 198.19 27.21
  C 194.87 27.16 185.74 28.63 186.82 23.33
  Q 188.05 17.31 188.99 11.43
  A 0.39 0.39 0.0 0 0 188.43 11.02
  L 175.67 17.75
  A 2.61 2.60 64.7 0 1 172.06 16.45
  L 167.62 5.76
  A 0.33 0.33 0.0 0 0 167.03 5.74
  L 160.14 18.66
  A 2.16 2.15 21.7 0 1 157.66 19.72
  L 148.28 17.14
  Q 147.55 16.94 147.81 17.65
  C 148.77 20.31 152.69 27.40 152.20 30.36
  Q 152.12 30.87 151.66 31.11
  Q 149.90 32.02 147.87 32.10
  Q 143.41 32.28 139.02 33.29
  Q 138.44 33.43 138.89 33.81
  L 146.59 40.53
  A 1.94 1.94 0.0 0 1 146.31 43.66
  L 136.89 49.29
  A 0.65 0.65 0.0 0 0 136.82 50.36
  L 144.59 56.38
  A 2.27 2.27 0.0 0 1 145.09 59.43
  L 140.76 65.94
  A 0.38 0.38 0.0 0 0 140.98 66.52
  L 150.70 68.87
  Z
  M 225.88 472.87
  C 225.93 478.99 225.56 485.71 227.15 490.41
  A 1.43 1.38 -83.8 0 0 227.71 491.13
  L 237.05 497.11
  Q 237.49 497.39 237.97 497.16
  C 240.78 495.79 244.32 492.17 247.37 492.54
  Q 257.12 493.70 266.93 493.99
  C 269.61 494.07 270.83 493.63 272.72 491.96
  Q 285.93 480.25 293.38 473.14
  Q 298.47 468.27 301.21 461.84
  C 303.67 456.06 311.21 454.82 312.41 447.94
  Q 313.92 439.24 314.59 434.32
  C 314.96 431.58 315.78 430.61 317.94 429.18
  Q 322.23 426.36 326.57 423.60
  C 330.79 420.92 331.18 416.31 331.90 411.88
  A 2.80 2.77 26.4 0 0 331.05 409.40
  C 327.44 406.04 321.48 401.48 325.62 395.89
  C 329.20 391.06 334.34 383.87 340.03 381.56
  C 349.73 377.61 359.06 375.47 360.50 362.98
  Q 361.65 353.07 361.25 346.33
  C 361.06 343.20 362.47 337.38 360.27 334.97
  Q 356.80 331.17 353.65 327.09
  C 350.72 323.31 351.61 320.18 353.35 316.10
  C 354.98 312.27 350.86 311.05 348.38 309.52
  A 1.03 1.03 0.0 0 1 347.90 308.77
  Q 347.61 306.76 348.48 305.48
  Q 355.12 295.60 361.09 285.30
  C 363.34 281.43 365.65 278.15 368.83 275.82
  C 381.30 266.65 392.43 258.20 401.08 248.55
  C 413.20 235.03 421.05 216.29 426.57 198.70
  A 0.42 0.42 0.0 0 0 426.18 198.16
  C 419.05 197.94 411.75 199.78 405.05 202.01
  Q 398.48 204.21 395.60 204.76
  Q 389.18 206.00 385.75 205.67
  C 381.50 205.27 381.30 201.45 379.97 198.46
  C 378.44 195.03 376.34 194.79 373.16 193.12
  Q 370.36 191.66 367.08 187.44
  Q 362.82 181.96 357.57 177.48
  C 352.66 173.28 351.47 169.33 350.08 162.79
  C 348.78 156.65 340.70 156.52 340.09 149.71
  C 339.59 144.12 339.60 134.67 336.15 130.09
  C 332.89 125.75 330.69 123.60 329.22 117.26
  Q 328.87 115.76 326.41 112.45
  C 321.79 106.24 318.08 99.25 315.83 92.22
  C 314.54 88.19 319.26 86.68 321.79 85.00
  A 2.54 2.53 73.4 0 0 322.93 82.88
  L 322.90 71.85
  A 1.69 1.68 -89.7 0 0 321.25 70.17
  C 314.56 70.03 308.51 69.59 302.48 66.48
  A 1.94 1.91 44.2 0 0 300.68 66.49
  C 297.36 68.27 291.23 71.30 287.52 69.96
  C 280.68 67.48 274.83 65.34 267.08 63.52
  C 261.14 62.13 255.55 59.25 250.01 56.73
  C 246.40 55.09 241.19 58.99 237.80 60.55
  A 0.86 0.85 79.8 0 0 237.30 61.28
  C 237.14 64.24 237.81 67.93 236.19 70.19
  C 232.87 74.83 223.88 70.44 219.75 69.09
  Q 215.46 67.68 209.48 67.84
  C 206.16 67.92 204.09 66.88 201.28 65.51
  Q 200.89 65.32 201.04 65.73
  Q 201.34 66.59 201.74 67.39
  Q 203.11 70.12 200.28 70.77
  Q 195.72 71.81 191.22 72.66
  A 0.80 0.80 0.0 0 0 190.58 73.62
  L 193.67 87.53
  A 1.35 1.32 -40.2 0 1 193.59 88.37
  Q 192.56 90.80 189.00 89.92
  Q 183.36 88.54 178.09 86.91
  A 0.96 0.94 -63.6 0 0 177.04 87.27
  C 175.45 89.55 167.89 102.17 164.77 95.27
  Q 162.18 89.54 159.88 83.90
  A 1.12 1.11 72.4 0 0 158.60 83.23
  Q 154.25 84.23 149.61 84.24
  C 146.69 84.24 146.36 82.78 146.83 80.25
  Q 147.57 76.34 148.54 72.57
  A 1.08 1.07 13.3 0 0 147.73 71.26
  L 139.59 69.38
  Q 135.27 68.38 137.77 64.72
  L 141.70 58.97
  A 0.76 0.75 -54.6 0 0 141.53 57.94
  Q 138.04 55.31 134.48 52.50
  C 129.22 48.34 140.22 43.67 142.72 42.30
  A 0.49 0.48 52.8 0 0 142.82 41.53
  Q 139.23 38.04 135.63 35.07
  Q 134.58 34.20 134.36 33.52
  Q 133.94 32.25 135.34 31.39
  Q 135.93 31.04 136.49 30.56
  Q 136.82 30.28 136.39 30.24
  C 134.11 30.02 132.06 30.04 129.73 29.55
  C 126.58 28.88 124.31 28.54 121.24 30.11
  Q 113.70 33.97 105.76 36.92
  C 102.24 38.23 98.11 41.48 94.24 40.45
  Q 85.84 38.20 77.02 36.33
  A 1.02 1.02 0.0 0 0 76.01 36.70
  C 72.35 41.38 71.23 46.21 66.22 50.08
  C 62.69 52.80 57.50 54.99 55.40 59.10
  Q 51.86 66.05 52.19 73.78
  C 52.31 76.55 51.53 78.17 49.74 80.00
  Q 44.83 85.01 39.05 88.97
  C 35.51 91.39 33.46 95.58 31.09 99.04
  C 28.77 102.44 25.50 103.81 23.72 107.75
  C 22.07 111.41 21.01 114.09 17.61 117.26
  C 14.96 119.72 14.09 123.33 12.24 126.06
  Q 9.78 129.67 6.73 132.89
  A 2.32 2.31 -46.5 0 0 6.81 136.16
  Q 8.18 137.47 9.92 139.09
  C 12.21 141.21 11.14 152.08 10.77 155.27
  C 10.18 160.51 10.11 166.56 8.96 172.22
  C 8.51 174.43 6.66 175.08 5.03 176.17
  Q 4.63 176.44 4.45 176.88
  Q 3.43 179.44 4.83 181.18
  C 8.04 185.16 8.25 186.26 7.95 191.45
  A 2.02 2.00 -71.4 0 0 8.83 193.24
  Q 13.31 196.28 17.89 199.41
  C 20.50 201.20 20.67 202.37 22.05 204.59
  C 24.78 208.98 30.40 209.15 31.54 215.01
  C 31.91 216.92 31.76 220.49 33.18 221.81
  C 41.64 229.69 50.60 234.40 61.58 240.13
  C 63.07 240.91 64.58 241.24 65.99 240.45
  C 70.20 238.10 73.41 236.11 78.24 236.99
  Q 88.62 238.90 99.01 240.67
  C 104.57 241.62 108.13 237.96 113.30 234.01
  Q 115.63 232.23 116.99 232.00
  C 121.58 231.21 138.37 229.09 141.71 232.54
  Q 145.30 236.25 148.89 239.43
  A 2.94 2.94 0.0 0 0 150.57 240.16
  Q 155.57 240.63 160.06 240.79
  C 164.45 240.96 166.00 243.41 168.67 246.38
  C 171.63 249.69 171.84 251.46 171.13 255.75
  Q 169.90 263.15 168.41 270.50
  C 167.57 274.63 167.11 276.57 169.98 280.01
  Q 178.06 289.68 186.20 299.30
  C 190.87 304.80 191.81 309.63 193.76 317.81
  C 194.58 321.24 193.02 324.51 192.19 327.64
  C 191.37 330.68 193.66 332.55 195.85 334.90
  C 198.16 337.36 196.83 340.62 195.39 343.43
  Q 191.13 351.76 186.96 359.13
  Q 186.05 360.74 185.97 362.59
  Q 185.63 370.84 185.77 379.48
  C 185.79 380.41 186.43 382.10 186.89 382.91
  Q 191.82 391.63 195.09 401.08
  C 196.44 404.98 199.28 407.87 200.11 411.95
  C 202.03 421.30 203.01 431.06 204.38 440.40
  Q 204.47 441.06 204.89 441.59
  Q 215.71 455.22 224.85 470.07
  Q 225.87 471.72 225.88 472.87
  Z"
/>
<path fill="#3481ff" d="
  M 150.70 68.87
  L 140.98 66.52
  A 0.38 0.38 0.0 0 1 140.76 65.94
  L 145.09 59.43
  A 2.27 2.27 0.0 0 0 144.59 56.38
  L 136.82 50.36
  A 0.65 0.65 0.0 0 1 136.89 49.29
  L 146.31 43.66
  A 1.94 1.94 0.0 0 0 146.59 40.53
  L 138.89 33.81
  Q 138.44 33.43 139.02 33.29
  Q 143.41 32.28 147.87 32.10
  Q 149.90 32.02 151.66 31.11
  Q 152.12 30.87 152.20 30.36
  C 152.69 27.40 148.77 20.31 147.81 17.65
  Q 147.55 16.94 148.28 17.14
  L 157.66 19.72
  A 2.16 2.15 21.7 0 0 160.14 18.66
  L 167.03 5.74
  A 0.33 0.33 0.0 0 1 167.62 5.76
  L 172.06 16.45
  A 2.61 2.60 64.7 0 0 175.67 17.75
  L 188.43 11.02
  A 0.39 0.39 0.0 0 1 188.99 11.43
  Q 188.05 17.31 186.82 23.33
  C 185.74 28.63 194.87 27.16 198.19 27.21
  Q 198.84 27.22 198.44 27.73
  Q 195.04 32.01 191.83 36.33
  C 187.95 41.55 198.02 45.61 201.53 47.21
  A 0.34 0.34 0.0 0 1 201.59 47.80
  L 192.90 54.02
  A 2.87 2.86 55.8 0 0 192.16 57.91
  L 198.22 67.28
  A 0.70 0.70 0.0 0 1 197.77 68.35
  L 189.74 69.90
  Q 186.71 70.49 187.41 73.50
  L 190.42 86.40
  Q 190.62 87.30 189.73 87.06
  L 178.10 83.88
  A 2.92 2.91 26.3 0 0 175.01 84.92
  L 168.26 93.72
  A 0.52 0.52 0.0 0 1 167.37 93.61
  L 162.41 82.15
  A 3.05 3.04 75.2 0 0 159.29 80.33
  L 150.49 81.24
  A 0.62 0.62 0.0 0 1 149.82 80.48
  L 152.10 71.18
  A 1.91 1.90 -76.3 0 0 150.70 68.87
  Z
  M 177.33 45.73
  C 178.20 44.64 180.14 44.00 181.07 42.61
  C 183.37 39.16 181.42 37.03 179.16 34.54
  A 1.74 1.73 43.1 0 1 179.08 32.30
  Q 180.62 30.36 182.29 28.27
  C 184.43 25.60 180.30 19.92 176.61 23.08
  Q 175.79 23.79 175.12 24.04
  Q 174.09 24.42 173.42 23.55
  C 169.66 18.72 166.83 21.77 163.10 23.64
  C 159.21 25.59 156.88 27.89 156.96 32.25
  C 157.01 34.61 158.89 36.57 160.23 38.43
  A 2.10 2.09 -42.9 0 1 160.13 41.02
  C 156.90 44.80 152.17 47.13 154.57 53.18
  Q 155.92 56.60 159.31 58.66
  C 161.81 60.18 162.28 61.30 163.09 63.90
  Q 166.05 73.44 167.34 78.96
  Q 167.71 80.55 168.55 81.13
  A 2.51 2.50 39.5 0 0 171.78 80.82
  Q 175.33 77.15 176.44 72.27
  C 176.90 70.27 176.26 68.24 175.95 66.21
  A 2.45 2.44 -24.9 0 1 176.77 63.98
  C 179.41 61.68 182.11 59.56 183.05 55.98
  C 184.08 52.11 180.35 50.87 177.83 49.13
  Q 175.76 47.70 177.33 45.73
  Z"
/>
<path fill="#1c1b1a" d="
  M 177.33 45.73
  Q 175.76 47.70 177.83 49.13
  C 180.35 50.87 184.08 52.11 183.05 55.98
  C 182.11 59.56 179.41 61.68 176.77 63.98
  A 2.45 2.44 -24.9 0 0 175.95 66.21
  C 176.26 68.24 176.90 70.27 176.44 72.27
  Q 175.33 77.15 171.78 80.82
  A 2.51 2.50 39.5 0 1 168.55 81.13
  Q 167.71 80.55 167.34 78.96
  Q 166.05 73.44 163.09 63.90
  C 162.28 61.30 161.81 60.18 159.31 58.66
  Q 155.92 56.60 154.57 53.18
  C 152.17 47.13 156.90 44.80 160.13 41.02
  A 2.10 2.09 -42.9 0 0 160.23 38.43
  C 158.89 36.57 157.01 34.61 156.96 32.25
  C 156.88 27.89 159.21 25.59 163.10 23.64
  C 166.83 21.77 169.66 18.72 173.42 23.55
  Q 174.09 24.42 175.12 24.04
  Q 175.79 23.79 176.61 23.08
  C 180.30 19.92 184.43 25.60 182.29 28.27
  Q 180.62 30.36 179.08 32.30
  A 1.74 1.73 43.1 0 0 179.16 34.54
  C 181.42 37.03 183.37 39.16 181.07 42.61
  C 180.14 44.00 178.20 44.64 177.33 45.73
  Z
  M 173.12 63.62
  C 174.66 61.04 178.33 59.01 180.00 55.74
  A 1.40 1.40 0.0 0 0 179.26 53.80
  Q 175.77 52.43 173.97 49.04
  C 171.39 44.20 176.08 43.26 178.45 40.62
  A 1.47 1.47 0.0 0 0 178.50 38.71
  C 174.04 33.22 175.30 31.99 179.42 26.87
  A 0.80 0.79 -43.7 0 0 179.45 25.92
  Q 179.12 25.46 178.54 25.78
  Q 176.66 26.87 174.85 27.72
  A 2.26 2.26 0.0 0 1 172.11 27.09
  L 170.05 24.52
  A 1.14 1.14 0.0 0 0 168.66 24.21
  C 165.54 25.78 160.11 27.43 160.12 31.68
  C 160.13 34.19 162.74 35.86 163.47 38.25
  C 165.35 44.37 156.79 45.43 157.14 50.77
  Q 157.34 53.73 160.00 55.32
  Q 164.06 57.74 165.25 61.14
  Q 168.09 69.16 170.07 77.38
  A 0.35 0.35 0.0 0 0 170.69 77.51
  C 172.10 75.55 173.94 72.45 173.58 69.92
  C 173.29 67.96 172.12 65.32 173.12 63.62
  Z"
/>
<path fill="#adcbff" d="
  M 173.12 63.62
  C 172.12 65.32 173.29 67.96 173.58 69.92
  C 173.94 72.45 172.10 75.55 170.69 77.51
  A 0.35 0.35 0.0 0 1 170.07 77.38
  Q 168.09 69.16 165.25 61.14
  Q 164.06 57.74 160.00 55.32
  Q 157.34 53.73 157.14 50.77
  C 156.79 45.43 165.35 44.37 163.47 38.25
  C 162.74 35.86 160.13 34.19 160.12 31.68
  C 160.11 27.43 165.54 25.78 168.66 24.21
  A 1.14 1.14 0.0 0 1 170.05 24.52
  L 172.11 27.09
  A 2.26 2.26 0.0 0 0 174.85 27.72
  Q 176.66 26.87 178.54 25.78
  Q 179.12 25.46 179.45 25.92
  A 0.80 0.79 -43.7 0 1 179.42 26.87
  C 175.30 31.99 174.04 33.22 178.50 38.71
  A 1.47 1.47 0.0 0 1 178.45 40.62
  C 176.08 43.26 171.39 44.20 173.97 49.04
  Q 175.77 52.43 179.26 53.80
  A 1.40 1.40 0.0 0 1 180.00 55.74
  C 178.33 59.01 174.66 61.04 173.12 63.62
  Z"
/>
<path fill="#53a763" d="
  M 225.88 472.87
  Q 225.87 471.72 224.85 470.07
  Q 215.71 455.22 204.89 441.59
  Q 204.47 441.06 204.38 440.40
  C 203.01 431.06 202.03 421.30 200.11 411.95
  C 199.28 407.87 196.44 404.98 195.09 401.08
  Q 191.82 391.63 186.89 382.91
  C 186.43 382.10 185.79 380.41 185.77 379.48
  Q 185.63 370.84 185.97 362.59
  Q 186.05 360.74 186.96 359.13
  Q 191.13 351.76 195.39 343.43
  C 196.83 340.62 198.16 337.36 195.85 334.90
  C 193.66 332.55 191.37 330.68 192.19 327.64
  C 193.02 324.51 194.58 321.24 193.76 317.81
  C 191.81 309.63 190.87 304.80 186.20 299.30
  Q 178.06 289.68 169.98 280.01
  C 167.11 276.57 167.57 274.63 168.41 270.50
  Q 169.90 263.15 171.13 255.75
  C 171.84 251.46 171.63 249.69 168.67 246.38
  C 166.00 243.41 164.45 240.96 160.06 240.79
  Q 155.57 240.63 150.57 240.16
  A 2.94 2.94 0.0 0 1 148.89 239.43
  Q 145.30 236.25 141.71 232.54
  C 138.37 229.09 121.58 231.21 116.99 232.00
  Q 115.63 232.23 113.30 234.01
  C 108.13 237.96 104.57 241.62 99.01 240.67
  Q 88.62 238.90 78.24 236.99
  C 73.41 236.11 70.20 238.10 65.99 240.45
  C 64.58 241.24 63.07 240.91 61.58 240.13
  C 50.60 234.40 41.64 229.69 33.18 221.81
  C 31.76 220.49 31.91 216.92 31.54 215.01
  C 30.40 209.15 24.78 208.98 22.05 204.59
  C 20.67 202.37 20.50 201.20 17.89 199.41
  Q 13.31 196.28 8.83 193.24
  A 2.02 2.00 -71.4 0 1 7.95 191.45
  C 8.25 186.26 8.04 185.16 4.83 181.18
  Q 3.43 179.44 4.45 176.88
  Q 4.63 176.44 5.03 176.17
  C 6.66 175.08 8.51 174.43 8.96 172.22
  C 10.11 166.56 10.18 160.51 10.77 155.27
  C 11.14 152.08 12.21 141.21 9.92 139.09
  Q 8.18 137.47 6.81 136.16
  A 2.32 2.31 -46.5 0 1 6.73 132.89
  Q 9.78 129.67 12.24 126.06
  C 14.09 123.33 14.96 119.72 17.61 117.26
  C 21.01 114.09 22.07 111.41 23.72 107.75
  C 25.50 103.81 28.77 102.44 31.09 99.04
  C 33.46 95.58 35.51 91.39 39.05 88.97
  Q 44.83 85.01 49.74 80.00
  C 51.53 78.17 52.31 76.55 52.19 73.78
  Q 51.86 66.05 55.40 59.10
  C 57.50 54.99 62.69 52.80 66.22 50.08
  C 71.23 46.21 72.35 41.38 76.01 36.70
  A 1.02 1.02 0.0 0 1 77.02 36.33
  Q 85.84 38.20 94.24 40.45
  C 98.11 41.48 102.24 38.23 105.76 36.92
  Q 113.70 33.97 121.24 30.11
  C 124.31 28.54 126.58 28.88 129.73 29.55
  C 132.06 30.04 134.11 30.02 136.39 30.24
  Q 136.82 30.28 136.49 30.56
  Q 135.93 31.04 135.34 31.39
  Q 133.94 32.25 134.36 33.52
  Q 134.58 34.20 135.63 35.07
  Q 139.23 38.04 142.82 41.53
  A 0.49 0.48 52.8 0 1 142.72 42.30
  C 140.22 43.67 129.22 48.34 134.48 52.50
  Q 138.04 55.31 141.53 57.94
  A 0.76 0.75 -54.6 0 1 141.70 58.97
  L 137.77 64.72
  Q 135.27 68.38 139.59 69.38
  L 147.73 71.26
  A 1.08 1.07 13.3 0 1 148.54 72.57
  Q 147.57 76.34 146.83 80.25
  C 146.36 82.78 146.69 84.24 149.61 84.24
  Q 154.25 84.23 158.60 83.23
  A 1.12 1.11 72.4 0 1 159.88 83.90
  Q 162.18 89.54 164.77 95.27
  C 167.89 102.17 175.45 89.55 177.04 87.27
  A 0.96 0.94 -63.6 0 1 178.09 86.91
  Q 183.36 88.54 189.00 89.92
  Q 192.56 90.80 193.59 88.37
  A 1.35 1.32 -40.2 0 0 193.67 87.53
  L 190.58 73.62
  A 0.80 0.80 0.0 0 1 191.22 72.66
  Q 195.72 71.81 200.28 70.77
  Q 203.11 70.12 201.74 67.39
  Q 201.34 66.59 201.04 65.73
  Q 200.89 65.32 201.28 65.51
  C 204.09 66.88 206.16 67.92 209.48 67.84
  Q 215.46 67.68 219.75 69.09
  C 223.88 70.44 232.87 74.83 236.19 70.19
  C 237.81 67.93 237.14 64.24 237.30 61.28
  A 0.86 0.85 79.8 0 1 237.80 60.55
  C 241.19 58.99 246.40 55.09 250.01 56.73
  C 255.55 59.25 261.14 62.13 267.08 63.52
  C 274.83 65.34 280.68 67.48 287.52 69.96
  C 291.23 71.30 297.36 68.27 300.68 66.49
  A 1.94 1.91 44.2 0 1 302.48 66.48
  C 308.51 69.59 314.56 70.03 321.25 70.17
  A 1.69 1.68 -89.7 0 1 322.90 71.85
  L 322.93 82.88
  A 2.54 2.53 73.4 0 1 321.79 85.00
  C 319.26 86.68 314.54 88.19 315.83 92.22
  C 318.08 99.25 321.79 106.24 326.41 112.45
  Q 328.87 115.76 329.22 117.26
  C 330.69 123.60 332.89 125.75 336.15 130.09
  C 339.60 134.67 339.59 144.12 340.09 149.71
  C 340.70 156.52 348.78 156.65 350.08 162.79
  C 351.47 169.33 352.66 173.28 357.57 177.48
  Q 362.82 181.96 367.08 187.44
  Q 370.36 191.66 373.16 193.12
  C 376.34 194.79 378.44 195.03 379.97 198.46
  C 381.30 201.45 381.50 205.27 385.75 205.67
  Q 389.18 206.00 395.60 204.76
  Q 398.48 204.21 405.05 202.01
  C 411.75 199.78 419.05 197.94 426.18 198.16
  A 0.42 0.42 0.0 0 1 426.57 198.70
  C 421.05 216.29 413.20 235.03 401.08 248.55
  C 392.43 258.20 381.30 266.65 368.83 275.82
  C 365.65 278.15 363.34 281.43 361.09 285.30
  Q 355.12 295.60 348.48 305.48
  Q 347.61 306.76 347.90 308.77
  A 1.03 1.03 0.0 0 0 348.38 309.52
  C 350.86 311.05 354.98 312.27 353.35 316.10
  C 351.61 320.18 350.72 323.31 353.65 327.09
  Q 356.80 331.17 360.27 334.97
  C 362.47 337.38 361.06 343.20 361.25 346.33
  Q 361.65 353.07 360.50 362.98
  C 359.06 375.47 349.73 377.61 340.03 381.56
  C 334.34 383.87 329.20 391.06 325.62 395.89
  C 321.48 401.48 327.44 406.04 331.05 409.40
  A 2.80 2.77 26.4 0 1 331.90 411.88
  C 331.18 416.31 330.79 420.92 326.57 423.60
  Q 322.23 426.36 317.94 429.18
  C 315.78 430.61 314.96 431.58 314.59 434.32
  Q 313.92 439.24 312.41 447.94
  C 311.21 454.82 303.67 456.06 301.21 461.84
  Q 298.47 468.27 293.38 473.14
  Q 285.93 480.25 272.72 491.96
  C 270.83 493.63 269.61 494.07 266.93 493.99
  Q 257.12 493.70 247.37 492.54
  C 244.32 492.17 240.78 495.79 237.97 497.16
  Q 237.49 497.39 237.05 497.11
  L 227.71 491.13
  A 1.43 1.38 -83.8 0 1 227.15 490.41
  C 225.56 485.71 225.93 478.99 225.88 472.87
  Z"
/>
</svg>
