<?xml version="1.0" encoding="utf-8"?>
<!-- Generator: Adobe Illustrator 27.3.1, SVG Export Plug-In . SVG Version: 6.00 Build 0)  -->
<svg version="1.1" xmlns="http://www.w3.org/2000/svg" xmlns:xlink="http://www.w3.org/1999/xlink" x="0px" y="0px"
	 viewBox="0 0 75.94 75.94" style="enable-background:new 0 0 75.94 75.94;" xml:space="preserve">
<style type="text/css">
	.st0{fill:#4D76BA;}
	.st1{fill:none;stroke:#4D76BA;stroke-width:3;stroke-miterlimit:10;}
	.st2{display:none;}
	.st3{display:inline;fill:#4D76BA;}
	.st4{display:inline;fill:none;stroke:#4D76BA;stroke-width:3;stroke-miterlimit:10;}
</style>
<g id="state_0">
	<path class="st0" d="M66.03,23.78c0.05,0.06,0.09,0.09,0.1,0.09C66.09,23.84,66.06,23.81,66.03,23.78z"/>
	<path class="st0" d="M66.13,25.39c0.03-0.03,0.06-0.07,0.09-0.1c0,0,0-0.01,0.01-0.01C66.17,25.34,66.13,25.37,66.13,25.39z"/>
	<path class="st0" d="M64.54,23.98c0.06-0.05,0.09-0.09,0.09-0.1C64.6,23.91,64.57,23.94,64.54,23.98z"/>
	<path class="st0" d="M64.74,25.48C64.75,25.49,64.75,25.49,64.74,25.48c-0.05-0.06-0.09-0.09-0.1-0.09
		C64.67,25.42,64.71,25.45,64.74,25.48z"/>
	<path class="st0" d="M29.03,48.01c2.14,0,4.28,0,6.41,0c1.87,0,3.76,0,5.63,0c1.23,0,2.46,0,3.69,0c0.25,0,0.5,0,0.75,0
		c0.51-0.01,0.92-0.25,1.21-0.68c0.06-0.09,0.12-0.19,0.18-0.28c0.79-1.25,1.59-2.51,2.38-3.76c1.14-1.8,2.29-3.59,3.42-5.39
		c0.75-1.18,1.49-2.35,2.24-3.53c0.02-0.03,0.03-0.05,0.05-0.08c0.16-0.22,0.26-0.49,0.25-0.78c0-0.07-0.03-0.13-0.04-0.19
		c-0.01-0.09-0.03-0.17-0.06-0.25c-0.02-0.07-0.06-0.13-0.09-0.19c-0.05-0.1-0.11-0.19-0.18-0.27c-0.05-0.05-0.1-0.09-0.16-0.14
		c-0.05-0.04-0.09-0.1-0.15-0.13c-0.02-0.01-0.05-0.01-0.07-0.02c-0.11-0.06-0.22-0.08-0.34-0.11c-0.05-0.01-0.09-0.02-0.13-0.03
		c-0.04,0-0.08-0.03-0.13-0.03c-0.79,0-1.58,0-2.37,0c-0.82,0-1.65,0-2.48,0c-0.24-0.34-0.46-0.67-0.7-1.01
		c-0.84-1.22-1.68-2.43-2.51-3.65c-0.79-1.16-1.59-2.32-2.39-3.47c-0.24-0.33-0.46-0.67-0.7-1.01c-0.05-0.07-0.1-0.14-0.14-0.2
		c-0.29-0.42-0.66-0.67-1.18-0.69c-0.54-0.01-1.08,0-1.62,0c-1.18,0-2.35,0-3.53,0c-1.5,0-3.01,0-4.51,0c-0.41,0-0.82,0-1.25,0
		c0-1.02,0-2.03,0-3.05c0-0.21,0-0.42,0-0.63c0-0.13-0.03-0.26-0.07-0.39c-0.07-0.32-0.21-0.61-0.43-0.85
		c-0.33-0.33-0.76-0.52-1.23-0.54c-0.06,0-0.12,0-0.19,0c-0.34,0-0.69,0-1.03,0c-0.93,0-1.87,0-2.81,0c-0.32,0-0.66-0.02-0.97,0.06
		c-0.77,0.22-1.26,0.93-1.29,1.72c0,0.06,0,0.13,0,0.19c0,0.86,0,1.71,0,2.57c0,0.31,0,0.61,0,0.92c-0.31,0-0.62,0-0.93,0
		c-0.03,0-0.06,0-0.09,0c-0.63,0-1.08,0.43-1.29,1c-0.56,1.55-1.13,3.11-1.69,4.66c-0.6,1.66-1.2,3.31-1.8,4.97
		c-0.13,0.18-0.21,0.4-0.23,0.63c-0.22,0.59-0.43,1.18-0.64,1.77c-0.08,0.22-0.16,0.44-0.25,0.67c-0.78,0-1.57-0.01-2.34,0
		c-0.01,0-0.03,0-0.04,0c-0.79,0-1.59,0.88-1.29,1.72c0.39,1.07,0.79,2.14,1.19,3.21c0.63,1.71,1.26,3.41,1.89,5.11
		c0.15,0.39,0.28,0.78,0.43,1.17c0.21,0.57,0.66,1,1.29,1c0.59,0,1.17,0,1.76,0c1.49,0,2.99,0,4.49,0
		C25.01,48.01,27.02,48.01,29.03,48.01z M18.79,34.87c0.4,0,0.8,0,1.21,0c1.74,0,3.47,0,5.21,0c2.1,0,4.19,0,6.28,0
		c1.82,0,3.63,0,5.45,0c-0.22,0.28-0.43,0.57-0.64,0.85c-0.02,0.03-0.04,0.06-0.06,0.08c-0.57,0-1.14,0-1.71,0
		c-1.88,0-3.77,0-5.65,0c-2.28,0-4.55,0-6.83,0c-1.2,0-2.39,0-3.6,0C18.56,35.5,18.67,35.18,18.79,34.87z M27.85,18.45v0.01
		c0-0.02-0.01-0.04-0.01-0.07C27.85,18.41,27.85,18.43,27.85,18.45z M27.85,19.38c0,0.91,0,1.82,0,2.73c-0.89,0-1.79,0-2.68,0
		c0-0.91,0-1.83,0-2.74c0.2,0,0.4,0.01,0.6,0.01C26.46,19.38,27.15,19.38,27.85,19.38z M22.18,25.51c0.08-0.23,0.17-0.46,0.25-0.68
		c0.35,0,0.72,0,1.07,0c1.58,0,3.17,0,4.76,0c1.91,0,3.84,0,5.75,0c1.67,0,3.33,0,4.99,0c0.59,0,1.18,0.01,1.78,0
		c0.63,0.91,1.25,1.81,1.87,2.72c1.06,1.53,2.11,3.06,3.16,4.6c-1.45,0-2.9,0-4.37,0c-0.49,0-0.97,0-1.46,0c-0.11,0-0.22,0-0.32,0
		c-0.01,0-0.03,0-0.04,0.01c-0.73,0-1.44,0-2.17,0c-1.74,0-3.47,0-5.21,0c-2.1,0-4.19,0-6.28,0c-1.82,0-3.63,0-5.45,0
		c-0.25,0-0.49,0-0.74,0C20.57,29.94,21.38,27.73,22.18,25.51z M17.66,45.3c-0.27-0.74-0.54-1.47-0.81-2.21
		c-0.56-1.52-1.13-3.04-1.69-4.57c0.43,0,0.85,0,1.29,0c0.04,0,0.07,0.01,0.11,0.01c0.98,0,1.97,0,2.95,0c2.2,0,4.41,0,6.61,0
		c2.29,0,4.57,0,6.85,0c1.27,0,2.54,0,3.82,0c0.03,0,0.06,0,0.1,0c0.31-0.01,0.57-0.1,0.81-0.29c0.15-0.12,0.26-0.27,0.37-0.42
		c0.23-0.29,0.44-0.59,0.66-0.88c0.52-0.69,1.04-1.38,1.56-2.07c0.78,0,1.54,0,2.32,0c1.57,0,3.14,0,4.72,0c0.36,0,0.72,0,1.08,0
		c0.06,0,0.11-0.01,0.17-0.02c0.97,0,1.95,0,2.92,0c-0.51,0.8-1.02,1.61-1.53,2.41c-0.8,1.27-1.61,2.53-2.41,3.8
		c-0.7,1.1-1.39,2.19-2.09,3.28c-0.2,0.31-0.4,0.63-0.6,0.95c-0.72,0-1.43,0-2.15,0c-2.3,0-4.6,0-6.91,0c-2.78,0-5.54,0-8.32,0
		c-2.39,0-4.79,0-7.18,0C19.4,45.3,18.53,45.3,17.66,45.3z"/>
	<path class="st0" d="M24.45,30.21c0.65,0,1.29,0,1.93,0c0.7,0,1.36-0.62,1.33-1.36c-0.03-0.74-0.59-1.36-1.33-1.36
		c-0.65,0-1.29,0-1.93,0c-0.7,0-1.36,0.62-1.33,1.36C23.15,29.59,23.7,30.21,24.45,30.21z"/>
	<path class="st0" d="M37.58,30.21c0.64,0,1.28,0,1.91,0c0.7,0,1.36-0.62,1.33-1.36c-0.03-0.74-0.58-1.36-1.33-1.36
		c-0.64,0-1.28,0-1.91,0c-0.7,0-1.36,0.62-1.33,1.36C36.28,29.59,36.84,30.21,37.58,30.21z"/>
	<path class="st0" d="M31.01,30.21c0.65,0,1.29,0,1.93,0c0.7,0,1.36-0.62,1.33-1.36c-0.03-0.74-0.59-1.36-1.33-1.36
		c-0.65,0-1.29,0-1.93,0c-0.7,0-1.36,0.62-1.33,1.36C29.71,29.59,30.26,30.21,31.01,30.21z"/>
	<path class="st0" d="M23.65,59.28h34.36c0.76,0,1.36-0.62,1.36-1.39s-0.61-1.39-1.36-1.39H23.65c-0.76,0-1.36,0.62-1.36,1.39
		S22.9,59.28,23.65,59.28z"/>
	<path class="st0" d="M11.86,53.87h15.82c0.76,0,1.36-0.62,1.36-1.39s-0.61-1.39-1.36-1.39H11.86c-0.76,0-1.36,0.62-1.36,1.39
		S11.1,53.87,11.86,53.87z"/>
	<path class="st1" d="M54.47,31.13c2.13,0,3.86-1.76,3.86-3.93c0-2.17-1.73-3.93-3.86-3.93c-2.13,0-3.86,1.76-3.86,3.93
		C50.61,29.37,52.34,31.13,54.47,31.13z"/>
</g>
<g id="_x31_" class="st2">
	<path class="st3" d="M66.13,23.99c0.05,0.06,0.09,0.09,0.1,0.09C66.2,24.05,66.17,24.02,66.13,23.99z"/>
	<path class="st3" d="M66.24,25.6c0.03-0.03,0.06-0.07,0.09-0.1c0,0,0-0.01,0.01-0.01C66.28,25.55,66.24,25.58,66.24,25.6z"/>
	<path class="st3" d="M64.65,24.19c0.06-0.05,0.09-0.09,0.09-0.1C64.71,24.12,64.68,24.15,64.65,24.19z"/>
	<path class="st3" d="M64.84,25.68C64.85,25.69,64.85,25.69,64.84,25.68c-0.05-0.06-0.09-0.09-0.1-0.09
		C64.78,25.62,64.82,25.65,64.84,25.68z"/>
	<path class="st3" d="M29.13,48.22c2.14,0,4.28,0,6.41,0c1.87,0,3.76,0,5.63,0c1.23,0,2.46,0,3.69,0c0.25,0,0.5,0,0.75,0
		c0.51-0.01,0.92-0.25,1.21-0.68c0.06-0.09,0.12-0.19,0.18-0.28c0.79-1.25,1.59-2.51,2.38-3.76c1.14-1.8,2.29-3.59,3.42-5.39
		c0.75-1.18,1.49-2.35,2.24-3.53c0.02-0.03,0.03-0.05,0.05-0.08c0.16-0.22,0.26-0.49,0.25-0.78c0-0.07-0.03-0.13-0.04-0.19
		c-0.01-0.09-0.03-0.17-0.06-0.25c-0.02-0.07-0.06-0.13-0.09-0.19c-0.05-0.1-0.11-0.19-0.18-0.27c-0.05-0.05-0.1-0.09-0.16-0.14
		c-0.05-0.04-0.09-0.1-0.15-0.13c-0.02-0.01-0.05-0.01-0.07-0.02c-0.11-0.06-0.22-0.08-0.34-0.11c-0.05-0.01-0.09-0.02-0.13-0.03
		c-0.04,0-0.08-0.03-0.13-0.03c-0.79,0-1.58,0-2.37,0c-0.82,0-1.65,0-2.48,0c-0.24-0.34-0.46-0.67-0.7-1.01
		c-0.84-1.22-1.68-2.43-2.51-3.65c-0.79-1.16-1.59-2.32-2.39-3.47c-0.24-0.33-0.46-0.67-0.7-1.01c-0.05-0.07-0.1-0.14-0.14-0.2
		c-0.29-0.42-0.66-0.67-1.18-0.69c-0.54-0.01-1.08,0-1.62,0c-1.18,0-2.35,0-3.53,0c-1.5,0-3.01,0-4.51,0c-0.41,0-0.82,0-1.25,0
		c0-1.02,0-2.03,0-3.05c0-0.21,0-0.42,0-0.63c0-0.13-0.03-0.26-0.07-0.39c-0.07-0.32-0.21-0.61-0.43-0.85
		c-0.33-0.33-0.76-0.52-1.23-0.54c-0.06,0-0.12,0-0.19,0c-0.34,0-0.69,0-1.03,0c-0.93,0-1.87,0-2.81,0c-0.32,0-0.66-0.02-0.97,0.06
		c-0.77,0.22-1.26,0.93-1.29,1.72c0,0.06,0,0.13,0,0.19c0,0.86,0,1.71,0,2.57c0,0.31,0,0.61,0,0.92c-0.31,0-0.62,0-0.93,0
		c-0.03,0-0.06,0-0.09,0c-0.63,0-1.08,0.43-1.29,1c-0.56,1.55-1.13,3.11-1.69,4.66c-0.6,1.66-1.2,3.31-1.8,4.97
		c-0.13,0.18-0.21,0.4-0.23,0.63c-0.22,0.59-0.43,1.18-0.64,1.77c-0.08,0.22-0.16,0.44-0.25,0.67c-0.78,0-1.57-0.01-2.34,0
		c-0.01,0-0.03,0-0.04,0c-0.79,0-1.59,0.88-1.29,1.72c0.39,1.07,0.79,2.14,1.19,3.21c0.63,1.71,1.26,3.41,1.89,5.11
		c0.15,0.39,0.28,0.78,0.43,1.17c0.21,0.57,0.66,1,1.29,1c0.59,0,1.17,0,1.76,0c1.49,0,2.99,0,4.49,0
		C25.11,48.22,27.12,48.22,29.13,48.22z M18.89,35.08c0.4,0,0.8,0,1.21,0c1.74,0,3.47,0,5.21,0c2.1,0,4.19,0,6.28,0
		c1.81,0,3.63,0,5.45,0c-0.22,0.28-0.43,0.57-0.64,0.85c-0.02,0.03-0.04,0.06-0.06,0.08c-0.57,0-1.14,0-1.71,0
		c-1.88,0-3.77,0-5.65,0c-2.28,0-4.55,0-6.83,0c-1.2,0-2.39,0-3.6,0C18.67,35.71,18.77,35.39,18.89,35.08z M27.96,18.66v0.01
		c0-0.02-0.01-0.04-0.01-0.07C27.96,18.62,27.96,18.64,27.96,18.66z M27.96,19.59c0,0.91,0,1.82,0,2.73c-0.89,0-1.79,0-2.68,0
		c0-0.91,0-1.83,0-2.74c0.2,0,0.4,0.01,0.6,0.01C26.56,19.59,27.26,19.59,27.96,19.59z M22.29,25.72c0.08-0.23,0.17-0.46,0.25-0.68
		c0.35,0,0.72,0,1.07,0c1.58,0,3.17,0,4.76,0c1.91,0,3.84,0,5.75,0c1.67,0,3.33,0,4.99,0c0.59,0,1.18,0.01,1.78,0
		c0.63,0.91,1.25,1.81,1.87,2.72c1.06,1.53,2.11,3.06,3.16,4.6c-1.45,0-2.9,0-4.37,0c-0.49,0-0.97,0-1.46,0c-0.11,0-0.22,0-0.32,0
		c-0.01,0-0.03,0-0.04,0.01c-0.73,0-1.44,0-2.17,0c-1.74,0-3.47,0-5.21,0c-2.1,0-4.19,0-6.28,0c-1.82,0-3.63,0-5.45,0
		c-0.25,0-0.49,0-0.74,0C20.68,30.15,21.48,27.94,22.29,25.72z M17.76,45.51c-0.27-0.74-0.54-1.47-0.81-2.21
		c-0.56-1.52-1.13-3.04-1.69-4.57c0.43,0,0.85,0,1.29,0c0.04,0,0.07,0.01,0.11,0.01c0.98,0,1.97,0,2.95,0c2.2,0,4.41,0,6.61,0
		c2.29,0,4.57,0,6.85,0c1.27,0,2.54,0,3.82,0c0.03,0,0.06,0,0.1,0c0.31-0.01,0.57-0.1,0.81-0.29c0.15-0.12,0.26-0.27,0.37-0.42
		c0.23-0.29,0.44-0.59,0.66-0.88c0.52-0.69,1.04-1.38,1.56-2.07c0.77,0,1.54,0,2.32,0c1.57,0,3.14,0,4.72,0c0.36,0,0.72,0,1.08,0
		c0.06,0,0.11-0.01,0.17-0.02c0.97,0,1.95,0,2.92,0c-0.51,0.8-1.02,1.61-1.53,2.41c-0.8,1.27-1.61,2.53-2.41,3.8
		c-0.7,1.1-1.39,2.19-2.09,3.28c-0.2,0.31-0.4,0.63-0.6,0.95c-0.72,0-1.43,0-2.15,0c-2.3,0-4.6,0-6.91,0c-2.78,0-5.54,0-8.32,0
		c-2.39,0-4.79,0-7.18,0C19.51,45.51,18.64,45.51,17.76,45.51z"/>
	<path class="st3" d="M24.55,30.41c0.65,0,1.29,0,1.93,0c0.7,0,1.36-0.62,1.33-1.36c-0.03-0.74-0.59-1.36-1.33-1.36
		c-0.65,0-1.29,0-1.93,0c-0.7,0-1.36,0.62-1.33,1.36C23.26,29.79,23.81,30.41,24.55,30.41z"/>
	<path class="st3" d="M37.69,30.41c0.64,0,1.28,0,1.91,0c0.7,0,1.36-0.62,1.33-1.36c-0.03-0.74-0.58-1.36-1.33-1.36
		c-0.64,0-1.28,0-1.91,0c-0.7,0-1.36,0.62-1.33,1.36C36.38,29.79,36.94,30.41,37.69,30.41z"/>
	<path class="st3" d="M31.12,30.41c0.65,0,1.29,0,1.93,0c0.7,0,1.36-0.62,1.33-1.36s-0.59-1.36-1.33-1.36c-0.65,0-1.29,0-1.93,0
		c-0.7,0-1.36,0.62-1.33,1.36C29.82,29.79,30.37,30.41,31.12,30.41z"/>
	<path class="st3" d="M10.96,59.48h34.36c0.76,0,1.36-0.62,1.36-1.39s-0.61-1.39-1.36-1.39H10.96c-0.76,0-1.36,0.62-1.36,1.39
		S10.21,59.48,10.96,59.48z"/>
	<path class="st3" d="M38.96,54.08h15.82c0.76,0,1.36-0.62,1.36-1.39c0-0.77-0.61-1.39-1.36-1.39H38.96c-0.76,0-1.36,0.62-1.36,1.39
		C37.6,53.46,38.21,54.08,38.96,54.08z"/>
	<path class="st4" d="M54.57,23.34c2.13,0,3.86-1.76,3.86-3.93s-1.73-3.93-3.86-3.93c-2.13,0-3.86,1.76-3.86,3.93
		S52.44,23.34,54.57,23.34z"/>
</g>
</svg>
