<?xml version="1.0" encoding="utf-8"?>
<!-- Generator: Adobe Illustrator 27.3.1, SVG Export Plug-In . SVG Version: 6.00 Build 0)  -->
<svg version="1.1" xmlns="http://www.w3.org/2000/svg" xmlns:xlink="http://www.w3.org/1999/xlink" x="0px" y="0px"
	 viewBox="0 0 75.94 75.94" style="enable-background:new 0 0 75.94 75.94;" xml:space="preserve">
<style type="text/css">
	.st0{fill:#4D76BA;}
	.st1{display:none;}
	.st2{display:inline;fill:#4D76BA;}
	.st3{display:inline;fill:none;stroke:#4D76BA;stroke-width:3;stroke-miterlimit:10;}
</style>
<g id="state_0">
	<path class="st0" d="M56.92,39.63c-0.09-0.12-0.19-0.21-0.32-0.29c-0.01,0-0.01-0.01-0.02-0.02c-0.86-0.54-1.72-1.09-2.57-1.63
		c-1.37-0.87-2.74-1.74-4.11-2.61c-0.12-0.08-0.24-0.15-0.36-0.23c0-0.35,0-0.7,0-1.04c0-0.9,0.02-1.81,0-2.71c0-0.01,0-0.03,0-0.04
		c0,0,0,0,0-0.01c0.02-0.32-0.09-0.64-0.34-0.87c-1.08-0.95-2.15-1.91-3.21-2.86c-1.71-1.53-3.41-3.04-5.12-4.57
		c-0.39-0.35-0.78-0.7-1.17-1.04c-0.51-0.46-1.16-0.46-1.68,0c-0.56,0.5-1.12,0.99-1.67,1.49c-1.19,1.06-2.38,2.12-3.57,3.19
		c-1.09,0.98-2.2,1.95-3.29,2.94c-0.29,0.26-0.58,0.51-0.86,0.77c-0.3,0.27-0.46,0.63-0.46,1.04c0,0.68,0,1.36,0,2.03
		c0,0.56,0,1.12,0,1.69c-0.67,0.42-1.32,0.84-1.99,1.26c-1.37,0.87-2.74,1.74-4.11,2.61c-0.32,0.21-0.63,0.4-0.95,0.6
		c-0.08,0.05-0.15,0.12-0.22,0.19c-0.02,0.02-0.03,0.04-0.05,0.06c-0.06,0.07-0.12,0.15-0.17,0.24c-0.04,0.06-0.06,0.12-0.08,0.19
		c-0.04,0.11-0.06,0.21-0.07,0.32c0,0.02-0.01,0.03-0.01,0.04c0,1.45,0,2.92,0,4.37c0,2.33,0,4.65,0,6.98c0,0.54,0,1.07,0,1.61
		c0,0.65,0.54,1.21,1.19,1.21c0.87,0,1.72,0,2.58,0c1.37,0,2.73,0,4.1,0c0.29,0,0.58,0,0.87,0c0.03,0,0.05,0.02,0.08,0.02
		c0.63,0,1.26,0,1.9,0c1.51,0,3.03,0,4.54,0c1.83,0,3.66,0,5.49,0c1.58,0,3.17,0,4.76,0c0.77,0,1.54,0.02,2.3,0
		c0.01,0,0.03,0,0.03,0c0.03,0,0.06-0.02,0.1-0.02c0.83,0,1.66,0,2.5,0c1.37,0,2.73,0,4.1,0c0.32,0,0.63,0,0.95,0
		c0.64,0,1.19-0.55,1.19-1.21c0-1.45,0-2.92,0-4.37c0-2.33,0-4.65,0-6.98c0-0.54,0-1.07,0-1.61c0-0.25-0.09-0.5-0.24-0.7
		C56.93,39.66,56.93,39.64,56.92,39.63z M22.91,52.13c0-1.05,0-2.12,0-3.17c0-2.33,0-4.65,0-6.98c0-0.31,0-0.62,0-0.94
		c0.67-0.42,1.32-0.84,1.99-1.27c1.09-0.69,2.17-1.38,3.26-2.07c0,1.29,0,2.56,0,3.84c0,0.21,0,0.42,0,0.63c0,1.5,0,3.01,0,4.51
		c0,0.16,0,0.33,0,0.49c0,1.32,0,2.64,0,3.96c0,0.32,0,0.65-0.01,0.98c-0.46,0-0.93,0-1.39,0C25.48,52.13,24.19,52.13,22.91,52.13z
		 M35.9,42.88c0.04-0.25,0.1-0.49,0.19-0.73c0.1-0.21,0.19-0.41,0.32-0.59c0.03-0.04,0.05-0.08,0.08-0.12
		c0.01-0.01,0.01-0.01,0.02-0.02c0.08-0.09,0.16-0.19,0.25-0.27c0.09-0.09,0.18-0.17,0.26-0.25c0.01-0.01,0.02-0.02,0.03-0.02
		c0.03-0.03,0.07-0.05,0.11-0.08c0.18-0.12,0.38-0.22,0.58-0.31c0.24-0.09,0.48-0.15,0.73-0.21c0.27-0.03,0.53-0.03,0.81,0
		c0.25,0.04,0.49,0.11,0.72,0.2c0.2,0.1,0.4,0.2,0.58,0.32c0.03,0.03,0.08,0.05,0.11,0.08c0.01,0.01,0.01,0.01,0.02,0.02
		c0.09,0.08,0.18,0.16,0.26,0.25c0.09,0.09,0.17,0.18,0.25,0.27c0.01,0.01,0.02,0.02,0.02,0.03c0.03,0.04,0.05,0.07,0.07,0.11
		c0.12,0.19,0.22,0.38,0.31,0.59c0.09,0.25,0.16,0.5,0.2,0.77c0.02,0.13,0.03,0.26,0.03,0.39c0,1.13,0,2.28,0,3.41
		c0,1.79,0,3.59,0,5.38c0,0.01,0,0.02,0,0.03c-0.54,0-1.09,0-1.64,0c-1.44,0-2.88,0-4.33,0c0-0.78,0-1.55,0-2.34
		c0-1.82,0-3.64,0-5.46C35.88,43.85,35.86,43.36,35.9,42.88z M44.21,52.13c0-0.73,0-1.46,0-2.2c0-1.79,0-3.59,0-5.38
		c0-0.41,0-0.83,0-1.24c0,0,0,0,0-0.01c-0.01-1.39-0.53-2.72-1.46-3.75c-0.92-1.02-2.2-1.58-3.54-1.7
		c-2.63-0.22-5.21,1.79-5.62,4.45c-0.16,1.02-0.1,2.08-0.1,3.11c0,1.59,0,3.19,0,4.77c0,0.64,0,1.29,0,1.93c-0.6,0-1.21,0-1.81,0
		c-0.39,0-0.76-0.01-1.15-0.01c0-0.33,0-0.67,0-1c0-1.78,0-3.55,0-5.34c0-2.14,0-4.28,0-6.43c0-1.86,0-3.7,0-5.56
		c0-0.73,0.01-1.47,0-2.2c0.95-0.85,1.91-1.7,2.86-2.55c1.71-1.53,3.41-3.04,5.12-4.57c0.11-0.1,0.22-0.2,0.33-0.29
		c0.8,0.71,1.58,1.42,2.38,2.12c1.71,1.53,3.41,3.04,5.12,4.57c0.27,0.24,0.54,0.48,0.82,0.73c0,0.56,0,1.12,0,1.68
		c0,0.75,0,1.51,0,2.26c0,0.59,0,1.18,0,1.77c0,0.44,0,0.87,0,1.31c0,0.98,0,1.97,0,2.95c0,1.16,0,2.32,0,3.48c0,0.55,0,1.11,0,1.66
		c0,1.3,0,2.6,0,3.9c0,0.51-0.01,1.03-0.01,1.53c-0.24,0-0.46,0-0.7,0C45.72,52.13,44.97,52.13,44.21,52.13z M49.55,52.13
		c0-0.19,0-0.37,0-0.55c0-1.42,0-2.84,0-4.26c0-1.71,0-3.43,0-5.14c0-1.48,0-2.97,0-4.45v-0.01c0.26,0.17,0.53,0.33,0.79,0.5
		c1.37,0.87,2.74,1.74,4.11,2.61c0.12,0.08,0.24,0.15,0.36,0.22c0,1.24,0,2.47,0,3.71c0,2.33,0,4.65,0,6.98c0,0.13,0,0.26,0,0.39
		c-0.46,0-0.93,0-1.4,0C52.12,52.13,50.84,52.13,49.55,52.13z"/>
	<path class="st0" d="M42.46,31.5c-0.01-0.71-0.21-1.45-0.61-2.03c-0.46-0.67-1.07-1.14-1.83-1.43c-1.33-0.51-2.99-0.04-3.88,1.07
		c-0.52,0.64-0.8,1.36-0.88,2.18c-0.06,0.71,0.13,1.49,0.5,2.11c0.35,0.6,0.88,1.12,1.51,1.42c0.76,0.36,1.54,0.46,2.36,0.29
		c1.57-0.3,2.68-1.76,2.8-3.34c0.02-0.08,0.03-0.16,0.03-0.25C42.46,31.5,42.46,31.5,42.46,31.5z M39.81,30.7
		c-0.02-0.03-0.03-0.04-0.03-0.04C39.78,30.67,39.79,30.68,39.81,30.7z M38.07,30.54c-0.03,0.02-0.04,0.04-0.04,0.04
		C38.03,30.58,38.05,30.56,38.07,30.54z M37.92,32.32c0.02,0.03,0.03,0.04,0.03,0.04C37.94,32.36,37.93,32.33,37.92,32.32z
		 M39.65,32.48c0.03-0.02,0.04-0.04,0.04-0.04S39.67,32.46,39.65,32.48z M39.61,32.5c-0.08,0.05-0.17,0.1-0.25,0.14
		c-0.11,0.04-0.21,0.06-0.32,0.09c-0.11,0.01-0.23,0.01-0.34,0c-0.11-0.03-0.22-0.05-0.32-0.09c-0.08-0.04-0.16-0.08-0.24-0.12
		c-0.04-0.04-0.1-0.08-0.14-0.12c-0.04-0.04-0.07-0.08-0.11-0.12c-0.05-0.08-0.1-0.17-0.14-0.26c-0.04-0.11-0.06-0.21-0.09-0.33
		c-0.01-0.12-0.01-0.23,0-0.35c0.03-0.11,0.05-0.22,0.09-0.33c0.04-0.08,0.08-0.16,0.12-0.24c0.04-0.04,0.08-0.1,0.12-0.14
		c0.03-0.04,0.08-0.07,0.11-0.11c0.08-0.05,0.17-0.1,0.25-0.14c0.11-0.04,0.21-0.06,0.32-0.09c0.11-0.01,0.23-0.01,0.34,0
		c0.1,0.03,0.22,0.05,0.32,0.09c0.08,0.04,0.16,0.08,0.24,0.12c0.04,0.04,0.1,0.08,0.14,0.12c0.03,0.04,0.07,0.08,0.11,0.12
		c0.05,0.08,0.1,0.17,0.14,0.26c0.04,0.12,0.08,0.26,0.1,0.38c0,0.04,0.01,0.08,0.01,0.12s-0.01,0.08-0.01,0.12
		c-0.03,0.13-0.06,0.26-0.1,0.38c-0.04,0.08-0.08,0.16-0.12,0.24c-0.04,0.04-0.08,0.1-0.12,0.14C39.69,32.43,39.64,32.47,39.61,32.5
		z"/>
</g>
<g id="_x31_" class="st1">
	<path class="st2" d="M17.72,37.9c0.1-0.13,0.23-0.24,0.37-0.32c0.01,0,0.01-0.01,0.02-0.02c1.01-0.61,2.01-1.21,3.02-1.82
		c1.6-0.97,3.21-1.94,4.82-2.9c0.14-0.09,0.28-0.17,0.42-0.26c0-0.39,0-0.78,0-1.16c0-1-0.02-2.02,0-3.02c0-0.01,0-0.03,0-0.04
		c0,0,0,0,0-0.01c-0.02-0.36,0.1-0.72,0.4-0.96c1.26-1.06,2.52-2.13,3.77-3.19c2-1.7,4-3.39,6.01-5.09
		c0.46-0.39,0.91-0.78,1.38-1.16c0.6-0.51,1.37-0.51,1.97,0c0.66,0.56,1.31,1.1,1.96,1.66c1.4,1.18,2.79,2.37,4.19,3.55
		c1.28,1.09,2.58,2.18,3.86,3.27c0.34,0.29,0.68,0.57,1.01,0.86c0.35,0.3,0.54,0.71,0.54,1.16c0,0.76,0,1.51,0,2.27
		c0,0.63,0,1.25,0,1.88c0.78,0.47,1.55,0.94,2.33,1.4c1.6,0.97,3.21,1.94,4.82,2.9c0.37,0.23,0.74,0.45,1.11,0.67
		c0.09,0.06,0.17,0.13,0.26,0.21c0.02,0.02,0.04,0.05,0.06,0.07c0.07,0.08,0.14,0.17,0.2,0.27c0.04,0.07,0.07,0.14,0.09,0.21
		c0.04,0.12,0.07,0.24,0.08,0.36c0,0.02,0.01,0.03,0.01,0.05c0,1.62,0,3.25,0,4.87c0,2.6,0,5.18,0,7.78c0,0.6,0,1.19,0,1.79
		c0,0.73-0.64,1.35-1.4,1.35c-1.02,0-2.02,0-3.03,0c-1.6,0-3.2,0-4.81,0c-0.34,0-0.68,0-1.02,0c-0.03,0-0.06,0.02-0.09,0.02
		c-0.74,0-1.48,0-2.23,0c-1.78,0-3.55,0-5.32,0c-2.15,0-4.29,0-6.44,0c-1.86,0-3.72,0-5.59,0c-0.9,0-1.81,0.02-2.7,0
		c-0.01,0-0.03,0-0.04,0c-0.04,0-0.07-0.02-0.11-0.02c-0.98,0-1.95,0-2.93,0c-1.6,0-3.2,0-4.81,0c-0.37,0-0.74,0-1.11,0
		c-0.75,0-1.4-0.62-1.4-1.35c0-1.62,0-3.25,0-4.87c0-2.6,0-5.18,0-7.78c0-0.6,0-1.19,0-1.79c0-0.28,0.1-0.56,0.28-0.79
		C17.7,37.93,17.71,37.91,17.72,37.9z M57.6,51.83c0-1.17,0-2.36,0-3.53c0-2.6,0-5.18,0-7.78c0-0.35,0-0.7,0-1.04
		c-0.78-0.47-1.55-0.94-2.33-1.41c-1.27-0.77-2.55-1.54-3.82-2.31c0,1.43,0,2.86,0,4.28c0,0.24,0,0.47,0,0.71c0,1.67,0,3.35,0,5.02
		c0,0.18,0,0.37,0,0.55c0,1.47,0,2.94,0,4.42c0,0.36,0,0.73,0.01,1.09c0.54,0,1.09,0,1.63,0C54.59,51.83,56.1,51.83,57.6,51.83z
		 M42.36,41.52c-0.05-0.28-0.12-0.55-0.23-0.82c-0.11-0.23-0.23-0.46-0.37-0.66c-0.03-0.04-0.06-0.09-0.09-0.13
		c-0.01-0.01-0.01-0.01-0.02-0.02c-0.09-0.1-0.18-0.21-0.29-0.3c-0.1-0.1-0.21-0.19-0.31-0.28c-0.01-0.01-0.02-0.02-0.03-0.02
		c-0.04-0.03-0.08-0.06-0.12-0.09c-0.22-0.14-0.44-0.25-0.68-0.35c-0.28-0.1-0.56-0.17-0.85-0.23c-0.32-0.03-0.63-0.03-0.94,0
		c-0.29,0.05-0.57,0.12-0.84,0.22c-0.24,0.11-0.47,0.22-0.68,0.36c-0.04,0.03-0.09,0.06-0.13,0.09c-0.01,0.01-0.01,0.01-0.02,0.02
		c-0.1,0.09-0.22,0.18-0.31,0.28c-0.1,0.1-0.2,0.2-0.29,0.3c-0.01,0.01-0.02,0.02-0.02,0.03c-0.03,0.04-0.06,0.08-0.08,0.12
		c-0.14,0.21-0.26,0.43-0.36,0.66c-0.1,0.28-0.18,0.56-0.24,0.86c-0.02,0.15-0.03,0.29-0.03,0.44c0,1.26,0,2.54,0,3.8c0,2,0,4,0,6
		c0,0.01,0,0.02,0,0.03c0.64,0,1.27,0,1.92,0c1.69,0,3.38,0,5.07,0c0-0.87,0-1.73,0-2.61c0-2.03,0-4.06,0-6.09
		C42.39,42.6,42.41,42.06,42.36,41.52z M32.62,51.83c0-0.82,0-1.63,0-2.45c0-2,0-4,0-6c0-0.46,0-0.93,0-1.38c0,0,0,0,0-0.01
		c0.01-1.55,0.63-3.03,1.71-4.18c1.08-1.13,2.58-1.76,4.15-1.89c3.08-0.25,6.11,2,6.59,4.96c0.18,1.13,0.11,2.32,0.11,3.46
		c0,1.77,0,3.55,0,5.32c0,0.72,0,1.43,0,2.15c0.71,0,1.42,0,2.13,0c0.45,0,0.89-0.01,1.35-0.01c0-0.37,0-0.75,0-1.11
		c0-1.98,0-3.96,0-5.95c0-2.39,0-4.78,0-7.16c0-2.07,0-4.13,0-6.2c0-0.82-0.01-1.64,0-2.46c-1.12-0.95-2.24-1.9-3.36-2.85
		c-2-1.7-4-3.39-6.01-5.09c-0.13-0.11-0.26-0.22-0.39-0.33c-0.93,0.79-1.86,1.58-2.79,2.36c-2,1.7-4,3.39-6.01,5.09
		c-0.32,0.27-0.64,0.54-0.97,0.82c0,0.63,0,1.24,0,1.87c0,0.84,0,1.68,0,2.52c0,0.66,0,1.31,0,1.97c0,0.49,0,0.97,0,1.46
		c0,1.09,0,2.2,0,3.29c0,1.29,0,2.59,0,3.88c0,0.62,0,1.23,0,1.85c0,1.45,0,2.9,0,4.35c0,0.57,0.01,1.14,0.01,1.71
		c0.28,0,0.54,0,0.82,0C30.85,51.83,31.73,51.83,32.62,51.83z M26.35,51.83c0-0.21,0-0.41,0-0.62c0-1.58,0-3.16,0-4.75
		c0-1.91,0-3.82,0-5.73c0-1.65,0-3.31,0-4.96v-0.01c-0.31,0.19-0.62,0.37-0.92,0.56c-1.6,0.97-3.21,1.94-4.82,2.9
		c-0.14,0.09-0.28,0.17-0.42,0.25c0,1.38,0,2.76,0,4.14c0,2.6,0,5.18,0,7.78c0,0.15,0,0.29,0,0.44c0.54,0,1.09,0,1.64,0
		C23.34,51.83,24.84,51.83,26.35,51.83z"/>
	<path class="st2" d="M42.99,29.12c-0.01-0.8-0.24-1.63-0.69-2.28c-0.52-0.75-1.2-1.28-2.05-1.6c-1.49-0.57-3.35-0.05-4.35,1.2
		c-0.58,0.72-0.89,1.52-0.98,2.44c-0.07,0.8,0.15,1.67,0.56,2.36c0.39,0.67,0.99,1.26,1.7,1.59c0.85,0.4,1.73,0.51,2.65,0.33
		c1.76-0.34,3-1.97,3.14-3.74c0.02-0.09,0.03-0.18,0.03-0.28C42.99,29.13,42.99,29.12,42.99,29.12z M40.01,28.23
		c-0.02-0.03-0.04-0.05-0.04-0.05C39.98,28.19,39.99,28.21,40.01,28.23z M38.06,28.05c-0.03,0.02-0.05,0.04-0.05,0.04
		C38.02,28.09,38.04,28.07,38.06,28.05z M37.89,30.04c0.02,0.03,0.04,0.05,0.04,0.05C37.92,30.09,37.9,30.06,37.89,30.04z
		 M39.84,30.22c0.03-0.02,0.05-0.04,0.05-0.04S39.86,30.2,39.84,30.22z M39.79,30.25c-0.09,0.06-0.19,0.11-0.28,0.16
		c-0.12,0.04-0.24,0.07-0.36,0.1c-0.13,0.01-0.26,0.01-0.38,0c-0.12-0.03-0.25-0.06-0.36-0.1c-0.09-0.05-0.18-0.09-0.26-0.14
		c-0.05-0.05-0.11-0.09-0.16-0.14c-0.04-0.04-0.08-0.09-0.12-0.13c-0.06-0.09-0.11-0.19-0.16-0.29c-0.04-0.12-0.07-0.24-0.1-0.37
		c-0.01-0.13-0.01-0.26,0-0.39c0.03-0.12,0.06-0.25,0.1-0.37c0.05-0.09,0.09-0.18,0.14-0.27c0.05-0.05,0.09-0.11,0.14-0.16
		c0.04-0.04,0.09-0.08,0.13-0.12c0.09-0.06,0.19-0.11,0.28-0.16c0.12-0.04,0.24-0.07,0.36-0.1c0.13-0.01,0.26-0.01,0.38,0
		c0.12,0.03,0.25,0.06,0.36,0.1c0.09,0.05,0.18,0.09,0.26,0.14c0.05,0.05,0.11,0.09,0.16,0.14c0.04,0.04,0.08,0.09,0.12,0.13
		c0.06,0.09,0.11,0.19,0.16,0.29c0.05,0.14,0.09,0.29,0.12,0.43c0,0.04,0.01,0.09,0.01,0.13c0,0.04-0.01,0.09-0.01,0.13
		c-0.03,0.15-0.07,0.29-0.12,0.43c-0.05,0.09-0.09,0.18-0.14,0.27c-0.05,0.05-0.09,0.11-0.14,0.16
		C39.88,30.17,39.83,30.21,39.79,30.25z"/>
	<path class="st3" d="M62.37,25.55c2.13,0,3.86-1.76,3.86-3.93s-1.73-3.93-3.86-3.93c-2.13,0-3.86,1.76-3.86,3.93
		S60.24,25.55,62.37,25.55z"/>
</g>
</svg>
