<?xml version="1.0" encoding="utf-8"?>
<!-- Generator: Adobe Illustrator 27.3.1, SVG Export Plug-In . SVG Version: 6.00 Build 0)  -->
<svg version="1.1" xmlns="http://www.w3.org/2000/svg" xmlns:xlink="http://www.w3.org/1999/xlink" x="0px" y="0px"
	 viewBox="0 0 62.8 62.8" style="enable-background:new 0 0 62.8 62.8;" xml:space="preserve">
<style type="text/css">
	.st0{display:none;}
	.st1{display:inline;fill:#4D76BA;}
	.st2{display:inline;fill:#FFFFFF;filter:url(#Adobe_OpacityMaskFilter);}
	.st3{display:inline;}
	
		.st4{display:inline;mask:url(#path-2-outside-1_1_2212_00000093876576021120644400000004624631415915499946_);fill:none;stroke:#F2F1F1;stroke-width:8;}
	.st5{fill:#4D76BA;}
	.st6{fill:#FFFFFF;filter:url(#Adobe_OpacityMaskFilter_00000070808375377428377180000014935297870962734753_);}
	
		.st7{mask:url(#path-1-outside-1_1_2212_00000111890797470372934360000004090344317249460656_);fill:none;stroke:#F2F1F1;stroke-width:8;}
</style>
<g id="Layer_2" class="st0">
	<path class="st1" d="M33.66,22.37c-0.33-0.4-0.82-0.74-1.33-0.94v-1.4v-4.16v-0.95c0-0.09-0.01-0.19-0.03-0.28
		c-0.08-1.23-0.57-2.43-1.44-3.3c-0.92-0.92-2.17-1.43-3.45-1.44c-0.46,0-0.93,0-1.38,0h-3.38h-4.25H14.3h-2.77h-0.57
		c-0.91,0-1.86,0.25-2.64,0.76c-1.07,0.7-1.9,1.81-2.19,3.09C6.02,14.27,6,14.79,6,15.33v3.73v2.39c-0.67,0.26-1.23,0.73-1.65,1.33
		c-0.5,0.71-0.6,1.56-0.6,2.41v4.11v0.31c0,0.01,0,0.02,0,0.03v3.4v0.48c0,0.37,0.16,0.76,0.41,1.02c0.25,0.25,0.65,0.44,1,0.42
		c0.36-0.02,0.75-0.14,1-0.42c0.26-0.28,0.41-0.63,0.41-1.02v-2.45h1.36h3.01h3.68h4.02h4.06h3.8h3.21h2.02v1.97v0.48
		c0,0.37,0.16,0.76,0.42,1.02c0.25,0.25,0.65,0.44,1,0.42c0.36-0.02,0.75-0.14,1-0.42c0.26-0.28,0.41-0.63,0.41-1.02v-3.4v-0.43
		c0-0.02,0.01-0.04,0.01-0.06v-4.26v-0.6c0-0.1-0.01-0.21-0.04-0.31C34.46,23.67,34.16,22.97,33.66,22.37z M13.57,20.16
		c0-0.1,0.01-0.2,0.01-0.29c0.01-0.04,0.02-0.08,0.03-0.12c0.02-0.04,0.04-0.07,0.06-0.11c0.03-0.03,0.06-0.06,0.08-0.08
		c0.03-0.02,0.07-0.04,0.11-0.06c0.04-0.01,0.09-0.03,0.13-0.04c0.33-0.02,0.67-0.01,0.99-0.01h2.47h0.27v1.77h-0.36h-1.21h-0.02
		h-2.28h-0.3v-1.06H13.57z M23.09,19.44c0.4,0,0.81-0.02,1.22,0.01c0.04,0.01,0.09,0.02,0.13,0.04c0.04,0.02,0.07,0.04,0.11,0.06
		c0.03,0.03,0.06,0.06,0.09,0.08c0.02,0.03,0.04,0.07,0.06,0.11c0.01,0.05,0.03,0.09,0.04,0.14c0.01,0.28,0.01,0.56,0.01,0.84v0.49
		h-1.78h-1.54h-0.57h-0.27v-1.77H23.09z M11.25,12.8h1.16h4h4.89h4.19c0.64,0,1.27,0,1.9,0c0.08,0,0.16,0.01,0.23,0.01
		c0.21,0.04,0.4,0.1,0.59,0.17c0.16,0.08,0.31,0.17,0.46,0.28c0.13,0.11,0.25,0.23,0.35,0.36c0.1,0.15,0.2,0.31,0.27,0.47
		c0.07,0.2,0.13,0.4,0.17,0.6c0.01,0.08,0.01,0.15,0.01,0.23v2.61v3.66h-0.66h-0.26h-1v-0.65c0-0.26,0.01-0.53,0-0.79
		c-0.04-0.55-0.17-1.05-0.43-1.53c-0.26-0.46-0.62-0.82-1.04-1.13c-0.66-0.48-1.44-0.57-2.23-0.57h-1.79h-5.29h-2.05
		c-0.49,0-0.94-0.01-1.42,0.08c-0.89,0.16-1.74,0.83-2.17,1.63c-0.3,0.57-0.42,1.18-0.42,1.82v1.13h-0.45H8.79v-1.29v-4.21
		c0-0.34,0-0.68,0.02-1.01c0.04-0.2,0.09-0.4,0.16-0.6c0.08-0.16,0.17-0.32,0.27-0.47c0.11-0.13,0.23-0.25,0.35-0.36
		c0.15-0.11,0.3-0.2,0.46-0.28c0.19-0.07,0.37-0.12,0.56-0.16C10.85,12.82,11.05,12.8,11.25,12.8z M27.35,28.18h-3.68h-4.02h-4.06
		h-3.8H8.58H6.55v-2.92c0-0.18,0-0.35,0-0.53c0.01-0.07,0.03-0.14,0.06-0.22c0.03-0.05,0.05-0.1,0.08-0.14
		c0.04-0.04,0.08-0.09,0.13-0.13c0.05-0.03,0.1-0.06,0.14-0.08c0.07-0.02,0.14-0.04,0.21-0.06c0.06,0,0.11-0.01,0.17-0.01
		c0.02,0,0.04,0.01,0.05,0.01H8h1.74h2.53h3.08h3.37h3.42h3.18h2.69h1.93c0.3,0,0.61,0,0.92,0h0.04c0.01,0,0.02,0,0.03,0h0.14
		c0.02,0,0.03,0,0.05,0c0.07,0.02,0.15,0.04,0.22,0.06c0.05,0.03,0.1,0.05,0.14,0.08c0.04,0.04,0.09,0.08,0.13,0.13
		c0.03,0.05,0.06,0.09,0.08,0.14c0.02,0.06,0.04,0.12,0.05,0.18c0,0.02,0,0.04,0,0.06v3.42h-1.36L27.35,28.18L27.35,28.18z"/>
	<path class="st1" d="M53.05,46.89v-0.15v-4.01v-4.84V33.7c0-0.18,0-0.36,0-0.54c0.34-0.03,0.7-0.19,0.94-0.44
		c0.26-0.27,0.46-0.7,0.44-1.08c-0.02-0.39-0.15-0.81-0.44-1.08c-0.29-0.27-0.66-0.45-1.06-0.45h-1.37H50.6h-1.1h-2.52v-2.69v-1.43
		c0.34-0.04,0.69-0.19,0.92-0.43c0.26-0.27,0.46-0.7,0.44-1.08c-0.02-0.39-0.15-0.81-0.44-1.08c-0.29-0.27-0.66-0.45-1.06-0.45
		h-1.36h-0.43h-1.08h-3.19h-0.44h-4.4h-0.36h-3.43c-0.34,0-0.69,0-1.03,0c-0.27,0-0.55,0-0.82,0h-0.03c-0.44,0-0.89-0.01-1.33,0
		H28.9c-0.38,0-0.79,0.17-1.06,0.45c-0.26,0.27-0.46,0.7-0.44,1.08c0.02,0.4,0.15,0.81,0.44,1.08c0.26,0.24,0.57,0.4,0.92,0.43v0.86
		v2.57v0.69h-0.55h-0.78h-2.48h-0.73h-0.03h-1.38c-0.38,0-0.79,0.17-1.06,0.45c-0.26,0.27-0.45,0.7-0.44,1.08
		c0.02,0.4,0.15,0.81,0.44,1.08c0.26,0.25,0.58,0.4,0.94,0.44v0.15v4.01v4.84v4.19c0,0.18,0,0.36,0,0.54
		c-0.34,0.03-0.7,0.19-0.94,0.43c-0.26,0.27-0.46,0.7-0.44,1.08c0.02,0.39,0.15,0.81,0.44,1.08c0.29,0.28,0.66,0.45,1.06,0.45h0.8
		h0.54c0.01,0,0.02,0,0.03,0h2.06h3.27h0.73c0.01,0,0.02,0,0.03,0h1.51h3.63h4.4h3.8c0.62,0,1.24,0.01,1.84,0h0.03
		c0.01,0,0.02,0,0.03,0h2.02h3.27h0.76c0.01,0,0.02,0,0.03,0h0.12c0.39,0,0.78,0,1.18,0h0.05c0.38,0,0.79-0.17,1.06-0.45
		c0.26-0.27,0.46-0.7,0.44-1.08c-0.02-0.4-0.15-0.81-0.44-1.08C53.73,47.08,53.41,46.93,53.05,46.89z M39.44,43.71v3.17h-0.58H38.4
		h-2.11v-0.87v-3.17h0.58h2.58V43.71z M48.31,33.18h1.74v0.14v4.01v4.84v4.19c0,0.18,0,0.35,0,0.53h-0.13h-2.95v-0.84v-2.57v-3.15
		v-3.44v-3.47V33.2h0.55h0.79V33.18z M34.96,26.02h0.44h4.4h0.36h3.43c0.13,0,0.25,0,0.37,0v0.85v2.57v2.18c0,0.01,0,0.03,0,0.04
		v1.67v4.01v4.84v4.19c0,0.18,0,0.35,0,0.53h-1.23h-0.29v-0.87V42.2v-0.88c0-0.15-0.03-0.3-0.08-0.45
		c-0.07-0.24-0.18-0.46-0.36-0.63c-0.26-0.27-0.69-0.47-1.06-0.45h-2.08h-3.32h-0.77c-0.81,0-1.5,0.7-1.5,1.53v2.4v3.17h-1.52v-0.13
		v-4.01v-4.84v-4.19c0-0.68,0.01-1.35,0-2.03v-0.03c0-0.01,0-0.02,0-0.03v-1.45v-2.74v-1.42h0.01H34.96z M28.76,33.18v2.84v3.47
		v3.24v2.74v1.41h-2.25h-0.82v-0.13v-4.01V37.9v-4.19c0-0.18,0-0.35,0-0.53h0.56H28.76z"/>
	<defs>
		<filter id="Adobe_OpacityMaskFilter" filterUnits="userSpaceOnUse" x="17.3" y="18.94" width="41.13" height="34.99">
			<feColorMatrix  type="matrix" values="1 0 0 0 0  0 1 0 0 0  0 0 1 0 0  0 0 0 1 0"/>
		</filter>
	</defs>
	
		<mask maskUnits="userSpaceOnUse" x="17.3" y="18.94" width="41.13" height="34.99" id="path-2-outside-1_1_2212_00000093876576021120644400000004624631415915499946_" class="st3">
		<rect x="16.3" y="18.94" style="fill:#FFFFFF;filter:url(#Adobe_OpacityMaskFilter);" width="43" height="35"/>
		<path d="M53.05,46.89v-0.15v-4.01v-4.84V33.7c0-0.18,0-0.36,0-0.54c0.34-0.03,0.7-0.19,0.94-0.44c0.26-0.27,0.46-0.7,0.44-1.08
			c-0.02-0.39-0.15-0.81-0.44-1.08c-0.29-0.27-0.66-0.45-1.06-0.45h-1.37H50.6h-1.1h-2.52v-2.69v-1.43
			c0.34-0.04,0.69-0.19,0.92-0.43c0.26-0.27,0.46-0.7,0.44-1.08c-0.02-0.39-0.15-0.81-0.44-1.08c-0.29-0.27-0.66-0.45-1.06-0.45
			h-1.36h-0.43h-1.08h-3.19h-0.44h-4.4h-0.36h-3.43c-0.34,0-0.69,0-1.03,0c-0.27,0-0.55,0-0.82,0h-0.03c-0.44,0-0.89-0.01-1.33,0
			H28.9c-0.38,0-0.79,0.17-1.06,0.45c-0.26,0.27-0.46,0.7-0.44,1.08c0.02,0.4,0.15,0.81,0.44,1.08c0.26,0.24,0.57,0.4,0.92,0.43
			v0.86v2.57v0.69h-0.55h-0.78h-2.48h-0.73h-0.03h-1.38c-0.38,0-0.79,0.17-1.06,0.45c-0.26,0.27-0.45,0.7-0.44,1.08
			c0.02,0.4,0.15,0.81,0.44,1.08c0.26,0.25,0.58,0.4,0.94,0.44v0.15v4.01v4.84v4.19c0,0.18,0,0.36,0,0.54
			c-0.34,0.03-0.7,0.19-0.94,0.43c-0.26,0.27-0.46,0.7-0.44,1.08c0.02,0.39,0.15,0.81,0.44,1.08c0.29,0.28,0.66,0.45,1.06,0.45h0.8
			h0.54c0.01,0,0.02,0,0.03,0h2.06h3.27h0.73c0.01,0,0.02,0,0.03,0h1.51h3.63h4.4h3.8c0.62,0,1.24,0.01,1.84,0h0.03
			c0.01,0,0.02,0,0.03,0h2.02h3.27h0.76c0.01,0,0.02,0,0.03,0h0.12c0.39,0,0.78,0,1.18,0h0.05c0.38,0,0.79-0.17,1.06-0.45
			c0.26-0.27,0.46-0.7,0.44-1.08c-0.02-0.4-0.15-0.81-0.44-1.08C53.73,47.08,53.41,46.93,53.05,46.89z M39.44,43.71v3.17h-0.58H38.4
			h-2.11v-0.87v-3.17h0.58h2.58V43.71z M48.31,33.18h1.74v0.14v4.01v4.84v4.19c0,0.18,0,0.35,0,0.53h-0.13h-2.95v-0.84v-2.57v-3.15
			v-3.44v-3.47V33.2h0.55h0.79V33.18z M34.96,26.02h0.44h4.4h0.36h3.43c0.13,0,0.25,0,0.37,0v0.85v2.57v2.18c0,0.01,0,0.03,0,0.04
			v1.67v4.01v4.84v4.19c0,0.18,0,0.35,0,0.53h-1.23h-0.29v-0.87V42.2v-0.88c0-0.15-0.03-0.3-0.08-0.45
			c-0.07-0.24-0.18-0.46-0.36-0.63c-0.26-0.27-0.69-0.47-1.06-0.45h-2.08h-3.32h-0.77c-0.81,0-1.5,0.7-1.5,1.53v2.4v3.17h-1.52
			v-0.13v-4.01v-4.84v-4.19c0-0.68,0.01-1.35,0-2.03v-0.03c0-0.01,0-0.02,0-0.03v-1.45v-2.74v-1.42h0.01H34.96z M28.76,33.18v2.84
			v3.47v3.24v2.74v1.41h-2.25h-0.82v-0.13v-4.01V37.9v-4.19c0-0.18,0-0.35,0-0.53h0.56H28.76z"/>
	</mask>
	<path class="st4" d="M53.05,46.89v-0.15v-4.01v-4.84V33.7c0-0.18,0-0.36,0-0.54c0.34-0.03,0.7-0.19,0.94-0.44
		c0.26-0.27,0.46-0.7,0.44-1.08c-0.02-0.39-0.15-0.81-0.44-1.08c-0.29-0.27-0.66-0.45-1.06-0.45h-1.37H50.6h-1.1h-2.52v-2.69v-1.43
		c0.34-0.04,0.69-0.19,0.92-0.43c0.26-0.27,0.46-0.7,0.44-1.08c-0.02-0.39-0.15-0.81-0.44-1.08c-0.29-0.27-0.66-0.45-1.06-0.45
		h-1.36h-0.43h-1.08h-3.19h-0.44h-4.4h-0.36h-3.43c-0.34,0-0.69,0-1.03,0c-0.27,0-0.55,0-0.82,0h-0.03c-0.44,0-0.89-0.01-1.33,0
		H28.9c-0.38,0-0.79,0.17-1.06,0.45c-0.26,0.27-0.46,0.7-0.44,1.08c0.02,0.4,0.15,0.81,0.44,1.08c0.26,0.24,0.57,0.4,0.92,0.43v0.86
		v2.57v0.69h-0.55h-0.78h-2.48h-0.73h-0.03h-1.38c-0.38,0-0.79,0.17-1.06,0.45c-0.26,0.27-0.45,0.7-0.44,1.08
		c0.02,0.4,0.15,0.81,0.44,1.08c0.26,0.25,0.58,0.4,0.94,0.44v0.15v4.01v4.84v4.19c0,0.18,0,0.36,0,0.54
		c-0.34,0.03-0.7,0.19-0.94,0.43c-0.26,0.27-0.46,0.7-0.44,1.08c0.02,0.39,0.15,0.81,0.44,1.08c0.29,0.28,0.66,0.45,1.06,0.45h0.8
		h0.54c0.01,0,0.02,0,0.03,0h2.06h3.27h0.73c0.01,0,0.02,0,0.03,0h1.51h3.63h4.4h3.8c0.62,0,1.24,0.01,1.84,0h0.03
		c0.01,0,0.02,0,0.03,0h2.02h3.27h0.76c0.01,0,0.02,0,0.03,0h0.12c0.39,0,0.78,0,1.18,0h0.05c0.38,0,0.79-0.17,1.06-0.45
		c0.26-0.27,0.46-0.7,0.44-1.08c-0.02-0.4-0.15-0.81-0.44-1.08C53.73,47.08,53.41,46.93,53.05,46.89z M39.44,43.71v3.17h-0.58H38.4
		h-2.11v-0.87v-3.17h0.58h2.58V43.71z M48.31,33.18h1.74v0.14v4.01v4.84v4.19c0,0.18,0,0.35,0,0.53h-0.13h-2.95v-0.84v-2.57v-3.15
		v-3.44v-3.47V33.2h0.55h0.79V33.18z M34.96,26.02h0.44h4.4h0.36h3.43c0.13,0,0.25,0,0.37,0v0.85v2.57v2.18c0,0.01,0,0.03,0,0.04
		v1.67v4.01v4.84v4.19c0,0.18,0,0.35,0,0.53h-1.23h-0.29v-0.87V42.2v-0.88c0-0.15-0.03-0.3-0.08-0.45
		c-0.07-0.24-0.18-0.46-0.36-0.63c-0.26-0.27-0.69-0.47-1.06-0.45h-2.08h-3.32h-0.77c-0.81,0-1.5,0.7-1.5,1.53v2.4v3.17h-1.52v-0.13
		v-4.01v-4.84v-4.19c0-0.68,0.01-1.35,0-2.03v-0.03c0-0.01,0-0.02,0-0.03v-1.45v-2.74v-1.42h0.01H34.96z M28.76,33.18v2.84v3.47
		v3.24v2.74v1.41h-2.25h-0.82v-0.13v-4.01V37.9v-4.19c0-0.18,0-0.35,0-0.53h0.56H28.76z"/>
	<path class="st1" d="M37.25,37.99c0.38-0.02,0.79-0.15,1.06-0.45c0.27-0.3,0.44-0.67,0.44-1.08v-2.44v-3.85v-0.9
		c0-0.39-0.17-0.81-0.44-1.08c-0.26-0.27-0.69-0.47-1.06-0.45c-0.38,0.02-0.79,0.15-1.06,0.45c-0.27,0.3-0.44,0.67-0.44,1.08v2.44
		v3.85v0.89c0,0.39,0.17,0.81,0.44,1.08C36.45,37.81,36.88,38.01,37.25,37.99z"/>
</g>
<g id="_x31_">
	<path class="st5" d="M46.58,41.85V41.7v-4.01v-4.84v-4.19c0-0.18,0-0.36,0-0.54c0.34-0.03,0.7-0.19,0.94-0.44
		c0.26-0.27,0.46-0.7,0.44-1.08c-0.02-0.39-0.15-0.81-0.44-1.08c-0.29-0.27-0.66-0.45-1.06-0.45h-1.37h-0.96h-1.1h-2.52v-2.69v-1.43
		c0.34-0.04,0.69-0.19,0.92-0.43c0.26-0.27,0.46-0.7,0.44-1.08c-0.02-0.39-0.15-0.81-0.44-1.08c-0.29-0.27-0.66-0.45-1.06-0.45
		h-1.36h-0.43H37.5h-3.19h-0.44h-4.4h-0.36h-3.43c-0.34,0-0.69,0-1.03,0c-0.27,0-0.55,0-0.82,0h-0.03c-0.44,0-0.89-0.01-1.33,0
		h-0.03c-0.38,0-0.79,0.17-1.06,0.45c-0.26,0.27-0.46,0.7-0.44,1.08c0.02,0.4,0.15,0.81,0.44,1.08c0.26,0.24,0.57,0.4,0.92,0.43
		v0.86v2.57v0.69h-0.55h-0.78h-2.48h-0.73h-0.03h-1.38c-0.38,0-0.79,0.17-1.06,0.45c-0.26,0.27-0.45,0.7-0.44,1.08
		c0.02,0.4,0.15,0.81,0.44,1.08c0.26,0.25,0.58,0.4,0.94,0.44v0.15v4.01v4.84v4.19c0,0.18,0,0.36,0,0.54
		c-0.34,0.03-0.7,0.19-0.94,0.43c-0.26,0.27-0.46,0.7-0.44,1.08c0.02,0.39,0.15,0.81,0.44,1.08c0.29,0.28,0.66,0.45,1.06,0.45h0.8
		h0.54c0.01,0,0.02,0,0.03,0h2.06h3.27h0.73c0.01,0,0.02,0,0.03,0h1.51h3.63h4.4h3.8c0.62,0,1.24,0.01,1.84,0H39
		c0.01,0,0.02,0,0.03,0h2.02h3.27h0.76c0.01,0,0.02,0,0.03,0h0.12c0.39,0,0.78,0,1.18,0h0.05c0.38,0,0.79-0.17,1.06-0.45
		c0.26-0.27,0.46-0.7,0.44-1.08c-0.02-0.4-0.15-0.81-0.44-1.08C47.26,42.04,46.94,41.89,46.58,41.85z M32.97,38.67v3.17H32.4h-0.47
		h-2.11v-0.87V37.8h0.58h2.58V38.67z M41.84,28.14h1.74v0.14v4.01v4.84v4.19c0,0.18,0,0.35,0,0.53h-0.13H40.5v-0.84v-2.57v-3.15
		v-3.44v-3.47v-0.22h0.55h0.79V28.14z M28.49,20.98h0.44h4.4h0.36h3.43c0.13,0,0.25,0,0.37,0v0.85v2.57v2.18c0,0.01,0,0.03,0,0.04
		v1.67v4.01v4.84v4.19c0,0.18,0,0.35,0,0.53h-1.23h-0.29v-0.87v-3.83v-0.88c0-0.15-0.03-0.3-0.08-0.45
		c-0.07-0.24-0.18-0.46-0.36-0.63c-0.26-0.27-0.69-0.47-1.06-0.45H32.4h-3.32h-0.77c-0.81,0-1.5,0.7-1.5,1.53v2.4v3.17h-1.52v-0.13
		v-4.01v-4.84v-4.19c0-0.68,0.01-1.35,0-2.03v-0.03c0-0.01,0-0.02,0-0.03v-1.45V22.4v-1.42h0.01H28.49z M22.29,28.14v2.84v3.47v3.24
		v2.74v1.41h-2.25h-0.82v-0.13V37.7v-4.84v-4.19c0-0.18,0-0.35,0-0.53h0.56H22.29z"/>
	<defs>
		
			<filter id="Adobe_OpacityMaskFilter_00000081647081458725723760000002737535134809316754_" filterUnits="userSpaceOnUse" x="10.83" y="13.91" width="41.13" height="34.99">
			<feColorMatrix  type="matrix" values="1 0 0 0 0  0 1 0 0 0  0 0 1 0 0  0 0 0 1 0"/>
		</filter>
	</defs>
	
		<mask maskUnits="userSpaceOnUse" x="10.83" y="13.91" width="41.13" height="34.99" id="path-1-outside-1_1_2212_00000111890797470372934360000004090344317249460656_">
		
			<rect x="9.83" y="13.91" style="fill:#FFFFFF;filter:url(#Adobe_OpacityMaskFilter_00000081647081458725723760000002737535134809316754_);" width="43" height="35"/>
		<path d="M46.58,41.85V41.7v-4.01v-4.84v-4.19c0-0.18,0-0.36,0-0.54c0.34-0.03,0.7-0.19,0.94-0.44c0.26-0.27,0.46-0.7,0.44-1.08
			c-0.02-0.39-0.15-0.81-0.44-1.08c-0.29-0.27-0.66-0.45-1.06-0.45h-1.37h-0.96h-1.1h-2.52v-2.69v-1.43
			c0.34-0.04,0.69-0.19,0.92-0.43c0.26-0.27,0.46-0.7,0.44-1.08c-0.02-0.39-0.15-0.81-0.44-1.08c-0.29-0.27-0.66-0.45-1.06-0.45
			h-1.36h-0.43H37.5h-3.19h-0.44h-4.4h-0.36h-3.43c-0.34,0-0.69,0-1.03,0c-0.27,0-0.55,0-0.82,0h-0.03c-0.44,0-0.89-0.01-1.33,0
			h-0.03c-0.38,0-0.79,0.17-1.06,0.45c-0.26,0.27-0.46,0.7-0.44,1.08c0.02,0.4,0.15,0.81,0.44,1.08c0.26,0.24,0.57,0.4,0.92,0.43
			v0.86v2.57v0.69h-0.55h-0.78h-2.48h-0.73h-0.03h-1.38c-0.38,0-0.79,0.17-1.06,0.45c-0.26,0.27-0.45,0.7-0.44,1.08
			c0.02,0.4,0.15,0.81,0.44,1.08c0.26,0.25,0.58,0.4,0.94,0.44v0.15v4.01v4.84v4.19c0,0.18,0,0.36,0,0.54
			c-0.34,0.03-0.7,0.19-0.94,0.43c-0.26,0.27-0.46,0.7-0.44,1.08c0.02,0.39,0.15,0.81,0.44,1.08c0.29,0.28,0.66,0.45,1.06,0.45h0.8
			h0.54c0.01,0,0.02,0,0.03,0h2.06h3.27h0.73c0.01,0,0.02,0,0.03,0h1.51h3.63h4.4h3.8c0.62,0,1.24,0.01,1.84,0H39
			c0.01,0,0.02,0,0.03,0h2.02h3.27h0.76c0.01,0,0.02,0,0.03,0h0.12c0.39,0,0.78,0,1.18,0h0.05c0.38,0,0.79-0.17,1.06-0.45
			c0.26-0.27,0.46-0.7,0.44-1.08c-0.02-0.4-0.15-0.81-0.44-1.08C47.26,42.04,46.94,41.89,46.58,41.85z M32.97,38.67v3.17H32.4h-0.47
			h-2.11v-0.87V37.8h0.58h2.58V38.67z M41.84,28.14h1.74v0.14v4.01v4.84v4.19c0,0.18,0,0.35,0,0.53h-0.13H40.5v-0.84v-2.57v-3.15
			v-3.44v-3.47v-0.22h0.55h0.79V28.14z M28.49,20.98h0.44h4.4h0.36h3.43c0.13,0,0.25,0,0.37,0v0.85v2.57v2.18c0,0.01,0,0.03,0,0.04
			v1.67v4.01v4.84v4.19c0,0.18,0,0.35,0,0.53h-1.23h-0.29v-0.87v-3.83v-0.88c0-0.15-0.03-0.3-0.08-0.45
			c-0.07-0.24-0.18-0.46-0.36-0.63c-0.26-0.27-0.69-0.47-1.06-0.45H32.4h-3.32h-0.77c-0.81,0-1.5,0.7-1.5,1.53v2.4v3.17h-1.52v-0.13
			v-4.01v-4.84v-4.19c0-0.68,0.01-1.35,0-2.03v-0.03c0-0.01,0-0.02,0-0.03v-1.45V22.4v-1.42h0.01H28.49z M22.29,28.14v2.84v3.47
			v3.24v2.74v1.41h-2.25h-0.82v-0.13V37.7v-4.84v-4.19c0-0.18,0-0.35,0-0.53h0.56H22.29z"/>
	</mask>
	<path class="st7" d="M46.58,41.85V41.7v-4.01v-4.84v-4.19c0-0.18,0-0.36,0-0.54c0.34-0.03,0.7-0.19,0.94-0.44
		c0.26-0.27,0.46-0.7,0.44-1.08c-0.02-0.39-0.15-0.81-0.44-1.08c-0.29-0.27-0.66-0.45-1.06-0.45h-1.37h-0.96h-1.1h-2.52v-2.69v-1.43
		c0.34-0.04,0.69-0.19,0.92-0.43c0.26-0.27,0.46-0.7,0.44-1.08c-0.02-0.39-0.15-0.81-0.44-1.08c-0.29-0.27-0.66-0.45-1.06-0.45
		h-1.36h-0.43H37.5h-3.19h-0.44h-4.4h-0.36h-3.43c-0.34,0-0.69,0-1.03,0c-0.27,0-0.55,0-0.82,0h-0.03c-0.44,0-0.89-0.01-1.33,0
		h-0.03c-0.38,0-0.79,0.17-1.06,0.45c-0.26,0.27-0.46,0.7-0.44,1.08c0.02,0.4,0.15,0.81,0.44,1.08c0.26,0.24,0.57,0.4,0.92,0.43
		v0.86v2.57v0.69h-0.55h-0.78h-2.48h-0.73h-0.03h-1.38c-0.38,0-0.79,0.17-1.06,0.45c-0.26,0.27-0.45,0.7-0.44,1.08
		c0.02,0.4,0.15,0.81,0.44,1.08c0.26,0.25,0.58,0.4,0.94,0.44v0.15v4.01v4.84v4.19c0,0.18,0,0.36,0,0.54
		c-0.34,0.03-0.7,0.19-0.94,0.43c-0.26,0.27-0.46,0.7-0.44,1.08c0.02,0.39,0.15,0.81,0.44,1.08c0.29,0.28,0.66,0.45,1.06,0.45h0.8
		h0.54c0.01,0,0.02,0,0.03,0h2.06h3.27h0.73c0.01,0,0.02,0,0.03,0h1.51h3.63h4.4h3.8c0.62,0,1.24,0.01,1.84,0H39
		c0.01,0,0.02,0,0.03,0h2.02h3.27h0.76c0.01,0,0.02,0,0.03,0h0.12c0.39,0,0.78,0,1.18,0h0.05c0.38,0,0.79-0.17,1.06-0.45
		c0.26-0.27,0.46-0.7,0.44-1.08c-0.02-0.4-0.15-0.81-0.44-1.08C47.26,42.04,46.94,41.89,46.58,41.85z M32.97,38.67v3.17H32.4h-0.47
		h-2.11v-0.87V37.8h0.58h2.58V38.67z M41.84,28.14h1.74v0.14v4.01v4.84v4.19c0,0.18,0,0.35,0,0.53h-0.13H40.5v-0.84v-2.57v-3.15
		v-3.44v-3.47v-0.22h0.55h0.79V28.14z M28.49,20.98h0.44h4.4h0.36h3.43c0.13,0,0.25,0,0.37,0v0.85v2.57v2.18c0,0.01,0,0.03,0,0.04
		v1.67v4.01v4.84v4.19c0,0.18,0,0.35,0,0.53h-1.23h-0.29v-0.87v-3.83v-0.88c0-0.15-0.03-0.3-0.08-0.45
		c-0.07-0.24-0.18-0.46-0.36-0.63c-0.26-0.27-0.69-0.47-1.06-0.45H32.4h-3.32h-0.77c-0.81,0-1.5,0.7-1.5,1.53v2.4v3.17h-1.52v-0.13
		v-4.01v-4.84v-4.19c0-0.68,0.01-1.35,0-2.03v-0.03c0-0.01,0-0.02,0-0.03v-1.45V22.4v-1.42h0.01H28.49z M22.29,28.14v2.84v3.47v3.24
		v2.74v1.41h-2.25h-0.82v-0.13V37.7v-4.84v-4.19c0-0.18,0-0.35,0-0.53h0.56H22.29z"/>
	<path class="st5" d="M31.4,33.35c0.38-0.02,0.79-0.15,1.06-0.45c0.27-0.3,0.44-0.67,0.44-1.08v-2.44v-3.85v-0.9
		c0-0.39-0.17-0.81-0.44-1.08c-0.26-0.27-0.69-0.47-1.06-0.45c-0.38,0.02-0.79,0.15-1.06,0.45c-0.27,0.3-0.44,0.67-0.44,1.08v2.44
		v3.85v0.89c0,0.39,0.17,0.81,0.44,1.08C30.6,33.17,31.03,33.37,31.4,33.35z"/>
</g>
</svg>
