<?xml version="1.0" encoding="utf-8"?>
<!-- Generator: Adobe Illustrator 27.3.1, SVG Export Plug-In . SVG Version: 6.00 Build 0)  -->
<svg version="1.1" xmlns="http://www.w3.org/2000/svg" xmlns:xlink="http://www.w3.org/1999/xlink" x="0px" y="0px"
	 viewBox="0 0 62.8 62.8" style="enable-background:new 0 0 62.8 62.8;" xml:space="preserve">
<style type="text/css">
	.st0{fill:#4D76BA;}
	.st1{display:none;}
	.st2{display:inline;fill:#4D76BA;}
</style>
<g id="Layer_2">
	<path class="st0" d="M20.56,48.41c0.03,0.03,0.04,0.04,0.07,0.07h0.01C20.59,48.42,20.56,48.4,20.56,48.41z"/>
	<path class="st0" d="M42.32,48.32c-0.04,0.04-0.07,0.07-0.07,0.08l0.01-0.01C42.27,48.38,42.29,48.35,42.32,48.32z"/>
	<path class="st0" d="M15.59,38.78c-0.03,0.03-0.04,0.04-0.07,0.07c0,0,0,0.01-0.01,0.01C15.56,38.82,15.59,38.78,15.59,38.78z"/>
	<path class="st0" d="M15.59,46.46c0.03,0.03,0.04,0.04,0.07,0.07h0.01C15.62,46.49,15.59,46.46,15.59,46.46z"/>
	<path class="st0" d="M47.29,46.39C47.29,46.38,47.29,46.38,47.29,46.39c-0.04,0.04-0.07,0.07-0.07,0.08l0.01-0.01
		C47.25,46.43,47.27,46.42,47.29,46.39z"/>
	<path class="st0" d="M49.8,41.43c0-0.71,0-1.42,0-2.12c0-0.02-0.01-0.04-0.01-0.06c0-0.06-0.01-0.12-0.02-0.17
		c-0.14-1.62-1.47-2.9-3.09-2.9c-0.62,0-1.25,0-1.86,0c0-0.74,0-1.47,0-2.2c0-1.35,0-2.71,0-4.07c0-0.53,0-1.07,0-1.6
		c0.33,0,0.66,0,0.99,0c0.9,0,1.81-0.34,2.4-1.06c0.5-0.6,0.78-1.31,0.78-2.11c0-0.18,0-0.36,0-0.53c0-1.72,0-3.45,0-5.18
		c0-0.39,0-0.78,0-1.16c0-0.03,0.01-0.05,0.01-0.09c-0.03-1.72-1.39-3.13-3.09-3.14c-0.16,0-0.31,0-0.46,0c-0.91,0-1.83,0-2.74,0
		c-1.51,0-3.01,0-4.52,0c-0.23,0-0.45,0-0.68,0c0-0.03,0-0.05,0-0.08c0-0.02,0.01-0.03,0-0.04c0-0.04-0.02-0.08-0.02-0.12
		c-0.01-0.04-0.01-0.1-0.02-0.14c-0.1-0.98-0.59-1.85-1.41-2.4c-0.51-0.35-1.13-0.49-1.73-0.49c-0.72,0-1.45,0-2.18,0
		c-0.97,0-1.93,0-2.89,0c-0.9,0-1.8-0.04-2.58,0.51c-0.87,0.62-1.39,1.57-1.4,2.66c0,0.03,0,0.06,0,0.09c-1.12,0-2.22,0-3.34,0
		c-1.22,0-2.43,0-3.65,0c-0.47,0-0.95,0-1.42,0c-1.7,0.02-3.07,1.43-3.08,3.16c0,0.52,0,1.03,0,1.55c0,1.69,0,3.38,0,5.07
		c0,0.13,0,0.27,0,0.4c0.03,1.04,0.54,1.94,1.36,2.54c0.55,0.4,1.22,0.55,1.88,0.55c0.31,0,0.63,0,0.94,0c0,0.04,0,0.09,0,0.13
		c0,1.15,0,2.28,0,3.42c0,1.44,0,2.88,0,4.32c-0.62,0-1.23,0-1.85,0c-0.02,0-0.03,0-0.04,0c-1.32,0.02-2.45,0.85-2.9,2.11
		C13.01,38.72,13,39.18,13,39.65c0,1.07,0,2.14,0,3.21c0,0.98,0,1.96,0,2.95c0,0.67,0.14,1.36,0.54,1.92
		c0.62,0.88,1.54,1.39,2.61,1.39c0.69,0,1.38,0,2.06,0c0.46,1.14,1.62,1.92,2.84,1.94c0.45,0,0.91,0,1.37,0c1.12,0,2.24,0,3.36,0
		c1.49,0,2.98,0,4.47,0c1.56,0,3.12,0,4.68,0c1.32,0,2.66,0,3.99,0c0.82,0,1.63,0,2.44,0c0.12,0,0.24,0,0.36,0
		c0.78-0.01,1.5-0.31,2.08-0.83c0.34-0.3,0.57-0.69,0.74-1.1c0.51,0,1.03,0,1.54,0c0.44,0,0.87,0.01,1.31-0.08
		c1.06-0.22,1.89-1.08,2.24-2.1c0.24-0.69,0.15-1.55,0.15-2.27C49.8,43.57,49.8,42.5,49.8,41.43z M25.57,18.09c0-0.22,0-0.44,0-0.66
		c0.37,0,0.73,0,1.11,0c1.4,0,2.8,0,4.2,0c1.42,0,2.84,0,4.26,0c0.71,0,1.4,0,2.11,0c0,0.11,0,0.2,0,0.3c0,1.2,0,2.41,0,3.61
		c0,1.46,0,2.91,0,4.38c0,0.05,0,0.11,0,0.16c-0.63,0-1.26,0-1.89,0c-2.36,0-4.71,0-7.07,0c-0.91,0-1.8,0-2.7,0
		c0-1.34,0-2.67,0-4.01C25.57,20.6,25.57,19.35,25.57,18.09z M44.8,17.43c0.37,0,0.72,0,1.09,0c0.03,0,0.06,0.01,0.1,0.01
		c0.08,0.02,0.15,0.04,0.22,0.06c0.04,0.03,0.1,0.04,0.14,0.08c-0.02-0.02-0.03-0.03-0.05-0.05c0.02,0.02,0.04,0.04,0.06,0.05
		c0.01,0,0.01,0.01,0.02,0.01c0.06,0.04,0.09,0.08,0.07,0.07c0.01,0.01,0.03,0.03,0.05,0.05c0.03,0.05,0.06,0.11,0.09,0.17
		c0.03,0.08,0.04,0.16,0.06,0.23c0,0.02,0,0.04,0,0.05c0,0.81,0,1.62,0,2.42c0,1.27,0,2.53,0,3.8c0,0.28,0.01,0.56-0.01,0.83
		c-0.02,0.07-0.03,0.14-0.06,0.21c-0.03,0.04-0.04,0.1-0.08,0.14c0.02-0.02,0.03-0.03,0.05-0.05c-0.02,0.02-0.03,0.04-0.05,0.06
		c0,0,0,0.01-0.01,0.02c-0.03,0.06-0.08,0.09-0.07,0.07c-0.01,0.01-0.03,0.03-0.05,0.05c-0.05,0.04-0.1,0.06-0.17,0.09
		c-0.07,0.03-0.14,0.04-0.21,0.06c-0.27,0.02-0.53,0.01-0.8,0.01c-0.51,0-1.04,0-1.55,0c-0.01,0-0.01,0-0.02,0
		c-0.81,0-1.62,0-2.44,0c-0.53,0-1.06,0-1.59,0c0-1.34,0-2.67,0-4.01c0-1.26,0-2.51,0-3.77c0-0.22,0-0.44,0-0.66
		c0.94,0,1.87,0,2.81,0C43.21,17.43,44.01,17.43,44.8,17.43z M27.88,14.37c0.01-0.01,0.03-0.03,0.05-0.05
		c0.05-0.04,0.1-0.06,0.17-0.09c0.07-0.03,0.14-0.04,0.22-0.06c0.2-0.01,0.4-0.01,0.6-0.01c0.5,0,0.98,0,1.48,0
		c1.12,0,2.25,0,3.38,0c0.24,0,0.5-0.01,0.75,0.01c0.07,0.02,0.14,0.04,0.21,0.06c0.04,0.03,0.1,0.04,0.14,0.08
		c-0.02-0.02-0.03-0.03-0.05-0.05c0.02,0.02,0.03,0.04,0.06,0.05c0.01,0,0.01,0.01,0.02,0.01c0.06,0.04,0.09,0.08,0.07,0.07
		c0.01,0.01,0.03,0.03,0.05,0.05c0.03,0.05,0.06,0.11,0.09,0.17c0.03,0.07,0.04,0.13,0.05,0.2c0,0.03,0,0.05,0,0.09
		c0,0.04,0,0.08,0,0.12c-0.72,0-1.44,0-2.16,0c-0.1,0-0.21,0-0.31,0c-1.66,0-3.33,0-4.99,0c-0.01,0-0.02,0-0.03,0
		c0-0.07,0-0.13,0.01-0.2c0.02-0.07,0.03-0.14,0.05-0.2c0.03-0.04,0.04-0.1,0.08-0.14c-0.02,0.02-0.03,0.03-0.05,0.05
		c0.02-0.02,0.03-0.04,0.05-0.06c0-0.01,0.01-0.01,0.01-0.02C27.85,14.38,27.9,14.35,27.88,14.37z M16.92,25.88
		c-0.03,0-0.06-0.01-0.1-0.01c-0.08-0.02-0.15-0.04-0.22-0.06c-0.04-0.03-0.1-0.04-0.14-0.08c0.02,0.02,0.03,0.03,0.05,0.05
		c-0.02-0.02-0.04-0.04-0.06-0.05c-0.01,0-0.01-0.01-0.02-0.01c-0.06-0.04-0.09-0.08-0.07-0.07c-0.01-0.01-0.03-0.03-0.05-0.05
		c-0.03-0.05-0.06-0.11-0.09-0.17c-0.03-0.07-0.04-0.14-0.06-0.21c-0.01-0.23-0.01-0.46-0.01-0.69c0-0.56,0-1.13,0-1.69
		c0-1.3,0-2.59,0-3.89c0-0.28-0.01-0.58,0.01-0.86c0.02-0.07,0.03-0.14,0.06-0.21c0.03-0.04,0.04-0.1,0.08-0.14
		c-0.02,0.02-0.03,0.03-0.05,0.05c0.02-0.02,0.03-0.04,0.05-0.06c0-0.01,0.01-0.01,0.01-0.02c0.04-0.06,0.08-0.09,0.07-0.07
		c0.01-0.01,0.03-0.03,0.05-0.05c0.05-0.04,0.1-0.06,0.17-0.09c0.07-0.03,0.14-0.04,0.21-0.06c0.26-0.02,0.53-0.01,0.8-0.01
		c0.7,0,1.39,0,2.08,0c1.05,0,2.09,0,3.14,0c0.12,0,0.25,0,0.37,0c0,0.11,0,0.2,0,0.3c0,1.2,0,2.41,0,3.61c0,1.46,0,2.91,0,4.38
		c0,0.05,0,0.11,0,0.16c-0.35,0-0.7,0-1.04,0c-0.98,0-1.98-0.02-2.96,0c-0.01,0-0.03,0-0.04,0c-0.01,0-0.01,0-0.02,0
		c-0.37,0-0.76,0-1.13,0C17.65,25.88,17.29,25.88,16.92,25.88z M16.01,46.66c-0.07-0.02-0.14-0.04-0.2-0.05
		c-0.04-0.03-0.1-0.04-0.14-0.08c0.02,0.02,0.03,0.03,0.05,0.05c-0.02-0.02-0.04-0.04-0.06-0.05c0,0-0.01-0.01-0.02-0.01
		c-0.06-0.04-0.09-0.08-0.07-0.07c-0.01-0.01-0.03-0.03-0.05-0.05c-0.03-0.05-0.06-0.11-0.09-0.17c-0.03-0.07-0.04-0.14-0.06-0.21
		c-0.01-0.22-0.01-0.44-0.01-0.66c0-0.54,0-1.07,0-1.62c0-1.23,0-2.46,0-3.69c0-0.28-0.01-0.55,0.01-0.83
		c0.02-0.07,0.03-0.14,0.06-0.21c0.03-0.04,0.04-0.1,0.08-0.14c-0.02,0.02-0.03,0.03-0.05,0.05c0.02-0.02,0.03-0.04,0.05-0.06
		c0-0.01,0.01-0.01,0.01-0.02c0.04-0.06,0.08-0.09,0.07-0.07c0.01-0.01,0.03-0.03,0.05-0.05c0.05-0.04,0.1-0.06,0.17-0.09
		c0.07-0.03,0.14-0.04,0.22-0.06c0.03,0,0.04,0,0.07,0c0.63,0,1.25,0,1.89,0c0,0.86,0,1.73,0,2.59c0,1.34,0,2.69,0,4.03
		c0,0.5,0,0.99,0,1.48c-0.15,0-0.3,0-0.44,0C17.03,46.68,16.52,46.71,16.01,46.66z M42.24,48.41c-0.01,0.01-0.03,0.03-0.05,0.05
		c-0.05,0.04-0.1,0.06-0.17,0.09c-0.07,0.03-0.14,0.04-0.22,0.06c-0.19,0.01-0.38,0.01-0.57,0.01c-0.5,0-0.99,0-1.49,0
		c-1.66,0-3.3,0-4.96,0c-2.02,0-4.04,0-6.06,0c-1.73,0-3.46,0-5.18,0c-0.82,0-1.64,0.01-2.46,0c-0.03,0-0.05,0-0.08-0.01
		c-0.08-0.02-0.15-0.04-0.23-0.06c-0.04-0.03-0.1-0.04-0.14-0.08c0.02,0.02,0.03,0.03,0.05,0.05c-0.02-0.02-0.04-0.04-0.06-0.05
		c-0.01,0-0.01-0.01-0.02-0.01c-0.06-0.04-0.09-0.08-0.07-0.07c-0.01-0.01-0.03-0.03-0.05-0.05c-0.03-0.05-0.06-0.11-0.09-0.17
		c-0.03-0.07-0.04-0.14-0.06-0.22c0-0.02,0-0.04,0-0.05c0-0.01,0-0.01,0-0.02c0-1.19,0-2.37,0-3.56c0-1.89,0-3.78,0-5.67
		c0-0.43,0-0.86,0-1.29c0-0.02-0.01-0.03-0.01-0.04c0-0.81,0-1.61,0-2.42c0-1.75,0-3.5,0-5.24c0-0.46,0.01-0.92,0.01-1.39
		c0.95,0,1.9,0,2.86,0c0,0.4,0,0.8,0,1.2c0,0.61-0.01,1.23,0,1.84c0,0.01,0,0.02,0,0.03c0,0.63,0.54,1.23,1.18,1.21
		c0.64-0.03,1.18-0.53,1.18-1.21c0-0.51,0-1,0-1.51c0-0.51,0-1.03,0-1.55c1.05,0,2.11,0,3.16,0c1.9,0,3.8,0,5.7,0
		c0.93,0,1.87,0,2.81,0c0,0.4,0,0.8,0,1.2c0,0.61-0.01,1.23,0,1.84c0,0.01,0,0.02,0,0.03c0,0.63,0.54,1.23,1.18,1.21
		c0.64-0.03,1.18-0.53,1.18-1.21c0-0.51,0-1,0-1.51c0-0.51,0-1.03,0-1.55c0.04,0,0.08,0,0.12,0c0.57,0,1.12,0,1.69,0
		c0.35,0,0.7,0,1.05,0c0,0.3,0,0.59,0,0.9c0,1.67,0,3.35,0,5.02c0,1.06,0,2.1,0,3.16c0,0.96,0,1.93,0,2.89c0,0.23,0,0.45,0,0.67
		c0,1.5,0,3,0,4.5c0,0.39,0,0.77,0,1.16c0,0.43,0,0.84,0,1.27c0,0.03-0.01,0.05-0.01,0.08c-0.02,0.08-0.03,0.15-0.06,0.23
		c-0.03,0.04-0.04,0.1-0.08,0.14c0.02-0.02,0.03-0.03,0.05-0.05c-0.02,0.02-0.03,0.04-0.05,0.06c0,0,0,0.01-0.01,0.02
		C42.26,48.41,42.23,48.43,42.24,48.41z M47.22,46.47c-0.01,0.01-0.03,0.03-0.05,0.05c-0.05,0.04-0.1,0.06-0.17,0.09
		c-0.07,0.03-0.13,0.04-0.2,0.05c-0.51,0.04-1.03,0.01-1.52,0.01c-0.15,0-0.3,0-0.45,0c0-0.79,0-1.57,0-2.36c0-1.89,0-3.78,0-5.67
		c0-0.03,0-0.05,0-0.08c0.15,0,0.3,0,0.45,0c0.5,0,1.02-0.03,1.52,0.01c0.07,0.02,0.14,0.04,0.2,0.05c0.04,0.03,0.1,0.04,0.14,0.08
		c-0.02-0.02-0.03-0.03-0.05-0.05c0.02,0.02,0.04,0.04,0.06,0.05c0.01,0,0.01,0.01,0.02,0.01c0.06,0.04,0.09,0.08,0.07,0.07
		c0.01,0.01,0.03,0.03,0.05,0.05c0.03,0.05,0.06,0.11,0.09,0.17c0.03,0.08,0.04,0.16,0.06,0.23c0,0.02,0,0.04,0,0.05
		c0,1.98,0,3.95,0,5.92c0,0.27,0.01,0.53-0.01,0.8c-0.02,0.07-0.03,0.14-0.06,0.21c-0.03,0.04-0.04,0.1-0.08,0.14
		c0.02-0.02,0.03-0.03,0.05-0.05c-0.02,0.02-0.03,0.04-0.05,0.06c0,0.01,0,0.01-0.01,0.02C47.25,46.46,47.2,46.5,47.22,46.47z"/>
	<path class="st0" d="M47.22,38.78c-0.03-0.03-0.04-0.04-0.07-0.07h-0.01C47.19,38.76,47.22,38.79,47.22,38.78
		C47.23,38.79,47.23,38.79,47.22,38.78z"/>
	<path class="st0" d="M46.43,17.65c-0.03-0.03-0.04-0.04-0.07-0.07h-0.01C46.39,17.62,46.43,17.65,46.43,17.65z"/>
	<path class="st0" d="M16.38,17.65c-0.03,0.03-0.04,0.04-0.07,0.07v0.01C16.36,17.68,16.39,17.65,16.38,17.65
		C16.39,17.65,16.39,17.64,16.38,17.65z"/>
	<path class="st0" d="M16.38,25.66c0.03,0.03,0.04,0.04,0.07,0.07h0.01C16.42,25.68,16.39,25.66,16.38,25.66z"/>
	<path class="st0" d="M46.43,25.66c0.03-0.03,0.04-0.04,0.07-0.07c0,0,0-0.01,0.01-0.01C46.45,25.62,46.43,25.66,46.43,25.66z"/>
	<path class="st0" d="M27.81,14.46c0.04-0.04,0.07-0.07,0.07-0.08l-0.01,0.01C27.85,14.4,27.83,14.43,27.81,14.46z"/>
	<path class="st0" d="M34.95,14.38c-0.03-0.03-0.05-0.04-0.07-0.07h-0.01C34.92,14.35,34.95,14.38,34.95,14.38z"/>
	<path class="st0" d="M34.44,41.81c-1.77,0-3.54,0-5.31,0c-0.25,0-0.51,0-0.76,0c-0.62,0-1.21,0.55-1.18,1.21
		c0.03,0.66,0.51,1.21,1.18,1.21c1.77,0,3.54,0,5.31,0c0.25,0,0.51,0,0.76,0c0.62,0,1.21-0.55,1.18-1.21
		C35.59,42.36,35.1,41.81,34.44,41.81z"/>
</g>
<g id="_x31_" class="st1">
	<path class="st2" d="M17.7,52.9c0.03,0.03,0.06,0.06,0.09,0.09h0.01C17.73,52.92,17.7,52.89,17.7,52.9z"/>
	<path class="st2" d="M45.2,52.8c-0.06,0.04-0.09,0.09-0.09,0.1l0.01-0.01C45.14,52.86,45.17,52.83,45.2,52.8z"/>
	<path class="st2" d="M11.41,40.73c-0.03,0.03-0.06,0.06-0.09,0.09c0,0,0,0.01-0.01,0.01C11.38,40.77,11.41,40.73,11.41,40.73z"/>
	<path class="st2" d="M11.41,50.44c0.03,0.03,0.06,0.06,0.09,0.09h0.01C11.45,50.47,11.41,50.44,11.41,50.44z"/>
	<path class="st2" d="M51.49,50.35C51.49,50.34,51.49,50.34,51.49,50.35c-0.06,0.06-0.09,0.09-0.09,0.1l0.01-0.01
		C51.43,50.41,51.47,50.38,51.49,50.35z"/>
	<path class="st2" d="M54.66,44.07c0-0.9,0-1.8,0-2.68c0-0.02-0.01-0.06-0.01-0.08c0-0.08-0.01-0.15-0.02-0.21
		c-0.18-2.05-1.86-3.67-3.91-3.67c-0.78,0-1.57,0-2.36,0c0-0.93,0-1.86,0-2.78c0-1.71,0-3.42,0-5.14c0-0.67,0-1.35,0-2.02
		c0.42,0,0.84,0,1.26,0c1.13,0,2.29-0.43,3.04-1.34c0.63-0.76,0.98-1.66,0.99-2.67c0-0.22,0-0.45,0-0.67c0-2.18,0-4.37,0-6.54
		c0-0.49,0-0.99,0-1.47c0-0.03,0.01-0.07,0.01-0.11c-0.03-2.18-1.76-3.95-3.91-3.97c-0.2,0-0.39,0-0.58,0c-1.16,0-2.31,0-3.47,0
		c-1.91,0-3.81,0-5.72,0c-0.29,0-0.57,0-0.86,0c0-0.03,0-0.07,0-0.1c0-0.02,0.01-0.03,0-0.06c0-0.04-0.02-0.1-0.02-0.15
		c-0.01-0.06-0.01-0.12-0.02-0.18c-0.12-1.23-0.75-2.34-1.78-3.03c-0.65-0.44-1.43-0.62-2.19-0.62c-0.91,0-1.84,0-2.75,0
		c-1.22,0-2.43,0-3.66,0c-1.13,0-2.28-0.06-3.26,0.65c-1.1,0.79-1.76,1.99-1.77,3.37c0,0.03,0,0.08,0,0.11c-1.41,0-2.81,0-4.22,0
		c-1.54,0-3.07,0-4.61,0c-0.59,0-1.2,0-1.8,0c-2.15,0.02-3.88,1.81-3.9,4c0,0.65,0,1.3,0,1.95c0,2.13,0,4.28,0,6.41
		c0,0.17,0,0.34,0,0.51c0.04,1.31,0.68,2.46,1.72,3.21c0.69,0.51,1.54,0.7,2.38,0.7c0.4,0,0.79,0,1.19,0c0,0.06,0,0.11,0,0.17
		c0,1.45,0,2.88,0,4.32c0,1.82,0,3.64,0,5.46c-0.78,0-1.55,0-2.33,0c-0.02,0-0.03,0-0.05,0c-1.67,0.02-3.09,1.08-3.67,2.67
		c-0.21,0.56-0.22,1.15-0.22,1.74c0,1.35,0,2.71,0,4.05c0,1.23,0,2.48,0,3.73c0,0.85,0.18,1.72,0.68,2.42
		c0.78,1.11,1.95,1.75,3.3,1.75c0.87,0,1.74,0,2.61,0c0.58,1.44,2.05,2.42,3.59,2.45c0.57,0,1.16,0,1.73,0c1.41,0,2.83,0,4.25,0
		c1.88,0,3.77,0,5.65,0c1.97,0,3.94,0,5.91,0c1.67,0,3.36,0,5.04,0c1.04,0,2.06,0,3.08,0c0.15,0,0.31,0,0.45,0
		c0.99-0.01,1.89-0.39,2.63-1.06c0.43-0.38,0.73-0.88,0.94-1.39c0.65,0,1.3,0,1.95,0c0.56,0,1.1,0.01,1.65-0.1
		c1.34-0.28,2.39-1.37,2.83-2.66c0.31-0.88,0.19-1.96,0.19-2.87C54.66,46.78,54.66,45.43,54.66,44.07z M24.03,14.57
		c0-0.28,0-0.55,0-0.83c0.46,0,0.93,0,1.4,0c1.77,0,3.54,0,5.31,0c1.8,0,3.59,0,5.39,0c0.89,0,1.77,0,2.67,0c0,0.13,0,0.26,0,0.38
		c0,1.52,0,3.04,0,4.56c0,1.84,0,3.68,0,5.53c0,0.07,0,0.13,0,0.2c-0.79,0-1.6,0-2.39,0c-2.98,0-5.96,0-8.94,0
		c-1.15,0-2.28,0-3.41,0c0-1.7,0-3.38,0-5.07C24.03,17.75,24.03,16.17,24.03,14.57z M48.34,13.74c0.46,0,0.91,0,1.38,0
		c0.04,0,0.08,0.01,0.12,0.01c0.1,0.02,0.19,0.04,0.28,0.08c0.06,0.03,0.12,0.06,0.18,0.1c-0.02-0.02-0.03-0.03-0.07-0.07
		c0.02,0.02,0.06,0.04,0.08,0.07c0.01,0,0.01,0.01,0.02,0.01c0.08,0.06,0.11,0.1,0.09,0.09c0.01,0.01,0.03,0.03,0.07,0.07
		c0.04,0.07,0.08,0.13,0.11,0.21c0.03,0.1,0.06,0.2,0.08,0.29c0,0.02,0,0.04,0,0.07c0,1.02,0,2.04,0,3.06c0,1.61,0,3.2,0,4.8
		c0,0.35,0.01,0.71-0.01,1.06c-0.02,0.09-0.04,0.18-0.08,0.27c-0.03,0.06-0.06,0.12-0.1,0.18c0.02-0.02,0.03-0.03,0.07-0.07
		c-0.02,0.02-0.04,0.06-0.07,0.08c0,0,0,0.01-0.01,0.02c-0.04,0.08-0.1,0.11-0.09,0.09c-0.01,0.01-0.03,0.03-0.07,0.07
		c-0.07,0.04-0.13,0.08-0.21,0.11c-0.09,0.03-0.18,0.06-0.26,0.08c-0.34,0.02-0.67,0.01-1.01,0.01c-0.65,0-1.31,0-1.96,0
		c-0.01,0-0.01,0-0.02,0c-1.02,0-2.05,0-3.08,0c-0.67,0-1.34,0-2,0c0-1.7,0-3.38,0-5.07c0-1.59,0-3.18,0-4.76c0-0.28,0-0.55,0-0.83
		c1.19,0,2.37,0,3.56,0C46.33,13.74,47.34,13.74,48.34,13.74z M26.95,9.87c0.01-0.01,0.03-0.03,0.07-0.07
		c0.07-0.04,0.13-0.08,0.21-0.11c0.09-0.03,0.18-0.06,0.28-0.08c0.25-0.01,0.51-0.01,0.76-0.01c0.63,0,1.24,0,1.87,0
		c1.42,0,2.84,0,4.27,0c0.31,0,0.63-0.01,0.95,0.01c0.09,0.02,0.18,0.04,0.26,0.08c0.05,0.03,0.12,0.06,0.18,0.1
		c-0.02-0.02-0.03-0.03-0.07-0.07c0.02,0.02,0.04,0.04,0.08,0.07c0.01,0,0.01,0.01,0.02,0.01c0.08,0.06,0.11,0.1,0.09,0.09
		c0.01,0.01,0.03,0.03,0.07,0.07c0.04,0.07,0.08,0.13,0.11,0.21c0.03,0.09,0.05,0.17,0.07,0.26c0,0.03,0,0.07,0,0.11
		c0,0.06,0,0.1,0,0.16c-0.91,0-1.82,0-2.73,0c-0.13,0-0.26,0-0.4,0c-2.1,0-4.21,0-6.31,0c-0.01,0-0.02,0-0.03,0
		c0-0.09,0-0.17,0.01-0.26c0.02-0.09,0.04-0.18,0.07-0.26c0.03-0.06,0.06-0.12,0.1-0.18c-0.02,0.02-0.03,0.03-0.07,0.07
		c0.02-0.02,0.04-0.04,0.07-0.08c0-0.01,0.01-0.01,0.01-0.02C26.92,9.88,26.97,9.85,26.95,9.87z M13.1,24.42
		c-0.04,0-0.08-0.01-0.12-0.01c-0.1-0.02-0.19-0.05-0.28-0.08c-0.06-0.03-0.12-0.06-0.18-0.1c0.02,0.02,0.03,0.03,0.07,0.07
		c-0.02-0.02-0.06-0.04-0.08-0.07c-0.01,0-0.01-0.01-0.02-0.01c-0.08-0.06-0.11-0.1-0.09-0.09c-0.01-0.01-0.03-0.03-0.07-0.07
		c-0.04-0.07-0.08-0.13-0.11-0.21c-0.03-0.09-0.06-0.18-0.08-0.27c-0.01-0.29-0.01-0.58-0.01-0.88c0-0.71,0-1.43,0-2.13
		c0-1.64,0-3.28,0-4.92c0-0.36-0.01-0.73,0.01-1.09c0.02-0.09,0.04-0.18,0.08-0.27c0.03-0.06,0.06-0.12,0.1-0.18
		c-0.02,0.02-0.03,0.03-0.07,0.07c0.02-0.02,0.04-0.06,0.07-0.08c0-0.01,0.01-0.01,0.01-0.02c0.06-0.08,0.1-0.11,0.09-0.09
		c0.01-0.01,0.03-0.03,0.07-0.07c0.07-0.04,0.13-0.08,0.21-0.11c0.09-0.03,0.18-0.06,0.26-0.08c0.33-0.02,0.67-0.01,1.01-0.01
		c0.88,0,1.76,0,2.63,0c1.32,0,2.64,0,3.96,0c0.15,0,0.32,0,0.47,0c0,0.13,0,0.26,0,0.38c0,1.52,0,3.04,0,4.56c0,1.84,0,3.68,0,5.53
		c0,0.07,0,0.13,0,0.2c-0.44,0-0.88,0-1.31,0c-1.24,0-2.5-0.02-3.74,0c-0.01,0-0.03,0-0.06,0c-0.01,0-0.01,0-0.02,0
		c-0.47,0-0.96,0-1.43,0C14.02,24.42,13.56,24.42,13.1,24.42z M11.95,50.7c-0.09-0.02-0.18-0.04-0.25-0.07
		c-0.06-0.03-0.12-0.06-0.18-0.1c0.02,0.02,0.03,0.03,0.07,0.07c-0.02-0.02-0.06-0.04-0.08-0.07c0,0-0.01-0.01-0.02-0.01
		c-0.08-0.06-0.11-0.1-0.09-0.09c-0.01-0.01-0.03-0.03-0.07-0.07c-0.04-0.07-0.08-0.13-0.11-0.21c-0.03-0.09-0.06-0.18-0.08-0.27
		c-0.01-0.28-0.01-0.56-0.01-0.83c0-0.68,0-1.36,0-2.04c0-1.56,0-3.11,0-4.67c0-0.35-0.01-0.7,0.01-1.04
		c0.02-0.09,0.04-0.18,0.08-0.27c0.03-0.06,0.06-0.12,0.1-0.18c-0.02,0.02-0.03,0.03-0.07,0.07c0.02-0.02,0.04-0.04,0.07-0.08
		c0-0.01,0.01-0.01,0.01-0.02c0.06-0.08,0.1-0.11,0.09-0.09c0.01-0.01,0.03-0.03,0.07-0.07c0.07-0.05,0.13-0.08,0.21-0.11
		c0.09-0.03,0.18-0.06,0.28-0.08c0.03,0,0.06,0,0.09,0c0.79,0,1.59,0,2.39,0c0,1.09,0,2.19,0,3.28c0,1.7,0,3.4,0,5.1
		c0,0.63,0,1.26,0,1.87c-0.19,0-0.37,0-0.56,0C13.24,50.72,12.59,50.75,11.95,50.7z M45.1,52.91c-0.01,0.01-0.03,0.03-0.07,0.07
		c-0.07,0.04-0.13,0.08-0.21,0.11c-0.09,0.03-0.18,0.06-0.28,0.08c-0.24,0.01-0.48,0.01-0.73,0.01c-0.63,0-1.26,0-1.88,0
		c-2.09,0-4.17,0-6.27,0c-2.56,0-5.11,0-7.67,0c-2.19,0-4.37,0-6.55,0c-1.04,0-2.07,0.01-3.11,0c-0.03,0-0.07,0-0.1-0.01
		c-0.1-0.02-0.19-0.05-0.29-0.08c-0.06-0.03-0.12-0.06-0.18-0.1c0.02,0.02,0.03,0.03,0.07,0.07c-0.02-0.02-0.06-0.04-0.08-0.07
		c-0.01,0-0.01-0.01-0.02-0.01c-0.08-0.06-0.11-0.1-0.09-0.09c-0.01-0.01-0.03-0.03-0.07-0.07c-0.04-0.07-0.08-0.13-0.11-0.21
		c-0.03-0.09-0.06-0.18-0.08-0.28c0-0.02,0-0.04,0-0.07c0-0.01,0-0.01,0-0.02c0-1.5,0-3,0-4.5c0-2.39,0-4.78,0-7.16
		c0-0.54,0-1.09,0-1.63c0-0.02-0.01-0.03-0.01-0.04c0-1.02,0-2.03,0-3.05c0-2.21,0-4.42,0-6.62c0-0.58,0.01-1.17,0.01-1.75
		c1.2,0,2.4,0,3.61,0c0,0.51,0,1.01,0,1.52c0,0.77-0.01,1.55,0,2.32c0,0.01,0,0.02,0,0.03c0,0.8,0.68,1.56,1.5,1.53
		c0.82-0.03,1.5-0.67,1.5-1.53c0-0.64,0-1.27,0-1.91c0-0.65,0-1.3,0-1.96c1.33,0,2.67,0,4,0c2.4,0,4.8,0,7.2,0c1.18,0,2.37,0,3.55,0
		c0,0.51,0,1.01,0,1.52c0,0.77-0.01,1.55,0,2.32c0,0.01,0,0.02,0,0.03c0,0.8,0.68,1.56,1.5,1.53c0.81-0.03,1.5-0.67,1.5-1.53
		c0-0.64,0-1.27,0-1.91c0-0.65,0-1.3,0-1.96c0.05,0,0.1,0,0.15,0c0.72,0,1.42,0,2.14,0c0.44,0,0.88,0,1.32,0c0,0.38,0,0.75,0,1.13
		c0,2.11,0,4.23,0,6.34c0,1.34,0,2.66,0,4c0,1.21,0,2.44,0,3.65c0,0.29,0,0.57,0,0.85c0,1.9,0,3.79,0,5.69c0,0.49,0,0.98,0,1.47
		c0,0.54,0,1.07,0,1.61c0,0.03-0.01,0.07-0.01,0.1c-0.02,0.1-0.04,0.19-0.08,0.29c-0.03,0.06-0.05,0.12-0.1,0.18
		c0.02-0.02,0.03-0.03,0.07-0.07c-0.02,0.02-0.04,0.06-0.07,0.08c0,0,0,0.01-0.01,0.02C45.13,52.9,45.09,52.93,45.1,52.91z
		 M51.4,50.45c-0.01,0.01-0.03,0.03-0.07,0.07c-0.07,0.04-0.13,0.08-0.21,0.11c-0.09,0.03-0.17,0.06-0.25,0.07
		c-0.64,0.06-1.3,0.01-1.93,0.01c-0.19,0-0.39,0-0.57,0c0-1,0-1.99,0-2.99c0-2.39,0-4.78,0-7.16c0-0.03,0-0.07,0-0.1
		c0.19,0,0.39,0,0.57,0c0.63,0,1.29-0.03,1.93,0.01c0.09,0.02,0.18,0.04,0.25,0.07c0.05,0.03,0.12,0.06,0.18,0.1
		c-0.02-0.02-0.03-0.03-0.07-0.07c0.02,0.02,0.05,0.05,0.08,0.07c0.01,0,0.01,0.01,0.02,0.01c0.08,0.06,0.11,0.1,0.09,0.09
		c0.01,0.01,0.03,0.03,0.07,0.07c0.04,0.07,0.08,0.13,0.11,0.21c0.03,0.1,0.06,0.2,0.08,0.29c0,0.02,0,0.05,0,0.07c0,2.5,0,5,0,7.49
		c0,0.34,0.01,0.67-0.01,1.01c-0.02,0.09-0.04,0.18-0.08,0.27c-0.03,0.06-0.05,0.12-0.1,0.18c0.02-0.02,0.03-0.03,0.07-0.07
		c-0.02,0.02-0.04,0.05-0.07,0.08c0,0.01,0,0.01-0.01,0.02C51.43,50.44,51.38,50.48,51.4,50.45z"/>
	<path class="st2" d="M51.4,40.73c-0.03-0.03-0.06-0.06-0.09-0.09H51.3C51.37,40.71,51.4,40.74,51.4,40.73
		C51.41,40.74,51.41,40.74,51.4,40.73z"/>
	<path class="st2" d="M50.4,14.01c-0.03-0.03-0.06-0.06-0.09-0.09H50.3C50.35,13.98,50.4,14.01,50.4,14.01z"/>
	<path class="st2" d="M12.41,14.01c-0.03,0.03-0.06,0.06-0.09,0.09v0.01C12.39,14.06,12.42,14.02,12.41,14.01
		C12.42,14.01,12.42,14,12.41,14.01z"/>
	<path class="st2" d="M12.41,24.14c0.03,0.03,0.06,0.06,0.09,0.09h0.01C12.46,24.17,12.42,24.14,12.41,24.14z"/>
	<path class="st2" d="M50.4,24.14c0.03-0.03,0.05-0.06,0.09-0.09c0,0,0-0.01,0.01-0.01C50.43,24.09,50.4,24.14,50.4,24.14z"/>
	<path class="st2" d="M26.86,9.98c0.06-0.06,0.09-0.09,0.09-0.1l-0.01,0.01C26.92,9.92,26.88,9.95,26.86,9.98z"/>
	<path class="st2" d="M35.89,9.88c-0.03-0.03-0.07-0.06-0.09-0.09h-0.01C35.85,9.85,35.88,9.88,35.89,9.88z"/>
	<path class="st2" d="M35.24,44.56c-2.24,0-4.47,0-6.71,0c-0.32,0-0.64,0-0.96,0c-0.78,0-1.53,0.7-1.5,1.53
		c0.03,0.83,0.65,1.53,1.5,1.53c2.24,0,4.47,0,6.71,0c0.32,0,0.64,0,0.96,0c0.78,0,1.53-0.7,1.5-1.53
		C36.7,45.25,36.08,44.56,35.24,44.56z"/>
</g>
</svg>
