<?xml version="1.0" encoding="utf-8"?>
<!-- Generator: Adobe Illustrator 27.3.1, SVG Export Plug-In . SVG Version: 6.00 Build 0)  -->
<svg version="1.1" xmlns="http://www.w3.org/2000/svg" xmlns:xlink="http://www.w3.org/1999/xlink" x="0px" y="0px"
	 viewBox="0 0 62.8 62.8" style="enable-background:new 0 0 62.8 62.8;" xml:space="preserve">
<style type="text/css">
	.st0{display:none;}
	.st1{display:inline;fill:#4D76BA;}
	.st2{fill:#4D76BA;}
</style>
<g id="Layer_2" class="st0">
	<path class="st1" d="M51.07,27.17c-0.02,0.05-0.04,0.08-0.07,0.13C51.12,27.1,51.14,27.05,51.07,27.17
		c-0.06,0.09-0.13,0.17-0.19,0.25c-0.13,0.15-0.29,0.31-0.42,0.45c-0.07,0.06-0.35,0.32-0.01,0.02c-0.08,0.07-0.15,0.14-0.23,0.21
		c-0.15,0.14-0.31,0.27-0.46,0.39c-0.63,0.52-1.3,0.97-2,1.36c0.11-0.05,0.21-0.11,0.31-0.18c-1.01,0.56-2.09,0.98-3.21,1.25
		c0.12-0.03,0.24-0.06,0.36-0.09c-1.29,0.31-2.62,0.38-3.94,0.52c-1.64,0.17-3.27,0.34-4.91,0.51c-0.4,0.04-0.8,0.08-1.2,0.12
		c0.4,0.76,0.79,1.5,1.18,2.26c1.47-1.58,2.94-3.18,4.42-4.77c0.21-0.22,0.41-0.45,0.62-0.67c0.37-0.41,0.39-1.09,0.15-1.54
		c-0.24-0.45-0.79-0.83-1.32-0.72c-2.12,0.45-4.23,0.9-6.35,1.34c-1.15,0.24-2.3,0.48-3.47,0.73c-0.39,0.08-0.89,0.14-1.21,0.37
		c-0.37,0.27-0.61,0.78-0.88,1.15c-0.72,1.06-1.45,2.12-2.17,3.19c0.31-0.17,0.62-0.34,0.93-0.51c-1.41,0.15-2.82,0.29-4.23,0.44
		c-0.49,0.05-0.99,0.09-1.48,0.07c0.12,0,0.24,0,0.37,0.02c-0.84-0.03-1.66-0.18-2.46-0.42c0.11,0.03,0.22,0.07,0.34,0.1
		c-1.01-0.32-1.93-0.85-2.86-1.35c-1.04-0.56-2.07-1.11-3.11-1.66c-0.26-0.13-0.52-0.27-0.77-0.41c0.17,0.15,0.36,0.3,0.54,0.45
		c-0.81-1.47-1.64-2.94-2.45-4.42c-0.12-0.21-0.23-0.42-0.36-0.64c0.05,0.11,0.11,0.22,0.17,0.32c-0.02-0.04-0.03-0.07-0.04-0.1
		c0.03,0.12,0.06,0.24,0.09,0.36c-0.01-0.03-0.01-0.08-0.01-0.11c0,0.12-0.01,0.25-0.02,0.38c0.01-0.06,0.01-0.11,0.03-0.17
		l-0.1,0.35c0.06-0.13,0.02-0.07-0.1,0.16c-0.2,0.16-0.24,0.22-0.13,0.13c-0.11,0.05-0.21,0.12-0.31,0.18
		c0.4-0.19,0.82-0.33,1.23-0.49c0.41-0.16,0.82-0.37,1.25-0.48c-0.12,0.03-0.24,0.06-0.36,0.09c0.13-0.03,0.24-0.04,0.37-0.04
		c-0.12,0-0.24,0-0.37-0.02c0.1,0.01,0.2,0.02,0.29,0.05c-0.11-0.04-0.22-0.07-0.34-0.1c0.06,0.03,0.14,0.07,0.2,0.08
		c-1.34-0.24-0.29-0.21-0.23-0.14c0.01,0.01,0.02,0.01,0.02,0.03c0.03,0.03,0.07,0.06,0.11,0.1c0.15,0.13,0.29,0.27,0.44,0.4
		c0.48,0.43,0.98,0.87,1.46,1.31c0.94,0.84,1.88,1.69,2.82,2.54c0.07,0.06,0.13,0.12,0.19,0.17c0.41,0.34,0.92,0.37,1.41,0.2
		c0.16-0.05,0.31-0.1,0.47-0.16c0.74-0.25,1.46-0.5,2.2-0.76c2.55-0.87,5.09-1.74,7.64-2.61c2.7-0.92,5.41-1.85,8.11-2.78
		c1.39-0.48,2.77-0.95,4.16-1.42c0.24-0.08,0.47-0.14,0.7-0.21c-0.12,0.03-0.24,0.06-0.36,0.09c0.7-0.18,1.42-0.24,2.13-0.23
		c-0.12,0-0.24,0-0.37-0.02c0.71,0.03,1.42,0.14,2.11,0.36c-0.11-0.03-0.22-0.07-0.34-0.1c0.94,0.3,1.8,0.82,2.68,1.29
		c0.89,0.49,1.77,0.96,2.67,1.44c0.07,0.04,0.26,0.11,0.3,0.16c0,0-0.3-0.2-0.13-0.09c0.05,0.03,0.1,0.07,0.15,0.11
		c0.04,0.03,0.08,0.06,0.12,0.11c0.04,0.03,0.22,0.21,0.04,0.02c-0.17-0.19-0.03-0.03,0.01,0.01c0.04,0.05,0.08,0.09,0.11,0.14
		c0.07,0.1,0.13,0.2,0.19,0.31c-0.05-0.11-0.1-0.21-0.17-0.31c0.12,0.23,0.22,0.48,0.27,0.74c-0.03-0.12-0.06-0.24-0.09-0.36
		c0.05,0.24,0.07,0.47,0.06,0.72c0-0.12,0.01-0.25,0.02-0.38c-0.01,0.27-0.06,0.53-0.14,0.78c0.03-0.12,0.07-0.23,0.1-0.35
		C51.21,26.87,51.15,27.02,51.07,27.17c-0.34,0.65,0,1.57,0.66,1.84c0.71,0.29,1.47,0,1.82-0.69c0.7-1.37,0.56-3.05-0.26-4.3
		c-0.48-0.74-1.19-1.18-1.94-1.59c-1.2-0.65-2.4-1.3-3.61-1.95c-2.31-1.25-5-1.48-7.49-0.63c-0.4,0.13-0.8,0.27-1.21,0.41
		c-1.03,0.35-2.04,0.69-3.06,1.04c-1.4,0.47-2.8,0.96-4.19,1.43c-1.55,0.53-3.1,1.06-4.65,1.59c-1.46,0.5-2.92,1-4.37,1.5
		c-1.13,0.39-2.26,0.77-3.39,1.16c-0.56,0.19-1.13,0.38-1.69,0.57c-0.02,0-0.05,0.02-0.08,0.03c0.45,0.08,0.91,0.14,1.36,0.22
		c-0.81-0.72-1.62-1.45-2.42-2.17c-0.57-0.52-1.16-1.03-1.73-1.55c-0.29-0.27-0.58-0.55-0.89-0.8c-0.65-0.53-1.6-0.62-2.39-0.34
		c-0.24,0.08-0.48,0.19-0.71,0.29C10.22,23.48,9.57,23.68,9,24c-0.63,0.35-1.02,1.04-0.96,1.77c0.03,0.35,0.16,0.62,0.32,0.92
		c0.08,0.15,0.16,0.29,0.24,0.43c0.34,0.62,0.69,1.23,1.03,1.85l1.12,2.01c0.28,0.5,0.44,0.9,0.97,1.19
		c1.09,0.61,2.22,1.19,3.32,1.78c0.53,0.29,1.07,0.57,1.61,0.87c0.89,0.48,1.83,0.84,2.8,1.06c1.15,0.27,2.35,0.31,3.52,0.19
		c0.63-0.06,1.24-0.13,1.87-0.19c0.71-0.07,1.42-0.15,2.13-0.22c0.36-0.04,0.72-0.06,1.02-0.3c0.21-0.16,0.31-0.33,0.45-0.53
		c0.8-1.17,1.6-2.34,2.4-3.51c0.07-0.1,0.13-0.19,0.2-0.3c-0.31,0.17-0.62,0.34-0.93,0.51c1.16-0.25,2.34-0.49,3.5-0.74
		c1.86-0.39,3.71-0.79,5.58-1.18c0.42-0.09,0.85-0.18,1.27-0.27c-0.4-0.76-0.79-1.5-1.18-2.26c-1.47,1.58-2.94,3.18-4.42,4.77
		c-0.21,0.22-0.41,0.45-0.62,0.67c-0.37,0.41-0.39,1.09-0.15,1.54c0.26,0.48,0.78,0.78,1.32,0.72c1.75-0.18,3.5-0.36,5.24-0.54
		c0.92-0.1,1.84-0.19,2.77-0.28c1.4-0.14,2.8-0.44,4.12-0.96c1.13-0.45,2.22-1.05,3.21-1.77c0.47-0.35,0.92-0.73,1.34-1.12
		c0.57-0.54,1.09-1.06,1.47-1.76c0.34-0.64,0-1.57-0.66-1.84C52.17,26.18,51.45,26.48,51.07,27.17z"/>
	<path class="st1" d="M48.92,21.68c-1.12,0.35-2.24,0.71-3.36,1.07c-0.17,0.05-0.32,0.1-0.49,0.15c-0.69,0.22-1.08,1.14-0.8,1.8
		c0.31,0.73,1.02,1.03,1.77,0.79c1.12-0.35,2.24-0.71,3.36-1.07c0.17-0.05,0.32-0.1,0.49-0.15c0.69-0.22,1.08-1.15,0.8-1.8
		C50.38,21.75,49.66,21.45,48.92,21.68z"/>
	<path class="st1" d="M38.89,27.07c-0.66,0.66-1.31,1.32-1.98,1.98c-0.51,0.51-1.02,1.02-1.53,1.54c-0.58,0.58-1.16,1.17-1.74,1.75
		c-0.91,0.92-1.83,1.84-2.75,2.76c-0.55,0.55-1.12,1.1-1.65,1.66c-0.01,0.01-0.02,0.02-0.03,0.03c0.25-0.13,0.51-0.26,0.76-0.39
		c-1.45,0.2-2.9,0.41-4.35,0.61c-0.21,0.03-0.41,0.06-0.62,0.09c0.58,0.33,1.15,0.66,1.73,0.99c0.72-1.09,1.44-2.17,2.16-3.26
		c0.6-0.9,1.19-1.79,1.78-2.68c0.42-0.64,0.85-1.28,1.27-1.92c-0.25,0.13-0.51,0.26-0.76,0.39c1.06-0.29,2.13-0.57,3.19-0.86
		c1.7-0.46,3.38-0.91,5.08-1.37c0.38-0.11,0.77-0.21,1.16-0.31c0.33-0.09,0.61-0.2,0.76-0.39c0.14-0.16,0.17-0.39,0.04-0.56
		c-0.27-0.34-1.08-0.61-1.76-0.43c-1.5,0.4-3.01,0.81-4.51,1.22c-1.63,0.44-3.27,0.88-4.89,1.32c-0.35,0.1-0.65,0.21-0.8,0.41
		c-0.05,0.06-0.09,0.13-0.13,0.2c-0.18,0.27-0.35,0.53-0.53,0.8c-0.31,0.48-0.64,0.96-0.96,1.44c-0.53,0.8-1.06,1.6-1.59,2.39
		c-0.66,0.99-1.31,1.97-1.96,2.95c-0.01,0.02-0.02,0.04-0.04,0.05c-0.19,0.28-0.15,0.57,0.26,0.81c0.4,0.23,0.92,0.26,1.46,0.18
		c0.8-0.11,1.61-0.22,2.42-0.34c0.84-0.12,1.72-0.21,2.55-0.36c0.63-0.11,0.98-0.6,1.27-0.89c0.46-0.46,0.92-0.93,1.39-1.39
		c1.12-1.11,2.22-2.23,3.33-3.34c0.48-0.49,0.97-0.97,1.46-1.46c0.98-0.98,1.96-1.96,2.93-2.94c0.02-0.02,0.05-0.05,0.07-0.07
		c0.33-0.34-0.03-0.83-0.68-0.97C39.97,26.54,39.25,26.7,38.89,27.07z"/>
	<path class="st1" d="M14.56,39.63h34.36c0.76,0,1.36-0.62,1.36-1.39s-0.61-1.39-1.36-1.39H14.56c-0.76,0-1.36,0.62-1.36,1.39
		S13.8,39.63,14.56,39.63z"/>
</g>
<g id="_x31_">
	<path class="st2" d="M52.38,18.26c-0.01,0.05-0.02,0.09-0.04,0.14c0.07-0.22,0.08-0.27,0.04-0.13c-0.04,0.09-0.08,0.19-0.11,0.28
		c-0.09,0.18-0.19,0.37-0.29,0.54c-0.05,0.08-0.25,0.4-0.01,0.02c-0.06,0.09-0.11,0.17-0.16,0.26c-0.11,0.17-0.22,0.34-0.34,0.5
		c-0.46,0.67-0.99,1.28-1.56,1.85c0.09-0.08,0.17-0.16,0.25-0.25c-0.82,0.81-1.75,1.51-2.75,2.07c0.11-0.06,0.21-0.12,0.32-0.18
		c-1.16,0.64-2.42,1.08-3.65,1.56c-1.53,0.61-3.06,1.21-4.59,1.81c-0.37,0.14-0.75,0.3-1.12,0.44c0.59,0.62,1.16,1.24,1.75,1.86
		c0.99-1.92,1.98-3.85,2.96-5.79c0.14-0.27,0.28-0.54,0.41-0.81c0.25-0.49,0.08-1.15-0.27-1.53c-0.35-0.37-0.99-0.59-1.47-0.33
		c-1.92,1-3.83,2.01-5.75,3.01c-1.04,0.54-2.09,1.08-3.14,1.64c-0.35,0.18-0.82,0.38-1.06,0.68c-0.28,0.36-0.38,0.91-0.53,1.35
		c-0.41,1.21-0.82,2.43-1.23,3.65c0.25-0.24,0.5-0.5,0.76-0.74c-1.32,0.53-2.64,1.04-3.96,1.57c-0.46,0.19-0.93,0.35-1.41,0.47
		c0.12-0.03,0.23-0.06,0.36-0.08c-0.81,0.2-1.65,0.28-2.48,0.26c0.12,0,0.24,0.01,0.35,0.01c-1.06-0.04-2.08-0.3-3.12-0.52
		c-1.15-0.26-2.29-0.51-3.44-0.76c-0.29-0.06-0.57-0.12-0.86-0.19c0.21,0.1,0.42,0.19,0.64,0.28c-1.18-1.2-2.37-2.39-3.56-3.59
		c-0.17-0.17-0.34-0.35-0.52-0.52c0.08,0.09,0.17,0.18,0.25,0.27c-0.03-0.03-0.05-0.06-0.07-0.09c0.06,0.11,0.12,0.22,0.18,0.33
		c-0.02-0.03-0.03-0.07-0.04-0.1c0.03,0.12,0.06,0.24,0.08,0.37c-0.01-0.06-0.02-0.11-0.02-0.17l-0.01,0.36
		c0.02-0.14,0-0.07-0.06,0.18c-0.14,0.21-0.17,0.27-0.09,0.16c-0.09,0.08-0.17,0.17-0.25,0.25c0.33-0.29,0.7-0.54,1.05-0.8
		c0.35-0.26,0.69-0.58,1.07-0.8c-0.11,0.06-0.21,0.12-0.32,0.18c0.12-0.06,0.22-0.1,0.34-0.13c-0.12,0.03-0.23,0.06-0.36,0.08
		c0.1-0.02,0.2-0.03,0.29-0.03c-0.12-0.01-0.24-0.01-0.35-0.01c0.07,0.01,0.16,0.03,0.22,0.03c-1.35,0.13-0.34-0.13-0.26-0.08
		c0.01,0.01,0.02,0.01,0.03,0.02c0.04,0.02,0.09,0.04,0.14,0.07c0.18,0.09,0.36,0.18,0.53,0.26c0.58,0.28,1.17,0.58,1.76,0.87
		c1.13,0.56,2.27,1.12,3.4,1.68c0.08,0.04,0.16,0.08,0.23,0.12c0.48,0.21,0.98,0.11,1.41-0.19c0.14-0.09,0.27-0.18,0.41-0.28
		c0.64-0.44,1.27-0.88,1.92-1.32c2.22-1.53,4.43-3.05,6.65-4.58c2.35-1.62,4.71-3.25,7.06-4.86c1.21-0.83,2.41-1.67,3.62-2.49
		c0.2-0.14,0.41-0.26,0.61-0.39c-0.11,0.06-0.21,0.12-0.32,0.18c0.62-0.36,1.3-0.62,1.99-0.79c-0.12,0.03-0.23,0.06-0.36,0.08
		c0.69-0.17,1.41-0.25,2.13-0.23c-0.12,0-0.24-0.01-0.35-0.01c0.99,0.04,1.96,0.31,2.93,0.52c0.98,0.23,1.97,0.45,2.96,0.66
		c0.08,0.02,0.28,0.04,0.33,0.08c0,0-0.34-0.12-0.15-0.05c0.06,0.02,0.12,0.04,0.18,0.07c0.05,0.02,0.1,0.04,0.15,0.07
		c0.05,0.02,0.27,0.15,0.04,0.01c-0.22-0.14-0.04-0.02,0.01,0.01c0.05,0.04,0.1,0.07,0.15,0.11c0.1,0.08,0.18,0.16,0.27,0.25
		c-0.08-0.09-0.16-0.18-0.25-0.26c0.18,0.19,0.34,0.41,0.46,0.63c-0.06-0.11-0.12-0.22-0.18-0.33c0.11,0.22,0.19,0.44,0.25,0.68
		c-0.03-0.12-0.06-0.24-0.08-0.37c0.06,0.26,0.08,0.53,0.08,0.79c0-0.12,0.01-0.24,0.01-0.36C52.44,17.94,52.42,18.1,52.38,18.26
		c-0.15,0.71,0.42,1.52,1.14,1.6c0.77,0.09,1.42-0.4,1.57-1.16c0.31-1.5-0.28-3.09-1.41-4.07c-0.66-0.58-1.46-0.81-2.3-1
		c-1.33-0.3-2.67-0.6-4-0.9c-2.56-0.58-5.21-0.08-7.38,1.42c-0.35,0.23-0.7,0.48-1.05,0.72c-0.9,0.61-1.78,1.22-2.67,1.83
		c-1.22,0.83-2.43,1.68-3.65,2.51c-1.35,0.93-2.7,1.86-4.05,2.79c-1.27,0.88-2.54,1.75-3.81,2.63c-0.98,0.68-1.97,1.35-2.95,2.03
		c-0.49,0.34-0.98,0.67-1.47,1.01c-0.02,0.01-0.04,0.03-0.07,0.05c0.45-0.05,0.91-0.11,1.37-0.16c-0.98-0.48-1.95-0.96-2.92-1.44
		c-0.69-0.34-1.39-0.68-2.08-1.03c-0.36-0.18-0.71-0.37-1.08-0.53c-0.77-0.33-1.71-0.16-2.39,0.32c-0.2,0.14-0.41,0.31-0.6,0.47
		c-0.53,0.4-1.1,0.76-1.57,1.23c-0.51,0.51-0.7,1.28-0.45,1.97c0.12,0.33,0.32,0.56,0.56,0.8c0.12,0.12,0.23,0.24,0.35,0.35
		c0.5,0.5,0.99,1,1.49,1.5l1.62,1.63c0.41,0.41,0.67,0.75,1.26,0.89c1.22,0.3,2.46,0.54,3.68,0.82c0.59,0.13,1.18,0.26,1.78,0.4
		c0.98,0.22,1.99,0.32,2.99,0.26c1.18-0.05,2.35-0.34,3.43-0.77c0.59-0.23,1.16-0.46,1.75-0.69c0.66-0.26,1.33-0.53,1.99-0.78
		c0.33-0.13,0.67-0.25,0.91-0.56c0.15-0.21,0.21-0.4,0.29-0.63c0.46-1.35,0.91-2.68,1.37-4.03c0.04-0.11,0.08-0.22,0.11-0.34
		c-0.25,0.24-0.5,0.5-0.76,0.74c1.05-0.55,2.12-1.11,3.17-1.66c1.69-0.88,3.36-1.76,5.05-2.64c0.38-0.2,0.77-0.4,1.15-0.6
		c-0.59-0.62-1.16-1.24-1.75-1.86c-0.99,1.92-1.98,3.85-2.96,5.79c-0.14,0.27-0.28,0.54-0.41,0.82c-0.25,0.49-0.08,1.15,0.27,1.53
		c0.38,0.4,0.96,0.54,1.47,0.33c1.63-0.65,3.27-1.29,4.9-1.94c0.86-0.34,1.72-0.68,2.59-1.02c1.31-0.52,2.58-1.18,3.7-2.03
		c0.96-0.74,1.85-1.61,2.61-2.57c0.36-0.46,0.69-0.95,0.98-1.44c0.4-0.67,0.76-1.32,0.94-2.09c0.16-0.71-0.43-1.52-1.14-1.6
		C53.17,17.01,52.56,17.5,52.38,18.26z"/>
	<path class="st2" d="M48.82,13.56c-0.98,0.64-1.97,1.29-2.95,1.94c-0.15,0.09-0.28,0.18-0.43,0.28c-0.6,0.4-0.73,1.39-0.28,1.95
		c0.5,0.61,1.26,0.72,1.92,0.29c0.98-0.64,1.97-1.29,2.95-1.94c0.15-0.09,0.28-0.18,0.43-0.28c0.6-0.4,0.73-1.4,0.28-1.95
		C50.25,13.24,49.48,13.14,48.82,13.56z"/>
	<path class="st2" d="M41,21.36c-0.64,1.26-1.28,2.52-1.94,3.77c-0.5,0.98-1,1.95-1.5,2.93c-0.57,1.11-1.14,2.22-1.71,3.34
		c-0.89,1.75-1.79,3.51-2.69,5.26c-0.54,1.05-1.09,2.1-1.62,3.16c-0.01,0.02-0.02,0.03-0.03,0.05c0.25-0.24,0.5-0.5,0.76-0.74
		c-1.45,0.4-2.89,0.79-4.34,1.19c-0.21,0.05-0.41,0.11-0.62,0.17c0.59,0.62,1.16,1.24,1.75,1.86c0.7-2.07,1.39-4.14,2.09-6.21
		c0.58-1.71,1.16-3.4,1.73-5.1c0.41-1.21,0.82-2.43,1.23-3.65c-0.25,0.24-0.5,0.5-0.76,0.74c1.05-0.55,2.12-1.11,3.17-1.66
		c1.69-0.88,3.36-1.76,5.05-2.64c0.38-0.2,0.77-0.4,1.15-0.6c0.33-0.17,0.6-0.38,0.76-0.74c0.13-0.31,0.16-0.74,0.03-1.06
		c-0.27-0.64-1.09-1.15-1.77-0.8c-1.49,0.78-2.99,1.57-4.49,2.34c-1.62,0.85-3.25,1.69-4.87,2.55c-0.35,0.18-0.64,0.4-0.8,0.78
		c-0.05,0.12-0.09,0.25-0.12,0.37c-0.17,0.51-0.34,1.01-0.51,1.53c-0.3,0.91-0.62,1.83-0.93,2.74c-0.51,1.52-1.02,3.04-1.55,4.56
		c-0.64,1.88-1.27,3.75-1.9,5.62c-0.01,0.03-0.02,0.07-0.04,0.1c-0.18,0.54-0.13,1.09,0.27,1.53c0.41,0.43,0.93,0.49,1.47,0.33
		c0.8-0.22,1.6-0.44,2.42-0.67c0.84-0.23,1.71-0.42,2.54-0.7c0.63-0.21,0.97-1.14,1.26-1.7c0.45-0.89,0.9-1.77,1.36-2.66
		c1.09-2.12,2.18-4.25,3.26-6.37c0.47-0.93,0.95-1.85,1.43-2.78c0.96-1.87,1.92-3.73,2.87-5.6c0.02-0.04,0.05-0.09,0.07-0.13
		c0.33-0.65-0.05-1.58-0.7-1.84C42.07,20.35,41.35,20.66,41,21.36z"/>
	<path class="st2" d="M14.23,52.63h34.36c0.76,0,1.36-0.62,1.36-1.39s-0.61-1.39-1.36-1.39H14.23c-0.76,0-1.36,0.62-1.36,1.39
		S13.47,52.63,14.23,52.63z"/>
</g>
</svg>
