<?xml version="1.0" encoding="utf-8"?>
<!-- Generator: Adobe Illustrator 27.3.1, SVG Export Plug-In . SVG Version: 6.00 Build 0)  -->
<svg version="1.1" xmlns="http://www.w3.org/2000/svg" xmlns:xlink="http://www.w3.org/1999/xlink" x="0px" y="0px"
	 viewBox="0 0 62.8 62.8" style="enable-background:new 0 0 62.8 62.8;" xml:space="preserve">
<style type="text/css">
	.st0{display:none;}
	.st1{display:inline;fill:#4D76BA;}
	.st2{fill:#4D76BA;}
</style>
<g id="Layer_2" class="st0">
	<path class="st1" d="M11.03,12.79c1.92,0,3.86,0,5.78,0c0.06,0,0.12,0,0.18,0c0.59,0.79,1.19,1.58,1.78,2.37
		c1.01,1.35,2.02,2.69,3.03,4.04c-0.2,0-0.38,0-0.58,0c-1.16,0-2.32-0.02-3.47,0c-0.02,0-0.03,0-0.05,0c-0.47,0-0.91,0.26-1.15,0.67
		c-0.22,0.38-0.28,1,0,1.37c0.47,0.63,0.94,1.26,1.42,1.89c1.14,1.52,2.28,3.03,3.41,4.54c1.37,1.83,2.76,3.66,4.12,5.49
		c1.19,1.58,2.38,3.17,3.56,4.75c0.52,0.7,1.04,1.39,1.57,2.09c0,1.19,0,2.38,0,3.57c0,2.11,0,4.22,0,6.33c0,0.03,0,0.05,0,0.08
		c-0.74,0-1.47,0-2.2,0c-0.38,0-0.78,0-1.16,0c-0.7,0-1.36,0.62-1.33,1.36c0.03,0.73,0.58,1.36,1.33,1.36c1.05,0,2.11,0,3.16,0
		c0.41,0,0.82,0,1.24,0c0.09,0.02,0.19,0.03,0.28,0.03c0.04,0,0.08-0.02,0.12-0.03c1.12,0,2.25,0,3.37,0c0.38,0,0.78,0,1.16,0
		c0.7,0,1.36-0.62,1.33-1.36c-0.03-0.74-0.59-1.36-1.33-1.36c-1.05,0-2.11,0-3.16,0c-0.05,0-0.1,0-0.15,0c0-0.87,0-1.75,0-2.62
		c0-2.11,0-4.22,0-6.33c0-0.34,0-0.68,0-1.01c0.55-0.73,1.09-1.45,1.64-2.18c1.3-1.73,2.6-3.46,3.89-5.19
		c1.24-1.64,2.46-3.28,3.7-4.92c0.15-0.2,0.29-0.4,0.45-0.6c1.59,0.76,3.48,0.91,5.15,0.36c1.78-0.59,3.35-1.89,4.18-3.61
		c0.5-1.03,0.77-2.14,0.78-3.28c-0.01-1.44-0.42-2.92-1.26-4.09c-0.88-1.26-2.05-2.18-3.47-2.72c-2.66-1.01-5.89-0.14-7.71,2.08
		c-0.8,0.97-1.34,2.11-1.59,3.33c-0.81,0-1.63,0-2.43,0c-2.76,0-5.51,0-8.27,0c-1.07,0-2.14,0-3.21,0
		c-0.39-0.52-0.78-1.04-1.17-1.56c-1.02-1.36-2.04-2.71-3.05-4.07c-0.69-0.91-1.36-1.82-2.05-2.73c-0.02-0.03-0.04-0.05-0.06-0.08
		c0,0,0-0.01-0.01-0.01c-0.21-0.28-0.44-0.54-0.79-0.62c-0.05-0.01-0.3-0.05-0.36-0.05c-0.12,0-0.25,0-0.36,0c-0.68,0-1.35,0-2.03,0
		c-1.37,0-2.75-0.01-4.11,0c-0.03,0-0.05,0-0.08,0c-0.7,0-1.36,0.62-1.33,1.36C9.72,12.17,10.28,12.79,11.03,12.79z M48.6,24.24
		c0,0,0.03-0.03,0.07-0.05C48.64,24.21,48.61,24.24,48.6,24.24z M49.55,17.9c0,0-0.03-0.03-0.05-0.07
		C49.52,17.86,49.55,17.89,49.55,17.9z M43.34,16.96c0,0-0.03,0.02-0.07,0.05C43.3,16.98,43.33,16.95,43.34,16.96z M42.48,17.82
		c0.12-0.14,0.24-0.28,0.36-0.41c0.13-0.13,0.26-0.24,0.38-0.36c0,0,0.02-0.02,0.03-0.03c0.06-0.05,0.13-0.09,0.19-0.14
		c0.26-0.19,0.56-0.34,0.86-0.47c0.34-0.13,0.7-0.23,1.06-0.29c0.41-0.04,0.82-0.04,1.24,0c0.36,0.06,0.72,0.16,1.06,0.29
		c0.28,0.13,0.56,0.28,0.82,0.45c0.08,0.05,0.15,0.11,0.23,0.16c0.14,0.12,0.27,0.24,0.4,0.37c0.13,0.13,0.24,0.25,0.35,0.39
		c0,0,0.02,0.02,0.03,0.03c0.05,0.06,0.09,0.13,0.14,0.19c0.18,0.27,0.32,0.57,0.46,0.87c0.13,0.34,0.22,0.7,0.28,1.06
		c0.02,0.23,0.04,0.46,0.04,0.67c0,0.21-0.02,0.42-0.04,0.63c-0.06,0.37-0.16,0.73-0.28,1.08c-0.13,0.29-0.27,0.57-0.44,0.84
		c-0.05,0.08-0.11,0.15-0.16,0.23c-0.12,0.14-0.24,0.28-0.36,0.41c-0.13,0.13-0.25,0.24-0.38,0.36c0,0-0.02,0.02-0.03,0.03
		c-0.06,0.05-0.13,0.09-0.19,0.14c-0.26,0.18-0.56,0.33-0.85,0.47c-0.34,0.13-0.7,0.23-1.06,0.29c-0.4,0.04-0.8,0.04-1.21,0
		c-0.26-0.04-0.5-0.1-0.75-0.18c0.77-1.02,1.53-2.04,2.3-3.06c0.12-0.16,0.25-0.32,0.36-0.48c0.02-0.02,0.03-0.04,0.05-0.06
		c0.01-0.02,0.03-0.04,0.04-0.05c0.03-0.04,0.04-0.09,0.06-0.13c0.01-0.02,0.02-0.03,0.02-0.05c0.17-0.37,0.11-0.87-0.08-1.2
		c-0.24-0.41-0.68-0.67-1.15-0.67c-1.49,0-2.97,0-4.45,0c0.03-0.1,0.06-0.2,0.1-0.3c0.13-0.29,0.26-0.58,0.44-0.84
		C42.37,17.97,42.42,17.9,42.48,17.82z M35.59,21.91c1.53,0,3.07,0,4.6,0c0.83,0,1.67,0,2.51,0c0.27,0,0.55,0,0.82,0
		c-0.55,0.73-1.09,1.45-1.64,2.18c-0.15,0.2-0.3,0.4-0.45,0.6c0,0,0,0.01-0.01,0.01c-0.31,0.41-0.62,0.83-0.93,1.24
		c-1.17,1.56-2.34,3.12-3.51,4.68c-1.32,1.77-2.66,3.54-3.98,5.31c-0.35,0.47-0.71,0.95-1.07,1.42c-0.09-0.12-0.18-0.24-0.27-0.36
		c-1.14-1.52-2.28-3.03-3.41-4.54c-1.37-1.83-2.75-3.66-4.12-5.49c-1.19-1.58-2.38-3.17-3.56-4.75c-0.08-0.1-0.15-0.2-0.23-0.3
		c0.06,0,0.12,0,0.17,0c2.27,0,4.53,0,6.8,0C30.08,21.91,32.84,21.91,35.59,21.91z"/>
</g>
<g id="_x31_">
	<path class="st2" d="M54.34,11.44c0.03-0.74-0.64-1.36-1.33-1.36c-0.03,0-0.05,0-0.08,0c-1.36-0.01-2.74,0-4.11,0
		c-0.68,0-1.35,0-2.03,0c-0.12,0-0.25,0-0.36,0c-0.06,0-0.31,0.04-0.36,0.05c-0.35,0.08-0.59,0.34-0.79,0.62
		c-0.01,0-0.01,0.01-0.01,0.01c-0.02,0.03-0.04,0.05-0.06,0.08c-0.69,0.91-1.36,1.82-2.05,2.73c-1.01,1.36-2.03,2.71-3.05,4.07
		c-0.39,0.52-0.77,1.04-1.17,1.56c-1.07,0-2.14,0-3.21,0c-2.76,0-5.51,0-8.27,0c-0.8,0-1.62,0-2.43,0
		c-0.25-1.22-0.78-2.36-1.59-3.33c-1.82-2.22-5.05-3.09-7.71-2.08c-1.42,0.54-2.59,1.46-3.47,2.72c-0.83,1.17-1.25,2.65-1.26,4.09
		c0.01,1.14,0.27,2.25,0.78,3.28c0.83,1.72,2.4,3.02,4.18,3.61c1.67,0.55,3.56,0.4,5.15-0.36c0.16,0.2,0.3,0.4,0.45,0.6
		c1.24,1.64,2.46,3.28,3.7,4.92c1.3,1.73,2.6,3.46,3.89,5.19c0.55,0.73,1.09,1.45,1.64,2.18c0,0.33,0,0.67,0,1.01
		c0,2.11,0,4.22,0,6.33c0,0.87,0,1.75,0,2.62c-0.05,0-0.1,0-0.15,0c-1.05,0-2.11,0-3.16,0c-0.75,0-1.3,0.62-1.33,1.36
		c-0.03,0.74,0.64,1.36,1.33,1.36c0.38,0,0.77,0,1.16,0c1.12,0,2.25,0,3.37,0c0.04,0.01,0.08,0.03,0.12,0.03
		c0.1,0,0.2-0.01,0.28-0.03c0.41,0,0.82,0,1.24,0c1.05,0,2.11,0,3.16,0c0.76,0,1.3-0.63,1.33-1.36c0.03-0.74-0.64-1.36-1.33-1.36
		c-0.38,0-0.78,0-1.16,0c-0.73,0-1.46,0-2.2,0c0-0.03,0-0.05,0-0.08c0-2.11,0-4.22,0-6.33c0-1.19,0-2.38,0-3.57
		c0.53-0.7,1.05-1.39,1.57-2.09c1.18-1.58,2.37-3.17,3.56-4.75c1.36-1.83,2.75-3.66,4.12-5.49c1.14-1.51,2.28-3.02,3.41-4.54
		c0.48-0.63,0.95-1.26,1.42-1.89c0.28-0.37,0.22-0.99,0-1.37c-0.24-0.41-0.68-0.67-1.15-0.67c-0.02,0-0.03,0-0.05,0
		c-1.16-0.02-2.32,0-3.47,0c-0.2,0-0.38,0-0.58,0c1.01-1.35,2.02-2.69,3.03-4.04c0.59-0.79,1.19-1.58,1.78-2.37
		c0.06,0,0.12,0,0.18,0c1.92,0,3.86,0,5.78,0C53.78,12.79,54.34,12.17,54.34,11.44z M15.39,24.19c0.04,0.02,0.07,0.05,0.07,0.05
		C15.45,24.24,15.42,24.21,15.39,24.19z M14.57,17.83c-0.02,0.04-0.05,0.07-0.05,0.07C14.52,17.89,14.55,17.86,14.57,17.83z
		 M20.8,17.01c-0.04-0.03-0.07-0.05-0.07-0.05C20.74,16.95,20.77,16.98,20.8,17.01z M21.71,18.06c0.18,0.26,0.31,0.55,0.44,0.84
		c0.04,0.1,0.07,0.2,0.1,0.3c-1.48,0-2.96,0-4.45,0c-0.47,0-0.91,0.26-1.15,0.67c-0.19,0.33-0.25,0.83-0.08,1.2
		c0,0.02,0.01,0.03,0.02,0.05c0.02,0.04,0.03,0.09,0.06,0.13c0.01,0.01,0.03,0.03,0.04,0.05c0.02,0.02,0.03,0.04,0.05,0.06
		c0.12,0.16,0.25,0.32,0.36,0.48c0.77,1.02,1.53,2.04,2.3,3.06c-0.25,0.08-0.49,0.14-0.75,0.18c-0.4,0.04-0.8,0.04-1.21,0
		c-0.36-0.06-0.72-0.16-1.06-0.29c-0.29-0.14-0.59-0.29-0.85-0.47c-0.06-0.05-0.13-0.09-0.19-0.14c-0.01-0.01-0.03-0.03-0.03-0.03
		c-0.14-0.12-0.26-0.23-0.38-0.36c-0.13-0.13-0.25-0.27-0.36-0.41c-0.05-0.08-0.11-0.15-0.16-0.23c-0.17-0.27-0.31-0.55-0.44-0.84
		c-0.13-0.35-0.23-0.71-0.28-1.08c-0.02-0.21-0.04-0.42-0.04-0.63c0-0.21,0.02-0.44,0.04-0.67c0.07-0.36,0.16-0.72,0.28-1.06
		c0.14-0.3,0.28-0.6,0.46-0.87c0.05-0.06,0.09-0.13,0.14-0.19c0.01-0.01,0.03-0.03,0.03-0.03c0.12-0.14,0.23-0.26,0.35-0.39
		c0.13-0.13,0.26-0.25,0.4-0.37c0.08-0.05,0.15-0.11,0.23-0.16c0.26-0.17,0.54-0.32,0.82-0.45c0.34-0.13,0.7-0.23,1.06-0.29
		c0.41-0.04,0.82-0.04,1.24,0c0.36,0.06,0.72,0.16,1.06,0.29c0.3,0.13,0.6,0.28,0.86,0.47c0.06,0.05,0.13,0.09,0.19,0.14
		c0.01,0.01,0.03,0.03,0.03,0.03c0.13,0.12,0.26,0.23,0.38,0.36c0.13,0.13,0.25,0.27,0.36,0.41C21.64,17.9,21.69,17.97,21.71,18.06z
		 M36.76,21.91c2.27,0,4.53,0,6.8,0c0.05,0,0.11,0,0.17,0c-0.08,0.1-0.15,0.2-0.23,0.3c-1.18,1.58-2.37,3.17-3.56,4.75
		c-1.37,1.83-2.75,3.66-4.12,5.49c-1.14,1.51-2.28,3.02-3.41,4.54c-0.1,0.12-0.19,0.24-0.27,0.36c-0.36-0.47-0.72-0.95-1.07-1.42
		c-1.32-1.77-2.66-3.54-3.98-5.31c-1.17-1.56-2.34-3.12-3.51-4.68c-0.31-0.41-0.62-0.83-0.93-1.24c-0.01,0-0.01-0.01-0.01-0.01
		c-0.15-0.2-0.3-0.4-0.45-0.6c-0.55-0.73-1.09-1.45-1.64-2.18c0.27,0,0.55,0,0.82,0c0.84,0,1.68,0,2.51,0c1.53,0,3.07,0,4.6,0
		C31.23,21.91,33.98,21.91,36.76,21.91z"/>
</g>
</svg>
