<?xml version="1.0" encoding="utf-8"?>
<!-- Generator: Adobe Illustrator 27.3.1, SVG Export Plug-In . SVG Version: 6.00 Build 0)  -->
<svg version="1.1" xmlns="http://www.w3.org/2000/svg" xmlns:xlink="http://www.w3.org/1999/xlink" x="0px" y="0px"
	 viewBox="0 0 75.94 75.94" style="enable-background:new 0 0 75.94 75.94;" xml:space="preserve">
<style type="text/css">
	.st0{fill:#4D76BA;}
	.st1{fill:#FFFFFF;filter:url(#Adobe_OpacityMaskFilter);}
	
		.st2{mask:url(#path-1-outside-1_1_2212_00000004524478795642618470000009384636166469460892_);fill:none;stroke:#F2F1F1;stroke-width:8;}
	.st3{fill:#F2F1F1;}
	.st4{display:none;}
	.st5{display:inline;fill:#4D76BA;}
	.st6{display:inline;fill:#FFFFFF;filter:url(#Adobe_OpacityMaskFilter_00000018949957843437473200000004197948908378981554_);}
	.st7{display:inline;}
	
		.st8{display:inline;mask:url(#path-1-outside-1_1_2212_00000065035221930160277470000000922139003356385948_);fill:none;stroke:#F2F1F1;stroke-width:8;}
	.st9{display:inline;fill:#F2F1F1;}
</style>
<g id="Layer_2">
	<path class="st0" d="M46.07,40.64c-0.5-0.17-1.06-0.22-1.58-0.3c-1.84-0.27-3.69-0.54-5.53-0.82c-0.42-0.06-0.85-0.13-1.28-0.19
		l-3.68-3.75c-0.49-0.5-0.97-1.06-1.51-1.52c-0.81-0.68-1.78-1.08-2.85-1.08H19.9c-0.5,0-1.02,0.04-1.5,0.21
		c-0.71,0.26-1.3,0.66-1.84,1.21l-3.93,4.01h-0.99c-0.84,0-1.69,0.06-2.41,0.56c-1.02,0.69-1.63,1.8-1.64,3.05
		c-0.01,0.35,0,0.7,0,1.06v3.86c0,0.45-0.03,0.92,0.09,1.36c0.34,1.23,1.44,1.97,2.66,1.97h2.24c0.12,0.36,0.26,0.7,0.43,1.02
		c0.46,0.79,1.17,1.46,1.98,1.84c0.97,0.44,1.97,0.57,3.01,0.36c1.67-0.32,2.93-1.64,3.43-3.22h14.31c0.12,0.36,0.25,0.7,0.43,1.02
		c0.46,0.79,1.16,1.46,1.98,1.84c0.96,0.44,1.97,0.57,3.01,0.36c1.66-0.32,2.92-1.64,3.42-3.22h1.79c0.67,0,1.31-0.01,1.91-0.38
		s1.08-1,1.23-1.71c0.06-0.31,0.07-0.61,0.07-0.93v-1.44c0.01-0.08,0.02-0.16,0.02-0.24C49.6,43.31,48.15,41.33,46.07,40.64z
		 M18.99,49.12c-0.03,0.16-0.07,0.32-0.13,0.47c-0.06,0.16-0.14,0.3-0.23,0.44c-0.01,0.01-0.02,0.02-0.03,0.04
		c-0.06,0.06-0.13,0.14-0.19,0.21c-0.05,0.05-0.13,0.12-0.19,0.17c-0.01,0.01-0.02,0.02-0.04,0.03c-0.14,0.09-0.28,0.17-0.44,0.24
		c-0.14,0.05-0.27,0.09-0.42,0.13c-0.22,0.01-0.42,0.01-0.64,0c-0.15-0.03-0.28-0.07-0.42-0.13c-0.15-0.07-0.28-0.14-0.42-0.23
		c-0.02-0.01-0.04-0.02-0.06-0.04c-0.06-0.05-0.13-0.12-0.19-0.17c-0.06-0.06-0.12-0.13-0.17-0.19c-0.01-0.02-0.02-0.03-0.03-0.04
		c-0.09-0.15-0.17-0.29-0.24-0.45c-0.05-0.15-0.09-0.29-0.13-0.44c-0.02-0.21-0.02-0.43,0-0.64c0.03-0.15,0.07-0.29,0.12-0.43
		c0.07-0.15,0.15-0.29,0.24-0.43c0.01-0.02,0.02-0.04,0.04-0.06c0.05-0.06,0.1-0.14,0.17-0.2c0.06-0.05,0.13-0.12,0.19-0.17
		c0.01-0.01,0.03-0.02,0.04-0.03c0.15-0.09,0.28-0.17,0.44-0.24c0.15-0.05,0.28-0.09,0.43-0.13c0.21-0.01,0.42-0.01,0.63,0
		c0.15,0.03,0.27,0.07,0.42,0.13c0.14,0.06,0.27,0.14,0.41,0.22c0.02,0.02,0.03,0.03,0.05,0.04c0.07,0.06,0.14,0.12,0.2,0.18
		c0.05,0.06,0.12,0.13,0.17,0.19c0.01,0.01,0.02,0.02,0.03,0.04c0.1,0.14,0.17,0.29,0.24,0.45c0.05,0.16,0.09,0.31,0.14,0.47
		c0,0.12,0.02,0.23,0.01,0.35c0,0.03,0.01,0.06,0.01,0.09C19,49.03,19,49.08,18.99,49.12z M42.16,49.12
		c-0.03,0.16-0.07,0.32-0.13,0.47c-0.07,0.16-0.15,0.3-0.24,0.44c0,0.01-0.01,0.02-0.02,0.04c-0.06,0.06-0.13,0.14-0.19,0.21
		c-0.06,0.05-0.13,0.12-0.19,0.17c-0.01,0.01-0.03,0.02-0.04,0.03c-0.14,0.09-0.28,0.17-0.44,0.24c-0.15,0.05-0.28,0.09-0.43,0.13
		c-0.21,0.01-0.41,0.01-0.63,0c-0.15-0.03-0.28-0.07-0.43-0.13c-0.15-0.07-0.27-0.14-0.41-0.23c-0.02-0.01-0.03-0.02-0.04-0.02
		c-0.07-0.07-0.15-0.13-0.21-0.19c-0.06-0.06-0.12-0.13-0.17-0.19c-0.01-0.02-0.02-0.03-0.03-0.04c-0.09-0.15-0.17-0.29-0.24-0.45
		c-0.05-0.15-0.09-0.29-0.13-0.44c-0.02-0.21-0.02-0.43,0-0.64c0.03-0.15,0.07-0.29,0.12-0.43c0.07-0.15,0.15-0.29,0.24-0.43
		c0.01-0.02,0.02-0.04,0.04-0.06c0.05-0.06,0.1-0.14,0.17-0.2c0.06-0.05,0.13-0.12,0.19-0.17c0.01-0.01,0.03-0.02,0.04-0.03
		c0.15-0.09,0.28-0.17,0.44-0.24c0.15-0.05,0.28-0.09,0.43-0.13c0.21-0.01,0.42-0.01,0.63,0c0.06,0.02,0.13,0.03,0.19,0.04
		c0.07,0.02,0.15,0.05,0.21,0.07c0.15,0.07,0.28,0.15,0.42,0.23c0.02,0.02,0.04,0.03,0.06,0.04c0.06,0.06,0.14,0.12,0.2,0.18
		c0.05,0.06,0.11,0.13,0.17,0.19c0.01,0.01,0.02,0.02,0.03,0.04c0.09,0.14,0.17,0.29,0.24,0.45c0.05,0.16,0.09,0.31,0.13,0.47
		c0.01,0.12,0.02,0.23,0.02,0.35c0,0.05,0.01,0.1,0.01,0.16V49.12z M46.96,46.63c0,0.29,0.01,0.6-0.01,0.9v0.01h-2.28
		c-0.01-0.03-0.02-0.06-0.03-0.09c-0.01-0.05-0.03-0.09-0.05-0.14c-0.06-0.18-0.13-0.36-0.21-0.53c-0.01-0.03-0.04-0.07-0.06-0.12
		c-0.08-0.16-0.17-0.31-0.26-0.46c-0.6-0.86-1.37-1.48-2.34-1.85c-1.73-0.67-3.89-0.06-5.07,1.39c-0.14,0.16-0.24,0.34-0.35,0.5
		c-0.03,0.05-0.06,0.09-0.09,0.15c-0.09,0.15-0.17,0.31-0.24,0.47c-0.03,0.07-0.07,0.15-0.1,0.23c-0.06,0.15-0.1,0.29-0.15,0.45
		H22.38c-0.28,0-0.59-0.01-0.87-0.01c-0.07-0.26-0.17-0.52-0.28-0.77c-0.09-0.2-0.2-0.39-0.31-0.57c-0.6-0.87-1.36-1.48-2.33-1.85
		c-1.74-0.67-3.89-0.07-5.07,1.38c-0.3,0.38-0.54,0.79-0.72,1.22c-0.02,0.04-0.05,0.08-0.06,0.14c-0.06,0.15-0.12,0.3-0.16,0.45
		h-1.86c-0.15,0-0.28,0.01-0.43,0h-0.01l-0.01-0.01v-4.94c0-0.23,0-0.45,0.01-0.68c0.02-0.09,0.04-0.19,0.08-0.27
		c0.03-0.06,0.05-0.12,0.09-0.18c0.02-0.03,0.05-0.06,0.07-0.08c0.01-0.01,0.04-0.04,0.07-0.06c0.05-0.04,0.12-0.07,0.18-0.1
		c0.09-0.03,0.19-0.05,0.28-0.07c0.23-0.01,0.45-0.01,0.68-0.01h1.46c0.38-0.02,0.71-0.18,0.99-0.44c0.14-0.14,0.26-0.27,0.4-0.42
		c1.12-1.13,2.23-2.26,3.36-3.41c0.19-0.19,0.38-0.39,0.58-0.58c0.03-0.03,0.06-0.07,0.09-0.1c0.04-0.03,0.07-0.06,0.1-0.09
		c0.01-0.01,0.02-0.02,0.03-0.03c0.12-0.08,0.25-0.15,0.37-0.21c0.15-0.05,0.28-0.09,0.44-0.13c0.36-0.03,0.72-0.02,1.08-0.02h7.93
		c0.44,0,0.89-0.01,1.33,0.02c0.17,0.03,0.31,0.07,0.47,0.14c0.07,0.04,0.16,0.07,0.22,0.12c0.04,0.02,0.07,0.05,0.12,0.07
		c0.02,0.02,0.04,0.04,0.07,0.06c0.04,0.03,0.07,0.07,0.12,0.12l1.62,1.65c1.04,1.05,2.07,2.11,3.09,3.15
		c0.31,0.31,0.67,0.78,1.12,0.88c0.29,0.07,0.61,0.09,0.91,0.14c1.45,0.22,2.9,0.44,4.36,0.66c0.93,0.14,1.87,0.26,2.81,0.42
		c0.25,0.04,0.49,0.12,0.73,0.21c0.15,0.07,0.28,0.14,0.41,0.22c0.03,0.02,0.07,0.04,0.1,0.07c0.02,0.02,0.05,0.03,0.06,0.04
		l0.13,0.13c0.07,0.06,0.15,0.14,0.21,0.22l0.06,0.06c0.11,0.19,0.22,0.38,0.3,0.58c0.07,0.2,0.13,0.4,0.17,0.61
		c0.01,0.1,0.02,0.21,0.02,0.31v1.05H46.96z"/>
	<defs>
		<filter id="Adobe_OpacityMaskFilter" filterUnits="userSpaceOnUse" x="3.57" y="28.98" width="50.02" height="28.61">
			<feColorMatrix  type="matrix" values="1 0 0 0 0  0 1 0 0 0  0 0 1 0 0  0 0 0 1 0"/>
		</filter>
	</defs>
	
		<mask maskUnits="userSpaceOnUse" x="3.57" y="28.98" width="50.02" height="28.61" id="path-1-outside-1_1_2212_00000004524478795642618470000009384636166469460892_">
		<rect x="2.57" y="28.98" class="st1" width="52" height="29"/>
		<path d="M46.07,40.64c-0.5-0.17-1.06-0.22-1.58-0.3c-1.84-0.27-3.69-0.54-5.53-0.82c-0.42-0.06-0.85-0.13-1.28-0.19l-3.68-3.75
			c-0.49-0.5-0.97-1.06-1.51-1.52c-0.81-0.68-1.78-1.08-2.85-1.08H19.9c-0.5,0-1.02,0.04-1.5,0.21c-0.71,0.26-1.3,0.66-1.84,1.21
			l-3.93,4.01h-0.99c-0.84,0-1.69,0.06-2.41,0.56c-1.02,0.69-1.63,1.8-1.64,3.05c-0.01,0.35,0,0.7,0,1.06v3.86
			c0,0.45-0.03,0.92,0.09,1.36c0.34,1.23,1.44,1.97,2.66,1.97h2.24c0.12,0.36,0.26,0.7,0.43,1.02c0.46,0.79,1.17,1.46,1.98,1.84
			c0.97,0.44,1.97,0.57,3.01,0.36c1.67-0.32,2.93-1.64,3.43-3.22h14.31c0.12,0.36,0.25,0.7,0.43,1.02c0.46,0.79,1.16,1.46,1.98,1.84
			c0.96,0.44,1.97,0.57,3.01,0.36c1.66-0.32,2.92-1.64,3.42-3.22h1.79c0.67,0,1.31-0.01,1.91-0.38s1.08-1,1.23-1.71
			c0.06-0.31,0.07-0.61,0.07-0.93v-1.44c0.01-0.08,0.02-0.16,0.02-0.24C49.6,43.31,48.15,41.33,46.07,40.64z M18.99,49.12
			c-0.03,0.16-0.07,0.32-0.13,0.47c-0.06,0.16-0.14,0.3-0.23,0.44c-0.01,0.01-0.02,0.02-0.03,0.04c-0.06,0.06-0.13,0.14-0.19,0.21
			c-0.05,0.05-0.13,0.12-0.19,0.17c-0.01,0.01-0.02,0.02-0.04,0.03c-0.14,0.09-0.28,0.17-0.44,0.24c-0.14,0.05-0.27,0.09-0.42,0.13
			c-0.22,0.01-0.42,0.01-0.64,0c-0.15-0.03-0.28-0.07-0.42-0.13c-0.15-0.07-0.28-0.14-0.42-0.23c-0.02-0.01-0.04-0.02-0.06-0.04
			c-0.06-0.05-0.13-0.12-0.19-0.17c-0.06-0.06-0.12-0.13-0.17-0.19c-0.01-0.02-0.02-0.03-0.03-0.04c-0.09-0.15-0.17-0.29-0.24-0.45
			c-0.05-0.15-0.09-0.29-0.13-0.44c-0.02-0.21-0.02-0.43,0-0.64c0.03-0.15,0.07-0.29,0.12-0.43c0.07-0.15,0.15-0.29,0.24-0.43
			c0.01-0.02,0.02-0.04,0.04-0.06c0.05-0.06,0.1-0.14,0.17-0.2c0.06-0.05,0.13-0.12,0.19-0.17c0.01-0.01,0.03-0.02,0.04-0.03
			c0.15-0.09,0.28-0.17,0.44-0.24c0.15-0.05,0.28-0.09,0.43-0.13c0.21-0.01,0.42-0.01,0.63,0c0.15,0.03,0.27,0.07,0.42,0.13
			c0.14,0.06,0.27,0.14,0.41,0.22c0.02,0.02,0.03,0.03,0.05,0.04c0.07,0.06,0.14,0.12,0.2,0.18c0.05,0.06,0.12,0.13,0.17,0.19
			c0.01,0.01,0.02,0.02,0.03,0.04c0.1,0.14,0.17,0.29,0.24,0.45c0.05,0.16,0.09,0.31,0.14,0.47c0,0.12,0.02,0.23,0.01,0.35
			c0,0.03,0.01,0.06,0.01,0.09C19,49.03,19,49.08,18.99,49.12z M42.16,49.12c-0.03,0.16-0.07,0.32-0.13,0.47
			c-0.07,0.16-0.15,0.3-0.24,0.44c0,0.01-0.01,0.02-0.02,0.04c-0.06,0.06-0.13,0.14-0.19,0.21c-0.06,0.05-0.13,0.12-0.19,0.17
			c-0.01,0.01-0.03,0.02-0.04,0.03c-0.14,0.09-0.28,0.17-0.44,0.24c-0.15,0.05-0.28,0.09-0.43,0.13c-0.21,0.01-0.41,0.01-0.63,0
			c-0.15-0.03-0.28-0.07-0.43-0.13c-0.15-0.07-0.27-0.14-0.41-0.23c-0.02-0.01-0.03-0.02-0.04-0.02c-0.07-0.07-0.15-0.13-0.21-0.19
			c-0.06-0.06-0.12-0.13-0.17-0.19c-0.01-0.02-0.02-0.03-0.03-0.04c-0.09-0.15-0.17-0.29-0.24-0.45c-0.05-0.15-0.09-0.29-0.13-0.44
			c-0.02-0.21-0.02-0.43,0-0.64c0.03-0.15,0.07-0.29,0.12-0.43c0.07-0.15,0.15-0.29,0.24-0.43c0.01-0.02,0.02-0.04,0.04-0.06
			c0.05-0.06,0.1-0.14,0.17-0.2c0.06-0.05,0.13-0.12,0.19-0.17c0.01-0.01,0.03-0.02,0.04-0.03c0.15-0.09,0.28-0.17,0.44-0.24
			c0.15-0.05,0.28-0.09,0.43-0.13c0.21-0.01,0.42-0.01,0.63,0c0.06,0.02,0.13,0.03,0.19,0.04c0.07,0.02,0.15,0.05,0.21,0.07
			c0.15,0.07,0.28,0.15,0.42,0.23c0.02,0.02,0.04,0.03,0.06,0.04c0.06,0.06,0.14,0.12,0.2,0.18c0.05,0.06,0.11,0.13,0.17,0.19
			c0.01,0.01,0.02,0.02,0.03,0.04c0.09,0.14,0.17,0.29,0.24,0.45c0.05,0.16,0.09,0.31,0.13,0.47c0.01,0.12,0.02,0.23,0.02,0.35
			c0,0.05,0.01,0.1,0.01,0.16V49.12z M46.96,46.63c0,0.29,0.01,0.6-0.01,0.9v0.01h-2.28c-0.01-0.03-0.02-0.06-0.03-0.09
			c-0.01-0.05-0.03-0.09-0.05-0.14c-0.06-0.18-0.13-0.36-0.21-0.53c-0.01-0.03-0.04-0.07-0.06-0.12c-0.08-0.16-0.17-0.31-0.26-0.46
			c-0.6-0.86-1.37-1.48-2.34-1.85c-1.73-0.67-3.89-0.06-5.07,1.39c-0.14,0.16-0.24,0.34-0.35,0.5c-0.03,0.05-0.06,0.09-0.09,0.15
			c-0.09,0.15-0.17,0.31-0.24,0.47c-0.03,0.07-0.07,0.15-0.1,0.23c-0.06,0.15-0.1,0.29-0.15,0.45H22.38c-0.28,0-0.59-0.01-0.87-0.01
			c-0.07-0.26-0.17-0.52-0.28-0.77c-0.09-0.2-0.2-0.39-0.31-0.57c-0.6-0.87-1.36-1.48-2.33-1.85c-1.74-0.67-3.89-0.07-5.07,1.38
			c-0.3,0.38-0.54,0.79-0.72,1.22c-0.02,0.04-0.05,0.08-0.06,0.14c-0.06,0.15-0.12,0.3-0.16,0.45h-1.86c-0.15,0-0.28,0.01-0.43,0
			h-0.01l-0.01-0.01v-4.94c0-0.23,0-0.45,0.01-0.68c0.02-0.09,0.04-0.19,0.08-0.27c0.03-0.06,0.05-0.12,0.09-0.18
			c0.02-0.03,0.05-0.06,0.07-0.08c0.01-0.01,0.04-0.04,0.07-0.06c0.05-0.04,0.12-0.07,0.18-0.1c0.09-0.03,0.19-0.05,0.28-0.07
			c0.23-0.01,0.45-0.01,0.68-0.01h1.46c0.38-0.02,0.71-0.18,0.99-0.44c0.14-0.14,0.26-0.27,0.4-0.42c1.12-1.13,2.23-2.26,3.36-3.41
			c0.19-0.19,0.38-0.39,0.58-0.58c0.03-0.03,0.06-0.07,0.09-0.1c0.04-0.03,0.07-0.06,0.1-0.09c0.01-0.01,0.02-0.02,0.03-0.03
			c0.12-0.08,0.25-0.15,0.37-0.21c0.15-0.05,0.28-0.09,0.44-0.13c0.36-0.03,0.72-0.02,1.08-0.02h7.93c0.44,0,0.89-0.01,1.33,0.02
			c0.17,0.03,0.31,0.07,0.47,0.14c0.07,0.04,0.16,0.07,0.22,0.12c0.04,0.02,0.07,0.05,0.12,0.07c0.02,0.02,0.04,0.04,0.07,0.06
			c0.04,0.03,0.07,0.07,0.12,0.12l1.62,1.65c1.04,1.05,2.07,2.11,3.09,3.15c0.31,0.31,0.67,0.78,1.12,0.88
			c0.29,0.07,0.61,0.09,0.91,0.14c1.45,0.22,2.9,0.44,4.36,0.66c0.93,0.14,1.87,0.26,2.81,0.42c0.25,0.04,0.49,0.12,0.73,0.21
			c0.15,0.07,0.28,0.14,0.41,0.22c0.03,0.02,0.07,0.04,0.1,0.07c0.02,0.02,0.05,0.03,0.06,0.04l0.13,0.13
			c0.07,0.06,0.15,0.14,0.21,0.22l0.06,0.06c0.11,0.19,0.22,0.38,0.3,0.58c0.07,0.2,0.13,0.4,0.17,0.61
			c0.01,0.1,0.02,0.21,0.02,0.31v1.05H46.96z"/>
	</mask>
	<path class="st2" d="M46.07,40.64c-0.5-0.17-1.06-0.22-1.58-0.3c-1.84-0.27-3.69-0.54-5.53-0.82c-0.42-0.06-0.85-0.13-1.28-0.19
		l-3.68-3.75c-0.49-0.5-0.97-1.06-1.51-1.52c-0.81-0.68-1.78-1.08-2.85-1.08H19.9c-0.5,0-1.02,0.04-1.5,0.21
		c-0.71,0.26-1.3,0.66-1.84,1.21l-3.93,4.01h-0.99c-0.84,0-1.69,0.06-2.41,0.56c-1.02,0.69-1.63,1.8-1.64,3.05
		c-0.01,0.35,0,0.7,0,1.06v3.86c0,0.45-0.03,0.92,0.09,1.36c0.34,1.23,1.44,1.97,2.66,1.97h2.24c0.12,0.36,0.26,0.7,0.43,1.02
		c0.46,0.79,1.17,1.46,1.98,1.84c0.97,0.44,1.97,0.57,3.01,0.36c1.67-0.32,2.93-1.64,3.43-3.22h14.31c0.12,0.36,0.25,0.7,0.43,1.02
		c0.46,0.79,1.16,1.46,1.98,1.84c0.96,0.44,1.97,0.57,3.01,0.36c1.66-0.32,2.92-1.64,3.42-3.22h1.79c0.67,0,1.31-0.01,1.91-0.38
		s1.08-1,1.23-1.71c0.06-0.31,0.07-0.61,0.07-0.93v-1.44c0.01-0.08,0.02-0.16,0.02-0.24C49.6,43.31,48.15,41.33,46.07,40.64z
		 M18.99,49.12c-0.03,0.16-0.07,0.32-0.13,0.47c-0.06,0.16-0.14,0.3-0.23,0.44c-0.01,0.01-0.02,0.02-0.03,0.04
		c-0.06,0.06-0.13,0.14-0.19,0.21c-0.05,0.05-0.13,0.12-0.19,0.17c-0.01,0.01-0.02,0.02-0.04,0.03c-0.14,0.09-0.28,0.17-0.44,0.24
		c-0.14,0.05-0.27,0.09-0.42,0.13c-0.22,0.01-0.42,0.01-0.64,0c-0.15-0.03-0.28-0.07-0.42-0.13c-0.15-0.07-0.28-0.14-0.42-0.23
		c-0.02-0.01-0.04-0.02-0.06-0.04c-0.06-0.05-0.13-0.12-0.19-0.17c-0.06-0.06-0.12-0.13-0.17-0.19c-0.01-0.02-0.02-0.03-0.03-0.04
		c-0.09-0.15-0.17-0.29-0.24-0.45c-0.05-0.15-0.09-0.29-0.13-0.44c-0.02-0.21-0.02-0.43,0-0.64c0.03-0.15,0.07-0.29,0.12-0.43
		c0.07-0.15,0.15-0.29,0.24-0.43c0.01-0.02,0.02-0.04,0.04-0.06c0.05-0.06,0.1-0.14,0.17-0.2c0.06-0.05,0.13-0.12,0.19-0.17
		c0.01-0.01,0.03-0.02,0.04-0.03c0.15-0.09,0.28-0.17,0.44-0.24c0.15-0.05,0.28-0.09,0.43-0.13c0.21-0.01,0.42-0.01,0.63,0
		c0.15,0.03,0.27,0.07,0.42,0.13c0.14,0.06,0.27,0.14,0.41,0.22c0.02,0.02,0.03,0.03,0.05,0.04c0.07,0.06,0.14,0.12,0.2,0.18
		c0.05,0.06,0.12,0.13,0.17,0.19c0.01,0.01,0.02,0.02,0.03,0.04c0.1,0.14,0.17,0.29,0.24,0.45c0.05,0.16,0.09,0.31,0.14,0.47
		c0,0.12,0.02,0.23,0.01,0.35c0,0.03,0.01,0.06,0.01,0.09C19,49.03,19,49.08,18.99,49.12z M42.16,49.12
		c-0.03,0.16-0.07,0.32-0.13,0.47c-0.07,0.16-0.15,0.3-0.24,0.44c0,0.01-0.01,0.02-0.02,0.04c-0.06,0.06-0.13,0.14-0.19,0.21
		c-0.06,0.05-0.13,0.12-0.19,0.17c-0.01,0.01-0.03,0.02-0.04,0.03c-0.14,0.09-0.28,0.17-0.44,0.24c-0.15,0.05-0.28,0.09-0.43,0.13
		c-0.21,0.01-0.41,0.01-0.63,0c-0.15-0.03-0.28-0.07-0.43-0.13c-0.15-0.07-0.27-0.14-0.41-0.23c-0.02-0.01-0.03-0.02-0.04-0.02
		c-0.07-0.07-0.15-0.13-0.21-0.19c-0.06-0.06-0.12-0.13-0.17-0.19c-0.01-0.02-0.02-0.03-0.03-0.04c-0.09-0.15-0.17-0.29-0.24-0.45
		c-0.05-0.15-0.09-0.29-0.13-0.44c-0.02-0.21-0.02-0.43,0-0.64c0.03-0.15,0.07-0.29,0.12-0.43c0.07-0.15,0.15-0.29,0.24-0.43
		c0.01-0.02,0.02-0.04,0.04-0.06c0.05-0.06,0.1-0.14,0.17-0.2c0.06-0.05,0.13-0.12,0.19-0.17c0.01-0.01,0.03-0.02,0.04-0.03
		c0.15-0.09,0.28-0.17,0.44-0.24c0.15-0.05,0.28-0.09,0.43-0.13c0.21-0.01,0.42-0.01,0.63,0c0.06,0.02,0.13,0.03,0.19,0.04
		c0.07,0.02,0.15,0.05,0.21,0.07c0.15,0.07,0.28,0.15,0.42,0.23c0.02,0.02,0.04,0.03,0.06,0.04c0.06,0.06,0.14,0.12,0.2,0.18
		c0.05,0.06,0.11,0.13,0.17,0.19c0.01,0.01,0.02,0.02,0.03,0.04c0.09,0.14,0.17,0.29,0.24,0.45c0.05,0.16,0.09,0.31,0.13,0.47
		c0.01,0.12,0.02,0.23,0.02,0.35c0,0.05,0.01,0.1,0.01,0.16V49.12z M46.96,46.63c0,0.29,0.01,0.6-0.01,0.9v0.01h-2.28
		c-0.01-0.03-0.02-0.06-0.03-0.09c-0.01-0.05-0.03-0.09-0.05-0.14c-0.06-0.18-0.13-0.36-0.21-0.53c-0.01-0.03-0.04-0.07-0.06-0.12
		c-0.08-0.16-0.17-0.31-0.26-0.46c-0.6-0.86-1.37-1.48-2.34-1.85c-1.73-0.67-3.89-0.06-5.07,1.39c-0.14,0.16-0.24,0.34-0.35,0.5
		c-0.03,0.05-0.06,0.09-0.09,0.15c-0.09,0.15-0.17,0.31-0.24,0.47c-0.03,0.07-0.07,0.15-0.1,0.23c-0.06,0.15-0.1,0.29-0.15,0.45
		H22.38c-0.28,0-0.59-0.01-0.87-0.01c-0.07-0.26-0.17-0.52-0.28-0.77c-0.09-0.2-0.2-0.39-0.31-0.57c-0.6-0.87-1.36-1.48-2.33-1.85
		c-1.74-0.67-3.89-0.07-5.07,1.38c-0.3,0.38-0.54,0.79-0.72,1.22c-0.02,0.04-0.05,0.08-0.06,0.14c-0.06,0.15-0.12,0.3-0.16,0.45
		h-1.86c-0.15,0-0.28,0.01-0.43,0h-0.01l-0.01-0.01v-4.94c0-0.23,0-0.45,0.01-0.68c0.02-0.09,0.04-0.19,0.08-0.27
		c0.03-0.06,0.05-0.12,0.09-0.18c0.02-0.03,0.05-0.06,0.07-0.08c0.01-0.01,0.04-0.04,0.07-0.06c0.05-0.04,0.12-0.07,0.18-0.1
		c0.09-0.03,0.19-0.05,0.28-0.07c0.23-0.01,0.45-0.01,0.68-0.01h1.46c0.38-0.02,0.71-0.18,0.99-0.44c0.14-0.14,0.26-0.27,0.4-0.42
		c1.12-1.13,2.23-2.26,3.36-3.41c0.19-0.19,0.38-0.39,0.58-0.58c0.03-0.03,0.06-0.07,0.09-0.1c0.04-0.03,0.07-0.06,0.1-0.09
		c0.01-0.01,0.02-0.02,0.03-0.03c0.12-0.08,0.25-0.15,0.37-0.21c0.15-0.05,0.28-0.09,0.44-0.13c0.36-0.03,0.72-0.02,1.08-0.02h7.93
		c0.44,0,0.89-0.01,1.33,0.02c0.17,0.03,0.31,0.07,0.47,0.14c0.07,0.04,0.16,0.07,0.22,0.12c0.04,0.02,0.07,0.05,0.12,0.07
		c0.02,0.02,0.04,0.04,0.07,0.06c0.04,0.03,0.07,0.07,0.12,0.12l1.62,1.65c1.04,1.05,2.07,2.11,3.09,3.15
		c0.31,0.31,0.67,0.78,1.12,0.88c0.29,0.07,0.61,0.09,0.91,0.14c1.45,0.22,2.9,0.44,4.36,0.66c0.93,0.14,1.87,0.26,2.81,0.42
		c0.25,0.04,0.49,0.12,0.73,0.21c0.15,0.07,0.28,0.14,0.41,0.22c0.03,0.02,0.07,0.04,0.1,0.07c0.02,0.02,0.05,0.03,0.06,0.04
		l0.13,0.13c0.07,0.06,0.15,0.14,0.21,0.22l0.06,0.06c0.11,0.19,0.22,0.38,0.3,0.58c0.07,0.2,0.13,0.4,0.17,0.61
		c0.01,0.1,0.02,0.21,0.02,0.31v1.05H46.96z"/>
	<path class="st0" d="M67.02,30c-0.5-0.17-1.06-0.22-1.58-0.3c-1.84-0.27-3.69-0.54-5.53-0.82c-0.42-0.06-0.85-0.13-1.28-0.19
		l-3.68-3.75c-0.49-0.5-0.96-1.06-1.51-1.52c-0.81-0.68-1.78-1.08-2.85-1.08h-9.75c-0.5,0-1.02,0.04-1.5,0.21
		c-0.71,0.26-1.3,0.66-1.84,1.21l-3.93,4.01h-0.99c-0.84,0-1.69,0.06-2.41,0.56c-1.02,0.69-1.63,1.8-1.64,3.05
		c-0.01,0.35,0,0.7,0,1.06v3.86c0,0.45-0.03,0.92,0.09,1.36c0.34,1.23,1.44,1.97,2.66,1.97h2.24c0.12,0.36,0.26,0.7,0.43,1.02
		c0.46,0.79,1.17,1.46,1.98,1.84c0.97,0.44,1.97,0.57,3.01,0.36c1.67-0.32,2.93-1.64,3.43-3.22h14.31c0.12,0.36,0.25,0.7,0.43,1.02
		c0.46,0.79,1.16,1.46,1.98,1.84c0.96,0.44,1.97,0.57,3.01,0.36c1.66-0.32,2.92-1.64,3.42-3.22h1.79c0.67,0,1.31-0.01,1.91-0.38
		c0.6-0.37,1.08-1,1.23-1.71c0.06-0.31,0.07-0.61,0.07-0.93v-1.44c0.01-0.08,0.02-0.16,0.02-0.24C70.55,32.67,69.11,30.69,67.02,30z
		 M39.94,38.48c-0.03,0.16-0.07,0.32-0.13,0.47c-0.06,0.16-0.14,0.3-0.23,0.44c-0.01,0.01-0.02,0.02-0.03,0.04
		c-0.06,0.06-0.13,0.14-0.19,0.21c-0.05,0.05-0.13,0.12-0.19,0.17c-0.01,0.01-0.02,0.02-0.04,0.03c-0.14,0.09-0.28,0.17-0.44,0.24
		c-0.14,0.05-0.27,0.09-0.42,0.13c-0.22,0.01-0.42,0.01-0.64,0c-0.15-0.03-0.28-0.07-0.42-0.13c-0.15-0.07-0.28-0.14-0.42-0.23
		c-0.02-0.01-0.04-0.02-0.06-0.04c-0.06-0.05-0.13-0.12-0.19-0.17c-0.06-0.06-0.12-0.13-0.17-0.19c-0.01-0.02-0.02-0.03-0.03-0.04
		c-0.09-0.15-0.17-0.29-0.24-0.45c-0.05-0.15-0.09-0.29-0.13-0.44c-0.02-0.21-0.02-0.43,0-0.64c0.03-0.15,0.07-0.29,0.12-0.43
		c0.07-0.15,0.15-0.29,0.24-0.43c0.01-0.02,0.02-0.04,0.04-0.06c0.05-0.06,0.1-0.14,0.17-0.2c0.06-0.05,0.13-0.12,0.19-0.17
		c0.01-0.01,0.03-0.02,0.04-0.03c0.15-0.09,0.28-0.17,0.44-0.24c0.15-0.05,0.28-0.09,0.43-0.13c0.21-0.01,0.42-0.01,0.63,0
		c0.15,0.03,0.27,0.07,0.42,0.13c0.14,0.06,0.27,0.14,0.41,0.22c0.02,0.02,0.03,0.03,0.05,0.04c0.07,0.06,0.14,0.12,0.2,0.18
		c0.05,0.06,0.12,0.13,0.17,0.19c0.01,0.01,0.02,0.02,0.03,0.04c0.1,0.14,0.17,0.29,0.24,0.45c0.05,0.16,0.09,0.31,0.14,0.47
		c0,0.12,0.02,0.23,0.01,0.35c0,0.03,0.01,0.06,0.01,0.09C39.95,38.39,39.95,38.43,39.94,38.48z M63.11,38.48
		c-0.03,0.16-0.07,0.32-0.13,0.47c-0.07,0.16-0.15,0.3-0.24,0.44c0,0.01-0.01,0.02-0.02,0.04c-0.06,0.06-0.13,0.14-0.19,0.21
		c-0.06,0.05-0.13,0.12-0.19,0.17c-0.01,0.01-0.03,0.02-0.04,0.03c-0.14,0.09-0.28,0.17-0.44,0.24c-0.15,0.05-0.28,0.09-0.43,0.13
		c-0.21,0.01-0.41,0.01-0.63,0c-0.15-0.03-0.28-0.07-0.43-0.13c-0.15-0.07-0.27-0.14-0.41-0.23c-0.02-0.01-0.03-0.02-0.04-0.02
		c-0.07-0.07-0.15-0.13-0.21-0.19c-0.06-0.06-0.12-0.13-0.17-0.19c-0.01-0.02-0.02-0.03-0.03-0.04c-0.09-0.15-0.17-0.29-0.24-0.45
		c-0.05-0.15-0.09-0.29-0.13-0.44c-0.02-0.21-0.02-0.43,0-0.64c0.03-0.15,0.07-0.29,0.12-0.43c0.07-0.15,0.15-0.29,0.24-0.43
		c0.01-0.02,0.02-0.04,0.04-0.06c0.05-0.06,0.1-0.14,0.17-0.2c0.06-0.05,0.13-0.12,0.19-0.17c0.01-0.01,0.03-0.02,0.04-0.03
		c0.15-0.09,0.28-0.17,0.44-0.24c0.15-0.05,0.28-0.09,0.43-0.13c0.21-0.01,0.42-0.01,0.63,0c0.06,0.02,0.13,0.03,0.19,0.04
		c0.07,0.02,0.15,0.05,0.21,0.07c0.15,0.07,0.28,0.15,0.42,0.23c0.02,0.02,0.04,0.03,0.06,0.04c0.06,0.06,0.14,0.12,0.2,0.18
		c0.05,0.06,0.11,0.13,0.17,0.19c0.01,0.01,0.02,0.02,0.03,0.04c0.09,0.14,0.17,0.29,0.24,0.45c0.05,0.16,0.09,0.31,0.13,0.47
		c0.01,0.12,0.02,0.23,0.02,0.35c0,0.05,0.01,0.1,0.01,0.16V38.48z M67.9,35.99c0,0.29,0.01,0.6-0.01,0.9v0.01h-2.28
		c-0.01-0.03-0.02-0.06-0.03-0.09c-0.01-0.05-0.03-0.09-0.05-0.14c-0.06-0.18-0.13-0.36-0.21-0.53c-0.01-0.03-0.04-0.07-0.06-0.12
		c-0.08-0.16-0.17-0.31-0.26-0.46c-0.6-0.86-1.37-1.48-2.34-1.85c-1.73-0.67-3.9-0.06-5.07,1.39c-0.14,0.16-0.24,0.34-0.35,0.5
		c-0.03,0.05-0.06,0.09-0.09,0.15c-0.09,0.15-0.17,0.31-0.24,0.47c-0.03,0.07-0.07,0.15-0.1,0.23c-0.06,0.15-0.1,0.29-0.15,0.45
		H43.33c-0.28,0-0.59-0.01-0.87-0.01c-0.07-0.26-0.17-0.52-0.28-0.77c-0.09-0.2-0.2-0.39-0.31-0.57c-0.6-0.87-1.36-1.48-2.33-1.85
		c-1.74-0.67-3.9-0.07-5.07,1.38c-0.3,0.38-0.54,0.79-0.72,1.22c-0.02,0.04-0.05,0.08-0.06,0.14c-0.06,0.15-0.12,0.3-0.16,0.45
		h-1.86c-0.15,0-0.28,0.01-0.43,0h-0.01l-0.01-0.01v-4.94c0-0.23,0-0.45,0.01-0.68c0.02-0.09,0.04-0.19,0.08-0.27
		c0.03-0.06,0.05-0.12,0.09-0.18c0.02-0.03,0.05-0.06,0.07-0.08c0.01-0.01,0.04-0.04,0.07-0.06c0.05-0.04,0.12-0.07,0.18-0.1
		c0.09-0.03,0.19-0.05,0.28-0.07c0.23-0.01,0.45-0.01,0.68-0.01h1.46c0.38-0.02,0.71-0.18,0.99-0.44c0.14-0.14,0.26-0.27,0.4-0.42
		c1.12-1.13,2.23-2.26,3.36-3.41c0.19-0.19,0.38-0.39,0.58-0.58c0.03-0.03,0.06-0.07,0.09-0.1c0.04-0.03,0.07-0.06,0.1-0.09
		c0.01-0.01,0.02-0.02,0.03-0.03c0.12-0.08,0.25-0.15,0.37-0.21c0.15-0.05,0.28-0.09,0.44-0.13c0.36-0.03,0.72-0.02,1.08-0.02h7.93
		c0.44,0,0.89-0.01,1.33,0.02c0.17,0.03,0.31,0.07,0.47,0.14c0.07,0.04,0.16,0.07,0.22,0.12c0.04,0.02,0.07,0.05,0.12,0.07
		c0.02,0.02,0.04,0.04,0.07,0.06c0.04,0.03,0.07,0.07,0.12,0.12l1.62,1.65c1.04,1.05,2.07,2.11,3.09,3.15
		c0.31,0.31,0.67,0.78,1.12,0.88c0.29,0.07,0.61,0.09,0.91,0.14c1.45,0.22,2.9,0.44,4.36,0.66c0.93,0.14,1.87,0.26,2.81,0.42
		c0.25,0.04,0.49,0.12,0.73,0.21c0.15,0.07,0.28,0.14,0.41,0.22c0.03,0.02,0.07,0.04,0.1,0.07c0.02,0.02,0.05,0.03,0.06,0.04
		l0.13,0.13c0.07,0.06,0.15,0.14,0.21,0.22l0.06,0.06c0.11,0.19,0.22,0.38,0.3,0.58c0.07,0.2,0.13,0.4,0.17,0.61
		c0.01,0.1,0.02,0.21,0.02,0.31v1.05H67.9z"/>
	<path class="st3" d="M46.96,45.57v1.07c0,0.29,0.01,0.6-0.01,0.9v0.01h-2.28c-0.01-0.03-0.02-0.06-0.03-0.09
		c-0.01-0.05-0.03-0.09-0.05-0.14c-0.06-0.18-0.13-0.36-0.21-0.53c-0.01-0.03-0.04-0.07-0.06-0.12c-0.08-0.16-0.17-0.31-0.26-0.46
		c-0.6-0.86-1.37-1.48-2.34-1.85c-1.73-0.67-3.89-0.06-5.07,1.39c-0.14,0.16-0.24,0.34-0.35,0.5c-0.03,0.05-0.06,0.09-0.09,0.15
		c-0.09,0.15-0.17,0.31-0.24,0.47c-0.03,0.07-0.07,0.15-0.1,0.23c-0.06,0.15-0.1,0.29-0.15,0.45H22.38c-0.28,0-0.59-0.01-0.87-0.01
		c-0.07-0.26-0.17-0.52-0.28-0.77c-0.09-0.2-0.2-0.39-0.31-0.57c-0.6-0.87-1.36-1.48-2.33-1.85c-1.74-0.67-3.9-0.07-5.07,1.38
		c-0.3,0.38-0.54,0.79-0.72,1.22c-0.02,0.04-0.05,0.08-0.06,0.14c-0.06,0.15-0.12,0.3-0.16,0.45h-1.86c-0.15,0-0.28,0.01-0.43,0
		h-0.01l-0.01-0.01v-4.94c0-0.23,0-0.45,0.01-0.68c0.02-0.09,0.04-0.19,0.08-0.27c0.03-0.06,0.05-0.12,0.09-0.18
		c0.02-0.03,0.05-0.06,0.07-0.08c0.01-0.01,0.04-0.04,0.07-0.06c0.05-0.04,0.12-0.07,0.18-0.1c0.09-0.03,0.19-0.05,0.28-0.07
		c0.23-0.01,0.45-0.01,0.68-0.01h1.46c0.38-0.02,0.71-0.18,0.99-0.44c0.14-0.14,0.26-0.27,0.4-0.42c1.12-1.13,2.23-2.26,3.36-3.41
		c0.19-0.19,0.38-0.39,0.58-0.58c0.03-0.03,0.06-0.07,0.09-0.1c0.04-0.03,0.07-0.06,0.1-0.09c0.01-0.01,0.02-0.02,0.03-0.03
		c0.12-0.08,0.25-0.15,0.37-0.21c0.15-0.05,0.28-0.09,0.44-0.13c0.36-0.03,0.72-0.02,1.08-0.02h7.93c0.44,0,0.89-0.01,1.33,0.02
		c0.17,0.03,0.31,0.07,0.47,0.14c0.07,0.04,0.16,0.07,0.22,0.12c0.04,0.02,0.07,0.05,0.12,0.07c0.02,0.02,0.04,0.04,0.07,0.06
		c0.04,0.03,0.07,0.07,0.12,0.12l1.62,1.65c1.04,1.05,2.07,2.11,3.09,3.15c0.31,0.31,0.67,0.78,1.12,0.88
		c0.29,0.07,0.61,0.09,0.91,0.14c1.45,0.22,2.9,0.44,4.36,0.66c0.93,0.14,1.87,0.26,2.81,0.42c0.25,0.04,0.49,0.12,0.73,0.21
		c0.15,0.07,0.28,0.14,0.41,0.22c0.03,0.02,0.07,0.04,0.1,0.07c0.02,0.02,0.05,0.03,0.06,0.04l0.13,0.13
		c0.07,0.06,0.15,0.14,0.21,0.22l0.06,0.06c0.11,0.19,0.22,0.38,0.3,0.58c0.07,0.2,0.13,0.4,0.17,0.61
		C46.95,45.36,46.96,45.46,46.96,45.57z"/>
</g>
<g id="_x31_" class="st4">
	<path class="st5" d="M64,40.64c-0.5-0.17-1.06-0.22-1.58-0.3c-1.84-0.27-3.69-0.54-5.53-0.82c-0.42-0.06-0.85-0.13-1.28-0.19
		l-3.68-3.75c-0.49-0.5-0.97-1.06-1.51-1.52c-0.81-0.68-1.78-1.08-2.85-1.08h-9.75c-0.5,0-1.02,0.04-1.5,0.21
		c-0.71,0.26-1.3,0.66-1.84,1.21l-3.93,4.01h-0.99c-0.84,0-1.69,0.06-2.41,0.56c-1.02,0.69-1.63,1.8-1.64,3.05
		c-0.01,0.35,0,0.7,0,1.06v3.86c0,0.45-0.03,0.92,0.09,1.36c0.34,1.23,1.44,1.97,2.66,1.97h2.24c0.12,0.36,0.26,0.7,0.43,1.02
		c0.46,0.79,1.17,1.46,1.98,1.84c0.97,0.44,1.97,0.57,3.01,0.36c1.67-0.32,2.93-1.64,3.43-3.22h14.31c0.12,0.36,0.25,0.7,0.43,1.02
		c0.46,0.79,1.16,1.46,1.98,1.84c0.96,0.44,1.97,0.57,3.01,0.36c1.66-0.32,2.92-1.64,3.42-3.22h1.79c0.67,0,1.31-0.01,1.91-0.38
		c0.6-0.37,1.08-1,1.23-1.71c0.06-0.31,0.07-0.61,0.07-0.93v-1.44c0.01-0.08,0.02-0.16,0.02-0.24C67.52,43.31,66.08,41.33,64,40.64z
		 M36.91,49.12c-0.03,0.16-0.07,0.32-0.13,0.47c-0.06,0.16-0.14,0.3-0.23,0.44c-0.01,0.01-0.02,0.02-0.03,0.04
		c-0.06,0.06-0.13,0.14-0.19,0.21c-0.05,0.05-0.13,0.12-0.19,0.17c-0.01,0.01-0.02,0.02-0.04,0.03c-0.14,0.09-0.28,0.17-0.44,0.24
		c-0.14,0.05-0.27,0.09-0.42,0.13c-0.22,0.01-0.42,0.01-0.64,0c-0.15-0.03-0.28-0.07-0.42-0.13c-0.15-0.07-0.28-0.14-0.42-0.23
		c-0.02-0.01-0.04-0.02-0.06-0.04c-0.06-0.05-0.13-0.12-0.19-0.17c-0.06-0.06-0.12-0.13-0.17-0.19c-0.01-0.02-0.02-0.03-0.03-0.04
		c-0.09-0.15-0.17-0.29-0.24-0.45c-0.05-0.15-0.09-0.29-0.13-0.44c-0.02-0.21-0.02-0.43,0-0.64c0.03-0.15,0.07-0.29,0.12-0.43
		c0.07-0.15,0.15-0.29,0.24-0.43c0.01-0.02,0.02-0.04,0.04-0.06c0.05-0.06,0.1-0.14,0.17-0.2c0.06-0.05,0.13-0.12,0.19-0.17
		c0.01-0.01,0.03-0.02,0.04-0.03c0.15-0.09,0.28-0.17,0.44-0.24c0.15-0.05,0.28-0.09,0.43-0.13c0.21-0.01,0.42-0.01,0.63,0
		c0.15,0.03,0.27,0.07,0.42,0.13c0.14,0.06,0.27,0.14,0.41,0.22c0.02,0.02,0.03,0.03,0.05,0.04c0.07,0.06,0.14,0.12,0.2,0.18
		c0.05,0.06,0.12,0.13,0.17,0.19c0.01,0.01,0.02,0.02,0.03,0.04c0.1,0.14,0.17,0.29,0.24,0.45c0.05,0.16,0.09,0.31,0.14,0.47
		c0,0.12,0.02,0.23,0.01,0.35c0,0.03,0.01,0.06,0.01,0.09C36.92,49.03,36.92,49.08,36.91,49.12z M60.08,49.12
		c-0.03,0.16-0.07,0.32-0.13,0.47c-0.07,0.16-0.15,0.3-0.24,0.44c0,0.01-0.01,0.02-0.02,0.04c-0.06,0.06-0.13,0.14-0.19,0.21
		c-0.06,0.05-0.13,0.12-0.19,0.17c-0.01,0.01-0.03,0.02-0.04,0.03c-0.14,0.09-0.28,0.17-0.44,0.24c-0.15,0.05-0.28,0.09-0.43,0.13
		c-0.21,0.01-0.41,0.01-0.63,0c-0.15-0.03-0.28-0.07-0.43-0.13c-0.15-0.07-0.27-0.14-0.41-0.23c-0.02-0.01-0.03-0.02-0.04-0.02
		c-0.07-0.07-0.15-0.13-0.21-0.19c-0.06-0.06-0.12-0.13-0.17-0.19c-0.01-0.02-0.02-0.03-0.03-0.04c-0.09-0.15-0.17-0.29-0.24-0.45
		c-0.05-0.15-0.09-0.29-0.13-0.44c-0.02-0.21-0.02-0.43,0-0.64c0.03-0.15,0.07-0.29,0.12-0.43c0.07-0.15,0.15-0.29,0.24-0.43
		c0.01-0.02,0.02-0.04,0.04-0.06c0.05-0.06,0.1-0.14,0.17-0.2c0.06-0.05,0.13-0.12,0.19-0.17c0.01-0.01,0.03-0.02,0.04-0.03
		c0.15-0.09,0.28-0.17,0.44-0.24c0.15-0.05,0.28-0.09,0.43-0.13c0.21-0.01,0.42-0.01,0.63,0c0.06,0.02,0.13,0.03,0.19,0.04
		c0.07,0.02,0.15,0.05,0.21,0.07c0.15,0.07,0.28,0.15,0.42,0.23c0.02,0.02,0.04,0.03,0.06,0.04c0.06,0.06,0.14,0.12,0.2,0.18
		c0.05,0.06,0.11,0.13,0.17,0.19c0.01,0.01,0.02,0.02,0.03,0.04c0.09,0.14,0.17,0.29,0.24,0.45c0.05,0.16,0.09,0.31,0.13,0.47
		c0.01,0.12,0.02,0.23,0.02,0.35c0,0.05,0.01,0.1,0.01,0.16V49.12z M64.88,46.63c0,0.29,0.01,0.6-0.01,0.9v0.01h-2.28
		c-0.01-0.03-0.02-0.06-0.03-0.09c-0.01-0.05-0.03-0.09-0.05-0.14c-0.06-0.18-0.13-0.36-0.21-0.53c-0.01-0.03-0.04-0.07-0.06-0.12
		c-0.08-0.16-0.17-0.31-0.26-0.46c-0.6-0.86-1.37-1.48-2.34-1.85c-1.73-0.67-3.89-0.06-5.07,1.39c-0.14,0.16-0.24,0.34-0.35,0.5
		c-0.03,0.05-0.06,0.09-0.09,0.15c-0.09,0.15-0.17,0.31-0.24,0.47c-0.03,0.07-0.07,0.15-0.1,0.23c-0.06,0.15-0.1,0.29-0.15,0.45
		H40.3c-0.28,0-0.59-0.01-0.87-0.01c-0.07-0.26-0.17-0.52-0.28-0.77c-0.09-0.2-0.2-0.39-0.31-0.57c-0.6-0.87-1.36-1.48-2.33-1.85
		c-1.74-0.67-3.89-0.07-5.07,1.38c-0.3,0.38-0.54,0.79-0.72,1.22c-0.02,0.04-0.05,0.08-0.06,0.14c-0.06,0.15-0.12,0.3-0.16,0.45
		h-1.86c-0.15,0-0.28,0.01-0.43,0h-0.01l-0.01-0.01v-4.94c0-0.23,0-0.45,0.01-0.68c0.02-0.09,0.04-0.19,0.08-0.27
		c0.03-0.06,0.05-0.12,0.09-0.18c0.02-0.03,0.05-0.06,0.07-0.08c0.01-0.01,0.04-0.04,0.07-0.06c0.05-0.04,0.12-0.07,0.18-0.1
		c0.09-0.03,0.19-0.05,0.28-0.07c0.23-0.01,0.45-0.01,0.68-0.01h1.46c0.38-0.02,0.71-0.18,0.99-0.44c0.14-0.14,0.26-0.27,0.4-0.42
		c1.12-1.13,2.23-2.26,3.36-3.41c0.19-0.19,0.38-0.39,0.58-0.58c0.03-0.03,0.06-0.07,0.09-0.1c0.04-0.03,0.07-0.06,0.1-0.09
		c0.01-0.01,0.02-0.02,0.03-0.03c0.12-0.08,0.25-0.15,0.37-0.21c0.15-0.05,0.28-0.09,0.44-0.13c0.36-0.03,0.72-0.02,1.08-0.02h7.93
		c0.44,0,0.89-0.01,1.33,0.02c0.17,0.03,0.31,0.07,0.47,0.14c0.07,0.04,0.16,0.07,0.22,0.12c0.04,0.02,0.07,0.05,0.12,0.07
		c0.02,0.02,0.04,0.04,0.07,0.06c0.04,0.03,0.07,0.07,0.12,0.12l1.62,1.65c1.04,1.05,2.07,2.11,3.09,3.15
		c0.31,0.31,0.67,0.78,1.12,0.88c0.29,0.07,0.61,0.09,0.91,0.14c1.45,0.22,2.9,0.44,4.36,0.66c0.93,0.14,1.87,0.26,2.81,0.42
		c0.25,0.04,0.49,0.12,0.73,0.21c0.15,0.07,0.28,0.14,0.41,0.22c0.03,0.02,0.07,0.04,0.1,0.07c0.02,0.02,0.05,0.03,0.06,0.04
		l0.13,0.13c0.07,0.06,0.15,0.14,0.21,0.22l0.06,0.06c0.11,0.19,0.22,0.38,0.3,0.58c0.07,0.2,0.13,0.4,0.17,0.61
		c0.01,0.1,0.02,0.21,0.02,0.31v1.05H64.88z"/>
	<defs>
		
			<filter id="Adobe_OpacityMaskFilter_00000109022866915221868400000004859645450684539016_" filterUnits="userSpaceOnUse" x="21.49" y="28.98" width="50.02" height="28.61">
			<feColorMatrix  type="matrix" values="1 0 0 0 0  0 1 0 0 0  0 0 1 0 0  0 0 0 1 0"/>
		</filter>
	</defs>
	
		<mask maskUnits="userSpaceOnUse" x="21.49" y="28.98" width="50.02" height="28.61" id="path-1-outside-1_1_2212_00000065035221930160277470000000922139003356385948_" class="st7">
		
			<rect x="20.49" y="28.98" style="fill:#FFFFFF;filter:url(#Adobe_OpacityMaskFilter_00000109022866915221868400000004859645450684539016_);" width="52" height="29"/>
		<path d="M64,40.64c-0.5-0.17-1.06-0.22-1.58-0.3c-1.84-0.27-3.69-0.54-5.53-0.82c-0.42-0.06-0.85-0.13-1.28-0.19l-3.68-3.75
			c-0.49-0.5-0.97-1.06-1.51-1.52c-0.81-0.68-1.78-1.08-2.85-1.08h-9.75c-0.5,0-1.02,0.04-1.5,0.21c-0.71,0.26-1.3,0.66-1.84,1.21
			l-3.93,4.01h-0.99c-0.84,0-1.69,0.06-2.41,0.56c-1.02,0.69-1.63,1.8-1.64,3.05c-0.01,0.35,0,0.7,0,1.06v3.86
			c0,0.45-0.03,0.92,0.09,1.36c0.34,1.23,1.44,1.97,2.66,1.97h2.24c0.12,0.36,0.26,0.7,0.43,1.02c0.46,0.79,1.17,1.46,1.98,1.84
			c0.97,0.44,1.97,0.57,3.01,0.36c1.67-0.32,2.93-1.64,3.43-3.22h14.31c0.12,0.36,0.25,0.7,0.43,1.02c0.46,0.79,1.16,1.46,1.98,1.84
			c0.96,0.44,1.97,0.57,3.01,0.36c1.66-0.32,2.92-1.64,3.42-3.22h1.79c0.67,0,1.31-0.01,1.91-0.38c0.6-0.37,1.08-1,1.23-1.71
			c0.06-0.31,0.07-0.61,0.07-0.93v-1.44c0.01-0.08,0.02-0.16,0.02-0.24C67.52,43.31,66.08,41.33,64,40.64z M36.91,49.12
			c-0.03,0.16-0.07,0.32-0.13,0.47c-0.06,0.16-0.14,0.3-0.23,0.44c-0.01,0.01-0.02,0.02-0.03,0.04c-0.06,0.06-0.13,0.14-0.19,0.21
			c-0.05,0.05-0.13,0.12-0.19,0.17c-0.01,0.01-0.02,0.02-0.04,0.03c-0.14,0.09-0.28,0.17-0.44,0.24c-0.14,0.05-0.27,0.09-0.42,0.13
			c-0.22,0.01-0.42,0.01-0.64,0c-0.15-0.03-0.28-0.07-0.42-0.13c-0.15-0.07-0.28-0.14-0.42-0.23c-0.02-0.01-0.04-0.02-0.06-0.04
			c-0.06-0.05-0.13-0.12-0.19-0.17c-0.06-0.06-0.12-0.13-0.17-0.19c-0.01-0.02-0.02-0.03-0.03-0.04c-0.09-0.15-0.17-0.29-0.24-0.45
			c-0.05-0.15-0.09-0.29-0.13-0.44c-0.02-0.21-0.02-0.43,0-0.64c0.03-0.15,0.07-0.29,0.12-0.43c0.07-0.15,0.15-0.29,0.24-0.43
			c0.01-0.02,0.02-0.04,0.04-0.06c0.05-0.06,0.1-0.14,0.17-0.2c0.06-0.05,0.13-0.12,0.19-0.17c0.01-0.01,0.03-0.02,0.04-0.03
			c0.15-0.09,0.28-0.17,0.44-0.24c0.15-0.05,0.28-0.09,0.43-0.13c0.21-0.01,0.42-0.01,0.63,0c0.15,0.03,0.27,0.07,0.42,0.13
			c0.14,0.06,0.27,0.14,0.41,0.22c0.02,0.02,0.03,0.03,0.05,0.04c0.07,0.06,0.14,0.12,0.2,0.18c0.05,0.06,0.12,0.13,0.17,0.19
			c0.01,0.01,0.02,0.02,0.03,0.04c0.1,0.14,0.17,0.29,0.24,0.45c0.05,0.16,0.09,0.31,0.14,0.47c0,0.12,0.02,0.23,0.01,0.35
			c0,0.03,0.01,0.06,0.01,0.09C36.92,49.03,36.92,49.08,36.91,49.12z M60.08,49.12c-0.03,0.16-0.07,0.32-0.13,0.47
			c-0.07,0.16-0.15,0.3-0.24,0.44c0,0.01-0.01,0.02-0.02,0.04c-0.06,0.06-0.13,0.14-0.19,0.21c-0.06,0.05-0.13,0.12-0.19,0.17
			c-0.01,0.01-0.03,0.02-0.04,0.03c-0.14,0.09-0.28,0.17-0.44,0.24c-0.15,0.05-0.28,0.09-0.43,0.13c-0.21,0.01-0.41,0.01-0.63,0
			c-0.15-0.03-0.28-0.07-0.43-0.13c-0.15-0.07-0.27-0.14-0.41-0.23c-0.02-0.01-0.03-0.02-0.04-0.02c-0.07-0.07-0.15-0.13-0.21-0.19
			c-0.06-0.06-0.12-0.13-0.17-0.19c-0.01-0.02-0.02-0.03-0.03-0.04c-0.09-0.15-0.17-0.29-0.24-0.45c-0.05-0.15-0.09-0.29-0.13-0.44
			c-0.02-0.21-0.02-0.43,0-0.64c0.03-0.15,0.07-0.29,0.12-0.43c0.07-0.15,0.15-0.29,0.24-0.43c0.01-0.02,0.02-0.04,0.04-0.06
			c0.05-0.06,0.1-0.14,0.17-0.2c0.06-0.05,0.13-0.12,0.19-0.17c0.01-0.01,0.03-0.02,0.04-0.03c0.15-0.09,0.28-0.17,0.44-0.24
			c0.15-0.05,0.28-0.09,0.43-0.13c0.21-0.01,0.42-0.01,0.63,0c0.06,0.02,0.13,0.03,0.19,0.04c0.07,0.02,0.15,0.05,0.21,0.07
			c0.15,0.07,0.28,0.15,0.42,0.23c0.02,0.02,0.04,0.03,0.06,0.04c0.06,0.06,0.14,0.12,0.2,0.18c0.05,0.06,0.11,0.13,0.17,0.19
			c0.01,0.01,0.02,0.02,0.03,0.04c0.09,0.14,0.17,0.29,0.24,0.45c0.05,0.16,0.09,0.31,0.13,0.47c0.01,0.12,0.02,0.23,0.02,0.35
			c0,0.05,0.01,0.1,0.01,0.16V49.12z M64.88,46.63c0,0.29,0.01,0.6-0.01,0.9v0.01h-2.28c-0.01-0.03-0.02-0.06-0.03-0.09
			c-0.01-0.05-0.03-0.09-0.05-0.14c-0.06-0.18-0.13-0.36-0.21-0.53c-0.01-0.03-0.04-0.07-0.06-0.12c-0.08-0.16-0.17-0.31-0.26-0.46
			c-0.6-0.86-1.37-1.48-2.34-1.85c-1.73-0.67-3.89-0.06-5.07,1.39c-0.14,0.16-0.24,0.34-0.35,0.5c-0.03,0.05-0.06,0.09-0.09,0.15
			c-0.09,0.15-0.17,0.31-0.24,0.47c-0.03,0.07-0.07,0.15-0.1,0.23c-0.06,0.15-0.1,0.29-0.15,0.45H40.3c-0.28,0-0.59-0.01-0.87-0.01
			c-0.07-0.26-0.17-0.52-0.28-0.77c-0.09-0.2-0.2-0.39-0.31-0.57c-0.6-0.87-1.36-1.48-2.33-1.85c-1.74-0.67-3.89-0.07-5.07,1.38
			c-0.3,0.38-0.54,0.79-0.72,1.22c-0.02,0.04-0.05,0.08-0.06,0.14c-0.06,0.15-0.12,0.3-0.16,0.45h-1.86c-0.15,0-0.28,0.01-0.43,0
			h-0.01l-0.01-0.01v-4.94c0-0.23,0-0.45,0.01-0.68c0.02-0.09,0.04-0.19,0.08-0.27c0.03-0.06,0.05-0.12,0.09-0.18
			c0.02-0.03,0.05-0.06,0.07-0.08c0.01-0.01,0.04-0.04,0.07-0.06c0.05-0.04,0.12-0.07,0.18-0.1c0.09-0.03,0.19-0.05,0.28-0.07
			c0.23-0.01,0.45-0.01,0.68-0.01h1.46c0.38-0.02,0.71-0.18,0.99-0.44c0.14-0.14,0.26-0.27,0.4-0.42c1.12-1.13,2.23-2.26,3.36-3.41
			c0.19-0.19,0.38-0.39,0.58-0.58c0.03-0.03,0.06-0.07,0.09-0.1c0.04-0.03,0.07-0.06,0.1-0.09c0.01-0.01,0.02-0.02,0.03-0.03
			c0.12-0.08,0.25-0.15,0.37-0.21c0.15-0.05,0.28-0.09,0.44-0.13c0.36-0.03,0.72-0.02,1.08-0.02h7.93c0.44,0,0.89-0.01,1.33,0.02
			c0.17,0.03,0.31,0.07,0.47,0.14c0.07,0.04,0.16,0.07,0.22,0.12c0.04,0.02,0.07,0.05,0.12,0.07c0.02,0.02,0.04,0.04,0.07,0.06
			c0.04,0.03,0.07,0.07,0.12,0.12l1.62,1.65c1.04,1.05,2.07,2.11,3.09,3.15c0.31,0.31,0.67,0.78,1.12,0.88
			c0.29,0.07,0.61,0.09,0.91,0.14c1.45,0.22,2.9,0.44,4.36,0.66c0.93,0.14,1.87,0.26,2.81,0.42c0.25,0.04,0.49,0.12,0.73,0.21
			c0.15,0.07,0.28,0.14,0.41,0.22c0.03,0.02,0.07,0.04,0.1,0.07c0.02,0.02,0.05,0.03,0.06,0.04l0.13,0.13
			c0.07,0.06,0.15,0.14,0.21,0.22l0.06,0.06c0.11,0.19,0.22,0.38,0.3,0.58c0.07,0.2,0.13,0.4,0.17,0.61
			c0.01,0.1,0.02,0.21,0.02,0.31v1.05H64.88z"/>
	</mask>
	<path class="st8" d="M64,40.64c-0.5-0.17-1.06-0.22-1.58-0.3c-1.84-0.27-3.69-0.54-5.53-0.82c-0.42-0.06-0.85-0.13-1.28-0.19
		l-3.68-3.75c-0.49-0.5-0.97-1.06-1.51-1.52c-0.81-0.68-1.78-1.08-2.85-1.08h-9.75c-0.5,0-1.02,0.04-1.5,0.21
		c-0.71,0.26-1.3,0.66-1.84,1.21l-3.93,4.01h-0.99c-0.84,0-1.69,0.06-2.41,0.56c-1.02,0.69-1.63,1.8-1.64,3.05
		c-0.01,0.35,0,0.7,0,1.06v3.86c0,0.45-0.03,0.92,0.09,1.36c0.34,1.23,1.44,1.97,2.66,1.97h2.24c0.12,0.36,0.26,0.7,0.43,1.02
		c0.46,0.79,1.17,1.46,1.98,1.84c0.97,0.44,1.97,0.57,3.01,0.36c1.67-0.32,2.93-1.64,3.43-3.22h14.31c0.12,0.36,0.25,0.7,0.43,1.02
		c0.46,0.79,1.16,1.46,1.98,1.84c0.96,0.44,1.97,0.57,3.01,0.36c1.66-0.32,2.92-1.64,3.42-3.22h1.79c0.67,0,1.31-0.01,1.91-0.38
		c0.6-0.37,1.08-1,1.23-1.71c0.06-0.31,0.07-0.61,0.07-0.93v-1.44c0.01-0.08,0.02-0.16,0.02-0.24C67.52,43.31,66.08,41.33,64,40.64z
		 M36.91,49.12c-0.03,0.16-0.07,0.32-0.13,0.47c-0.06,0.16-0.14,0.3-0.23,0.44c-0.01,0.01-0.02,0.02-0.03,0.04
		c-0.06,0.06-0.13,0.14-0.19,0.21c-0.05,0.05-0.13,0.12-0.19,0.17c-0.01,0.01-0.02,0.02-0.04,0.03c-0.14,0.09-0.28,0.17-0.44,0.24
		c-0.14,0.05-0.27,0.09-0.42,0.13c-0.22,0.01-0.42,0.01-0.64,0c-0.15-0.03-0.28-0.07-0.42-0.13c-0.15-0.07-0.28-0.14-0.42-0.23
		c-0.02-0.01-0.04-0.02-0.06-0.04c-0.06-0.05-0.13-0.12-0.19-0.17c-0.06-0.06-0.12-0.13-0.17-0.19c-0.01-0.02-0.02-0.03-0.03-0.04
		c-0.09-0.15-0.17-0.29-0.24-0.45c-0.05-0.15-0.09-0.29-0.13-0.44c-0.02-0.21-0.02-0.43,0-0.64c0.03-0.15,0.07-0.29,0.12-0.43
		c0.07-0.15,0.15-0.29,0.24-0.43c0.01-0.02,0.02-0.04,0.04-0.06c0.05-0.06,0.1-0.14,0.17-0.2c0.06-0.05,0.13-0.12,0.19-0.17
		c0.01-0.01,0.03-0.02,0.04-0.03c0.15-0.09,0.28-0.17,0.44-0.24c0.15-0.05,0.28-0.09,0.43-0.13c0.21-0.01,0.42-0.01,0.63,0
		c0.15,0.03,0.27,0.07,0.42,0.13c0.14,0.06,0.27,0.14,0.41,0.22c0.02,0.02,0.03,0.03,0.05,0.04c0.07,0.06,0.14,0.12,0.2,0.18
		c0.05,0.06,0.12,0.13,0.17,0.19c0.01,0.01,0.02,0.02,0.03,0.04c0.1,0.14,0.17,0.29,0.24,0.45c0.05,0.16,0.09,0.31,0.14,0.47
		c0,0.12,0.02,0.23,0.01,0.35c0,0.03,0.01,0.06,0.01,0.09C36.92,49.03,36.92,49.08,36.91,49.12z M60.08,49.12
		c-0.03,0.16-0.07,0.32-0.13,0.47c-0.07,0.16-0.15,0.3-0.24,0.44c0,0.01-0.01,0.02-0.02,0.04c-0.06,0.06-0.13,0.14-0.19,0.21
		c-0.06,0.05-0.13,0.12-0.19,0.17c-0.01,0.01-0.03,0.02-0.04,0.03c-0.14,0.09-0.28,0.17-0.44,0.24c-0.15,0.05-0.28,0.09-0.43,0.13
		c-0.21,0.01-0.41,0.01-0.63,0c-0.15-0.03-0.28-0.07-0.43-0.13c-0.15-0.07-0.27-0.14-0.41-0.23c-0.02-0.01-0.03-0.02-0.04-0.02
		c-0.07-0.07-0.15-0.13-0.21-0.19c-0.06-0.06-0.12-0.13-0.17-0.19c-0.01-0.02-0.02-0.03-0.03-0.04c-0.09-0.15-0.17-0.29-0.24-0.45
		c-0.05-0.15-0.09-0.29-0.13-0.44c-0.02-0.21-0.02-0.43,0-0.64c0.03-0.15,0.07-0.29,0.12-0.43c0.07-0.15,0.15-0.29,0.24-0.43
		c0.01-0.02,0.02-0.04,0.04-0.06c0.05-0.06,0.1-0.14,0.17-0.2c0.06-0.05,0.13-0.12,0.19-0.17c0.01-0.01,0.03-0.02,0.04-0.03
		c0.15-0.09,0.28-0.17,0.44-0.24c0.15-0.05,0.28-0.09,0.43-0.13c0.21-0.01,0.42-0.01,0.63,0c0.06,0.02,0.13,0.03,0.19,0.04
		c0.07,0.02,0.15,0.05,0.21,0.07c0.15,0.07,0.28,0.15,0.42,0.23c0.02,0.02,0.04,0.03,0.06,0.04c0.06,0.06,0.14,0.12,0.2,0.18
		c0.05,0.06,0.11,0.13,0.17,0.19c0.01,0.01,0.02,0.02,0.03,0.04c0.09,0.14,0.17,0.29,0.24,0.45c0.05,0.16,0.09,0.31,0.13,0.47
		c0.01,0.12,0.02,0.23,0.02,0.35c0,0.05,0.01,0.1,0.01,0.16V49.12z M64.88,46.63c0,0.29,0.01,0.6-0.01,0.9v0.01h-2.28
		c-0.01-0.03-0.02-0.06-0.03-0.09c-0.01-0.05-0.03-0.09-0.05-0.14c-0.06-0.18-0.13-0.36-0.21-0.53c-0.01-0.03-0.04-0.07-0.06-0.12
		c-0.08-0.16-0.17-0.31-0.26-0.46c-0.6-0.86-1.37-1.48-2.34-1.85c-1.73-0.67-3.89-0.06-5.07,1.39c-0.14,0.16-0.24,0.34-0.35,0.5
		c-0.03,0.05-0.06,0.09-0.09,0.15c-0.09,0.15-0.17,0.31-0.24,0.47c-0.03,0.07-0.07,0.15-0.1,0.23c-0.06,0.15-0.1,0.29-0.15,0.45
		H40.3c-0.28,0-0.59-0.01-0.87-0.01c-0.07-0.26-0.17-0.52-0.28-0.77c-0.09-0.2-0.2-0.39-0.31-0.57c-0.6-0.87-1.36-1.48-2.33-1.85
		c-1.74-0.67-3.89-0.07-5.07,1.38c-0.3,0.38-0.54,0.79-0.72,1.22c-0.02,0.04-0.05,0.08-0.06,0.14c-0.06,0.15-0.12,0.3-0.16,0.45
		h-1.86c-0.15,0-0.28,0.01-0.43,0h-0.01l-0.01-0.01v-4.94c0-0.23,0-0.45,0.01-0.68c0.02-0.09,0.04-0.19,0.08-0.27
		c0.03-0.06,0.05-0.12,0.09-0.18c0.02-0.03,0.05-0.06,0.07-0.08c0.01-0.01,0.04-0.04,0.07-0.06c0.05-0.04,0.12-0.07,0.18-0.1
		c0.09-0.03,0.19-0.05,0.28-0.07c0.23-0.01,0.45-0.01,0.68-0.01h1.46c0.38-0.02,0.71-0.18,0.99-0.44c0.14-0.14,0.26-0.27,0.4-0.42
		c1.12-1.13,2.23-2.26,3.36-3.41c0.19-0.19,0.38-0.39,0.58-0.58c0.03-0.03,0.06-0.07,0.09-0.1c0.04-0.03,0.07-0.06,0.1-0.09
		c0.01-0.01,0.02-0.02,0.03-0.03c0.12-0.08,0.25-0.15,0.37-0.21c0.15-0.05,0.28-0.09,0.44-0.13c0.36-0.03,0.72-0.02,1.08-0.02h7.93
		c0.44,0,0.89-0.01,1.33,0.02c0.17,0.03,0.31,0.07,0.47,0.14c0.07,0.04,0.16,0.07,0.22,0.12c0.04,0.02,0.07,0.05,0.12,0.07
		c0.02,0.02,0.04,0.04,0.07,0.06c0.04,0.03,0.07,0.07,0.12,0.12l1.62,1.65c1.04,1.05,2.07,2.11,3.09,3.15
		c0.31,0.31,0.67,0.78,1.12,0.88c0.29,0.07,0.61,0.09,0.91,0.14c1.45,0.22,2.9,0.44,4.36,0.66c0.93,0.14,1.87,0.26,2.81,0.42
		c0.25,0.04,0.49,0.12,0.73,0.21c0.15,0.07,0.28,0.14,0.41,0.22c0.03,0.02,0.07,0.04,0.1,0.07c0.02,0.02,0.05,0.03,0.06,0.04
		l0.13,0.13c0.07,0.06,0.15,0.14,0.21,0.22l0.06,0.06c0.11,0.19,0.22,0.38,0.3,0.58c0.07,0.2,0.13,0.4,0.17,0.61
		c0.01,0.1,0.02,0.21,0.02,0.31v1.05H64.88z"/>
	<path class="st5" d="M46.92,30c-0.5-0.17-1.06-0.22-1.58-0.3c-1.84-0.27-3.69-0.54-5.53-0.82c-0.42-0.06-0.85-0.13-1.28-0.19
		l-3.68-3.75c-0.49-0.5-0.96-1.06-1.51-1.52c-0.81-0.68-1.78-1.08-2.85-1.08h-9.75c-0.5,0-1.02,0.04-1.5,0.21
		c-0.71,0.26-1.3,0.66-1.84,1.21l-3.93,4.01h-0.99c-0.84,0-1.69,0.06-2.41,0.56c-1.02,0.69-1.63,1.8-1.64,3.05
		c-0.01,0.35,0,0.7,0,1.06v3.86c0,0.45-0.03,0.92,0.09,1.36c0.34,1.23,1.44,1.97,2.66,1.97h2.24c0.12,0.36,0.26,0.7,0.43,1.02
		c0.46,0.79,1.17,1.46,1.98,1.84c0.97,0.44,1.97,0.57,3.01,0.36c1.67-0.32,2.93-1.64,3.43-3.22h14.31c0.12,0.36,0.25,0.7,0.43,1.02
		c0.46,0.79,1.16,1.46,1.98,1.84c0.96,0.44,1.97,0.57,3.01,0.36c1.66-0.32,2.92-1.64,3.42-3.22h1.79c0.67,0,1.31-0.01,1.91-0.38
		c0.6-0.37,1.08-1,1.23-1.71c0.06-0.31,0.07-0.61,0.07-0.93v-1.44c0.01-0.08,0.02-0.16,0.02-0.24C50.45,32.67,49.01,30.69,46.92,30z
		 M19.84,38.48c-0.03,0.16-0.07,0.32-0.13,0.47c-0.06,0.16-0.14,0.3-0.23,0.44c-0.01,0.01-0.02,0.02-0.03,0.04
		c-0.06,0.06-0.13,0.14-0.19,0.21c-0.05,0.05-0.13,0.12-0.19,0.17c-0.01,0.01-0.02,0.02-0.04,0.03c-0.14,0.09-0.28,0.17-0.44,0.24
		c-0.14,0.05-0.27,0.09-0.42,0.13c-0.22,0.01-0.42,0.01-0.64,0c-0.15-0.03-0.28-0.07-0.42-0.13c-0.15-0.07-0.28-0.14-0.42-0.23
		c-0.02-0.01-0.04-0.02-0.06-0.04c-0.06-0.05-0.13-0.12-0.19-0.17c-0.06-0.06-0.12-0.13-0.17-0.19c-0.01-0.02-0.02-0.03-0.03-0.04
		c-0.09-0.15-0.17-0.29-0.24-0.45c-0.05-0.15-0.09-0.29-0.13-0.44c-0.02-0.21-0.02-0.43,0-0.64c0.03-0.15,0.07-0.29,0.12-0.43
		c0.07-0.15,0.15-0.29,0.24-0.43c0.01-0.02,0.02-0.04,0.04-0.06c0.05-0.06,0.1-0.14,0.17-0.2c0.06-0.05,0.13-0.12,0.19-0.17
		c0.01-0.01,0.03-0.02,0.04-0.03c0.15-0.09,0.28-0.17,0.44-0.24c0.15-0.05,0.28-0.09,0.43-0.13c0.21-0.01,0.42-0.01,0.63,0
		c0.15,0.03,0.27,0.07,0.42,0.13c0.14,0.06,0.27,0.14,0.41,0.22c0.02,0.02,0.03,0.03,0.05,0.04c0.07,0.06,0.14,0.12,0.2,0.18
		c0.05,0.06,0.12,0.13,0.17,0.19c0.01,0.01,0.02,0.02,0.03,0.04c0.1,0.14,0.17,0.29,0.24,0.45c0.05,0.16,0.09,0.31,0.14,0.47
		c0,0.12,0.02,0.23,0.01,0.35c0,0.03,0.01,0.06,0.01,0.09C19.85,38.39,19.85,38.43,19.84,38.48z M43.01,38.48
		c-0.03,0.16-0.07,0.32-0.13,0.47c-0.07,0.16-0.15,0.3-0.24,0.44c0,0.01-0.01,0.02-0.02,0.04c-0.06,0.06-0.13,0.14-0.19,0.21
		c-0.06,0.05-0.13,0.12-0.19,0.17c-0.01,0.01-0.03,0.02-0.04,0.03c-0.14,0.09-0.28,0.17-0.44,0.24c-0.15,0.05-0.28,0.09-0.43,0.13
		c-0.21,0.01-0.41,0.01-0.63,0c-0.15-0.03-0.28-0.07-0.43-0.13c-0.15-0.07-0.27-0.14-0.41-0.23c-0.02-0.01-0.03-0.02-0.04-0.02
		c-0.07-0.07-0.15-0.13-0.21-0.19s-0.12-0.13-0.17-0.19c-0.01-0.02-0.02-0.03-0.03-0.04c-0.09-0.15-0.17-0.29-0.24-0.45
		c-0.05-0.15-0.09-0.29-0.13-0.44c-0.02-0.21-0.02-0.43,0-0.64c0.03-0.15,0.07-0.29,0.12-0.43c0.07-0.15,0.15-0.29,0.24-0.43
		c0.01-0.02,0.02-0.04,0.04-0.06c0.05-0.06,0.1-0.14,0.17-0.2c0.06-0.05,0.13-0.12,0.19-0.17c0.01-0.01,0.03-0.02,0.04-0.03
		c0.15-0.09,0.28-0.17,0.44-0.24c0.15-0.05,0.28-0.09,0.43-0.13c0.21-0.01,0.42-0.01,0.63,0c0.06,0.02,0.13,0.03,0.19,0.04
		c0.07,0.02,0.15,0.05,0.21,0.07c0.15,0.07,0.28,0.15,0.42,0.23c0.02,0.02,0.04,0.03,0.06,0.04c0.06,0.06,0.14,0.12,0.2,0.18
		c0.05,0.06,0.11,0.13,0.17,0.19c0.01,0.01,0.02,0.02,0.03,0.04c0.09,0.14,0.17,0.29,0.24,0.45c0.05,0.16,0.09,0.31,0.13,0.47
		c0.01,0.12,0.02,0.23,0.02,0.35c0,0.05,0.01,0.1,0.01,0.16V38.48z M47.8,35.99c0,0.29,0.01,0.6-0.01,0.9v0.01h-2.28
		c-0.01-0.03-0.02-0.06-0.03-0.09c-0.01-0.05-0.03-0.09-0.05-0.14c-0.06-0.18-0.13-0.36-0.21-0.53c-0.01-0.03-0.04-0.07-0.06-0.12
		c-0.08-0.16-0.17-0.31-0.26-0.46c-0.6-0.86-1.37-1.48-2.34-1.85c-1.73-0.67-3.9-0.06-5.07,1.39c-0.14,0.16-0.24,0.34-0.35,0.5
		c-0.03,0.05-0.06,0.09-0.09,0.15c-0.09,0.15-0.17,0.31-0.24,0.47c-0.03,0.07-0.07,0.15-0.1,0.23c-0.06,0.15-0.1,0.29-0.15,0.45
		H23.23c-0.28,0-0.59-0.01-0.87-0.01c-0.07-0.26-0.17-0.52-0.28-0.77c-0.09-0.2-0.2-0.39-0.31-0.57c-0.6-0.87-1.36-1.48-2.33-1.85
		c-1.74-0.67-3.89-0.07-5.07,1.38c-0.3,0.38-0.54,0.79-0.72,1.22c-0.02,0.04-0.05,0.08-0.06,0.14c-0.06,0.15-0.12,0.3-0.16,0.45
		h-1.86c-0.15,0-0.28,0.01-0.43,0h-0.01l-0.01-0.01v-4.94c0-0.23,0-0.45,0.01-0.68c0.02-0.09,0.04-0.19,0.08-0.27
		c0.03-0.06,0.05-0.12,0.09-0.18c0.02-0.03,0.05-0.06,0.07-0.08c0.01-0.01,0.04-0.04,0.07-0.06c0.05-0.04,0.12-0.07,0.18-0.1
		c0.09-0.03,0.19-0.05,0.28-0.07c0.23-0.01,0.45-0.01,0.68-0.01h1.46c0.38-0.02,0.71-0.18,0.99-0.44c0.14-0.14,0.26-0.27,0.4-0.42
		c1.12-1.13,2.23-2.26,3.36-3.41c0.19-0.19,0.38-0.39,0.58-0.58c0.03-0.03,0.06-0.07,0.09-0.1c0.04-0.03,0.07-0.06,0.1-0.09
		c0.01-0.01,0.02-0.02,0.03-0.03c0.12-0.08,0.25-0.15,0.37-0.21c0.15-0.05,0.28-0.09,0.44-0.13c0.36-0.03,0.72-0.02,1.08-0.02h7.93
		c0.44,0,0.89-0.01,1.33,0.02c0.17,0.03,0.31,0.07,0.47,0.14c0.07,0.04,0.16,0.07,0.22,0.12c0.04,0.02,0.07,0.05,0.12,0.07
		c0.02,0.02,0.04,0.04,0.07,0.06c0.04,0.03,0.07,0.07,0.12,0.12l1.62,1.65c1.04,1.05,2.07,2.11,3.09,3.15
		c0.31,0.31,0.67,0.78,1.12,0.88c0.29,0.07,0.61,0.09,0.91,0.14c1.45,0.22,2.9,0.44,4.36,0.66c0.93,0.14,1.87,0.26,2.81,0.42
		c0.25,0.04,0.49,0.12,0.73,0.21c0.15,0.07,0.28,0.14,0.41,0.22c0.03,0.02,0.07,0.04,0.1,0.07c0.02,0.02,0.05,0.03,0.06,0.04
		l0.13,0.13c0.07,0.06,0.15,0.14,0.21,0.22l0.06,0.06c0.11,0.19,0.22,0.38,0.3,0.58c0.07,0.2,0.13,0.4,0.17,0.61
		c0.01,0.1,0.02,0.21,0.02,0.31v1.05H47.8z"/>
	<path class="st9" d="M64.88,45.57v1.07c0,0.29,0.01,0.6-0.01,0.9v0.01h-2.28c-0.01-0.03-0.02-0.06-0.03-0.09
		c-0.01-0.05-0.03-0.09-0.05-0.14c-0.06-0.18-0.13-0.36-0.21-0.53c-0.01-0.03-0.04-0.07-0.06-0.12c-0.08-0.16-0.17-0.31-0.26-0.46
		c-0.6-0.86-1.37-1.48-2.34-1.85c-1.73-0.67-3.9-0.06-5.07,1.39c-0.14,0.16-0.24,0.34-0.35,0.5c-0.03,0.05-0.06,0.09-0.09,0.15
		c-0.09,0.15-0.17,0.31-0.24,0.47c-0.03,0.07-0.07,0.15-0.1,0.23c-0.06,0.15-0.1,0.29-0.15,0.45H40.3c-0.28,0-0.59-0.01-0.87-0.01
		c-0.07-0.26-0.17-0.52-0.28-0.77c-0.09-0.2-0.2-0.39-0.31-0.57c-0.6-0.87-1.36-1.48-2.33-1.85c-1.74-0.67-3.9-0.07-5.07,1.38
		c-0.3,0.38-0.54,0.79-0.72,1.22c-0.02,0.04-0.05,0.08-0.06,0.14c-0.06,0.15-0.12,0.3-0.16,0.45h-1.86c-0.15,0-0.28,0.01-0.43,0
		h-0.01l-0.01-0.01v-4.94c0-0.23,0-0.45,0.01-0.68c0.02-0.09,0.04-0.19,0.08-0.27c0.03-0.06,0.05-0.12,0.09-0.18
		c0.02-0.03,0.05-0.06,0.07-0.08c0.01-0.01,0.04-0.04,0.07-0.06c0.05-0.04,0.12-0.07,0.18-0.1c0.09-0.03,0.19-0.05,0.28-0.07
		c0.23-0.01,0.45-0.01,0.68-0.01h1.46c0.38-0.02,0.71-0.18,0.99-0.44c0.14-0.14,0.26-0.27,0.4-0.42c1.12-1.13,2.23-2.26,3.36-3.41
		c0.19-0.19,0.38-0.39,0.58-0.58c0.03-0.03,0.06-0.07,0.09-0.1c0.04-0.03,0.07-0.06,0.1-0.09c0.01-0.01,0.02-0.02,0.03-0.03
		c0.12-0.08,0.25-0.15,0.37-0.21c0.15-0.05,0.28-0.09,0.44-0.13c0.36-0.03,0.72-0.02,1.08-0.02h7.93c0.44,0,0.89-0.01,1.33,0.02
		c0.17,0.03,0.31,0.07,0.47,0.14c0.07,0.04,0.16,0.07,0.22,0.12c0.04,0.02,0.07,0.05,0.12,0.07c0.02,0.02,0.04,0.04,0.07,0.06
		c0.04,0.03,0.07,0.07,0.12,0.12l1.62,1.65c1.04,1.05,2.07,2.11,3.09,3.15c0.31,0.31,0.67,0.78,1.12,0.88
		c0.29,0.07,0.61,0.09,0.91,0.14c1.45,0.22,2.9,0.44,4.36,0.66c0.93,0.14,1.87,0.26,2.81,0.42c0.25,0.04,0.49,0.12,0.73,0.21
		c0.15,0.07,0.28,0.14,0.41,0.22c0.03,0.02,0.07,0.04,0.1,0.07c0.02,0.02,0.05,0.03,0.06,0.04l0.13,0.13
		c0.07,0.06,0.15,0.14,0.21,0.22l0.06,0.06c0.11,0.19,0.22,0.38,0.3,0.58c0.07,0.2,0.13,0.4,0.17,0.61
		C64.87,45.36,64.88,45.46,64.88,45.57z"/>
</g>
</svg>
