<svg id="Calque_1" data-name="Calque 1" xmlns="http://www.w3.org/2000/svg" xmlns:xlink="http://www.w3.org/1999/xlink" viewBox="0 0 468 239"><defs><style>.cls-1,.cls-18,.cls-19,.cls-20,.cls-22,.cls-23,.cls-24,.cls-26,.cls-27,.cls-28,.cls-30,.cls-31,.cls-32,.cls-34,.cls-35,.cls-36,.cls-38,.cls-39,.cls-40{fill:none;}.cls-2{clip-path:url(#clip-path);}.cls-3{fill:#26aa5b;}.cls-4,.cls-43{fill:#bfe0f0;}.cls-4{stroke:#bfe0f0;}.cls-10,.cls-18,.cls-19,.cls-20,.cls-22,.cls-23,.cls-24,.cls-26,.cls-27,.cls-28,.cls-30,.cls-31,.cls-32,.cls-34,.cls-35,.cls-36,.cls-38,.cls-39,.cls-4,.cls-40,.cls-6,.cls-7,.cls-8,.cls-9{stroke-miterlimit:10;}.cls-5{opacity:0.5;isolation:isolate;}.cls-6{fill:#97c1da;}.cls-6,.cls-7,.cls-8{stroke:#6bb8d6;stroke-width:0.75px;}.cls-7{fill:#69d0f9;}.cls-8{fill:#87d0f4;}.cls-9{fill:#dc2126;stroke:#26aa5b;stroke-width:0.25px;}.cls-10{fill:#eef5ff;stroke:#2e7aff;}.cls-10,.cls-18,.cls-19,.cls-20,.cls-22,.cls-23,.cls-24,.cls-26,.cls-27,.cls-28,.cls-30,.cls-31,.cls-32,.cls-34,.cls-35,.cls-36,.cls-38,.cls-39,.cls-40{stroke-width:0.5px;}.cls-11{fill:#0047a0;}.cls-12{fill:#cd2e3a;}.cls-13{fill:#fff;}.cls-14{fill:#e70013;}.cls-15{fill:#dc1f26;}.cls-16{fill:#357fff;}.cls-17{opacity:0.65;}.cls-18{stroke:url(#Dégradé_sans_nom_2);}.cls-19{stroke-dasharray:2.01 2.01;stroke:url(#Dégradé_sans_nom_2-2);}.cls-20{stroke:url(#Dégradé_sans_nom_2-3);}.cls-21{fill:url(#Dégradé_sans_nom_2-4);}.cls-22{stroke:url(#Dégradé_sans_nom_2-5);}.cls-23{stroke-dasharray:2.01 2.01;stroke:url(#Dégradé_sans_nom_2-6);}.cls-24{stroke:url(#Dégradé_sans_nom_2-7);}.cls-25{fill:url(#Dégradé_sans_nom_2-8);}.cls-26{stroke:url(#Dégradé_sans_nom_2-9);}.cls-27{stroke-dasharray:2.01 2.01;stroke:url(#Dégradé_sans_nom_2-10);}.cls-28{stroke:url(#Dégradé_sans_nom_2-11);}.cls-29{fill:url(#Dégradé_sans_nom_2-12);}.cls-30{stroke:url(#Dégradé_sans_nom_4);}.cls-31{stroke-dasharray:2.01 2.01;stroke:url(#Dégradé_sans_nom_4-2);}.cls-32{stroke:url(#Dégradé_sans_nom_4-3);}.cls-33{fill:url(#Dégradé_sans_nom_4-4);}.cls-34{stroke:url(#Dégradé_sans_nom_4-5);}.cls-35{stroke-dasharray:1.98 1.98;stroke:url(#Dégradé_sans_nom_4-6);}.cls-36{stroke:url(#Dégradé_sans_nom_4-7);}.cls-37{fill:url(#Dégradé_sans_nom_4-8);}.cls-38{stroke:url(#Dégradé_sans_nom_4-9);}.cls-39{stroke-dasharray:1.96 1.96;stroke:url(#Dégradé_sans_nom_4-10);}.cls-40{stroke:url(#Dégradé_sans_nom_4-11);}.cls-41{fill:url(#Dégradé_sans_nom_4-12);}.cls-42{fill:#3294b2;}</style><clipPath id="clip-path"><rect class="cls-1" x="52.52" y="62.39" width="362.56" height="121.59" rx="3.74"/></clipPath><linearGradient id="Dégradé_sans_nom_2" x1="147.21" y1="115.18" x2="377.38" y2="115.18" gradientUnits="userSpaceOnUse"><stop offset="0" stop-color="#2e7aff"/><stop offset="0.97" stop-color="#357fff"/><stop offset="1" stop-color="#fff" stop-opacity="0"/></linearGradient><linearGradient id="Dégradé_sans_nom_2-2" x1="147.21" y1="118.57" x2="377.38" y2="118.57" xlink:href="#Dégradé_sans_nom_2"/><linearGradient id="Dégradé_sans_nom_2-3" x1="147.21" y1="110.47" x2="377.38" y2="110.47" xlink:href="#Dégradé_sans_nom_2"/><linearGradient id="Dégradé_sans_nom_2-4" x1="147.21" y1="110" x2="377.38" y2="110" xlink:href="#Dégradé_sans_nom_2"/><linearGradient id="Dégradé_sans_nom_2-5" x1="200.86" y1="117.51" x2="377.75" y2="117.51" xlink:href="#Dégradé_sans_nom_2"/><linearGradient id="Dégradé_sans_nom_2-6" x1="200.86" y1="124.05" x2="377.75" y2="124.05" xlink:href="#Dégradé_sans_nom_2"/><linearGradient id="Dégradé_sans_nom_2-7" x1="200.86" y1="134.33" x2="377.75" y2="134.33" xlink:href="#Dégradé_sans_nom_2"/><linearGradient id="Dégradé_sans_nom_2-8" x1="200.86" y1="134.79" x2="377.75" y2="134.79" xlink:href="#Dégradé_sans_nom_2"/><linearGradient id="Dégradé_sans_nom_2-9" x1="212.06" y1="120.1" x2="378.2" y2="120.1" xlink:href="#Dégradé_sans_nom_2"/><linearGradient id="Dégradé_sans_nom_2-10" x1="212.06" y1="129.22" x2="378.2" y2="129.22" xlink:href="#Dégradé_sans_nom_2"/><linearGradient id="Dégradé_sans_nom_2-11" x1="212.06" y1="135.59" x2="378.2" y2="135.59" xlink:href="#Dégradé_sans_nom_2"/><linearGradient id="Dégradé_sans_nom_2-12" x1="212.06" y1="136.09" x2="378.2" y2="136.09" xlink:href="#Dégradé_sans_nom_2"/><linearGradient id="Dégradé_sans_nom_4" x1="102.56" y1="147.15" x2="194.41" y2="147.15" gradientUnits="userSpaceOnUse"><stop offset="0" stop-color="#2e7aff"/><stop offset="0.93" stop-color="#357fff"/><stop offset="1" stop-color="#fff" stop-opacity="0"/></linearGradient><linearGradient id="Dégradé_sans_nom_4-2" x1="102.56" y1="137.36" x2="194.41" y2="137.36" xlink:href="#Dégradé_sans_nom_4"/><linearGradient id="Dégradé_sans_nom_4-3" x1="102.56" y1="118.62" x2="194.41" y2="118.62" xlink:href="#Dégradé_sans_nom_4"/><linearGradient id="Dégradé_sans_nom_4-4" x1="102.56" y1="118.66" x2="194.41" y2="118.66" xlink:href="#Dégradé_sans_nom_4"/><linearGradient id="Dégradé_sans_nom_4-5" x1="102.25" y1="152.47" x2="196.44" y2="152.47" xlink:href="#Dégradé_sans_nom_4"/><linearGradient id="Dégradé_sans_nom_4-6" x1="102.25" y1="142.02" x2="196.44" y2="142.02" xlink:href="#Dégradé_sans_nom_4"/><linearGradient id="Dégradé_sans_nom_4-7" x1="102.25" y1="122.71" x2="196.44" y2="122.71" xlink:href="#Dégradé_sans_nom_4"/><linearGradient id="Dégradé_sans_nom_4-8" x1="102.25" y1="122.7" x2="196.45" y2="122.7" xlink:href="#Dégradé_sans_nom_4"/><linearGradient id="Dégradé_sans_nom_4-9" x1="101.95" y1="106.9" x2="137.13" y2="106.9" xlink:href="#Dégradé_sans_nom_4"/><linearGradient id="Dégradé_sans_nom_4-10" x1="101.95" y1="111.82" x2="137.13" y2="111.82" xlink:href="#Dégradé_sans_nom_4"/><linearGradient id="Dégradé_sans_nom_4-11" x1="101.95" y1="115.01" x2="137.13" y2="115.01" xlink:href="#Dégradé_sans_nom_4"/><linearGradient id="Dégradé_sans_nom_4-12" x1="101.95" y1="114.99" x2="137.13" y2="114.99" xlink:href="#Dégradé_sans_nom_4"/></defs><title>map final</title><g class="cls-2"><path class="cls-3" d="M94.34,110.07c-1.15.64-3.4-.08-4.24-.63a.51.51,0,0,0-.65.17c-.17.31-.47.31-1.18,0s-1-.34-1.12,0a.79.79,0,0,1-.71.41,1.75,1.75,0,0,0-1,.4c-.34.34-.57.34-1.08,0-.92-.54-1.86-.51-6.44.24-3.83.64-6.1,1.42-6.1,2.13,0,.17-.24.28-.51.17a.53.53,0,0,0-.67.11.91.91,0,0,1-.72.33,2.86,2.86,0,0,0-1.35.85,3.34,3.34,0,0,1-1.25.88,4.9,4.9,0,0,1-2.38-.34,5.6,5.6,0,0,0-2.2,0c-2.13.31-3.39-.2-3.69-1.42-.21-.68-.68-.81-1.32-.37a7.57,7.57,0,0,0-1.19,2.1c-1.15,2.74-1.93,3.66-4,4.64s-4.07,2.78-4.07,3.63a3.87,3.87,0,0,1-.74,1.59c-.61.81-.78,1.49-.78,3.18a5.28,5.28,0,0,1-.41,2.58,1.49,1.49,0,0,0-.44.81,4,4,0,0,1-1.22,1.36L43,134.48a7.6,7.6,0,0,1-3.49,1.6c-.74,0-1.22.54-2.1,2.44a4.5,4.5,0,0,1-1,1.62c-.91,0-2.78,2.78-2.78,4.17,0,.81-.88,2.17-2.23,3.46a9.25,9.25,0,0,0-1.53,2.71,6.57,6.57,0,0,1-1.35,2.44,3.25,3.25,0,0,0-.82,1.69c-.1.71-.3,1.66-.4,2.1s-.07.75.27.65.81.23,1.22.67c.78.85,1,1.77.47,1.77s-.74,1.69-.2,2.47c.71,1,.64,3.93-.17,6a9.66,9.66,0,0,0-.68,2.61c0,1-1.66,3.82-2.27,3.82-.24,0-.44.14-.44.34s.24.34.51.34.68.41.88.92a13,13,0,0,0,.68,1.52c.17.34.17.65,0,.78s-.34.92-.34,1.8a3,3,0,0,0,1,2.57c1.12,1.09,1.32,1.66.48,1.32-.44-.17-.51-.06-.31.61.37,1.19.61,1.33,1.36.75.47-.37.54-.58.27-.68-.51-.17-.61-1.12-.14-1.12.17,0,.48.44.68,1s.51,1,.68,1,.37.23.37.5a.52.52,0,0,0,.51.51c.27,0,.51.1.51.27a14.08,14.08,0,0,0,1.69,2.07A6.06,6.06,0,0,1,36,192c0,1.42.24,2.17.68,2.41a.53.53,0,0,1,.17.64c-.14.2-.11.37.1.37s.27.21.2.41.41.68,1.25,1.05c1.43.58,2.61,1.53,6.68,5.19s5.12,4,8.2,2.5c3.25-1.56,8.37-1.69,11.22-.3A1.81,1.81,0,0,0,66,204c3.12-1.55,5.46-2.54,6.13-2.54a1.11,1.11,0,0,0,1-.47c.24-.64,3-1.22,6.13-1.29,2-.07,2.55,0,3.16.58a8.33,8.33,0,0,1,2,3.69,2.21,2.21,0,0,0,.78,1.22,1.78,1.78,0,0,0,1.93.51c.64-.1,1.8-.27,2.54-.34s1.83-.2,2.44-.27c.88-.14,1.12,0,1.25.64a1.55,1.55,0,0,0,.89,1c.37.1.67.4.67.64a1.25,1.25,0,0,0,.48.85c.64.54.34,3.83-.51,5.52-.44.85-.51,1.29-.24,1.35s.31.38.1.82a9.82,9.82,0,0,0-.4,2.17c-.17,1.45-.61,2.17-1.19,1.83s-.3.67.2,1.76c.28.54.75,1.59,1.09,2.34a10.79,10.79,0,0,0,1.83,2.54c2.4,2.34,5.42,6.81,5.42,8.06a1.22,1.22,0,0,0,.34.92.38.38,0,0,1,.17.51,4.8,4.8,0,0,0,.64,2.1c.44,1,1.09,2.61,1.46,3.59.61,1.76.61,1.83,0,2.27s-.61.57.47,3.28a12.05,12.05,0,0,1,1,4.34c-.07,1.76-.61,3.39-1.19,3.39s-2.2,2.85-2.44,4.44c-.27,2-1.15,5.05-1.42,5.05-.44,0-.24,6.23.24,7.35a2.52,2.52,0,0,0,.68,1.12c.33,0,1.79,3,3.25,6.61a25.24,25.24,0,0,0,1.46,2.88,6.62,6.62,0,0,1,.94,3.89,28.79,28.79,0,0,0,.41,4.07c.2.91.61,3.05.92,4.71.64,3.49,1.11,4.57,2.88,6.5a10.7,10.7,0,0,1,2,3.73c.81,2.51,1.93,4.95,2.41,5.25a3.91,3.91,0,0,1,.5,1.77c.21,1.32.14,1.59-.3,1.59a.83.83,0,0,0-.68.41,2.68,2.68,0,0,0,.92,2,1.31,1.31,0,0,1,.13,1.09c-.24,1.15.27,2,.75,1.25.2-.34.34-.37.34-.1a.44.44,0,0,0,.44.44,2,2,0,0,1,1.08.68,1.37,1.37,0,0,0,2.27.1,2.9,2.9,0,0,1,2-.54,4.36,4.36,0,0,0,2.21-.48c1-.64,3.42-.81,5.28-.37.88.2,1.46.2,1.76-.07a1.91,1.91,0,0,1,1.26-.27c.44.07.74-.07.71-.27s.58-.47,1.39-.54c1.79-.2,5.22-2.44,7.15-4.61a26.14,26.14,0,0,1,2-2c1.25-1.22,3.59-4.54,3.59-5.12a8.07,8.07,0,0,1,2.71-2.74c.37,0,1-1.26,1.83-3.9.61-1.9.74-4.4.2-4.07s-.34-.44.44-1.35a10.86,10.86,0,0,1,3.12-1.83,6.23,6.23,0,0,0,3.15-2.07c.48-.71.65-1.25.44-1.45s-.2-.65,0-1.22c.44-1.09.37-3.8-.07-4.24a1.18,1.18,0,0,1-.34-.68c0-.2.17-.13.34.14s.34.37.34-.27c0-.41-.17-.72-.41-.68s-.41-.37-.44-1.09-.24-1.22-.47-1.28-.38-.48-.38-.88c0-.88,3.05-4.27,3.87-4.27.3,0,.54-.14.54-.27a3.27,3.27,0,0,1,.61-1.09,9.44,9.44,0,0,1,4.37-3.42,12.82,12.82,0,0,0,2.13-1,2.76,2.76,0,0,1,.72-.55,14.41,14.41,0,0,0,3.62-4.94,4.11,4.11,0,0,0,.07-2.71,30,30,0,0,1-.34-5.87c.1-5.65.14-5.42-.78-5.82-.64-.31-.95-.88-1.35-2.71-.75-2.95-.72-3.39.1-3.6.37-.1.67-.37.67-.57s-.23-.34-.5-.21c-.68.24-1.09-.71-.61-1.45.27-.44.13-.85-.61-1.76a4,4,0,0,1-1-1.66,13.07,13.07,0,0,1,1.46-4.1,22.69,22.69,0,0,0,2.17-5,2.05,2.05,0,0,1,.88-1.11,12.07,12.07,0,0,0,3.49-3.73,33,33,0,0,1,8.81-9.56c1.83-1.15,7.22-7,7.25-7.93a13.23,13.23,0,0,1,1.19-2.13,8.27,8.27,0,0,0,1.18-2.44c0-.68,2.07-5.12,2.48-5.29a.54.54,0,0,0,.23-.47,11.08,11.08,0,0,1,.85-2,7.72,7.72,0,0,0,.85-2.88c0-.88.17-1.22.68-1.36.71-.2.91-.64.33-.85-.3-.1-.47-1.89-.27-3.11.17-.95-1.25-1.36-2-.58S196.7,185.24,196,185a2,2,0,0,0-1.32.24,2.56,2.56,0,0,1-1.56.24,2,2,0,0,0-1.66.5,2.68,2.68,0,0,1-2.06.55,3.22,3.22,0,0,0-2.17.44c-1.76,1.08-3.05.64-4.41-1.49a2.77,2.77,0,0,0-1.42-1.12l-.81-.21.78-.4c1.28-.65,1.15-1.63-.48-3.32a25.39,25.39,0,0,1-2-2.27c-.28-.38-.65-.71-.85-.71s-.61-.48-.92-1a3.12,3.12,0,0,0-1.18-1.25,3.88,3.88,0,0,1-1.05-.68,1,1,0,0,0-.88-.24c-.31.1-.51-.14-.61-.68s0-.88.3-.88.41-.07,0-.51c-.65-.67-.78-.64-1,.24s-.24.78-.71.1a5.93,5.93,0,0,1-.85-2c-1-3.9-1.42-4.88-3.08-6.17-1.9-1.49-2.37-2.57-2.47-5.86a8.62,8.62,0,0,0-.51-2.85,2.86,2.86,0,0,1-.51-1.39c0-.47-.1-.84-.2-.84a10.3,10.3,0,0,1-1.63-1.29c-1.59-1.42-2.54-3.79-1.49-3.79.37,0,.27-.24-.37-.82a13.19,13.19,0,0,1-1.87-2.78c-.54-1.11-1.32-2.57-1.73-3.28a6.7,6.7,0,0,1-.71-1.7,3.32,3.32,0,0,0-.57-1.25,3.88,3.88,0,0,1-.68-1.46,7.13,7.13,0,0,0-1.29-2,4.93,4.93,0,0,1-1.18-2.14,1.4,1.4,0,0,0-.31-1,6.31,6.31,0,0,1-.58-2.54,8.6,8.6,0,0,0-.64-3c-.88-1.18-4.91-.78-6.4.65a1.7,1.7,0,0,1-1.39.47c-.38-.07-1.36-.34-2.21-.51a15.71,15.71,0,0,1-2.2-.68,10.36,10.36,0,0,0-4.34-.81c-.64.14-.91,0-1.08-.54s-.51-.71-1.29-.71c-1.83,0-3.52-.65-3.72-1.36a.92.92,0,0,0-.85-.68,1.28,1.28,0,0,1-.92-.33c-.5-.82-3.72-.07-5.25,1.22a2.82,2.82,0,0,0-.71,3.49c.54.88-.81,2.71-2,2.74a5.89,5.89,0,0,1-1.87-1,9.6,9.6,0,0,0-4.91-1.76,2.6,2.6,0,0,1-2.51-2.07,1.89,1.89,0,0,0-1.12-1.39,17.49,17.49,0,0,1-1.89-.88,6.59,6.59,0,0,0-2.78-.47,7.51,7.51,0,0,1-3.15-.61c-1.36-.68-3.73-1.66-4.1-2.34S95,109.73,94.34,110.07Zm64.1,108.62a.74.74,0,0,1,.07,1,.73.73,0,0,0-.14.71c.21.37-.51,2.1-.88,2.1-.17,0-.27.17-.27.37a1.41,1.41,0,0,1-.58.85c-.57.44-.57.51,0,1,.85.68.34.88-1.45.54a3.34,3.34,0,0,0-1.93,0c-.65.54-.82-.21-.61-2.65.33-3.62.37-3.72,1.76-4.16a8.5,8.5,0,0,0,1.59-.68C156.37,217.36,157.9,217.94,158.44,218.69Zm-11.72,13a1.47,1.47,0,0,0,.37,1.12.65.65,0,0,1,.17.74,1.79,1.79,0,0,0,.17,1.22c.3.54.3.75,0,.85-.68.24-.41,1.42.44,1.73a2,2,0,0,1,1.22,2.1,7.75,7.75,0,0,0,.84,2.34c1.06,2.06,1.06,2.1,0,1.62-.54-.24-.81-.57-.67-.88a1.67,1.67,0,0,0-.34-1.19,3,3,0,0,1-.51-1.18,4,4,0,0,0-1-1.66,4.68,4.68,0,0,1-1.08-1.73c0-.3-.07-1.05-.14-1.59s-.17-2.24-.23-3.73c-.11-2.44-.07-2.61.3-1.69A7.09,7.09,0,0,1,146.72,231.7Zm12.19,15.52a7.24,7.24,0,0,1,.48,2.2,4,4,0,0,0,.47,1.93c.51.51.55,1.86.07,2.14s-.2,5,.31,5.18a.55.55,0,0,1,.37.44c0,.2-.14.24-.34.14s-.34,0-.34.13a.38.38,0,0,1-.37.37c-.21,0-.27-.3-.14-.67a1.35,1.35,0,0,0-.1-1.12,11.29,11.29,0,0,1-.78-4.14c.24-4,.17-5.18-.2-5.93a4,4,0,0,1-.44-1.11C157.9,246.27,158.58,246.57,158.91,247.22Z"/><path class="cls-4" d="M380,104.48l-.58-.36a5.59,5.59,0,0,1-1.76-1.49c-.51-.74-.48-.81.4-1.35a6.45,6.45,0,0,0,1.83-1.8c.82-1.15.85-1.32.41-2.17-.58-1.08-.47-2.78.17-2.67.2.06.41-.21.41-.61s.13-.61.3-.51.47-.21.64-.71.38-.75.38-.48.17.34.54-.17.47-.54.51-.1c0,.75,2.37,1.42,3.45,1s3-2.61,3-3.42A17.64,17.64,0,0,1,391,84.78a12.14,12.14,0,0,0,.3-3.43,15.82,15.82,0,0,1,.34-3.89c.24-.68.14-1.26-.51-2.71a6.71,6.71,0,0,0-1.22-2.1c-.2-.14-.27-.34-.13-.48s-.1-.47-.48-.74C388,70.58,386.72,67,387.63,67c.68,0,3.32,2.21,3.53,2.88a6.55,6.55,0,0,0,1.32,1.87,13,13,0,0,1,1.86,2.74,9.18,9.18,0,0,0,1.73,2.44A5.82,5.82,0,0,1,397.46,79c.2.68.51,1.22.68,1.22s.44.51.64,1.12a6.67,6.67,0,0,0,1.42,2.13l1.05,1L401,83.18c-.24-1.22-.21-1.22.71-1.05a3.27,3.27,0,0,1,1.56.88c.47.58.57.61.61.17,0-.64-1.12-2-1.63-2a2.7,2.7,0,0,1-1.19-.77,19.62,19.62,0,0,0-1.69-1.33,5,5,0,0,1-1.36-2c-.27-.81-.61-1.73-.74-2.07-.37-.88,1.25-.74,2.88.27,1.42.92,1.69,1,1.69.58,0-.13-.5-.54-1.08-.91a16.5,16.5,0,0,1-2.51-2c-.74-.78-2.71-2.61-4.34-4.1a26,26,0,0,1-3.45-3.63c-.61-1.15-2-2.64-2.41-2.64a2.67,2.67,0,0,1-1.15-.95c-1.22-1.39-1.86-1.8-2.47-1.56s-.38.34.51.88c1.05.65,1.05.65.44,1.32s-.58.75-.11,1.09c.72.54,1.8,2.23,1.6,2.47s-2-1.66-2-2.24a6.44,6.44,0,0,0-2.1-1.38c-1.19-.55-2.57-1.26-3.08-1.53-1.12-.61-4.1-.88-3.66-.34s-.14,1.9-.65,1.9c-.17,0-.33-.31-.33-.68s-.24-.68-.51-.68a.62.62,0,0,1-.51-.67c0-.38-.17-.68-.37-.68s-.31-.2-.21-.48c.27-.71-.95-1.69-1.69-1.39a2.07,2.07,0,0,1-1,.21.68.68,0,0,0-.61.3c-.2.31.75.48,2.37.41.38,0,.48.07.24.17s-.3.3.14.81c.3.34.4.65.2.65s-.27.34-.17.74-.07.37-.51-.4c-.57-1.06-.84-1.22-2.4-1.39-2.92-.38-2.95-.44-1.66-2.07,1.45-1.86,2-2.92,1.55-3.05s1.06-3.32,1.5-3.32c.13,0,.1-.37-.07-.85-.27-.68-.21-.91.17-1.05a1.19,1.19,0,0,0,.51-1,1.08,1.08,0,0,1,.71-1.08c1.12-.44,6-.51,6.23-.1a1.09,1.09,0,0,0,.88.37c.38,0,.61-.1.51-.27a6.62,6.62,0,0,1,2.58-.17c2.57.1,2.71.07,2.54-.61-.14-.51,0-.64.37-.51a12.09,12.09,0,0,0,3.25.58,3.13,3.13,0,0,1,1.16.13c.64.17.71.31.4.68-.44.54-.07.85,1.09.85,2.67,0,3.32-.07,3.32-.37s.37-.27,1-.14A4.21,4.21,0,0,0,398,47c1.18-.44.81-.81-1.39-1.39-1.49-.37-1.7-.84-1.09-2.4a9.11,9.11,0,0,0,.38-2c.06-1.05.17-1.12,1.42-1.26.74-.06,1.66-.1,2-.1s1.09,0,1.63.07.91.17.91.47c0,.68,1.29,1.94,1.73,1.7.17-.14.61.13,1,.57s.65.61.68.31.1-.37.24-.24.41-.27.58-.88c.3-.85.57-1.15,1.32-1.22s1.35-.74.57-.74a3.58,3.58,0,0,1-1.22-.92c-.88-.88-.88-.91-.17-1.15s1.83,0,1.53.41,1.59,2.67,2.1,2.67.37,1.12-.44,1.87a1.5,1.5,0,0,0-.61,1.49,1.92,1.92,0,0,1-.2,1.28,1.8,1.8,0,0,0-.17,1.46c.23,1.26-.27,2.71-1,2.71-.27,0-.5.14-.5.34s-.34.34-.75.34c-.78,0-.78,0,.1.81a1.75,1.75,0,0,1,.75,1.66c-.27,1.43,1.49,3.73,5.42,7.12.91.78,2.3,2,3.05,2.74s2.1,1.87,2.95,2.54a25.59,25.59,0,0,1,2.3,2.14A13.44,13.44,0,0,0,422.87,69l1,.71.55-1a3,3,0,0,0-.38-3.43c-.61-.5-.61-1.52,0-1.76a2.79,2.79,0,0,1,1.29,0c.65.14.51-.1-.71-1.15s-1.42-1.49-1.22-2.1.37-.71,1.42-.51,1.19.14,1.05-.4a3.71,3.71,0,0,0-1.42-1.5c-2.07-1.42-2.88-3.49-1.05-2.64a1.58,1.58,0,0,0,1.08.17c.31-.34-1.25-1.93-1.89-1.93s-2.41-1.53-2.41-2.17-1.25-1.32-2.24-1.08a2.12,2.12,0,0,1-2.3-2.44,1.79,1.79,0,0,0-.68-1.9c-.84-.81-.84-1.05-.1-.92a2.36,2.36,0,0,0,1-.33c.38-.21.61-.24.48,0s0,.41.3.54a.55.55,0,0,0,.71-.78c-.44-.71.82-.57,1.5.14.84.88,1.35.85,1.35-.14,0-1.28,3.15-1.38,5.73-.2,2,.92,2.34.92,1.79,0-.23-.44-.13-.78.48-1.39a4.27,4.27,0,0,0,1-1.63,1.78,1.78,0,0,1,1.19-1.15c.54-.17,1-.51,1-.68a.44.44,0,0,1,.48-.37,1.48,1.48,0,0,0,.91-.54c.44-.55,1.76-.51,4.47.06.78.17.92.11.92-.47a1,1,0,0,0-.75-1,3.42,3.42,0,0,1-1.28-.64,4.93,4.93,0,0,0-1.36-.71c-1.32-.48-5.08-2.65-5.08-2.95a3,3,0,0,1,.64-1c.88-.92.38-1.77-1.39-2.27-.71-.24-1.22-.55-1.11-.72s1.08.11,2.13.65a7.41,7.41,0,0,0,4.3,1,6.88,6.88,0,0,1,4.07.88,7.26,7.26,0,0,0,2.44.91,16.22,16.22,0,0,1,2.78.65c1.93.61,2.1.61,2.44.06s.34-.47.17,0c-.21.68.64.81,1.49.27.44-.27.37-.37-.24-.54-.44-.14-.68-.34-.58-.51a.19.19,0,0,0-.17-.31,2.21,2.21,0,0,1-1-.64c-.68-.68-.68-.68.2-.78.51-.07,1-.3,1.05-.58s0-.4-.37-.27-.48.07-.37-.2-.27-.68-.82-1c-1.59-1-7.38-2.31-9.82-2.31a8.16,8.16,0,0,1-4-.81c-1.83-.91-17-4.71-22-5.52a58.75,58.75,0,0,0-5.93-.61,74.9,74.9,0,0,1-9-.75c-.54-.13-.51,0,.27.71a3.71,3.71,0,0,0,1.25.88,7,7,0,0,1,1.6.75l1.28.78-1,.1a2,2,0,0,1-1.38-.24,5.38,5.38,0,0,0-2-.57,4.48,4.48,0,0,1-1.73-.48c-.1-.17.14-.2.51-.1s.68,0,.68-.2-.1-.34-.24-.34a13.13,13.13,0,0,1-1.45,0l-1.19-.11,1.19-.23,1.18-.24-1.08-.1c-2.1-.21-2.31-.17-2.31.34s-.37.5-1.52.47c-2.75-.1-9-.13-9.49-.07-1.18.17-4.06-.47-4.06-.95,0-.64-1.6-1.39-4.31-2-1.86-.44-3.35-.51-7.59-.34s-5.49.14-6.47-.27a14.55,14.55,0,0,0-2.81-.71c-2.34-.27-3.26-.54-3-.88.54-.88-6.2-1.76-7.22-1-.3.27-.47.3-.33.07.37-.58-.38-.71-6.71-1.29-6.88-.61-6.64-.61-5.59,0l.84.47-1.25,0c-1,0-1.22.1-1.09.51a1.29,1.29,0,0,0,1.09.5c.47,0,.74.11.61.24s.2.44.71.68l1,.44-1-.2a8.16,8.16,0,0,0-1.69-.21c-.37,0-1.63.07-2.81.07a12.26,12.26,0,0,0-2.88.31,4.76,4.76,0,0,1-2.31,0c-.81-.17-1.83-.34-2.23-.37s-.65-.17-.55-.34,0-.24-.27-.24-.3.27-.2.58c.71,2.27.74,2.13-.48,1.93a13.74,13.74,0,0,1-5.65-2.81,4,4,0,0,0-1.63-1,.45.45,0,0,1-.47-.44c0-1-6.14-2.68-6.65-1.87a.44.44,0,0,1-.57,0,3.35,3.35,0,0,0-1.26-.34c-.47-.07-1.52-.27-2.37-.48-1.08-.23-1.56-.23-1.62,0s-.28.31-.44.17a.19.19,0,0,0-.31.17c0,.21.31.55.68.78s.68.51.68.61-2.88.14-6.1-.13l-2.54-.17c-.51,0-.58-.1-.21-.34s.31-.37.1-.51a51.37,51.37,0,0,0-9.11-.1c-.51.3-2.81-1.05-2.81-1.66,0-.34-.44-.48-1.56-.48s-1.59.14-1.73.65-.37.57-.81.47a2.39,2.39,0,0,0-1.19,0c-.44.17-.47.3-.13.67s.16.58-.92.85c-1.63.48-3.25.48-3,0,.1-.21.57-.34,1-.34A1.44,1.44,0,0,0,271,9.93c.34-.51,1.22-1,3.22-2A4.49,4.49,0,0,0,276,6.67c.31-.78-1.18-2.1-2.2-2-.47.07-.64.07-.41,0s.31-.27-.16-.65c-.72-.54-1.26-.61-.95-.13s-.24.41-.92-.24c-.51-.44-1.39-.57-4.78-.57a24.43,24.43,0,0,0-4.94.27c-.61.2-.75.17-.65-.17.24-.68-.34-1.66-1-1.66-.27,0-.4.13-.3.34.34.5-1.12.4-2-.17s-5.49-1-6.51-.55-1.28,1.33-.77,1.94c.3.4.1.47-1.16.47a3,3,0,0,0-1.66.3c0,.17-.67.41-1.39.51-.95.14-1.22.1-1-.17.34-.57-6.23-.1-6.81.51a6.9,6.9,0,0,1-2.74.65,9.08,9.08,0,0,0-3.09.77,2.39,2.39,0,0,1-1.66.34c-.47-.13-.81-.06-.81.14s-.24.34-.51.34a.61.61,0,0,0-.54.57c0,.38-.1.44-.2.17-.24-.61-1.36-.5-1.6.14a.9.9,0,0,0,0,.78c.14.1.31,0,.38-.2s.34-.31,1,.1a2.37,2.37,0,0,0,1.39.4.66.66,0,0,1,.71.31c.2.54-2.48.61-2.78.1a1,1,0,0,0-.78-.34c-.48,0-.48.07-.1.31.71.44-.34.67-3.66.78l-2.85.06,1,.78c.55.44,1.33,1.12,1.7,1.49a4.09,4.09,0,0,0,2.3.88c.85.11,1.56.31,1.56.48s.27.34.61.41.07.16-.54.2a4.84,4.84,0,0,1-2-.44c-.82-.44-2.92-.92-6.37-1.46a1.53,1.53,0,0,0-1.46.37c-.41.48-.34.55.34.58.88,0,.68.14-.85.47-.95.21-.95.24-.3.68a8.41,8.41,0,0,0,1.83.82c1.11.37,1.11.37-.48.23s-2.57-.81-2.61-1.93a3.29,3.29,0,0,0-2-2,3.19,3.19,0,0,1-1.09-.4c-.47-.31-.74-.34-1.05,0s-.07.48.71.75a2.31,2.31,0,0,0,1.46.13c.17-.1.24,0,.1.17a.43.43,0,0,0,.14.58c.61.37.34.78-.68,1-.54.14-1,.44-1,.68a.63.63,0,0,1-.4.58c-.21.07.47.57,1.56,1.12,1.83.91,1.89,1,1.69,2.06-.17.88-.07,1.19.51,1.56a1.38,1.38,0,0,1,.71.92c0,.37.51.4,2.47.27s2.27-.14,1.16.17c-1.73.47-1.94,1.15-.72,2.13.78.65.92.88.58,1.22a1.94,1.94,0,0,0-.44,1.19c0,.57-.27.81-1,1s-1,.44-1,.75-.24.47-1.09.3a3.26,3.26,0,0,1-1.46-.58c-.23-.23-.16-.27.21-.13s.71-.17,1.15-1.19c.34-.74.71-1.35.85-1.35s.23-.51.2-1.12c0-.95-.24-1.19-1.46-1.73-.81-.34-1.45-.81-1.45-1a5.16,5.16,0,0,0-.75-1.56,7.39,7.39,0,0,1-.85-1.8,2.41,2.41,0,0,0-2-1.8c-.65-.16-.78-.33-.54-.57a2,2,0,0,0-.11-2.37c-.33-.44-1.18-.71-2.81-.88-1.39-.17-1.83-.31-1.12-.34,1.12-.07,1.16-.07.55-.55-.85-.64-3.39-.71-3.19-.1a.88.88,0,0,1-.3.88,3.16,3.16,0,0,0-.44,1.77c0,1.15-.14,1.42-1,1.86-1.25.64-1.32,1.42-.17,1.86a1.17,1.17,0,0,1,.85,1.32c0,1.09.74,1.9,1.45,1.63a2.32,2.32,0,0,1,1.46.48,10.7,10.7,0,0,0,1.76,1c.75.3,1,.85.51,1.12a8.06,8.06,0,0,1-2.64-.82c-3.42-1.39-4-1.32-2.44.31a6.17,6.17,0,0,1,1.25,1.59c-.07,1.19-3.76,3.8-7.18,5.08a7.18,7.18,0,0,0-2,1c-.23.27.24,1.66,1.56,4.61a29,29,0,0,1,2.85,11.89,5.28,5.28,0,0,0,1.73,4.41c1.76,1.62,1,4.33-1.32,4.33a2.46,2.46,0,0,0-1.6.68c-.57.61-.57.68.21,1.66.44.54,1.18,1.56,1.66,2.2,1.15,1.63,2.27,1.63,3.69,0s2.37-1.56,3.22-.14c.54.88.54,1.26.2,2.61s-.34,1.63.31,2.1c2.23,1.66,2.23,1.66,1.79,2s.14,1,1.87,1.59c2.27.78,1.72,2.74-.68,2.44-.92-.14-1.36,0-1.49.3-.24.61-1.05.61-1.66,0A2.1,2.1,0,0,0,205.3,70c-.34,0-.64-.17-.64-.37s-.51-.34-1.63-.17a6.58,6.58,0,0,1-3.62-.54c-2.21-.78-6.37-1-7-.31a4.24,4.24,0,0,1-2.07.38,13.46,13.46,0,0,0-3,.37c-1.26.34-1.26.34-1.06,1.76a6.35,6.35,0,0,0,2.07,4.07,2.84,2.84,0,0,1,1.05,2.47,1.73,1.73,0,0,0,.85,1.9c.51.37.91.88.91,1.12,0,.61,1.16.94,2.38.67A1.14,1.14,0,0,1,195,82c.54.78,1,4,.51,3.76a12,12,0,0,0-1.93-.31c-1.56-.13-1.76-.06-2.1.72a1.75,1.75,0,0,0-.21,1.15c.14.17-.27.3-.84.3-1,0-1,.07-.68.68a1.21,1.21,0,0,0,.85.68c.27,0,.74.44,1.08,1s.71,1,.85,1,.27.31.27.71.13.61.4.44a.62.62,0,0,1,.75.27,2.17,2.17,0,0,0,1.22.68c1.15.14,1.32.48,1.12,2-.1.75-.07,1.32.13,1.32.55,0,1.53,2.07,1.33,2.81-.24,1,.54,2.48,1.18,2.34.41-.07.48.17.37,1s-.06,1,.38.85c.84-.31,1.49.81,1.86,3.15a27.14,27.14,0,0,0,.54,2.71c.17.44-.27.64-2.1,1.12-2.78.64-4.06.4-6-1.12a4.43,4.43,0,0,0-2-1c-1,0-1.86-1-2.1-2.54-.14-.88-.07-1.35.27-1.52a3.11,3.11,0,0,0,.48-1.94c0-1.55,0-1.62.94-1.62.51,0,.92-.14.92-.34s-.47-.31-1.12-.24c-1.63.17-8.5-3.35-11.42-5.86l-2.2-1.93-1.83.2a3.82,3.82,0,0,1-3.39-.78,10.68,10.68,0,0,0-2.74-1.22,8.58,8.58,0,0,1-2.31-.88,2,2,0,0,0-2-.27l-.88.34.78.81A11.61,11.61,0,0,0,168,92.23a4.59,4.59,0,0,1,2.54,2.17c1.15,2.37-.34,3.39-5,3.56-1.79.06-3.22,0-3.22-.21s-.44-.3-1-.3a1.78,1.78,0,0,1-1.22-.34.8.8,0,0,0-.85-.17c-.44.14-.74,0-1-.51a.79.79,0,0,0-1.09-.47,1.11,1.11,0,0,1-1.25-.44c-.51-.61-.78-.65-3.32-.44-2.71.27-4.75,1-5.73,2.23-.27.34-.95.38-2.81.17-2.51-.23-3.52.07-2.68.92s-.47,1.29-3.62,1.35a9.1,9.1,0,0,0-3.15.38c-.07.2-.34.23-.61.13s-.48,0-.48.2.24.38.51.38.51.3.51.84c0,.78.27,1,1.25.89.2,0,.34.2.27.54a1.67,1.67,0,0,0,.14,1,4.45,4.45,0,0,1,.27,1c0,.38,0,.48-.1.24-.31-.68-1-.44-1,.34,0,.51.41.88,1.22,1.15.65.24.95.44.72.44s-.34.17,0,.78a3.12,3.12,0,0,0,.74,1c.14.14,0,.41-.34.61-.68.38-.54.44,1.05.48.55,0,.58,0,.1.13-.33.1-.61.31-.61.51s.24.27.51.14.51,0,.51.13.24.34.51.34.51-.17.51-.37c0-.54,1.59-.07,2.37.71a2.28,2.28,0,0,0,2,.61c1.32-.1,1.53-.34,1.39-1.56-.13-1,2.61-.1,4.17,1.36,1,.91,3.83.57,4.71-.61a1.43,1.43,0,0,1,2.27-.41c.51.34.78.31,1.36-.24.84-.74,1.32-.44.54.38-.41.37-.48.67-.24.91s.2.61,0,1.08a1.26,1.26,0,0,0,0,1.06,4.67,4.67,0,0,1,.41,3,28.11,28.11,0,0,0-2.07,6.27c-.41,2.1-1.15,3.05-2.41,3.05-.44,0-1.32.1-1.89.17-1,.14-1.12.31-1.12,1.19a8.67,8.67,0,0,0,1.39,4.67,2.52,2.52,0,0,1,.64,1.16c0,.5,2.44,3.28,2.88,3.28a1.94,1.94,0,0,0,.71-.5,2,2,0,0,1,1.19-.51.6.6,0,0,1,.64.51c0,.27.17.5.34.5a.34.34,0,0,1,.34.34,2.2,2.2,0,0,0,.61,1,11.57,11.57,0,0,1,1.25,1.93,12.46,12.46,0,0,0,1.29,2c.82.88,1.7,2.54,1.46,2.77s.91,2.14,1.39,2.14a.76.76,0,0,1,.64.51c.14.27.37.4.58.27s.24,0,.13.13.07.75.44,1.22a3.08,3.08,0,0,1,.68,1.36,1,1,0,0,0,.37.78c.24.13.31.71.17,1.49-.13.95-.06,1.39.34,1.73a1.26,1.26,0,0,1,.38,1.05c-.14.4.1.81.61,1.15a2.7,2.7,0,0,1,1,1.08,3,3,0,0,0,1.15,1.26c.55.34.95.74.88.88s.24.37.68.57a1.32,1.32,0,0,1,.85,1.46,1.94,1.94,0,0,0,.61,1.53c.3.23.58.57.58.74a5.48,5.48,0,0,0,1.28,1.56,5,5,0,0,1,1.26,1.76c0,.27.13.48.3.48s.48.47.68,1.08c.37,1.05.37,1.05-.31.44-.37-.34-.57-.74-.47-.88s-.07-.2-.37-.1-.51.07-.44-.24-.17-.51-.48-.57-.54,0-.4.5.17.58-.31,0c-.27-.33-.61-.47-.68-.3-.23.34,1.6,3.18,1.87,2.91s1.73,1.26,1.79,1.87a2.13,2.13,0,0,0,.24.88,33.64,33.64,0,0,1,1.46,4.91c.1,1.63.57,2.31,1.76,2.54a2.38,2.38,0,0,0,1.56-.13.82.82,0,0,1,.74-.17c.24.1,1-.31,1.56-.85a3.26,3.26,0,0,1,2.2-1c1.16,0,3.36-.81,3.7-1.36a2.11,2.11,0,0,1,1.35-.33,2.05,2.05,0,0,0,1.83-.89,8.43,8.43,0,0,1,3.49-1.86c3.29-1.19,4.88-2.07,4.75-2.68-.21-.91.34-1.62,1.72-2.2,2.65-1.08,3-1.18,4.1-1.18s1.77-.44,2-1.7c.07-.64.34-.88,1.12-.95,1.25-.17,1.86-.64,1.86-1.45s1.22-1.66,2.24-1.66c.64,0,.71-.17.68-2.07,0-2.2.33-2.78,1.22-1.87.44.45.57.41,1-.1s.44-1.52-.1-1.18-.3-.51.51-1.46a8.64,8.64,0,0,0,1.9-3.66c0-.3-.31-.51-.72-.51a.92.92,0,0,1-.88-.68c-.1-.37-.3-.67-.47-.67a.35.35,0,0,1-.31-.38c0-.71-1.08-1.42-2.64-1.69-3-.58-4.54-2.47-4.54-5.76,0-2.1-.41-2.51-1.12-1.08s-4.71,5.42-5.18,5.25c-.24-.07-.41,0-.41.17s-.54.23-1.18.17-1.19-.27-1.19-.44a.32.32,0,0,0-.34-.31c-.17,0-.34.2-.34.48,0,.77-.68,1-1.32.4a2,2,0,0,0-1-.54c-.27,0-.33-.24-.13-.78.37-1.08.13-4.07-.34-4.37-.81-.51-1.22-.24-1.63,1.08l-.4,1.36-.65-.92c-.67-1.08-.78-1.45-.27-1.45.21,0,.34.23.34.54s.17.41.34.3a.79.79,0,0,0-.34-1.42c-.37-.1-.71-.3-.71-.47s-.07-.44-.1-.65-.34-.54-.71-.81a1.5,1.5,0,0,1-.68-1c0-.24-.2-.41-.44-.37s-.41,0-.41-.21-.3-.44-.68-.54a.89.89,0,0,1-.67-.71c0-.27-.14-.47-.28-.47-.47,0-1.79-3.26-1.55-3.93.13-.41.1-.51-.11-.24a.51.51,0,0,1-.77.1c-.45-.27-.45-.34,0-.34a1.8,1.8,0,0,0,1.08-.61c1.12-1.15,1.49-1.35,2.1-1a1.75,1.75,0,0,0,1.15.13c.41-.13.82.17,1.36.92a4.86,4.86,0,0,1,.74,1.49.6.6,0,0,0,.31.51,5.91,5.91,0,0,1,1.25,1.76,4.07,4.07,0,0,0,2.17,2,7.66,7.66,0,0,1,2.17,1.32,3.3,3.3,0,0,0,1.52.92c.44,0,.44.06.11.3s-.11.34.74.51c.68.14,1.15.37,1.05.58s0,.3.14.3a.37.37,0,0,0,.37-.34c0-.24.24-.24.68,0a1.37,1.37,0,0,0,1,.17,4.65,4.65,0,0,1,1.56-.37c1.35-.17,2.23-.71,1.93-1.19s1.15-.34,1.45.1a8,8,0,0,1,.61,1.8c.45,1.66,1.73,2.37,4.88,2.71a37,37,0,0,1,4.78.71c1.46.38,4.41.44,4.41.14,0-.14.61-.21,1.35-.1s1.36.06,1.36-.17.44-.24,1.22-.07a10.78,10.78,0,0,0,3.42-.07c2.51-.37,3.15-.24,3.15.75a.59.59,0,0,0,.64.67c.41,0,.72.34.89.92.27,1.15,1.11,2.13,1.79,2.13a3,3,0,0,1,1.46,1c1.39,1.42,2.78,2.07,4.1,1.83,1.05-.17,1.08-.17.47.34a2.72,2.72,0,0,1-2.3.58c-.34,0-.61.1-.61.33,0,.65,4.67,5,5.32,5,1.76-.07,4.3-2.37,3.52-3.15-.34-.34-.1-1.59.31-1.59.13,0,.17.37.07.85s0,.84.23.84.31.17.21.34,0,.82.3,1.43a3.39,3.39,0,0,1,.34,2.23,5.46,5.46,0,0,0,.14,2.37c.88,3.09,1.52,5.46,1.93,7.25a24.82,24.82,0,0,0,1.69,4.41c.71,1.35,1.56,3,1.86,3.66a17,17,0,0,1,1.12,3.18,15.84,15.84,0,0,0,1.7,3.73c1.25,1.86,2.94,5.86,2.94,6.88s1.83,3.69,2.72,4.17,2.2-.27,2.47-1.63a2,2,0,0,1,2.68-1.22c.5.14.64.07.54-.24a.72.72,0,0,0-.65-.47c-.54,0-.54-.27-.17-1.63.21-.67.51-.91,1.12-.91s.82-.1.61-1c-.34-1.66-.3-4.38.1-4.85.55-.64.58-3.42.07-6-.64-3.63-.47-4.61.88-4.27.65.17.85.07,1-.64.1-.48.41-.85.68-.85a2,2,0,0,0,2.17-1.76c0-.51.13-.95.3-.95.54,0,3.93-3.42,5-5.08a6.75,6.75,0,0,1,2.37-2.21,11.2,11.2,0,0,0,2.06-1.42c.78-.71.85-1.12.68-2.78a1.07,1.07,0,0,1,.41-1.05c.27-.13.85-.41,1.29-.64.61-.31.81-.31.95.1s1.49.44,3.32-.14a6.49,6.49,0,0,1,1.86-.34c1.19,0,2.57-1.11,2.3-1.79a.78.78,0,0,1,.07-.75c.17-.06.37.17.48.55s.33.61.5.5c.38-.23.75.55.75,1.53,0,.81.75,2.07,2.27,3.79a5.25,5.25,0,0,1,1.12,1.63c0,.2.27.3.61.24.68-.21,1.56.57,1.32,1.18a1.53,1.53,0,0,0,.17,1c.2.44.17.61-.14.61s-.3.1,0,.4.51.34.68,0c.41-.61,1-.07,1.73,1.62.58,1.26.64,2,.51,4.1l-.21,2.54.95.27c1.9.51,2.51.48,3-.23a7.74,7.74,0,0,1,1.7-1.49c.78-.55,1.22-1.12,1.22-1.6,0-1.05,2.27,3.66,2.57,5.36a9.83,9.83,0,0,0,.68,2.27,4.48,4.48,0,0,1,.48,1.79c0,.51.2.85.47.85s.64.48.85,1c.51,1.42.47,1.66-.14,1.46-.37-.17-.44-.07-.3.34s.34.54.51.54.1.47-.11,1.05c-.27.78-.44.91-.64.58s-.31-.31-.31-.11a1.08,1.08,0,0,0,1.19,1.09c.75-.07,1.12,1,.54,1.56-.23.23-.51.2-.88-.1s-.51-.28-.51-.07.27.51.58.71c.64.34.81,2.64.34,4.61-.34,1.42.1,4.37.54,3.93.68-.68,1.59-.44,1.59.37,0,.64.07.68.34.27s.34-.4.34,0a5.72,5.72,0,0,0,1,1.73c.91,1.15,1,1.35.51,1.62s-.51.34,0,.71.54.38.54-.17,0-.57.51.07a4.37,4.37,0,0,1,.41,2.14,2.6,2.6,0,0,0,.3,1.66,3.33,3.33,0,0,1,.61,1.66,4.94,4.94,0,0,0,1.05,2.34,3,3,0,0,1,.85,1.66c0,.54.64,1.18,2.47,2.4,2.68,1.8,3.29,2.37,3.16,2.95-.07.24,0,.3,0,.14.3-.51,1.19-.24,1,.3s-.07.51.31.34.51,0,.51.47.17.68.37.68.3-.3.2-.71-.1-.61.27-.31.51.28.68,0c.34-.54-.14-1-1.12-1-.57,0-.71-.1-.3-.2a.75.75,0,0,0,.57-.64c0-.27-.1-.44-.23-.38s-.31-.2-.31-.64a5.13,5.13,0,0,0-1-2c-.81-1-.92-1.49-.92-3.63a10.76,10.76,0,0,0-.37-3.45c-.37-1-3.05-3.9-3.56-3.9-.13,0-.54-.48-.88-1.05s-.81-1-1.22-.88c-1.05.27-1.93-.68-2.4-2.54a5.65,5.65,0,0,0-.82-2.14c-.5-.4-.95-2.54-.54-2.54s.31-.88-.07-1.22c-.13-.14-.23.1-.23.51,0,.88-.95,1.35-1.39.68s-.17-3.49.51-5.73a16.73,16.73,0,0,0,.64-3.9c.07-2,.1-2,1-2.13s.91,0,.91,1.22,0,1.32,1.19,1.35c1.45.07,2.54.61,2.54,1.29,0,.31.23.48.61.41s.74.27,1.15,1.08a7.15,7.15,0,0,1,.61,1.59,2.91,2.91,0,0,0,1.73,1.8c.17,0,.23-.2.1-.44s-.1-.3.07-.14c.3.31.34.45.44,1.43.07.81.71.61.71-.24,0-.64.07-.68.61-.2a4.53,4.53,0,0,0,1.25.74c.48.17.54.31.24.51-.61.37-.47,4.1.17,4.1.24,0,.61-.3.85-.68a6.64,6.64,0,0,1,1.86-1.56,3.37,3.37,0,0,0,2-3,.31.31,0,0,1,.44-.24c.57.1,2.33-.85,3.42-1.83a3,3,0,0,1,1.29-.81c.47,0,.84-1.76.64-3.12-.07-.51,0-.85.17-.74s.3-.14.3-.51a1.1,1.1,0,0,0-.3-.85,4.57,4.57,0,0,1-.48-1.8,9.86,9.86,0,0,0-.71-2.64A4.5,4.5,0,0,1,350,174a3.23,3.23,0,0,0-1-1.49,3.61,3.61,0,0,1-1-1.39c0-.23-.27-.51-.65-.64-.78-.24-4.77-4.07-4.77-4.54a4.93,4.93,0,0,0-1.16-1.56,3,3,0,0,1-1.15-2.74c0-1,.17-1.6.44-1.7a3.44,3.44,0,0,0,1-1.35c.3-.65.68-1.09.85-1s.37-.06.47-.34a.64.64,0,0,1,.61-.44c.24.07.41-.13.41-.44-.07-.71,2.23-1.52,3.15-1.15a3.6,3.6,0,0,0,1.42.2c.65-.06.75,0,.58.48-.31.85.84,3.18,1.59,3.22s1.05-.78.58-1.7c-.27-.5-.27-.67,0-.54s.38,0,.38-.44.2-.74.44-.74a5.4,5.4,0,0,0,.74-.14,5.92,5.92,0,0,1,.78-.1c.24,0,.34-.24.2-.48s-.1-.27.14-.13a.47.47,0,0,0,.58-.1c.13-.24.5-.24,1,0,1.22.48,1.59.41,1.35-.2-.1-.27-.07-.41.14-.31s.34,0,.34-.16.16-.28.37-.14c.54.3,1-.54.81-1.56-.13-.81-.13-.81.24.07s1.63,1.35,1.63.64c0-.17.6-.64,1.38-1s1.29-.58,1.16-.38,0,.34.13.34a.36.36,0,0,0,.37-.34.26.26,0,0,1,.28-.3c1.18.2,1.86-.14,2.2-1a2,2,0,0,1,1.05-1.18,3.1,3.1,0,0,0,1.39-1.22c.37-.55.84-1,1.08-1,.54,0,1.22-1.25.92-1.76-.14-.21-.1-.31.06-.21.38.24,1.19-.57.92-.88-.14-.1.1-.2.51-.2s.74-.2.74-.54-.13-.44-.3-.34c-.44.27-.75-1.22-.37-1.66.2-.24.23-.51.1-.61s0-.24.17-.24.4-.3.4-.64a1.18,1.18,0,0,1,.34-.88c.21-.1.34-.58.34-1,0-1.15.34-1.86.88-1.86a.5.5,0,0,0,.51-.44,3.82,3.82,0,0,0-.14-2.38c-.16-.37-.13-.54.14-.5s.41-.61.47-2c0-1.15-.06-2.1-.23-2.1a.34.34,0,0,0-.31.34c0,.17-.07.48-.1.64-.07.68-.54.78-1.08.21a1.5,1.5,0,0,0-1.36-.37c-1.15.3-.71-.65.58-1.22,1-.48,1.22-.78.64-1.12-.2-.14-.27-.34-.17-.48s-.27-.37-.81-.47c-1.09-.24-1.63-1.09-.85-1.39.24-.1.44,0,.37.2a.5.5,0,0,0,.38.51c.2.1.4-.07.4-.3,0-.41-1.15-1.43-2.88-2.58a4.88,4.88,0,0,1-.84-1.12,11,11,0,0,0-4.41-4.67c-1.52-.71-1.66-.88-1.46-1.66a4.86,4.86,0,0,1,1.19-1.83c1-1,1.25-1.49.54-1.09-.23.14.07-.23.68-.84a3.36,3.36,0,0,1,2.13-1.06c.82,0,1-.13,1-.81,0-1.05-.21-1.15-2.1-1.35a7.43,7.43,0,0,1-2.24-.51c-.71-.37-2.58-.17-2.3.27.06.1-.07.51-.34.85-.41.54-.61.61-1.32.27a1.38,1.38,0,0,1-.85-1,1.8,1.8,0,0,0-2-1.72c-1.56,0-2.78-.88-2.78-2,0-.68.14-.85.55-.68a1.76,1.76,0,0,0,2.37-1.11,2.89,2.89,0,0,1,1.18-1.56c.55-.38,1-.88,1-1.12a1.41,1.41,0,0,1,1.79-1.19c1.36.27,1.8,1,1.26,2.07s-.61,1.52.1,2.07c.57.4.57.5.1,1s-.41,1.05.17,1.05a7.09,7.09,0,0,0,1.63-1.39,3.92,3.92,0,0,1,2.88-1.55,5.83,5.83,0,0,1,2.13.06,1.82,1.82,0,0,0,.88.21,2.37,2.37,0,0,1,.92.3c.57.31.67.71.67,2.64,0,1.6.11,2.14.34,1.77s.34-.38.34-.17c0,.47,1.66,1.18,1.9.81.1-.17.44-.17.85,0s.64.28.64.17.37.07.85.38a3.84,3.84,0,0,1,2.13-1.62C380.2,106.3,380.3,105.34,380,104.48ZM277.51,9.35c.37.24.24.34-.58.34-.61,0-1.12-.17-1.12-.34C275.81,8.91,276.83,8.91,277.51,9.35ZM224.18,22.26c.81.91.4,1.12-.55.3a2.78,2.78,0,0,0-1.22-.67.89.89,0,0,1-.61-.27C221.46,21,223.6,21.65,224.18,22.26ZM435.58,27c.1.2,0,.24-.31.14-.61-.24-.71-.48-.23-.48A.65.65,0,0,1,435.58,27Zm-6.44,5.76c.27.44-.51.44-1.19,0-.4-.27-.37-.34.24-.34C428.6,32.39,429,32.53,429.14,32.73ZM311.29,57.36c1.36,3.16,1.53,3.8,1.12,4.41s-.37.54-.2,0c.1-.31,0-.58-.14-.58s-.34.31-.34.68a.61.61,0,0,0,.61.68c.34,0,.44.1.21.27a2,2,0,0,0-.61.91c-.11.44-.78.92-1.67,1.22-1.22.48-1.42.65-1.32,1.43s-.06.91-1.25,1.28a2.71,2.71,0,0,1-2.14,0c-.74-.34-.74-.37.21-.37s2.23-.85,2.23-1.46a2.61,2.61,0,0,1,.72-1c.37-.38.61-.92.5-1.19a.59.59,0,0,1,.24-.71c1.12-.71,1.42-3.39.71-6C309.87,56.08,310.85,56.35,311.29,57.36ZM246.13,81.83c.1.17,0,.37-.3.51a.81.81,0,0,0-.51.71.53.53,0,0,1-.51.51c-.34,0-.51.34-.51,1,0,.91-.07,1-.51.64-.61-.51-.67-2-.1-2,.21,0,.31-.1.21-.21-.31-.3.84-1.42,1.49-1.45A.82.82,0,0,1,246.13,81.83Zm2-.07a1.75,1.75,0,0,1-.85,0c-.23-.1-.06-.17.41-.17S248.33,81.66,248.13,81.76Zm4.64.44c.38.27.24.31-.5.14-1.26-.27-1.53-.48-.65-.48A2.66,2.66,0,0,1,252.77,82.2Zm2,0c0,.2-.31.3-.68.27s-.68-.17-.68-.31.31-.27.68-.27S254.81,82,254.81,82.17ZM214,82.74a.68.68,0,0,1-.64,0c-.27-.1-.17-.21.2-.21S214.18,82.64,214,82.74Zm-2.61,1.49a.36.36,0,0,1-.37.34c-.17,0-.24.17-.13.34a.81.81,0,0,0,.88.17c.47-.17.68,0,.84.64a2.72,2.72,0,0,0,.68,1.26c.37.3.37.54-.07,1.39-.33.68-.67.95-1,.81a4,4,0,0,0-1-.2c-.34,0-.47-.48-.47-1.83a3.9,3.9,0,0,0-.34-2.07c-.21-.13-.17-.37.1-.68C211,83.83,211.43,83.76,211.43,84.23Zm-1.18,1.7c.34,1.12-.2,1.49-.71.51-.58-1.16-.58-1.19,0-1.19C209.81,85.25,210.11,85.56,210.25,85.93Zm-1,2.64c-.2.2-.84-1.52-.81-2.24,0-.3.24,0,.51.75A2.94,2.94,0,0,1,209.23,88.57ZM200,96.16a6.47,6.47,0,0,0,1.45,1.73c.58.54.85.88.61.74a.86.86,0,0,0-.94.38c-.38.47-.58.51-.68.2a1.1,1.1,0,0,0-.88-.41c-.88,0-1.6-.91-1.63-2.1C197.88,95.31,199.3,94.94,200,96.16Zm-42,38.73c0,.27-.14.51-.34.51s-.24-.24-.14-.51.27-.51.34-.51S157.9,134.62,157.9,134.89Zm130.45,25.58c0,.17-.07.34-.13.34s-.27-.17-.38-.34,0-.34.14-.34A.35.35,0,0,1,288.35,160.47Zm-110,9.42c.11.17,0,.31-.3.31s-.41-.14-.31-.31.24-.27.31-.27S178.26,169.76,178.36,169.89Zm159,16.3a.39.39,0,0,1-.17.54c-.16.11-.33,0-.33-.3C336.81,185.82,337,185.72,337.31,186.19Zm7.12,3.08c.34.38.44.68.24.68s-.54-.3-.75-.68-.3-.67-.24-.67A3.14,3.14,0,0,1,344.43,189.27Z"/><path class="cls-4" d="M325.62,8.64c0,.57,1,1.12,1.63.91.44-.13.75,0,.88.31s0,.51-.51.51-.57.13-.44.37.55.27,1,.17a15.56,15.56,0,0,1,3.55.17c2.78.34,3.66.2,2.71-.37a15.14,15.14,0,0,0-5.15-1.36,3.39,3.39,0,0,1-1.76-.51C326.78,8.3,325.62,8.16,325.62,8.64Z"/><path class="cls-4" d="M400.85,85.45c0,.27-.14.41-.34.31s-.34,0-.34.17.2.34.47.24c.85-.34,3.09,2.94,2.71,4a.57.57,0,0,0,.17.68c.75.44.34.78-.61.51-1.25-.34-1.55-.07-.84.71.47.54.51.65.06.81s-.5.65-.5,1.29.06.88.13.68c.24-.64,1.7.44,1.93,1.46s1.12,1.08,1.43.3a.84.84,0,0,1,.67-.51c.92,0,.48-.64-.88-1.22-.74-.34-1.35-.71-1.35-.88,0-.37.47-.34.91.1.27.28.54.24,1-.06s1-.31,2.54.34a4.1,4.1,0,0,0,2.31.5c.27-.13.3-.1.17.14s-.07.41.13.41.34-.31.21-.82c-.31-1.29.1-1.89,1.28-1.89s2.24-.68,2.24-1.29c0-.21-.24-.31-.54-.17s-.51-.07-.44-1.36c.07-1.08.2-1.49.54-1.35s.44,0,.44-.17-.3-.41-.68-.51c-.57-.14-.71,0-.88,1.15-.23,1.39-.81,1.49-.81.1,0-1-.54-1.08-.85-.13-.2.64-.27.64-2.64-.24a13.07,13.07,0,0,1-4.3-2.13,10.82,10.82,0,0,0-3-1.7C401,84.91,400.85,85.15,400.85,85.45Z"/><path class="cls-4" d="M405.93,96.94c0,.31-.17.44-.37.31s-.34,0-.17.64,0,1-.17,1.08-.17.44.2.85a1.27,1.27,0,0,1,.31,1.15c-.14.38,0,.54.34.54a1.3,1.3,0,0,1,.88.68c.54,1,.64,4.17.13,4.75s-.47.64-.47,1.52c0,.31-.41.71-.92,1a2.8,2.8,0,0,0-1.18.75c-.38.47-1-.55-.75-1.26s-.24-1-.95-.47c-.47.34-.47.51-.07,1.22.24.47.45.64.48.37s.07-.41.17-.31-.61,2-.92,2-.34,1.29.07,1.42c.2.07.2.31,0,.58s-.37.41-.81.07-.88-.38-2.2,0a11.21,11.21,0,0,1-2.48.34c-1.42-.13-2,0-2,.41,0,.57-1.7,2.47-2.44,2.74a1,1,0,0,0-.61.88,1.72,1.72,0,0,1-.41,1c-.24.21-.78.65-1.22,1l-.78.68.92,1c.5.58,1.05,1,1.25.81s.24-.06.14.14.2.95.71,1.66a5.12,5.12,0,0,1,.91,1.83c0,.27.34.54.78.61s.75.31.75.51.34,0,.78-.44c.64-.71.74-1.19.67-3.05a20.25,20.25,0,0,0-.13-2.54c-.14-.85.1-.82,1.08.13,1.12,1.12,2.21,1.43,1.87.51-.27-.68.37-1.83,1-1.83.27,0,.51.14.51.34,0,.64.51.34.91-.54a2.25,2.25,0,0,0,.24-1.32.57.57,0,0,1,.17-.68c.2-.1.37,0,.37.27,0,.61,1.36,1.83,2.17,2,.51.07.71-.17,1-1,.17-.61.51-1.08.78-1.08.74,0,.61-1-.17-1.19-.37-.1-.68-.34-.68-.51s.31-.2.68-.1.68.27.68.41a3.17,3.17,0,0,0,1.52.2c1.39,0,1.53-.07,1.53-.84l0-.85.51,1c.57,1.08,1.29.88,1-.31-.17-.95.47-1.08,1.25-.27.51.48.58.48,1.09,0,.27-.3.4-.71.3-.88a.74.74,0,0,1,.14-.81c.27-.34.2-.65-.31-1.22a2.9,2.9,0,0,1-.71-1.49c0-.41-.1-.95-.14-1.22s-.1-.75-.13-1a2.85,2.85,0,0,0-.71-1.33,2.74,2.74,0,0,1-.68-1.25c0-.34.2-.41.68-.27s.68.07.68-.14a.35.35,0,0,0-.34-.37c-.17,0-.34-.74-.34-1.66,0-1.59-.1-1.8-2.2-4A11.91,11.91,0,0,1,408,97.21a.45.45,0,0,0-.47-.44,4,4,0,0,1-1-.2C406.1,96.43,405.93,96.53,405.93,96.94Zm1.69,1c0,.07-.23.21-.5.34s-.51,0-.51-.13.23-.34.51-.34S407.62,97.86,407.62,97.92Zm-6.2,19c.27.75,0,.92-1.05.65-.71-.17-.81-.31-.51-.68C400.37,116.25,401.15,116.29,401.42,116.93ZM399,118a.76.76,0,0,1-1.32.2c-.14-.27.3-.51,1.25-.68C399,117.47,399.05,117.68,399,118Zm-2.95.57c-.1.28-.2.17-.2-.2s.07-.57.17-.44A.69.69,0,0,1,396,118.52Zm1,.17c-.23.92-1.05,1.8-1.62,1.8-.14,0-.24-.2-.17-.44s-.37-.44-1-.51-1.12-.27-1.12-.47.58-.27,1.66-.14c1.5.2,1.7.14,1.9-.47C397,117.44,397.22,117.64,397,118.69Z"/><path class="cls-4" d="M155,113.88a3.72,3.72,0,0,1-1.89.51c-.72,0-1.29.14-1.29.34s-.31.34-.71.34c-1,0-.68,1.08.51,1.63.84.44,1.05.4,1.93-.24a3.42,3.42,0,0,1,1.28-.71c.21,0,.28-.21.17-.48s.11-.68.51-1c.71-.44.95-.95.44-.95A2.69,2.69,0,0,0,155,113.88Z"/><path class="cls-4" d="M378.25,163.93c-.31.47-.24,5.35.06,6.51.21.64.17.67-.27.1-1.08-1.32-1.22-.24-.34,2.5.58,1.77,1.46,3,2.14,3,.2,0,.34-.27.34-.58s.1-.44.24-.33a1.29,1.29,0,0,1-.24,1c-.48.88-.24,2.06.34,1.72.17-.1.34,0,.34.14,0,.58-1,.44-1.22-.14a.9.9,0,0,0-.72-.5c-.33,0-.2.37.51,1.25A18.41,18.41,0,0,1,381,181c.71,1.42,1.22,1.7,1.76,1a2.38,2.38,0,0,0-.54-2.91c-.61-.55-.61-.58.17-1s2-.13,1.15.34c-.34.24-.34.41,0,.85s.5.54.88,0,.44-.51.74.07c.21.34.48.47.61.34s.07-.58-.17-.95c-.78-1.29-.17-1,1.39.67s1.66,2.07.88,2.07a.21.21,0,0,1-.2-.27,2.93,2.93,0,0,0-1.15-1.76c-.48,0-.27,1.05.24,1.22.33.13.5.68.5,1.62s.11,1.22.31.92.44-.37,1.08.1c1.19.81,1.39.68.78-.51-.3-.64-.4-1.15-.2-1.28a2.19,2.19,0,0,0,.47-1.12c.14-.75,0-1-.78-1.32-1.05-.41-1.32-1-.47-1,.27,0,.51.14.51.34,0,.41.34.44,1,0,.34-.24.37-.44.07-1-.48-.81-1.05-.95-1.05-.2,0,.47-.1.47-1,0a2,2,0,0,0-1.32-.34c-.17.07-.41-.07-.51-.38s-.51-.5-1.69-.33-1.53.13-1.66-.31.17-.64,1.39-.61c.2,0,.4-.07.4-.17,0-.34-1.18-1.05-1.76-1.08s-.85-.48-.68-1.76c.1-.61.34-1,.75-1,.85,0,1.22-2.85.47-4a5,5,0,0,1-.54-2.17c0-1.32,0-1.32-1.12-1.11-.64.1-1.18,0-1.32-.17A1.67,1.67,0,0,0,378.25,163.93Z"/><path class="cls-4" d="M390,181.85a2.35,2.35,0,0,0,1,1.36c.57.41.91.91.81,1.22s-.27.34-.61-.14c-.64-.84-.91-.37-.68,1.05.14.72.44,1.22.71,1.22s.48.38.48,1a1.25,1.25,0,0,0,.95,1.35c.54.24,1,.58,1,.82a4,4,0,0,0,.24,1.11c.17.61.1.72-.65.72-.47,0-.84-.11-.84-.28a.31.31,0,0,0-.34-.3c-.17,0-.24.44-.1,1.08s.1,1-.21.82-.47,0-.61.44c-.23.88-.37.88-1.12,0-.5-.67-.71-.71-1.49-.34-.47.21-.88.61-.88.92s-.3.51-.84.51-.92.2-1,.4-.23.92-.44,1.46a3.08,3.08,0,0,0-.17,1.46.56.56,0,0,0,1.09-.21,2.37,2.37,0,0,1,.51-1.21c.5-.65.5-.65.5.06s.48,1,.85.41a.53.53,0,0,1,.68-.1c.34.1.51-.07.51-.54s.1-.68.64-.38.68.68.64,2.1.07,1.83.92,2.51a4.58,4.58,0,0,0,1.69.88,1,1,0,0,1,.78.88c.14.82.88.85.95,0a3.85,3.85,0,0,1,.27-1.09,1.92,1.92,0,0,0-.17-1.52c-.61-1.22-.57-1.53.14-1.63a.47.47,0,0,1,.57.51,2.74,2.74,0,0,0,.51,1.25c.44.61.48.58.51-.61a2.4,2.4,0,0,1,.34-1.45,1.13,1.13,0,0,0,.34-.92c0-1.25-1.46-6-1.76-5.83s-.21-.34-.07-1.08c.2-1.12.17-1.22-.37-1.05s-.61,0-.75-.44c-.2-.78-.78-.92-.78-.17a.53.53,0,0,1-.54.51c-.41,0-.47-.14-.2-.44a1.21,1.21,0,0,0,0-1.09c-.44-1.12-.34-1.25.71-1.12l1,.14-.64-1.05a4.67,4.67,0,0,1-.68-1.9c0-1.29-.54-1.79-2-1.86C390.24,181.21,390,181.31,390,181.85Z"/><path class="cls-4" d="M383.91,183.48a.71.71,0,0,0,.33.54c.24.14.31,1,.24,2.07-.13,1.9,0,2.13.75,1.39.34-.31.5-.31.61,0s.37.3.64.2c.71-.27.58.68-.2,1.36-.58.47-.61.68-.27,1.25.23.37.61.68.81.68s.47.24.61.51c.3.84.81.57,1.22-.68.2-.64.54-1.19.71-1.19s.24.14.14.34c-.24.38.81.44,1.66.14s.64-1.32-.31-1.83c-.68-.37-.85-.71-.85-1.76s-.1-1.29-.67-1.29c-.38,0-.68.13-.68.34s-.27.34-.64.34-.58-.21-.45-.85,0-.85-.64-.85a4.4,4.4,0,0,1-1.66-.51C384.24,183.11,383.91,183.07,383.91,183.48Zm5.31,3.15c-.1.27-.2.17-.2-.2s.07-.58.17-.44A.66.66,0,0,1,389.22,186.63Zm-.23,2.48c0,.16-.17.1-.34-.17a2.3,2.3,0,0,1-.34-.85c0-.2.17-.1.34.17A2.07,2.07,0,0,1,389,189.11Zm.57-.11c-.1.27-.2.17-.2-.2s.07-.58.17-.44A.66.66,0,0,1,389.56,189Zm-1.35.68c-.1.27-.2.17-.2-.2s.06-.58.16-.44A.66.66,0,0,1,388.21,189.68Z"/><path class="cls-4" d="M377.6,185.89a6.41,6.41,0,0,1-.88,2.1c-.37.54-.54,1.12-.44,1.28s.1.31-.07.28c-.4-.14-3,2.57-3.32,3.42a1.3,1.3,0,0,0,.14,1.15c.27.27.37.27.37,0a9.9,9.9,0,0,1,1.7-2.07,8.45,8.45,0,0,0,1.69-2.06c0-.55,1.46-2,2.17-2.1.91-.17,1.05-.85.2-1.09-.47-.1-.68-.44-.68-1.08s.14-.82.34-.68.34.07.34-.14-.3-.3-.68-.27S377.74,185,377.6,185.89Z"/><path class="cls-4" d="M276.29,189.68a.35.35,0,0,0,.13.54.79.79,0,0,1,.41.78c0,.41-.17.55-.51.44s-.51,0-.51.17a.37.37,0,0,0,.34.38c.44,0,.44,1.45,0,1.86s.34,5,.81,6.2c.31.78,1.63,1,2.71.51,1.76-.88,2.2-1.46,2.2-2.92a10.81,10.81,0,0,0-2.23-5.35,1.24,1.24,0,0,1-.48-.78,4.84,4.84,0,0,0-2.27-2.24A.8.8,0,0,0,276.29,189.68Z"/><path class="cls-4" d="M372.49,196.66a5.32,5.32,0,0,0-.82,1.49c-.23.71-.57,1.29-.74,1.29s-.44.44-.61,1a3.9,3.9,0,0,1-1.19,1.56c-.68.44-.78.65-.44,1.05s.24.48-.51.48a2.31,2.31,0,0,0-1.42.5,2,2,0,0,1-1.19.51c-.44,0-.64.24-.64.71a5.73,5.73,0,0,1-1.36,2.34c-1.11,1.36-1.59,1.66-2.88,1.83A3.39,3.39,0,0,0,359,210a.42.42,0,0,1-.54.13c-.27-.17-.48,1.09-.34,2a2.09,2.09,0,0,1-.31.95c-.3.54-.47.61-1.11.23a2.37,2.37,0,0,0-1.36-.3.81.81,0,0,1-.78-.44c-.3-.75-1.25-.14-1.9,1.19-.57,1.11-.54,2.37,0,5.28.48,2.41.92,3.12,1.77,2.92.57-.17.67,0,.64.94,0,.65.1,1.87.2,2.75.27,1.69.24,1.66,2.82,1.63,1.18,0,1.42.1,1.42.64,0,.78.54,1.22.85.71a.73.73,0,0,1,.81-.17,1.64,1.64,0,0,0,1.32-.51c.41-.4.75-.54.75-.34s.23.34.5.34.51.17.51.38.31.3.71.2c1.12-.31,1.66.1,1.66,1.15s.21,1.22,2.07.14l1.49-.82.41.75c.37.74.41.74.78-.24a3.09,3.09,0,0,0,.17-1.59,3.43,3.43,0,0,1,.37-1.9c.41-.81.47-1.29.24-1.35-.65-.24-.07-1.6,1.15-2.75a5.16,5.16,0,0,1,1.49-1.08c.17,0,.24-.75.1-1.8-.24-2.27.31-3.12,2-3s1.93-.55.27-2c-1.15-1-1.42-1.39-1.22-2a2.06,2.06,0,0,0-.47-1.69c-.61-.85-.68-1.12-.31-1.9s.27-1,0-1.25c-.47-.48.17-1.16,1.43-1.5s1.42-.74.37-1-1.12-.81-.14-.81,2-.58,2-1.06c0-.16-.34-.47-.74-.64a8.34,8.34,0,0,1-2.34-1.46.76.76,0,0,0-.68-.17c-.3.07-.44-.13-.37-.57a2,2,0,0,0-.78-1.46c-.44-.41-.75-1-.64-1.22C373.47,196.7,373,196.32,372.49,196.66Z"/><path class="cls-4" d="M316.65,201.81c-.68,1.09.37,2.58,4.33,6.3a6,6,0,0,1,1.93,2.61c0,.24.68.92,1.53,1.53s1.49,1.18,1.46,1.32c-.17.71,1.15,4.13,1.69,4.34,1,.3,3.46,4.81,3.66,6.5.07.82,1.08,2.31,2.61,3.83a3.5,3.5,0,0,1,.91,1.22,29.13,29.13,0,0,0,3,3.22c3,2.95,3,3,4.1,2.61.85-.27,1.18-.27,1.56.14s.44.67.1,1.38c-.44.95-1,1.22-1,.51,0-.51-.44,0-.55.58-.06.37.28.51,1.22.51,1.16,0,2.38.74,2.1,1.32,0,.1.48.3,1.19.47a11.72,11.72,0,0,1,2,.55c1.18.54,1.79.67,2,.44.4-.41,3,0,4.3.61s6.37,1.45,7.25,1.15c.27-.14.51,0,.51.2a.29.29,0,0,0,.44.24,3.11,3.11,0,0,1,1.49.34c1.49.61,1.86.57,1.63-.21-.17-.54-.07-.61.5-.47a.91.91,0,0,1,.68.91c0,.72,0,.72.51.07.27-.37.51-.51.51-.27s.57.48,1.29.58a11.86,11.86,0,0,1,2,.51,4.41,4.41,0,0,0,2.37-.17c.92-.24,1.46-.48,1.19-.48s-.37-.13-.27-.24.4-.1.64.11a1.92,1.92,0,0,0,2.34-.11c.3-.37.51-.37.85-.1.78.65,5.52.68,7.59.07a9.59,9.59,0,0,1,2.3-.47,1.24,1.24,0,0,0,.88-.28.86.86,0,0,1,.85-.06,4.62,4.62,0,0,0,3-.44c.54-.55-.34-.65-3.46-.44a3.86,3.86,0,0,1-2-.24c-.17-.24-.51,0-.95.57s-.85.82-1.05.72a14.81,14.81,0,0,0-4.44-.61c-1.12,0-1.73.13-1.93.47s-.34.41-.34.07-.24-.37-.64-.24a.81.81,0,0,1-.88-.17c-.11-.17,0-.34.17-.34s.27-.17.13-.37-.27-.27-.44,0-1.52.34-1.93-.07-1.86-.23-2.07.31a.51.51,0,0,1-.64.34.42.42,0,0,0-.58.23c-.06.27-.3.21-.71-.2-.74-.75-1.29-.61-1.73.37-.17.41-.51.75-.74.75-.54,0-.58-.54-.07-.85s-.95-1.29-1.56-1-1.52-.1-1.52-.68-.07-.54-2.38-.61c-1.11,0-1.52-.17-1.62-.61s.07-.54.57-.44c1,.17,2.82-.47,2.65-1-.07-.2-1.05-.3-2.51-.27a7.33,7.33,0,0,1-3.42-.44c-.54-.27-1.09-.4-1.22-.3s-.41-.07-.68-.41c-.44-.61-.47-.57-1,.27a1.34,1.34,0,0,1-1.49.75l-2.27-.14c-1.05,0-1.45-.2-1.69-.78a1.67,1.67,0,0,0-1.12-.84,7.56,7.56,0,0,1-1.86-.65c-.65-.37-1.09-.44-1.19-.2s-.47.24-1.15,0a3,3,0,0,0-1.36-.1c-.17.14-.23-.27-.1-.95s.24-2.27.34-3.66c.17-3.45.41-4.13,1.22-3.69s2-.14,2-.81c0-.28-.1-.28-.31.06s-.37.34-.5.07a.7.7,0,0,1-.07-.68c.1-.17-.1-.37-.48-.47-.67-.17-.81-.37-1.15-2-.27-1.12-.91-1.16-2-.14-.92.85-.85,1.25.2,1.25.34,0,.61.17.61.38s-.3.3-.74.17a9.17,9.17,0,0,0-1-.21c-.17,0-.27-.17-.27-.37a1.68,1.68,0,0,0-.51-.85,2.63,2.63,0,0,1-.51-1.52c0-.81-.13-1-.78-1a2.66,2.66,0,0,1-1.42-.48c-.58-.4-.61-.54-.17-1.05.68-.81.78-2,.2-2.51a1,1,0,0,1-.3-.94c.17-.41.07-.51-.34-.34s-.58,0-.58-.27-.37-.58-.84-.72-.85-.4-.85-.67c0-.44-.17-.55-1.36-.61a.69.69,0,0,1-.5-.72.77.77,0,0,0-.68-.77,2.75,2.75,0,0,1-1.05-.45,1.5,1.5,0,0,0-1.05-.1.67.67,0,0,1-.95-.51c-.1-.4-.37-.71-.54-.71a.35.35,0,0,1-.31-.37c0-.44-.51-.95-2-2a16.53,16.53,0,0,1-1.63-1.25,1.53,1.53,0,0,0-.78-.44c-.17,0-.3-.24-.3-.51a1.88,1.88,0,0,0-.34-1c-.2-.24-.64-.78-1-1.22-.54-.64-1-.78-2.34-.78a3.59,3.59,0,0,1-2.44-.64C317.66,201.41,317,201.3,316.65,201.81Zm58.45,41.54c0,.07-.24.14-.51.14s-.51-.14-.51-.34.24-.24.51-.13S375.1,243.29,375.1,243.35Z"/><path class="cls-4" d="M258.19,206.86a1.68,1.68,0,0,0,.34,1.22.54.54,0,0,1,.14.64.62.62,0,0,0,.17.72.79.79,0,0,1,.37.61c0,.23-.13.2-.37-.11s-.34-.4-.17.11a5.35,5.35,0,0,1,.2,1.28c0,.78.78.85,1.36.11.37-.45.34-.55-.27-.72-.41-.1-.65-.34-.55-.5.34-.55-.2-2.68-.61-2.44-.23.17-.3-.14-.2-.85s0-1.05-.13-1.05S258.19,206.32,258.19,206.86Zm1.7,4.44a.34.34,0,0,1-.34.34.37.37,0,0,1-.34-.34.34.34,0,0,1,.34-.34A.33.33,0,0,1,259.89,211.3Z"/><path class="cls-4" d="M400.85,212.52a5.8,5.8,0,0,0-.51,2.2c0,.71-.14,1.32-.34,1.32s-.1.17.17.38.37.4.14.5-.31.51-.21.89c.17.71.21.71.44.06s.27-.47.27.34-.06.92-.64.78c-.81-.2-1.15.2-.85,1.09s2.2,1.18,2.2.4c0-.44.07-.44.38.07.68,1.15.88.24.27-1.05-.88-1.76-.61-2.51.74-2s1.53.2.51-.78c-.81-.78-.81-.82-.17-1.26s.92-2.1.38-2.1a3,3,0,0,0-1,.54c-.75.51-.75.48-.75-.84C401.86,211.44,401.49,211.27,400.85,212.52Z"/><path class="cls-4" d="M392.58,214.35c-.78.81-1.53,1.32-1.86,1.22a30.19,30.19,0,0,0-3.16-.41,7.18,7.18,0,0,1-2.64-.47c0-.34-1.22-.65-1.59-.37a1.9,1.9,0,0,0-.54.81c-.14.34-.41.51-.58.41-.47-.31-1.69,1.08-1.69,1.93,0,.34-.14.61-.27.61s-.24.44-.14,1a3,3,0,0,1-.41,1.8,3.64,3.64,0,0,0-.54,1.82c0,1.16-.88,3.19-1.39,3.19-.17,0-.27.41-.17.91s.17,1.19.17,1.5.27.5.82.4.77,0,.84,1.12a10.59,10.59,0,0,1-.3,2.95c-.48,2-.21,2.34,1.42,2.07,1.08-.21,1.19-.31,1.22-1.43.07-5.32.27-6.84.88-7,.92-.3,1.12.11.65,1.29-.38,1-.31,1.15.57,1.93.71.68.88,1.05.71,1.56a1.09,1.09,0,0,0,.82,1.53,2.07,2.07,0,0,0,1-.68,1.82,1.82,0,0,1,.95-.68c.27,0,.23.2-.1.58-.85,1-1,2-.24,2.67s.68.55,1.32,0a1.31,1.31,0,0,0,.51-1.22c-.1-.3-.07-.68.07-.74a3,3,0,0,0,.27-1.5c0-1.05-.14-1.25-.65-1.18-.74.13-1.52-.85-1.32-1.66a4.91,4.91,0,0,0-.88-2.37c-.85-1.36-1-1.83-.68-2.21a1.29,1.29,0,0,1,.85-.47c.24,0,.81-.48,1.22-1,.58-.78.95-1,1.52-.81s.78,0,.78-.51c0-.92-.84-1.22-1.89-.68a5.11,5.11,0,0,1-2,.47,2.35,2.35,0,0,0-1.86.85c-.61.75-1.66.78-1.66,0a2.66,2.66,0,0,0-.71-1.05,1.61,1.61,0,0,1-.51-1.76c.34-1.73.64-1.83,4.95-1.52,5.76.37,6.77.34,6.77-.44a4.38,4.38,0,0,1,.85-1.46c.51-.68.78-1.36.64-1.69C394.24,212.76,394.07,212.82,392.58,214.35Z"/><path class="cls-4" d="M403.05,226.48a2.12,2.12,0,0,0-1.25.51c-.21.3-.28.3-.28,0s-.23-.24-.67.13c-.82.68-.88,1.29-.17,1,.37-.14.51,0,.51.61,0,.78.06.81,1.18.44.65-.21,1.19-.58,1.19-.82s.13-.37.68-.1a2,2,0,0,0,1.32.17,2.78,2.78,0,0,1,1.79.51c1.43.88,1.63.85,1.63-.1C409,227.09,406.44,226.11,403.05,226.48Z"/><g class="cls-5"><path class="cls-6" d="M108.77-4.27c-.31.34-.85.41-1.77.27s-1.35-.1-1.52.34a.75.75,0,0,0,.27.85c.27.16.3.3.1.3A1.6,1.6,0,0,1,105-3a1.23,1.23,0,0,0-1.22-.37c-.44.06-.84,0-.94-.11a5.61,5.61,0,0,0-2.1-.13c-1.09.07-2.38.1-2.89.13-.74,0-.88.14-.71.58a5.08,5.08,0,0,0,1.09,1.42l.88.82-.92-.55c-.54-.33-1-.44-1.11-.23s.44.61,1.25,1c1.69.82,1.83.85,1.29.17-.82-1,1.72.61,2.64,1.6a2.45,2.45,0,0,0,1.36.94,7.89,7.89,0,0,1,1.93.68c2,1,2.78.88,3-.34.13-.57.44-1,.67-1,.51,0,2.48-1.7,2-1.7-.17,0,0-.17.31-.37.68-.41,1.76-.14,2.88.75.71.54.74.61.17.94s-.44.48,1.12.38a1.78,1.78,0,0,1,1.32.3c.23.41,1.79.17,2.37-.34a1.51,1.51,0,0,1,1-.3c.34,0,.51-.17.4-.34s-.64-.34-1.18-.34A1.27,1.27,0,0,1,118.46,0c-.14-.37-.48-.51-1-.41s-.85,0-.85-.1c0-.47-3.08-1.73-3.66-1.49s-.47.1-.17-.2,1-.31,2.54-.17c3.63.4,6.74.2,7-.48.07-.2.41-.34.75-.34.88,0,1.15-.57.44-.95-1-.5-5.12-.71-5.36-.27-.1.27-.23.24-.37-.06-.3-.61-1.83-.51-1.83.13,0,.44-.1.48-.51.14C114.66-4.81,109.34-4.85,108.77-4.27Zm3,1.69c.1.31-.07.44-.48.34a1,1,0,0,1-.74-.54c-.1-.31.07-.44.47-.34A1.05,1.05,0,0,1,111.75-2.58ZM105-.31c0,.1-.27.17-.61.17s-.65-.23-.65-.47.17-.44.65-.17A1.49,1.49,0,0,1,105-.31Zm-2.37.85a.34.34,0,0,1-.34.34A.37.37,0,0,1,102,.54a.34.34,0,0,1,.34-.34A.33.33,0,0,1,102.67.54Z"/><path class="cls-6" d="M192.49,2.47a6.14,6.14,0,0,0-1.62.68c-.55.37-2.21.61-5.05.81-4.07.27-5.52.51-5.9,1a8.15,8.15,0,0,1-3.49,1.42c-.44-.06-.61.11-.54.55a2.34,2.34,0,0,1-1.49,2.54l-1.09.54.85.34c.51.24.65.37.31.37a4,4,0,0,0-1.53.88c-.78.65-.84.85-.37.85.85,0,.71.64-.27,1-.48.17-.85.54-.85.81a1.38,1.38,0,0,0,1.7,1.12c.37-.1.61,0,.47.13s.24.48.75.65c.71.27,1,.27,1.22-.07s.27-.31.27.1c0,.75.71,1,3.38,1.22,4.07.31,4.51.31,4.68-.2.1-.34,0-.41-.41-.27s-.5.1-.4-.07-.44-.48-1.15-.71a3.37,3.37,0,0,1-1.36-.65c0-.13-.41-.47-.95-.78-.91-.54-1.49-2.3-.74-2.3a.33.33,0,0,0,.33-.34c0-.47,3.56-4.07,4-4.07a2,2,0,0,0,1-.61c.78-.77,2.24-1.22,6.67-2.1,5.9-1.18,7.09-1.93,4.31-2.71A4.44,4.44,0,0,0,192.49,2.47ZM175.08,9.89a.7.7,0,0,1-.65,0c-.27-.11-.17-.21.21-.21S175.21,9.79,175.08,9.89Z"/><path class="cls-7" d="M124.52,16.16a.65.65,0,0,1-.78.14,1.69,1.69,0,0,0-1.35.57c-.48.44-.75.58-.61.34s-.07-.41-.88-.41c-1.46,0-2.68.34-2.48.68s-1.45.82-2.5.71c-.58-.06-.72,0-.55.38s.17.37-.2,0c-.81-.75-3-.41-3,.47,0,.51,0,.51-1.25.64-1.39.14-1.86.48-1.69,1.19a1,1,0,0,1-.17.92c-.24.13-.27,0-.1-.24s.06-.37-.68-.21-.92.17-.54-.27c.64-.74,0-.71-1.8.17-1.12.51-1.46.85-1.32,1.22s.07.48-.17.31c-.48-.27-2.78.64-2.78,1.12s.14.47,1.52-.11a3.23,3.23,0,0,1,1.19-.37c0,.07.48,0,1-.17s1-.17,1,0-.23.3-.5.3a.61.61,0,0,0-.51.65c0,.37-.68,1.15-1.7,1.86A6.72,6.72,0,0,0,102,27.61c0,.17-.31.38-.68.48s-.68.47-.68,1.05a2.37,2.37,0,0,1-2.27,2.23c-.78,0-.84.07-.44.38s.44.37,0,.54a10.67,10.67,0,0,0-1.77,1.49c-1.18,1.19-1.38,1.29-2,.92s-.74-.34-1.08.1a.86.86,0,0,1-.88.37c-.34-.1-.41,0-.27.37s-.07.58-.82.75c-.54.13-1,.37-1,.54s-.37.37-.85.51-.84.34-.84.54a.16.16,0,0,1-.28.14c-.17-.11-.74.1-1.32.47-1,.61-1,.71-1.08,3.19,0,2.13.07,2.5.47,2.37s.71.37.24.68S86,47,86.44,47c.17,0,.3.31.3.68s.51,1,1.36,1.52a4.3,4.3,0,0,0,5.11,0,26.46,26.46,0,0,1,2.61-1.55c.78-.41,1.42-1,1.46-1.29s.07-.48.2,0a1.78,1.78,0,0,0,.65.78,1.46,1.46,0,0,1,.47,1.19A3.36,3.36,0,0,0,99.28,50a3.81,3.81,0,0,1,.68,1.12,5.67,5.67,0,0,0,1.18,1.52c.65.68,1,1.29.85,1.36a.65.65,0,0,0-.34.61c0,.27-.1.44-.24.44a4.65,4.65,0,0,0-2.47.71c0,.34-2,.81-2.27.58a1.12,1.12,0,0,1,.2-.82c.34-.57.34-.57.37,0,0,.34.17.51.34.41a.37.37,0,0,0,.17-.51.38.38,0,0,1,.17-.51.62.62,0,0,0-.34-1.18.64.64,0,0,1-.37-1.19c.41-.23.37-2.2,0-2.2a.31.31,0,0,0-.27.34c0,.17-.21.34-.48.34a1.45,1.45,0,0,0-.88.51,2.09,2.09,0,0,1-1.39.5c-1.83,0-3.08,3.63-1.73,5,.48.54.51,1,.07,1.25a.56.56,0,0,0-.1.71c.14.38.3.41.64.11s.48-.28.48.17-.17.54-.38.54-.27.17,0,.51c.74.88-.17,1.55-1.73,1.32a2.7,2.7,0,0,0-2.07.27,3,3,0,0,1-1.83.37,2.81,2.81,0,0,0-3.32,2c-.34,1.8-2.57,3.83-5.11,4.68-1.49.47-1.73.68-2,1.76s-.47,1.29-1.62,1.59a3.79,3.79,0,0,0-1.77,1,1.54,1.54,0,0,1-2.33.24A3.3,3.3,0,0,0,70,72.92c-.88-.21-1-.17-.71.54.71,2.3.64,2.47-.74,2.47a4.49,4.49,0,0,1-1.7-.27,7.62,7.62,0,0,0-3.83.48c-.64.3-.71,2-.1,2,.24,0,.44.14.44.34s.2.24.44.14c.78-.31,2.27.47,2.07,1-.1.27,0,.51.2.51s.27-.17.17-.34c-.37-.61.85-.34,1.59.34.44.37.55.68.31.68s-.27.17.1.54a1.63,1.63,0,0,1,.54.84c0,.17.24.31.54.31s.41.14.31.34-.07.34.1.34.31.2.31.4a2.77,2.77,0,0,0,.13.78,21.73,21.73,0,0,1-.74,5.19c-.41,1.22-1.36,1.9-2.34,1.59a92.87,92.87,0,0,0-9.39-.64,5.51,5.51,0,0,1-2-.31c-.47-.47-1.73-.24-2.34.44a2.05,2.05,0,0,1-1.18.68c-1,0-1.42.81-1,1.8a13.61,13.61,0,0,1,.41,3.15c.1,2.47-.68,5.32-1.7,6.13-.27.24-.41.44-.3.44s.1.44-.07,1-.17,1,0,1,.31.24.31.51.2.48.44.41c.44-.07.51,1.66.1,3.15-.24.81-.17.85,1.22.81a9.23,9.23,0,0,0,2.24-.27c1.22-.4,2.1.1,2.67,1.53s1.87,2.1,2.58,1.22,2.74-1.56,4.81-1.6c1.12,0,2.3,0,2.64,0s.82-.47,1.09-1a2.26,2.26,0,0,1,1.55-1.22c.78-.13,1.16-.5,1.56-1.49.27-.74.72-1.32,1-1.32a1.44,1.44,0,0,0,.85-.51c.37-.44.34-.61-.07-.95a1.58,1.58,0,0,1-.34-2.33c1.22-1.8,3.29-4,3.76-4a9,9,0,0,0,2.27-.92C80,96,81,94.6,80.3,93.92A1.82,1.82,0,0,1,80,92.84c0-1.66,3.6-2.27,5.66-1,1.12.71,1.9.58,3.12-.51a5.67,5.67,0,0,1,2.1-1.22,2.22,2.22,0,0,0,1.32-.84,1.75,1.75,0,0,1,.82-.78c.71-.27,3.59,1,3.59,1.66A2.94,2.94,0,0,0,97,91.38c.34.58.3.75-.21,1.16s-.5.5-.2.67a.44.44,0,0,0,.64-.2c.24-.34.38-.34.82,0a1.59,1.59,0,0,1,.54.91c0,.28.31.48.68.48s.68.1.68.27c0,.51,3.38,2.91,4.16,3a2.81,2.81,0,0,1,1.66.91,2.67,2.67,0,0,0,1.43,1,.54.54,0,0,1,.54.54c0,.31.44.72,1,.92.74.27,1.11.74,1.52,1.93.34.95.41,1.56.17,1.63a.82.82,0,0,0-.34.71c0,.78-3.12,1.49-5.56,1.25-2-.17-2.57,0-2.57.82,0,.57,3.05,2.37,4,2.37a.89.89,0,0,1,.64.44,2,2,0,0,0,1.05.68,1.14,1.14,0,0,0,1.22-1.6,3.37,3.37,0,0,1,0-1.42c.17-.68.37-.81.92-.64.84.27,2.33-1,2.33-2a.93.93,0,0,1,.68-.81c1-.24.88-1.53-.17-2.14-.74-.47-.78-.61-.4-1.35s.64-.82,1.42-.75c.57.07,1.08.27,1.12.44a3,3,0,0,0,.67.85c.51.51.58.51.89-.17.44-1-.58-2-3.53-3.46-2-.94-2.27-1.22-2-1.72.17-.34.21-.61.07-.65s-.91,0-1.69-.1A3.38,3.38,0,0,1,106.56,94a4.33,4.33,0,0,1-1.18-1.83c0-.85-.61-1.53-2.1-2.41s-1.9-1.86-1.29-2.61c.24-.3.27-.5,0-.67-.68-.41-.34-1,.78-1.46,1.35-.47,2.34-.54,1.66-.14-.31.21-.34.55-.1,1.16.4,1.11,1,1.52,1.42.91.2-.37.3-.27.3.27a1.3,1.3,0,0,0,.34.95c.21.1.34-.1.34-.47a1.12,1.12,0,0,1,.41-.92c.27-.17.3-.07.17.34a1,1,0,0,0,.3,1.12c.38.41.41.61.14.78-.44.27,1.15,1.69,1.9,1.69a1.83,1.83,0,0,1,1,.68,2.46,2.46,0,0,0,1.45.71l.85,0-.85.27c-.81.27-.81.27.24.3.58,0,1.19.17,1.29.37a1.06,1.06,0,0,0,.81.34,7.5,7.5,0,0,1,2.31,1.26l1.76,1.28-.21,2.1c-.16,2-.13,2.11.75,2.68.54.34.75.68.51.81-.48.31-.07,1.36.51,1.36a1.62,1.62,0,0,1,1,.54c.54.51.54,1.12,0,2.31-.13.34-.13.71.07.84a2.13,2.13,0,0,1,.54.78c.24.68.92.82.92.21,0-.85,1.29.84,1.52,2s.31,1.15,1,1c.58-.17.82-.07.82.3s.17.51.34.51a.33.33,0,0,0,.33-.34.34.34,0,0,1,.34-.34c.21,0,.34.38.34.85s.17.85.34.85c.64,0,.51-1.73-.24-3.22-.37-.71-.37-.88-.06-.61a1.7,1.7,0,0,0,1.08.44c.47,0,.58-.17.41-.71s-.1-.68.57-.58.75,0,.68-.54-.07-.61.41-.24c.3.27.54.34.54.21s.24-.07.51.17a1.62,1.62,0,0,1,.51,1.08c0,.61,0,.61.54.14s.44-.61-.17-1.29c-.41-.41-.71-.61-.71-.48,0,.51-1.09-.61-1.39-1.39a1.12,1.12,0,0,0-1-.78c-.47,0-.81-.33-1.05-1s-.5-1-.67-1c-.38,0-1.39-2-1.26-2.44.07-.2.61,0,1.19.54,1,.88,1.66,1.16,1.29.55-.14-.21,0-.24.37-.11s.54.11.34-.44-.17-.57.17-.23c.81.81,1.12.44.34-.38s-.78-.81-.11-1.18c.51-.27.78-.27,1,0s.11.27-.13.14-.41-.07-.41.1c0,.64.92.41,1.12-.27s.27-.61,1.29-.24a13.87,13.87,0,0,1,1.93.81,2.13,2.13,0,0,0,2.84-.47,2,2,0,0,1,1.83-.68,2.12,2.12,0,0,0,1.56-.4c.41-.48.41-.48-.78-1s-2.5-3.11-2-3.62a1.71,1.71,0,0,0,.34-1.09.92.92,0,0,1,.65-.91c.54-.14.68-.51.78-1.8s.23-1.73,1.05-2.1a1.34,1.34,0,0,0,.91-1.29,3.57,3.57,0,0,1,1-1.93,4.47,4.47,0,0,0,1-1.52c0-.21.37-.41.84-.41s.85.2.85.51c0,.51,1.76,1,3.62,1,.61,0,1,.1.92.27a.67.67,0,0,1-.51.3c-.44,0-1.86,1.36-1.46,1.39a9.08,9.08,0,0,1,1.77.48c.61.2.74.47.67,1.15s0,.88.89,1c.64.07,1.08-.07,1.28-.4a1.38,1.38,0,0,1,1.12-.55,1.44,1.44,0,0,0,1-.34c.1-.2.74-.33,1.39-.33.81,0,1.15-.17,1.15-.51,0-.58.17-.48,1.73.91a2.08,2.08,0,0,0,1.08.61,2.62,2.62,0,0,1,1.12.51,2.34,2.34,0,0,0,1.12.51,2.07,2.07,0,0,1,1.08.54c.51.44.82.48,1.66.2a2.08,2.08,0,0,1,2.14.24,7.87,7.87,0,0,0,2.27.88,10.68,10.68,0,0,1,2.74,1.22,3.82,3.82,0,0,0,3.39.78l1.83-.2,2.2,1.93c3.73,3.22,12.71,7.32,12.1,5.49a.76.76,0,0,0-.68-.41c-.34,0-2-1.59-3.79-3.52-2.78-3-3.22-3.66-3.22-4.64a3.69,3.69,0,0,0-2.14-3c-.27-.1-.3-.23-.07-.44a2.87,2.87,0,0,0,.68-1.25c.34-1,2.07-2.24,2.81-2a.32.32,0,0,0,.41-.34c0-.68.85-1.39,3-2.51,1-.54,1.93-1,2-1.09s-.27-.47-.84-.91a1.92,1.92,0,0,1-.92-2,3,3,0,0,0-1.05-2.47,6.35,6.35,0,0,1-2.07-4.07c-.2-1.42-.2-1.42,1.06-1.76a13.46,13.46,0,0,1,3-.37,4.24,4.24,0,0,0,2.07-.38c.68-.67,4.84-.47,7,.31a6.58,6.58,0,0,0,3.62.54c1.12-.17,1.63-.1,1.63.17s.3.37.64.37a2.1,2.1,0,0,1,1.19.51c.61.64,1.42.64,1.66,0,.13-.33.57-.44,1.49-.3,2.4.3,3-1.66.68-2.44-1.73-.58-2.44-1.19-1.87-1.59s.21-.54-1.76-2c-.68-.47-.71-.61-.34-2.1s.34-1.69-.2-2.61c-.85-1.42-1.9-1.39-3.22.14s-2.54,1.59-3.69,0c-.48-.64-1.22-1.66-1.66-2.2-.78-1-.78-1-.21-1.66a2.46,2.46,0,0,1,1.6-.68c2.27,0,3.08-2.71,1.32-4.33a5.28,5.28,0,0,1-1.73-4.41,29,29,0,0,0-2.85-11.89c-1.32-2.95-1.79-4.34-1.56-4.61a7.18,7.18,0,0,1,2-1c3.46-1.28,7.11-3.89,7.18-5.08A6.39,6.39,0,0,0,201.88,22c-1.66-1.59-3.73-2.31-7.73-2.64-3.59-.34-3.76-.38-5.72-1.22-1.32-.55-1.87-.65-2.14-.38s-.2.58.34,1.09.88.64,1.05.54c.34-.2,3,1,3.66,1.66s.54.85-.41.85c-.61,0-.77.13-.64.51s.07.44-.34.3-.51-.3-.51-.41a2,2,0,0,0-1.08-1.86c-.71-.2-.92.31-.2.54.2.07-.21.27-.95.41a6.11,6.11,0,0,0-1.7.51,5.62,5.62,0,0,1-2,.23,4.81,4.81,0,0,0-2.1.44,1.86,1.86,0,0,1-1.26.28c-.95-.14-1.22-1.16-.37-1.39.34-.11,0-.17-.74-.21a4.63,4.63,0,0,0-2.11.48,4.12,4.12,0,0,1-1.83.57,7.34,7.34,0,0,0-2.5.85,5.59,5.59,0,0,1-2,.78c-1,0-2.06.78-2,1.52a1.11,1.11,0,0,1-.51.92,3.42,3.42,0,0,1-3.05-.24,1.46,1.46,0,0,0-.91-.51c-.95,0-.2-.81,1.08-1.15l1.29-.37-1.15-.88c-.92-.71-1.66-.92-3.63-1.05-2.5-.17-3.59.17-1.76.57.95.21,1,.34,1,1.66s.13,1.53.84,1.83c.89.41,1.05.92.55,1.73-.21.34-.44.38-1,.07a3.56,3.56,0,0,0-1.39-.37c-.4,0-.71-.24-.71-.54s-.34-.21-1.08.5a4,4,0,0,1-1.63,1.05,4,4,0,0,0-1.49.78l-1,.78.78.75c1.25,1.15.51,1.56-1.8,1a22.18,22.18,0,0,1-2.64-.88,1.31,1.31,0,0,0-1.49,0c-.81.44-.78,1.35,0,1.35.27,0,.48.14.48.34s.44.34,1,.34a1.32,1.32,0,0,1,1.19.51c.3.88-1.73.74-3.49-.21a6.44,6.44,0,0,0-1.8-.64c-.34,0-.61-.2-.61-.44a2,2,0,0,0-.68-1.08c-.51-.48-.57-.75-.3-1.26.4-.78-.27-1.46-1.8-1.79a1.69,1.69,0,0,1-1-.65c-.14-.3.47-.27,2.61.14,7.05,1.45,9,1.45,11.11,0,1.09-.78,1.19-1.52.34-2.57-.57-.71-3.08-1.93-3.39-1.66-.06.1-.64-.07-1.22-.37a5.8,5.8,0,0,0-1.22-.55,10,10,0,0,1-2.71-1,21.78,21.78,0,0,0-4.64-1c-2.07-.23-3.15-.5-3.15-.78,0-.47-2.34-.94-2.85-.57a4.46,4.46,0,0,1-1.89.07L133.33,19l1.12-.41c.64-.24,1.05-.54,1-.71-.27-.44-4.2-1.49-4.61-1.25-.2.1-.34,0-.34-.14s-.51-.37-1.15-.37a1.85,1.85,0,0,0-1.66.74c-.37.54-.54.61-.58.27s-.4-.71-.91-.95C125,15.69,124.79,15.69,124.52,16.16Zm1.53.64a.37.37,0,0,1-.38.34c-.17,0-.23-.17-.13-.34a.56.56,0,0,1,.37-.33C126,16.47,126.05,16.6,126.05,16.8Zm3.72-.2c0,.31-1,.48-1.18.2s.1-.33.47-.33S129.77,16.53,129.77,16.6Zm-15.58,3.25c0,.17-.24.24-.51.14s-.51-.27-.51-.34.24-.13.51-.13S114.19,19.65,114.19,19.85Zm-3.39.68c0,.17-.27.34-.58.34-.51,0-.54-.07-.1-.34C110.76,20.13,110.8,20.13,110.8,20.53Zm-3.59,2.24c.1.27.06.4-.14.3a.65.65,0,0,1-.34-.54C106.73,22.06,107,22.16,107.21,22.77Zm2.67-.31a1.71,1.71,0,0,1-.84,0c-.24-.1-.07-.17.4-.17S110.09,22.36,109.88,22.46ZM125,29.88c.71.14,1,.41,1,.82s-.17.57-.72.44-.67-.07-.57.27c.2.54-1.9,2.68-2.64,2.68-.28,0-.48.13-.48.27,0,.47-2,1.42-2.47,1.22a.64.64,0,0,0-.75.17.44.44,0,0,0,.31.57c.47.17.47.27,0,.68a.84.84,0,0,0-.17,1.15c.21.37.48,1,.61,1.26a7,7,0,0,1,.21,2.33c-.07,1.46,0,1.73.47,1.7.3,0,.54.13.51.34s.44.5,1.08.61,1.19.37,1.26.57,1,.1,2.6-.3a10,10,0,0,1,3-.51.65.65,0,0,0,.74-.17,6.14,6.14,0,0,1,2.58-.54c2-.14,2.5-.07,3.22.47.95.71.84,1-.44,1.09-.51,0-.92.27-.92.54,0,.44-1.69.4-5.08,0-1.59-.2-5.56,1.6-4.47,2,.57.23.5.81-.11.57a.83.83,0,0,1-.5-.67c0-.28-.21-.48-.41-.44-.64,0-1.86.57-1.36.61s.51.71-.13.71c-.44,0-.51.2-.31.91.27,1.12.55,1.42.75.85a1,1,0,0,1,.81-.41c.34,0,.65-.13.65-.3,0-.41,1.32-.71,1.55-.34a1,1,0,0,0,.75.3c1.15,0,.81,3.36-.31,3.39a8.18,8.18,0,0,1-1.45-1.15c-1.15-1-1.39-1.08-2.24-.78-1.32.51-2.17,2.54-1.93,4.64.2,1.73-.37,2.71-1.56,2.71a.56.56,0,0,0-.57.51c0,.31-.38.68-.82.92-.91.4-2.06.13-1.73-.41.61-1-4.2-.54-5.08.51a8.38,8.38,0,0,1-2.44.85c-2.2.44-3.15.2-3.15-.85s-1-.82-4.2.64a2.78,2.78,0,0,1-1.53.37c-.27-.3,1.33-1.55,1.66-1.35.14.1.34-.07.48-.34a.86.86,0,0,1,.71-.51c.31,0,.44-.17.34-.34a.44.44,0,0,0-.61-.1q-.4.26,0-.3c.24-.27.34-.61.2-.71s0-.24.17-.24.41-.27.44-.61.14-.27.27.27c.21.74.44.85,1.73.85s1.53-.14,1.66-.68c.17-1,1-1.49,2.51-1.53,1,0,1.25-.13,1.25-.61s.07-.5.34-.06c.17.27.37.4.44.33a7.39,7.39,0,0,0,1-3c-.13-.1-.3,0-.37.2-.27.78-.81.48-.61-.34a19.49,19.49,0,0,0,.47-3,1.43,1.43,0,0,1,.82-.47l.91-.31c.1,0,.51-.17,1-.34s.75-.47.75-.78a1.29,1.29,0,0,1,.51-.91c.4-.31.4-.51.06-1.19-.4-.84-.67-1-2.44-1.79a1.56,1.56,0,0,1-1-2.24,4.37,4.37,0,0,0,.24-1.46,1.83,1.83,0,0,1,1-1.52c.54-.34,1-.81,1-1,0-.34,2.37-1.53,3.08-1.53a5.91,5.91,0,0,0,1.6-1.22c.91-.88,1.11-1.25.77-1.45s-.3-.51.31-1.33c.44-.57.91-1,1.08-.88s.28,0,.28-.17C120.63,29.65,123.3,29.54,125,29.88ZM98.6,33.14c0,.47-1.63,2-2.13,2-.17,0-.14-.24.1-.51s.3-.5.17-.5.06-.31.5-.68C98.13,32.63,98.6,32.56,98.6,33.14ZM92.4,37a.66.66,0,0,1-.64,0c-.28-.1-.17-.2.2-.2S92.54,36.9,92.4,37Zm7.22,21.14c0,.14-.24.38-.55.48s-.4.07-.3-.14,0-.34-.14-.34a.34.34,0,0,1-.37-.3c0-.17.31-.24.68-.14S99.62,58,99.62,58.14Zm20.4.07c-.24.24-.41.27-.41.07,0-.48.41-.88.64-.65C120.32,57.74,120.22,58,120,58.21Zm-22.1.58c0-.17.21-.14.48.1.71.64-.31,1.15-1.36.64s-1.08-1.12,0-.71C97.62,59,97.92,59,97.92,58.79Zm-11.69,6.1a.73.73,0,0,1-.54.37c-.17,0-.14-.2.1-.48C86.27,64.24,86.61,64.34,86.23,64.89Zm75.39,16.26c-.64.34-1.28.58-1.42.47s-.27.07-.27.34.34.61.78.72c.64.2.68.27.2.54a2.08,2.08,0,0,0-.78,1.22c-.23.84-.3.88-2.23.71a5.4,5.4,0,0,0-2.31.17c-.2.2-.61,0-1-.58l-.71-.91.91-1a4.23,4.23,0,0,1,1.93-1.11,8.36,8.36,0,0,0,1.66-.38,12.83,12.83,0,0,1,3.59-.81C162.71,80.51,162.68,80.57,161.62,81.15ZM123.34,106c.17-.07.23.14.13.41s-.34.51-.51.51a3,3,0,0,0-.54.06c-.13.07-.27-.44-.34-1.08-.1-1.15-.1-1.15.44-.51C122.79,105.78,123.17,106.06,123.34,106Zm6.43-.78c.44.27.44.34-.06.34a1,1,0,0,1-.78-.34C128.66,104.8,129.1,104.8,129.77,105.24Zm-2.13,1.22a.69.69,0,0,1-.64,0c-.28-.11-.17-.21.2-.21S127.77,106.36,127.64,106.46Zm.68,1.22c-.1.27-.21.17-.21-.2s.07-.58.17-.44A.68.68,0,0,1,128.32,107.68Z"/><path class="cls-8" d="M32.05,27.85a2.6,2.6,0,0,1-1.22.58c-.37,0-.68.23-.68.47s-.13.44-.27.44a2.69,2.69,0,0,0-.95.51c-.57.51-.47.51,1.5.41,2.67-.17,2.94.61.3,1-1.59.24-2,.44-1.76.81a.78.78,0,0,0,.54.34c.2,0,.27-.13.17-.27-.24-.41,2.3,0,2.58.41.5.74.27,1.22-.58,1.22-.51,0-.85.2-.85.47s.41.44,1.63.37a6.16,6.16,0,0,1,2.68.41,9.84,9.84,0,0,0,5.69.2c1.9-.71,3.39-1.18,4.94-1.62,2.14-.61,4.38-2.07,4.38-2.85,0-.37-.41-.78-1-1.05s-.92-.54-.81-.71,0-.31-.27-.31-.17-.23.23-.54c.65-.51.61-.54-.57-.34-.72.14-1.33.07-1.46-.13-.34-.54-1.53-.41-1.53.17,0,.3-.3.51-.74.51H41.1c-1.63,0-2.17.13-2.44.61s-.34.54-.54,0c-.34-.81-1.19-.71-1.19.14,0,.47-.17.64-.51.54a.52.52,0,0,0-.67.1c-.38.58-.78.37-.61-.3.1-.44-.21-.82-1.09-1.36C32.59,27.17,32.7,27.17,32.05,27.85Z"/><path class="cls-8" d="M61.23,38.39c-.38.34-.27,1.18.06,1a.48.48,0,0,1,.58.2.53.53,0,0,1-.17.64c-.3.17-.24.38.17.72s.58.4.37-.11c-.1-.33-.07-.67.14-.77a.38.38,0,0,0,.13-.51.38.38,0,0,1,.17-.51.86.86,0,0,0,.34-.61c0-.27-.1-.27-.3.07s-.38.34-.51.06A.58.58,0,0,0,61.23,38.39Z"/><path class="cls-8" d="M68.48,46.72a1.38,1.38,0,0,0-.38.82c0,.51-1.42.91-2.54.71a1.1,1.1,0,0,0-1.35.64c-.88,1.32-1.87,2.17-2.24,2-.17-.14-.54,0-.85.17s-.4.54-.06.95.4.57.37.64-.1.2-.1.34.13.07.3-.2.38-.31.51-.11-.3.55-1,.75-1.19.54-1.19.71.27.17.68,0,.68-.27.68.13a.8.8,0,0,0,.61.65c.44.1.37.2-.34.5-.54.21-1,.55-1,.72a.67.67,0,0,0,1.15.4c.48-.37.88-.17.88.44,0,.21-.17.14-.34-.13-.27-.44-.33-.41-.33.1s.16.58,1,.41,1-.14.82.3-.34.54-.51.54-.17.34.06.71.48.61.61.45c.34-.48,2.75-.48,2.55,0A1.4,1.4,0,0,0,67,60.35,1.56,1.56,0,0,1,67,62.62a3.3,3.3,0,0,1-1.62.06c-.78-.06-1.29,0-1.29.21s.17.27.34.17c.61-.38.37.13-.41.84l-.78.75.85-.14c1.49-.2,1.25.92-.34,1.56-1.9.75-1.76,1.66.3,1.76,1.63.07,2.85.82,1.36.82-.81,0-2.34,1.08-2.34,1.66,0,.13-.54.54-1.18.88s-1.09.71-1,.81a1.84,1.84,0,0,0,2.07-.2,2.53,2.53,0,0,1,1.73-.34A1.41,1.41,0,0,0,66.17,71c.44-.54.92-.61,2.92-.51,1.32.07,2.4,0,2.4-.17s.65-.24,1.46-.2c1.49.1,4.3-.88,4.3-1.46,0-.2-.23-.37-.5-.37-.65,0-.68-.88,0-1.12A2.25,2.25,0,0,0,78,64.62,2.4,2.4,0,0,0,75,64c-.51.37-.54.37-.14-.1s.34-.75,0-1.53a7.18,7.18,0,0,1-.4-1.32c0-.44-1-1.35-1.87-1.86a2.15,2.15,0,0,1-.91-1.29c-.34-1.29-1.22-2.4-1.9-2.44s-.78-1.08.07-1.69a1.64,1.64,0,0,0,.68-.88,1.59,1.59,0,0,1,.54-1c.81-.85.24-1.22-1.9-1.22a4.75,4.75,0,0,1-2.2-.34c-.1-.2,0-.34.17-.34a2.94,2.94,0,0,0,1.25-.68c.48-.37.75-.67.61-.67s0-.34.41-.78a8,8,0,0,0,.88-1.12C70.54,46.25,69,46.25,68.48,46.72ZM62,51.37a.37.37,0,0,1-.38.34c-.17,0-.23-.17-.13-.34s.27-.34.37-.34S62,51.16,62,51.37Z"/><path class="cls-8" d="M57.36,57.4c-.81.27-2.4,2.1-1.79,2.1.2,0,.27.17.17.34s-.88.27-1.73.2c-1.19-.13-1.56,0-1.83.48s-.2.67.1.77.31.24,0,.61c-.64.65-.54.89.41,1.12,1.18.31,1.05.88-.51,2-1.25.94-1.83,2.23-1,2.23.17,0,.23.17.1.41s-.07.3.3.17.58-.07.58.13c0,.58,2.61,0,4.34-.91a7.07,7.07,0,0,1,2.61-.81c.94,0,1.11-.14,1.45-1.33A9.82,9.82,0,0,0,61,62.31c0-1.12.13-1.42.85-1.73,1-.44,1.08-1.28.23-2.3C61.4,57.5,58.72,57,57.36,57.4Z"/><path class="cls-8" d="M94.74,92.43a1.66,1.66,0,0,1-1,.75,1.25,1.25,0,0,0-.92.81,3.63,3.63,0,0,0,1,3c.54.37.51.47-.34,1s-1,.54-1.18.2-.34-.24-.44.2A1.72,1.72,0,0,0,92,99.65a1.73,1.73,0,0,1,.3,1.32c-.51,2.68-.51,2.88.24,3.29s.81.27,1.15-.2a.93.93,0,0,1,1-.41c.64.27.85-.37,1-3.25.1-1.93,0-2.41-.51-2.78s-.58-.61-.24-1.76C95.31,94.43,95.21,91.45,94.74,92.43Z"/><path class="cls-8" d="M129.33,113.61a1.23,1.23,0,0,0-.23.78c0,.44.4.64,1.42.81a3.36,3.36,0,0,1,1.63.58c.13.2.91.2,2,.07,1.73-.27,2.37-.71,1.39-1-.31-.1-.37,0-.21.3s.07.31-.37-.07a4.76,4.76,0,0,0-2.34-.61c-.91-.06-1.76-.23-1.79-.4s-.27-.21-.48-.1a.41.41,0,0,1-.57-.17C129.67,113.54,129.47,113.48,129.33,113.61Z"/></g><path class="cls-4" d="M392.79,95.84a7.25,7.25,0,0,1-.76.58c.14.27.14.67.41.72a.3.3,0,1,1-.05.59h0c-.45-.09-.45.63-.05,1.21s-.72,1.31-.4,1.62,0,.67.18.9,1.75-.09,2.46-.86.9-.67,1.26-.53a.44.44,0,0,0,.54-.59,3.77,3.77,0,0,1-.36-1.93c0-.53-.67-1.48-1.35-2.24a1,1,0,0,1-.67.27,1.79,1.79,0,0,0-1.17.27Z"/></g><path class="cls-9" d="M100.05,120.62v.12L100,121v.2l0,.18,0,.29,0,.3v.15l0,.11.15.15.06.1v.12l0,.09,0,0,0,0-.16.11-.62.29-.72.35-.06.07-.1.22-.08.07-.08.06-.08.06,0,0,0,0,0,0h0l-.06,0,0,.23,0,.09-.09.09,0,.09,0,0,0,0,0,0-.12.05h-.27l-.12.1-.15.28-.15.16,0,.07,0,.18v0L97,126l.07.29.08.16v.25l.06.19V127l0,.11-.14.3-.22.25-.24.4-.3.38-.06,0H96l-.06,0-.53.28-.06-.3-.07-.3-.07-.3-.06-.3-.07-.3-.07-.3-.06-.3-.07-.3-.07-.3-.06-.3-.07-.3-.06-.3-.07-.31-.07-.3-.06-.3-.07-.3v0l0-.2,0,0,0,0-.39-.29-.49-.35-.38-.28-.28-.18-.07-.07h0l0-.1,0-.28,0-.39,0-.09-.24-.37-.22-.35,0,0h-.15l0,0-.26-.19-.08,0h-.11l-.09,0-.06-.07,0-.13V120h0l0-.11-.18-.31-.15-.26,0-.08,0-.14-.06-.13,0-.05,0-.16v-.11l.05-.28v-.21l0-.07,0-.06.09-.1.06-.07.06-.07.09,0,.15,0,0,0,0,0,0,0,.08-.34,0-.1.09-.07.2-.08.1-.07.22-.11h0l.1-.09.06,0v0l0,0,0,0,.08,0,0,0-.06-.1v0l0,0,.08-.08h0l0,0v0l0-.29v-.11l0-.11.06-.15,0-.21,0-.1.11-.12.14-.22,0-.06-.08-.06-.09,0-.09,0-.06-.11v-.22l0-.1.08-.2v-.09l0-.24v-.09l0-.09-.11-.19,0-.1v-.35l0-.18v-.2l.05-.21,0,0,0,0v-.06l0-.05v-.18l.11-.31h0v-.22l0,0,0,0,0,0,0,0-.21,0-.09,0h0v-.1l.06-.06.06-.05.16,0,.28-.18,0-.06.06-.1,0-.1-.05-.06-.08,0v-.05l.07,0h.18l.08,0,.16-.06,0,0v0l-.08-.12v-.15h0l.16-.07h.26l0,0,.1-.08.07,0h0l.05-.05.07-.09.08-.14,0,0h0l.07-.07h0l.07,0,.19-.08,0,0,0-.08,0,0H95l.09,0,0-.06,0,0h.1l.07,0,.06,0,0,0,0,0,0,0h0l.09-.06,0,0h.15l.05,0h0l0,0,0,0h.23v.16l-.07.06L96,109l-.05.07v0l0,.08v0h0l0,0h0l.11,0h0l.06,0,0,0,0,0v0L96.2,109h0l-.05,0h0v0l.06,0h0l0,0h0l.23.06h0l.13-.06h0l0,.06.17,0,.07.07.18.07,0,0-.07,0,0,0,0,0v0h-.07l-.07,0,0,0v0l.06,0H97l0,0,0,0,0,0v.07l0,0-.1.1,0,.15.09.15.11.11.09,0,0,0,0,.07,0,0v0l-.06.06,0,.06,0,0h0l0,0,0,0h-.06l-.08,0,0,0,0,.06v0h.16l0-.06,0,.11.06.08.09,0,.11,0h.08l.12-.06.07,0,.05-.05v-.08l0-.06,0-.12,0,0h.16l.1,0,.09,0,.12-.08.07-.08h0v0l.13-.11,0,0v-.08l0,0,0,0h.12l.09-.07h0l0,0,0,0v0l0,0v.07l0,0v0l0,.06v.2l0,0h0l0,0v0l0,0-.09,0-.13.11-.07.13-.1.14-.17.31-.12.32-.06.08-.2,0-.22.13-.08,0-.08.07-.08.11,0,.11,0,.12,0,.12v.4l0,.1,0,0v.14l.05.08,0,0,0,0,0,0L98,113l0,0,.16.16h0l0,0,.08,0,.14-.05h0l0,0,0,0v.12l0,0,.1,0,.21.09h.09l.07,0,0,.07-.08,0,0,.06v.07l0,.06,0,0,.11,0-.07.06,0,.08v.19l0,.06v.11l.06.09.08.1.05,0,.06,0h0v.06h-.07l0,0,0,.09L99,115l0,.07,0,.07,0,0,0,.08v.09l-.08.1-.09,0-.07.08,0,.06,0,.06v.12l-.1.07,0,0h0v0l0,.05v0l-.09,0-.06,0-.07.09,0,.07,0,0,0,0,0,.05,0,0-.16.05h0v.08l0,0v.14l0,0-.06,0-.21,0-.08,0-.13.21-.11,0h-.1v0h0l-.05.07,0,0h0l-.11,0,0,0-.1,0-.06.06,0,.09-.09.17-.05.08h0l0,0h0l0,0v.23l0,.11v0l0,.09,0,.11.22.31,0,0,0,0,.34.33.09,0,.18.09h0l.07,0,.16,0,.18,0,.15-.08h0l.06.1v.19l-.07.06,0,0,0,0v0l0,0,0,.09,0,0h0l.1,0,.18-.11.08,0,0,0,0,0,0-.06,0,0,0,0v0l.07,0,0,0h.06v0h0l0,0,.1,0,0,0,0,0,.08.12v.17l-.06.1,0,.17,0,.08.06,0,0,0,0,.06,0,0,.06,0,.12.06,0,0h0l-.23-.08h-.11l0,.09,0,0,0,0,0,0v.06l0,0h0l.1,0,.1,0,.2.08h.1l0,0v0l0,0h0l0,0,0,0,0,0,.21.15.13.06h0Zm-1.2-1.86,0,0,0,0,0,0,0,0-.16.14,0,0h0v0l0,.1h0v-.1h0l0,.09,0,.06,0,0,0,0,0,0v-.05l0,0,0-.06,0,0,0,0,0,0,0,0,0,0h0l0,0,0-.05v-.15l0-.08,0-.11v-.09l.08,0,.2,0h.1l.07,0,.07.08Zm-.07-2.31h0l0,0h.26l0,0,0,0-.09.07h0l0,0-.08,0Zm.71-.33h0v0l.06.06,0,0-.23.09-.11.08h0l0,0,0,0,0,0,0-.06v-.09h0v0l0,0h.06v-.13l0,0,0,0,0,0,0,0h.07v0l-.06,0v0l0,0Z"/><path class="cls-10" d="M377.61,108.56a.1.1,0,0,0,0,.14c.78.54,1.09,1.27.47,1.27s-.37.57.61,1.62c1.42,1.56,1.73,2,1.52,2.24a2.51,2.51,0,0,0,0,2.3,1.38,1.38,0,0,1,.37,1c0,.71.14.78,1.53.68.84,0,1.59-.24,1.62-.41s.41-.34.78-.34.64-.13.64-.34.21-.23.48-.13c.68.27,1.9-1,1.9-2,0-1.36-2-4.88-3.63-6.41-.85-.81-1.86-1.79-2.27-2.23a6,6,0,0,0-1.19-1.43,3.8,3.8,0,0,1-.23,1.89C379.78,107.25,378.83,107,377.61,108.56Z"/><g id="b2"><path id="b" d="M382,111.55l-.68,1,.17.11.68-1Zm-.26-.17-.68,1,.17.12.69-1Zm-.25-.18-.69,1,.17.12.69-1Z"/><path id="b-2" data-name="b" d="M385.77,114.06l-.31.47.17.12.31-.48Zm-.37.56-.31.47.17.11.31-.47Zm.12-.73-.32.47.17.11.32-.47Zm-.38.56-.31.47.17.11.32-.47Zm.12-.73-.32.47.18.11.31-.47Zm-.37.55-.32.48.17.11.32-.47Z"/></g><path class="cls-11" d="M384.41,113.88h0a1.23,1.23,0,0,1-2.06-1.36.62.62,0,0,0,.18.85.62.62,0,0,0,.85-.18.62.62,0,0,1,1,.68Z"/><path class="cls-12" d="M384.41,113.88a.62.62,0,0,0-1-.68.62.62,0,0,1-.85.18.62.62,0,0,1-.18-.85h0a1.24,1.24,0,0,1,2.07,1.36Z"/><g id="b2-2" data-name="b2"><path id="b-3" data-name="b" d="M381.49,113.72l-.17.11.68,1,.17-.11Zm.11.73-.17.11.31.47.18-.11Zm-.37-.56-.17.11.31.47.17-.11Zm-.26.17-.17.11.69,1,.17-.11Z"/><path id="b-4" data-name="b" d="M385.63,111.76l-.17.12.31.47.17-.12Zm-.37-.56-.17.12.31.47.17-.11Zm-.26.18-.17.11.69,1,.17-.12Zm.12.72-.18.12.32.47.17-.11Zm-.38-.55-.17.11.32.47.17-.11Z"/></g><path class="cls-13" d="M95.94,115.76a.9.9,0,0,0,.62-.24,1.14,1.14,0,1,1-.92-1.81,1.12,1.12,0,0,1,.92.47.91.91,0,0,0-1.53.67A.91.91,0,0,0,95.94,115.76Z"/><polygon class="cls-13" points="96.2 114.85 96.5 115.25 96.02 115.1 95.73 115.5 95.73 115 95.26 114.85 95.73 114.69 95.73 114.2 96.02 114.6 96.5 114.45 96.2 114.85"/><path class="cls-14" d="M95.94,115.76a.9.9,0,0,0,.62-.24,1.14,1.14,0,1,1-.92-1.81,1.12,1.12,0,0,1,.92.47.91.91,0,0,0-1.53.67A.91.91,0,0,0,95.94,115.76Z"/><polygon class="cls-14" points="96.2 114.85 96.5 115.25 96.02 115.1 95.73 115.5 95.73 115 95.26 114.85 95.73 114.69 95.73 114.2 96.02 114.6 96.5 114.45 96.2 114.85"/><path class="cls-14" d="M95.64,113a1.8,1.8,0,1,0,1.8,1.8A1.81,1.81,0,0,0,95.64,113Zm0,3.35a1.52,1.52,0,0,1-1.52-1.52v0h0a1.52,1.52,0,0,1,3,0h0v0A1.52,1.52,0,0,1,95.64,116.37Z"/><path class="cls-14" d="M95.94,115.76a.9.9,0,0,0,.62-.24,1.14,1.14,0,1,1-.92-1.81,1.12,1.12,0,0,1,.92.47.91.91,0,0,0-1.53.67A.91.91,0,0,0,95.94,115.76Z"/><polygon class="cls-14" points="96.2 114.85 96.5 115.25 96.02 115.1 95.73 115.5 95.73 115 95.26 114.85 95.73 114.69 95.73 114.2 96.02 114.6 96.5 114.45 96.2 114.85"/><path class="cls-13" d="M96.5,114.45l-.48.15-.29-.4v.49l-.47.16.47.15v.5l.29-.4.48.15-.3-.4Zm-1.47.4a.91.91,0,0,1,1.53-.67,1.12,1.12,0,0,0-.92-.47,1.14,1.14,0,1,0,.92,1.81.9.9,0,0,1-.62.24A.91.91,0,0,1,95,114.85Zm1.47-.4-.48.15-.29-.4v.49l-.47.16.47.15v.5l.29-.4.48.15-.3-.4Zm-1.47.4a.91.91,0,0,1,1.53-.67,1.12,1.12,0,0,0-.92-.47,1.14,1.14,0,1,0,.92,1.81.9.9,0,0,1-.62.24A.91.91,0,0,1,95,114.85Z"/><path class="cls-13" d="M97.16,114.82a1.52,1.52,0,0,0-3,0h0v0a1.52,1.52,0,0,0,3,0v0Zm-1.52-1.11a1.12,1.12,0,0,1,.92.47.91.91,0,0,0-1.53.67.91.91,0,0,0,.91.91.9.9,0,0,0,.62-.24,1.14,1.14,0,1,1-.92-1.81Zm.86,1.54L96,115.1l-.29.4V115l-.47-.15.47-.16v-.49l.29.4.48-.15-.3.4Z"/><path class="cls-13" d="M95.94,115.76a.9.9,0,0,0,.62-.24,1.14,1.14,0,1,1-.92-1.81,1.12,1.12,0,0,1,.92.47.91.91,0,0,0-1.53.67A.91.91,0,0,0,95.94,115.76Z"/><polygon class="cls-13" points="96.2 114.85 96.5 115.25 96.02 115.1 95.73 115.5 95.73 115 95.26 114.85 95.73 114.69 95.73 114.2 96.02 114.6 96.5 114.45 96.2 114.85"/><path class="cls-14" d="M95.94,115.76a.9.9,0,0,0,.62-.24,1.14,1.14,0,1,1-.92-1.81,1.12,1.12,0,0,1,.92.47.91.91,0,0,0-1.53.67A.91.91,0,0,0,95.94,115.76Z"/><polygon class="cls-14" points="96.2 114.85 96.5 115.25 96.02 115.1 95.73 115.5 95.73 115 95.26 114.85 95.73 114.69 95.73 114.2 96.02 114.6 96.5 114.45 96.2 114.85"/><polygon class="cls-13" points="96.2 114.85 96.5 115.25 96.02 115.1 95.73 115.5 95.73 115 95.26 114.85 95.73 114.69 95.73 114.2 96.02 114.6 96.5 114.45 96.2 114.85"/><polygon class="cls-14" points="96.2 114.85 96.5 115.25 96.02 115.1 95.73 115.5 95.73 115 95.26 114.85 95.73 114.69 95.73 114.2 96.02 114.6 96.5 114.45 96.2 114.85"/><path class="cls-15" d="M199.61,137.68a1.6,1.6,0,0,0-1.52,1.66,1.55,1.55,0,0,0,.19.69c.15.28.62,1,1.1,1.74l.24.37a.18.18,0,0,0,.17.09.19.19,0,0,0,.17-.1l.21-.39c.42-.78.82-1.52,1-1.82h0a1.68,1.68,0,0,0,.13-.7,1.58,1.58,0,0,0-1.64-1.54Zm.09,2.31a.77.77,0,0,1-.81-.74.78.78,0,0,1,.75-.81.77.77,0,0,1,.81.74h0a.77.77,0,0,1-.75.8Z"/><path class="cls-15" d="M141.67,93.57a1.6,1.6,0,0,0-1.52,1.65,1.52,1.52,0,0,0,.19.69c.15.29.61,1,1.09,1.75l.24.37a.21.21,0,0,0,.18.09A.2.2,0,0,0,142,98l.2-.38c.43-.78.83-1.52,1-1.82h0a1.54,1.54,0,0,0,.14-.7,1.59,1.59,0,0,0-1.64-1.54Zm.09,2.31a.78.78,0,1,1,.75-.81h0a.79.79,0,0,1-.75.81Z"/><path class="cls-15" d="M210.46,140.29a1.6,1.6,0,0,0-1.79,1.36,1.56,1.56,0,0,0,.07.71c.1.31.43,1.09.78,1.91l.17.41a.22.22,0,0,0,.15.12.19.19,0,0,0,.19-.08l.27-.34c.55-.69,1.08-1.35,1.26-1.62h0a1.77,1.77,0,0,0,.26-.67,1.59,1.59,0,0,0-1.35-1.8Zm-.31,2.29a.78.78,0,1,1,.87-.67h0a.78.78,0,0,1-.87.67Z"/><path class="cls-16" d="M203.54,152.7v-3.79h1a2.48,2.48,0,0,1,1,.17,1.75,1.75,0,0,1,.65.46,1.78,1.78,0,0,1,.35.65,2.33,2.33,0,0,1,.12.69,2.07,2.07,0,0,1-.15.77,1.85,1.85,0,0,1-.41.58,1.88,1.88,0,0,1-.6.37,2,2,0,0,1-.72.13Zm.51-.48h.61a1.9,1.9,0,0,0,.58-.09,1.53,1.53,0,0,0,.46-.28,1.25,1.25,0,0,0,.31-.44,1.73,1.73,0,0,0,.11-.6,1.66,1.66,0,0,0-.12-.61,1.35,1.35,0,0,0-.31-.44,1.43,1.43,0,0,0-.46-.27,1.5,1.5,0,0,0-.52-.09h-.66Z"/><path class="cls-16" d="M208.06,152.79a.65.65,0,0,1-.49-.19.66.66,0,0,1-.21-.46v-1.61h.5V152a.48.48,0,0,0,.1.29.37.37,0,0,0,.3.12.54.54,0,0,0,.32-.11.66.66,0,0,0,.23-.29,1,1,0,0,0,.09-.42v-1h.51v2.17H209l0-.53v.1a.83.83,0,0,1-.19.26,1,1,0,0,1-.3.19A1,1,0,0,1,208.06,152.79Z"/><path class="cls-16" d="M211.56,152.76a1,1,0,0,1-.53-.14,1.14,1.14,0,0,1-.37-.32l.06-.15v.55h-.49v-4.06h.49v2.2a.93.93,0,0,1,.37-.28,1.3,1.3,0,0,1,.55-.12,1,1,0,0,1,.53.15,1,1,0,0,1,.38.39,1.24,1.24,0,0,1,.15.6,1.27,1.27,0,0,1-.16.66,1,1,0,0,1-.41.4A1.13,1.13,0,0,1,211.56,152.76Zm-.1-.42a.75.75,0,0,0,.38-.1.68.68,0,0,0,.26-.27.86.86,0,0,0,.09-.39.76.76,0,0,0-.36-.65.78.78,0,0,0-.37-.09.88.88,0,0,0-.33.06.68.68,0,0,0-.26.18.76.76,0,0,0-.15.28v.44a.76.76,0,0,0,.15.28.63.63,0,0,0,.24.19A.84.84,0,0,0,211.46,152.34Z"/><path class="cls-16" d="M214.25,152.76a1.22,1.22,0,0,1-.56-.14,1,1,0,0,1-.39-.38,1.12,1.12,0,0,1-.15-.62,1.2,1.2,0,0,1,.15-.65,1,1,0,0,1,.41-.41,1.13,1.13,0,0,1,.57-.15,1,1,0,0,1,.51.15.92.92,0,0,1,.32.33l0,.08,0-.46h.45v2.17h-.48v-.57l0,.13a.41.41,0,0,1-.1.13,1.45,1.45,0,0,1-.18.17l-.27.14A1.3,1.3,0,0,1,214.25,152.76Zm.13-.4a.76.76,0,0,0,.33-.08.63.63,0,0,0,.24-.19.71.71,0,0,0,.14-.29v-.43a.76.76,0,0,0-.4-.46.84.84,0,0,0-.66,0,.75.75,0,0,0-.26.27.76.76,0,0,0-.1.39.79.79,0,0,0,.11.39.65.65,0,0,0,.26.26.61.61,0,0,0,.34.17Z"/><path class="cls-16" d="M216.38,149.77a.22.22,0,0,1,.09-.19.32.32,0,0,1,.21-.08.27.27,0,0,1,.19.08.2.2,0,0,1,.09.19.21.21,0,0,1-.09.19.27.27,0,0,1-.19.08.32.32,0,0,1-.21-.08A.25.25,0,0,1,216.38,149.77Zm0,.78h.49v2.17h-.49Z"/><path class="cls-16" d="M187.07,145.17v-3.79h1a2.4,2.4,0,0,1,1,.17,1.79,1.79,0,0,1,.66.46,1.74,1.74,0,0,1,.35.62,2.37,2.37,0,0,1,.11.69,1.9,1.9,0,0,1-.15.78,1.64,1.64,0,0,1-.4.57,1.84,1.84,0,0,1-.61.38,1.93,1.93,0,0,1-.71.12Zm.5-.48h.62a1.84,1.84,0,0,0,.57-.09,1.72,1.72,0,0,0,.47-.28,1.23,1.23,0,0,0,.3-.44,1.52,1.52,0,0,0,.11-.6,1.46,1.46,0,0,0-.11-.61,1.5,1.5,0,0,0-.32-.44,1.46,1.46,0,0,0-.45-.27,1.58,1.58,0,0,0-.52-.09h-.66Z"/><path class="cls-16" d="M190.71,144.07a1.11,1.11,0,0,1,.16-.59.93.93,0,0,1,.42-.41,1.26,1.26,0,0,1,.66-.15,1.09,1.09,0,0,1,.61.15,1,1,0,0,1,.42.41,1.1,1.1,0,0,1,.15.59,1,1,0,0,1-.15.58,1.06,1.06,0,0,1-.42.42,1.12,1.12,0,0,1-.62.15,1.2,1.2,0,0,1-.62-.14,1,1,0,0,1-.43-.4A1.18,1.18,0,0,1,190.71,144.07Zm.49,0a.72.72,0,0,0,.1.38.67.67,0,0,0,.25.28.61.61,0,0,0,.35.09.68.68,0,0,0,.37-.09.82.82,0,0,0,.25-1,.81.81,0,0,0-.25-.27.61.61,0,0,0-.37-.1.62.62,0,0,0-.35.1.76.76,0,0,0-.35.65Z"/><path class="cls-16" d="M193.76,145.17v-4.06h.48v2.31a.88.88,0,0,1,.33-.36.93.93,0,0,1,.54-.14.73.73,0,0,1,.51.18.63.63,0,0,1,.2.47v1.6h-.5v-1.43a.42.42,0,0,0-.09-.29.39.39,0,0,0-.31-.11.6.6,0,0,0-.34.11.76.76,0,0,0-.24.29.85.85,0,0,0-.08.42v1Z"/><path class="cls-16" d="M197.56,145.22a1.1,1.1,0,0,1-.56-.13,1,1,0,0,1-.39-.38,1.12,1.12,0,0,1-.15-.62,1.18,1.18,0,0,1,.16-.66,1,1,0,0,1,.4-.4,1.26,1.26,0,0,1,.57-.14.86.86,0,0,1,.51.14.92.92,0,0,1,.32.33l0,.07,0-.45h.44v2.17h-.48v-.57l.05.13a.41.41,0,0,1-.1.13l-.18.17-.27.14A1,1,0,0,1,197.56,145.22Zm.13-.4a.64.64,0,0,0,.33-.07.5.5,0,0,0,.24-.19.78.78,0,0,0,.14-.29v-.43a.76.76,0,0,0-.4-.46.87.87,0,0,0-.32-.06.73.73,0,0,0-.63.36.75.75,0,0,0-.09.39.72.72,0,0,0,.1.38.7.7,0,0,0,.26.28.73.73,0,0,0,.38.09Z"/><path class="cls-16" d="M138.51,101.18H139v3.93h-.52Z"/><path class="cls-16" d="M140.67,105.16a1.22,1.22,0,0,1-.46-.09.9.9,0,0,1-.38-.25l.22-.29a1,1,0,0,0,.29.2,1,1,0,0,0,.29.07.67.67,0,0,0,.2,0,.31.31,0,0,0,.15-.1.25.25,0,0,0,.06-.17.27.27,0,0,0-.08-.19.59.59,0,0,0-.19-.11l-.27-.08a1,1,0,0,1-.42-.26.56.56,0,0,1-.15-.39.67.67,0,0,1,.09-.34.59.59,0,0,1,.27-.25.93.93,0,0,1,.44-.11,1.52,1.52,0,0,1,.42.06.9.9,0,0,1,.34.2l-.2.31a.63.63,0,0,0-.23-.16.67.67,0,0,0-.24,0,.28.28,0,0,0-.18,0,.22.22,0,0,0-.19.23.21.21,0,0,0,.07.18.56.56,0,0,0,.2.11l.24.09a1,1,0,0,1,.3.13.8.8,0,0,1,.21.2.61.61,0,0,1,.08.3.69.69,0,0,1-.1.37.78.78,0,0,1-.29.28A1.16,1.16,0,0,1,140.67,105.16Z"/><path class="cls-16" d="M142.47,101.87H143v1h.61v.4H143v1.84h-.52v-1.84h-.4v-.4h.4Z"/><path class="cls-16" d="M145.15,105.17a1.3,1.3,0,0,1-.58-.14,1.05,1.05,0,0,1-.41-.4,1.42,1.42,0,0,1,0-1.3,1.13,1.13,0,0,1,.42-.42,1.32,1.32,0,0,1,.59-.15,1,1,0,0,1,.53.15,1,1,0,0,1,.33.34l0,.08.05-.47h.47v2.25H146v-.58l.06.13a.45.45,0,0,1-.11.13.81.81,0,0,1-.19.18,1.38,1.38,0,0,1-.27.14A1.07,1.07,0,0,1,145.15,105.17Zm.13-.42a.77.77,0,0,0,.34-.07.86.86,0,0,0,.26-.2.87.87,0,0,0,.14-.31v-.44a.69.69,0,0,0-.16-.29.83.83,0,0,0-.26-.19.69.69,0,0,0-.95.28.79.79,0,0,0-.1.4.74.74,0,0,0,.11.41.7.7,0,0,0,.27.27.67.67,0,0,0,.35.14Z"/><path class="cls-16" d="M147.86,102.85l0,.55v-.09a.94.94,0,0,1,.34-.4,1.17,1.17,0,0,1,.58-.15.76.76,0,0,1,.52.19.69.69,0,0,1,.21.49v1.66H149v-1.49a.44.44,0,0,0-.1-.3.4.4,0,0,0-.31-.11.66.66,0,0,0-.36.11.73.73,0,0,0-.25.3,1.12,1.12,0,0,0-.09.44v1h-.51v-2.25Z"/><path class="cls-16" d="M151.79,105.17a1.19,1.19,0,0,1-.56-.14,1,1,0,0,1-.37-.34l.06-.16v.58h-.52V100.9h.51v2.28a1,1,0,0,1,.39-.3,1.38,1.38,0,0,1,.56-.12,1.25,1.25,0,0,1,.55.15,1.15,1.15,0,0,1,.41.41,1.36,1.36,0,0,1,.15.63,1.25,1.25,0,0,1-.17.68,1.09,1.09,0,0,1-.43.42A1.17,1.17,0,0,1,151.79,105.17Zm-.11-.43a.77.77,0,0,0,.39-.11.61.61,0,0,0,.27-.28.81.81,0,0,0,0-.8.9.9,0,0,0-.27-.28.87.87,0,0,0-.39-.1,1,1,0,0,0-.35.07.83.83,0,0,0-.26.19.73.73,0,0,0-.15.29v.49a.78.78,0,0,0,.14.29.79.79,0,0,0,.27.2,1,1,0,0,0,.35,0Z"/><path class="cls-16" d="M154.35,105.2a.69.69,0,0,1-.51-.19.68.68,0,0,1-.21-.48v-1.68h.51v1.49a.46.46,0,0,0,.11.29.4.4,0,0,0,.31.13.57.57,0,0,0,.33-.11.84.84,0,0,0,.25-.31,1,1,0,0,0,.08-.44v-1.05h.51v2.25h-.46l-.05-.55v.11a.86.86,0,0,1-.2.27,1,1,0,0,1-.31.19A1.17,1.17,0,0,1,154.35,105.2Z"/><path class="cls-16" d="M156.6,100.9h.51v4.21h-.51Z"/><g class="cls-17"><path class="cls-18" d="M377.22,114.86s-.27.23-.78.62"/><path class="cls-19" d="M374.82,116.67c-9.53,6.66-46.8,28-99.88-.79a78.25,78.25,0,0,0-13.88-6c-55.82-17.47-76.43,42-111.35,1.76"/><path class="cls-20" d="M149.05,110.86l-.64-.77"/><polygon class="cls-21" points="147.41 108.85 149.55 109.97 148.51 110.16 148.16 111.15 147.41 108.85"/></g><g class="cls-17"><path class="cls-22" d="M377.59,117.2s-.26.22-.78.62"/><path class="cls-23" d="M375.2,119a87.43,87.43,0,0,1-69,13.23c-34.67-7.86-68-38.13-102.78.95"/><path class="cls-24" d="M202.73,134l-.65.76"/><polygon class="cls-25" points="201.06 135.93 201.84 133.64 202.18 134.64 203.22 134.84 201.06 135.93"/></g><g class="cls-17"><path class="cls-26" d="M378,119.76s-.25.24-.74.67"/><path class="cls-27" d="M375.75,121.7c-6.91,5.45-29.13,20.25-62.32,15.85-40.44-5.36-56.63-26.25-84.89-13.31a41.92,41.92,0,0,0-14,10.2"/><path class="cls-28" d="M213.84,135.21c-.23.26-.44.52-.63.77"/><polygon class="cls-29" points="212.26 137.25 212.94 134.93 213.32 135.92 214.37 136.07 212.26 137.25"/></g><g class="cls-17"><path class="cls-30" d="M194.21,146.76c-.19.24-.4.5-.64.76"/><path class="cls-31" d="M192.11,148.9c-7.71,6.5-28.19,14.07-43.68-5.13-15.34-19-33.22-24.18-42.28-25.05"/><path class="cls-32" d="M105.15,118.64l-1,0"/><polygon class="cls-33" points="102.57 118.59 104.84 117.75 104.28 118.64 104.78 119.58 102.57 118.59"/></g><g class="cls-17"><path class="cls-34" d="M196.25,152.08c-.19.25-.41.5-.65.76"/><path class="cls-35" d="M194.15,154.19c-6.43,5.3-21.79,11-36.74,3.06A35,35,0,0,1,146.62,148c-13.42-16.82-30.57-23.81-40.8-25.17"/><path class="cls-36" d="M104.83,122.75l-1-.08"/><polygon class="cls-37" points="102.25 122.61 104.52 121.79 103.96 122.68 104.45 123.62 102.25 122.61"/></g><g class="cls-17"><path class="cls-38" d="M137,106.57s-.25.24-.75.65"/><path class="cls-39" d="M134.62,108.37c-4.08,2.76-13.59,7.62-29.08,6.74"/><path class="cls-40" d="M104.55,115.05l-1-.08"/><polygon class="cls-41" points="101.97 114.82 104.28 114.08 103.67 114.95 104.13 115.9 101.97 114.82"/></g><path class="cls-42" d="M283.56,72.41l1.58-3.76h0l1.58,3.76h-.56l-1.18-3,.35-.23L284,72.41Zm.93-1.37h1.34l.16.42h-1.64Z"/><path class="cls-42" d="M287.89,72.45a1.06,1.06,0,0,1-.43-.08.89.89,0,0,1-.34-.23l.2-.27a1.11,1.11,0,0,0,.27.19.66.66,0,0,0,.27.06l.18,0a.34.34,0,0,0,.14-.09.25.25,0,0,0,.05-.15.21.21,0,0,0-.07-.18.52.52,0,0,0-.18-.1l-.24-.08a.92.92,0,0,1-.39-.23.55.55,0,0,1-.14-.37.68.68,0,0,1,.08-.31.7.7,0,0,1,.25-.23.82.82,0,0,1,.4-.09,1.23,1.23,0,0,1,.39,0,.79.79,0,0,1,.32.18l-.19.29a.62.62,0,0,0-.21-.15.64.64,0,0,0-.22,0l-.17,0a.57.57,0,0,0-.13.08.21.21,0,0,0,0,.14.18.18,0,0,0,.06.16.5.5,0,0,0,.19.11l.22.08a1.11,1.11,0,0,1,.27.12.55.55,0,0,1,.19.18.49.49,0,0,1,.08.28.69.69,0,0,1-.09.34.66.66,0,0,1-.27.25A1,1,0,0,1,287.89,72.45Z"/><path class="cls-42" d="M289.31,69.59a.23.23,0,0,1,.09-.18.27.27,0,0,1,.38,0,.23.23,0,0,1,.09.18.23.23,0,0,1-.09.19.29.29,0,0,1-.38,0A.23.23,0,0,1,289.31,69.59Zm0,.75h.47v2.07h-.47Z"/><path class="cls-42" d="M291.48,72.46a1.15,1.15,0,0,1-.53-.12,1,1,0,0,1-.38-.37,1.2,1.2,0,0,1-.14-.59,1.11,1.11,0,0,1,.15-.6.92.92,0,0,1,.39-.39,1.07,1.07,0,0,1,.53-.13.85.85,0,0,1,.49.13.92.92,0,0,1,.31.31l0,.08,0-.44h.43v2.07h-.46v-.54l.05.12-.09.13-.18.16a1.46,1.46,0,0,1-.25.13A1.14,1.14,0,0,1,291.48,72.46Zm.12-.38a.83.83,0,0,0,.32-.07.58.58,0,0,0,.23-.18.9.9,0,0,0,.13-.28v-.41a.72.72,0,0,0-.14-.26.84.84,0,0,0-.24-.18.81.81,0,0,0-.31-.06.64.64,0,0,0-.34.09A.6.6,0,0,0,291,71a.76.76,0,0,0-.09.38.74.74,0,0,0,.09.36.65.65,0,0,0,.26.26A.67.67,0,0,0,291.6,72.08Z"/><path class="cls-13" d="M58.15,177.73,59.73,174h0l1.58,3.76h-.56l-1.18-3,.35-.23-1.32,3.23Zm.93-1.37h1.34l.16.42H58.94Z"/><path class="cls-13" d="M62.07,177.73v-1.65h-.36v-.42h.36v-.87a1,1,0,0,1,.21-.69.73.73,0,0,1,.6-.24l.23,0a.55.55,0,0,1,.22.1l-.2.33a.18.18,0,0,0-.09-.06l-.12,0a.33.33,0,0,0-.28.13.66.66,0,0,0-.1.43v.86h.65v.42h-.65v1.65Z"/><path class="cls-13" d="M64.21,175.66l.05.6,0-.08a.82.82,0,0,1,.23-.32,1.26,1.26,0,0,1,.32-.21.93.93,0,0,1,.29-.07l0,.47a.65.65,0,0,0-.42.08.93.93,0,0,0-.28.28.72.72,0,0,0-.1.38v.94h-.47v-2.07Z"/><path class="cls-13" d="M65.64,174.91a.23.23,0,0,1,.09-.18.29.29,0,0,1,.19-.08.27.27,0,0,1,.19.08.23.23,0,0,1,.09.18.23.23,0,0,1-.09.19.26.26,0,0,1-.19.07.28.28,0,0,1-.19-.07A.23.23,0,0,1,65.64,174.91Zm0,.75h.47v2.07h-.47Z"/><path class="cls-13" d="M68.63,177.54a1.56,1.56,0,0,1-.34.18,1.32,1.32,0,0,1-.39.06,1.25,1.25,0,0,1-.59-.13,1,1,0,0,1-.4-.38,1.11,1.11,0,0,1-.15-.58,1,1,0,0,1,.16-.57,1.12,1.12,0,0,1,.4-.38,1.26,1.26,0,0,1,.54-.13,1.23,1.23,0,0,1,.44.07.94.94,0,0,1,.34.19l-.23.3-.22-.12a.68.68,0,0,0-.29-.06.64.64,0,0,0-.34.09.82.82,0,0,0-.24.25.76.76,0,0,0,0,.72.75.75,0,0,0,.25.25.66.66,0,0,0,.37.1,1,1,0,0,0,.25,0l.2-.11Z"/><path class="cls-13" d="M70.09,177.78a1.18,1.18,0,0,1-.53-.12,1,1,0,0,1-.38-.37,1.2,1.2,0,0,1-.14-.59,1.11,1.11,0,0,1,.15-.6,1,1,0,0,1,.39-.39,1.07,1.07,0,0,1,.53-.13.89.89,0,0,1,.5.13,1,1,0,0,1,.3.31l0,.08,0-.44h.43v2.07h-.46v-.54l0,.12a.38.38,0,0,1-.09.13l-.18.16a1.17,1.17,0,0,1-.25.13A1.14,1.14,0,0,1,70.09,177.78Zm.12-.38a.66.66,0,0,0,.32-.07.58.58,0,0,0,.23-.18.72.72,0,0,0,.13-.28v-.41a.72.72,0,0,0-.14-.26.84.84,0,0,0-.24-.18.78.78,0,0,0-.31-.06.67.67,0,0,0-.34.09.75.75,0,0,0-.25.25.76.76,0,0,0-.09.38.74.74,0,0,0,.09.36.72.72,0,0,0,.26.26A.61.61,0,0,0,70.21,177.4Z"/><path class="cls-42" d="M94.09,68.8h2.35v.46H94.58v1.1h1.66v.47H94.58V72h1.93v.46H94.09Z"/><path class="cls-42" d="M97.9,72.49a.68.68,0,0,1-.47-.17.63.63,0,0,1-.2-.45V70.34h.47v1.37a.46.46,0,0,0,.1.27.36.36,0,0,0,.28.11.48.48,0,0,0,.31-.1.69.69,0,0,0,.22-.28.87.87,0,0,0,.09-.4v-1h.46v2.07h-.42l0-.51,0,.1a.87.87,0,0,1-.19.25,1.12,1.12,0,0,1-.28.18A1.09,1.09,0,0,1,97.9,72.49Z"/><path class="cls-42" d="M100.38,70.34l.05.6,0-.08a.82.82,0,0,1,.23-.32,1.26,1.26,0,0,1,.32-.21.71.71,0,0,1,.29-.07l0,.47a.65.65,0,0,0-.42.08.93.93,0,0,0-.28.28.72.72,0,0,0-.1.38v.94H100V70.34Z"/><path class="cls-42" d="M101.57,71.36a1,1,0,0,1,.15-.56,1.12,1.12,0,0,1,.41-.4,1.21,1.21,0,0,1,.6-.14,1.15,1.15,0,0,1,.59.14,1.1,1.1,0,0,1,.4.4,1.13,1.13,0,0,1,.14.56,1.19,1.19,0,0,1-.14.56,1.07,1.07,0,0,1-.4.39,1.16,1.16,0,0,1-.6.15,1.15,1.15,0,0,1-.59-.14,1.07,1.07,0,0,1-.41-.38A1.11,1.11,0,0,1,101.57,71.36Zm.47,0a.71.71,0,0,0,.09.36.66.66,0,0,0,.58.36.68.68,0,0,0,.35-.1.67.67,0,0,0,.24-.26.71.71,0,0,0,.08-.36.73.73,0,0,0-.08-.36.67.67,0,0,0-.24-.26.6.6,0,0,0-.35-.1.59.59,0,0,0-.34.1.85.85,0,0,0-.24.26A.74.74,0,0,0,102,71.36Z"/><path class="cls-42" d="M105.7,72.46a1.06,1.06,0,0,1-.45-.11.85.85,0,0,1-.33-.29l0-.15v1.5h-.46v-3.1h.4l.07.53,0-.15a1.15,1.15,0,0,1,.38-.31,1.07,1.07,0,0,1,.51-.12,1,1,0,0,1,.53.13,1.12,1.12,0,0,1,.36.39,1.25,1.25,0,0,1,.14.59,1.11,1.11,0,0,1-.15.58,1,1,0,0,1-.39.38A1.21,1.21,0,0,1,105.7,72.46Zm-.09-.37a.72.72,0,0,0,.64-.35.72.72,0,0,0,.1-.36.7.7,0,0,0-.1-.38.67.67,0,0,0-.25-.25.68.68,0,0,0-.35-.09.66.66,0,0,0-.57.25.86.86,0,0,0-.13.29v.35a.66.66,0,0,0,.12.27.68.68,0,0,0,.24.2A.6.6,0,0,0,105.61,72.09Z"/><path class="cls-42" d="M108.41,72.46a1.28,1.28,0,0,1-.61-.14,1.15,1.15,0,0,1-.4-.39,1.2,1.2,0,0,1-.14-.57,1,1,0,0,1,.16-.55,1.24,1.24,0,0,1,.42-.4,1.14,1.14,0,0,1,.58-.15,1,1,0,0,1,.68.24,1.26,1.26,0,0,1,.37.66l-1.71.6-.11-.28L109,71,109,71a.72.72,0,0,0-.2-.29.55.55,0,0,0-.37-.12.6.6,0,0,0-.33.09.64.64,0,0,0-.24.25.84.84,0,0,0-.08.37.75.75,0,0,0,.09.37.67.67,0,0,0,.24.26.74.74,0,0,0,.36.09.75.75,0,0,0,.26,0,.92.92,0,0,0,.24-.13l.21.35a1.54,1.54,0,0,1-.34.17A1.31,1.31,0,0,1,108.41,72.46Z"/><path class="cls-16" d="M193.55,121.68l2.06,2.46c-.17.08-.34.13-.5.21a.32.32,0,0,1-.39,0L192,122.4a.17.17,0,0,0-.19,0l-1.8.75a.59.59,0,0,1-.69-.16.57.57,0,0,1,.25-.9l1.5-.63.33-.13a.12.12,0,0,0,.09-.11l.51-2.94.09-.49a.11.11,0,0,1,0-.08l.63-.26h0l.27,3.18.09,0,1.73-.72a.12.12,0,0,0,.09-.11c0-.38.09-.76.13-1.13a.13.13,0,0,1,.09-.13l.45-.18c0,.19.06.36.1.54.06.38.13.76.19,1.13a.61.61,0,0,0,.05.12l.93,1.33,0,.07-.5.2s-.06,0-.08,0l-.92-.73a.11.11,0,0,0-.12,0l-1.76.73Z"/><path class="cls-16" d="M277.59,128.76l-.16,3.2c-.18-.06-.34-.14-.51-.18a.34.34,0,0,1-.26-.3c-.22-1.08-.45-2.15-.67-3.23a.19.19,0,0,0-.13-.14l-1.83-.68a.59.59,0,0,1-.4-.58.57.57,0,0,1,.8-.49l1.52.56.34.13a.14.14,0,0,0,.14,0l2.37-1.82.39-.3s.07,0,.1,0l.63.24,0,0-2,2.52.09,0,1.76.65a.12.12,0,0,0,.14,0l.86-.74a.14.14,0,0,1,.15,0l.46.17-.3.47c-.21.32-.42.64-.62,1a.28.28,0,0,0,0,.12c-.08.54-.15,1.07-.23,1.61,0,0,0,0,0,.07l-.51-.19s0-.05,0-.08c-.06-.38-.12-.77-.17-1.15a.12.12,0,0,0-.08-.1l-1.78-.66Z"/><path class="cls-43" d="M137.82,139.45l-1.21,2.68a3.73,3.73,0,0,0-.38-.33.32.32,0,0,1-.12-.34c.18-1,.34-2,.52-3a.17.17,0,0,0-.06-.16l-1.34-1.2a.52.52,0,0,1-.14-.62.53.53,0,0,1,.85-.16l1.11,1,.24.22s.07,0,.13,0l2.63-.75.44-.12a.08.08,0,0,1,.08,0c.16.13.31.27.46.41l0,0-2.53,1.49.06.06c.43.38.86.76,1.28,1.15a.11.11,0,0,0,.13,0l1-.34a.11.11,0,0,1,.14,0l.33.3-.41.29-.86.61-.07.09-.74,1.3,0,.05-.36-.33s0-.06,0-.08l.24-1c0-.05,0-.08,0-.11l-1.3-1.17Z"/></svg>