<?xml version="1.0" encoding="UTF-8" standalone="no"?>
<!DOCTYPE svg PUBLIC "-//W3C//DTD SVG 1.1//EN" "http://www.w3.org/Graphics/SVG/1.1/DTD/svg11.dtd">
<svg xmlns="http://www.w3.org/2000/svg" version="1.1" viewBox="0.00 0.00 968.00 459.00">
<g stroke-width="2.00" fill="none" stroke-linecap="butt">
<path stroke="#284e8c" vector-effect="non-scaling-stroke" d="
  M 438.23 386.24
  L 472.65 378.94
  Q 473.28 378.80 472.91 378.27
  L 449.91 345.08
  A 1.39 1.39 0.0 0 1 450.30 343.12
  L 482.02 322.51
  A 0.43 0.43 0.0 0 0 481.97 321.76
  L 449.50 306.48
  A 1.35 1.34 30.3 0 1 448.97 304.49
  L 471.97 271.72
  Q 472.24 271.34 471.80 271.17
  C 471.16 270.92 470.05 271.06 469.57 270.97
  Q 456.80 268.64 444.21 265.45
  Q 441.52 264.77 438.95 264.39
  Q 437.08 264.12 437.54 262.28
  L 446.14 228.35
  A 0.40 0.40 0.0 0 0 445.59 227.89
  L 406.39 246.09
  A 1.27 1.27 0.0 0 1 404.73 245.53
  Q 396.24 229.58 389.13 212.96
  A 0.08 0.08 0.0 0 0 388.98 212.96
  L 369.69 250.82
  A 2.11 2.11 0.0 0 1 367.13 251.86
  L 334.26 240.75
  Q 333.81 240.60 334.00 241.03
  Q 340.31 255.18 346.69 269.28
  Q 347.58 271.23 347.80 272.54
  A 1.85 1.84 -9.8 0 1 346.30 274.66
  L 315.48 280.03
  A 0.42 0.42 0.0 0 0 315.18 280.64
  L 330.97 310.34
  A 1.57 1.56 -28.2 0 1 330.33 312.45
  L 300.04 328.71
  A 0.26 0.26 0.0 0 0 300.01 329.15
  Q 312.18 337.86 324.70 345.82
  Q 326.41 346.90 328.07 347.64
  A 1.30 1.30 0.0 0 1 328.62 349.57
  L 309.34 377.86
  A 0.76 0.76 0.0 0 0 309.88 379.05
  C 321.97 380.56 335.04 379.88 347.10 379.79
  A 1.33 1.33 0.0 0 1 348.38 381.52
  L 336.74 418.10
  A 0.39 0.38 2.1 0 0 337.20 418.59
  L 372.64 410.29
  A 1.96 1.96 0.0 0 1 374.95 411.60
  L 386.33 447.53
  A 0.54 0.54 0.0 0 0 387.28 447.68
  Q 396.47 434.87 405.56 421.85
  Q 407.36 419.27 408.70 416.81
  A 1.95 1.95 0.0 0 1 410.88 415.85
  L 450.85 425.73
  A 0.25 0.25 0.0 0 0 451.15 425.40
  L 437.43 387.69
  A 1.10 1.09 74.1 0 1 438.23 386.24"
/>
<path stroke="#64728c" vector-effect="non-scaling-stroke" d="
  M 381.93 108.50
  C 381.64 102.70 380.35 97.81 379.66 92.49
  A 0.32 0.31 62.0 0 0 379.11 92.32
  Q 376.01 95.91 372.54 99.28
  C 371.12 100.65 364.94 102.91 365.44 106.01
  Q 366.47 112.47 366.18 119.07
  A 1.27 1.26 24.1 0 0 366.54 120.00
  Q 368.99 122.53 372.15 124.12
  Q 373.13 124.62 373.92 123.85
  C 378.54 119.36 382.28 115.38 381.93 108.50"
/>
<path stroke="#64728c" vector-effect="non-scaling-stroke" d="
  M 361.88 190.38
  Q 359.64 197.39 365.71 201.82
  A 1.35 1.35 0.0 0 0 367.59 201.54
  C 371.47 196.37 373.60 197.09 379.50 197.01
  C 383.89 196.95 386.17 189.18 386.42 185.80
  C 386.79 180.75 383.98 176.22 385.38 171.13
  Q 386.95 165.46 385.68 161.59
  Q 382.89 153.12 380.58 144.48
  A 0.91 0.91 0.0 0 0 379.08 144.05
  C 376.60 146.36 373.11 150.14 370.01 150.76
  C 367.12 151.33 361.27 151.76 359.26 153.46
  C 356.31 155.96 357.41 161.01 359.04 163.74
  C 361.95 168.62 362.22 171.50 361.72 177.10
  C 361.34 181.25 362.83 187.37 361.88 190.38"
/>
<path stroke="#284e8c" vector-effect="non-scaling-stroke" d="
  M 412.09 336.26
  Q 411.14 336.71 410.44 335.93
  Q 404.90 329.70 402.19 321.78
  A 1.23 1.23 0.0 0 1 402.63 320.39
  Q 410.41 314.61 417.79 308.31
  C 423.19 303.71 421.85 295.85 420.78 290.49
  C 420.17 287.44 417.06 285.24 414.88 283.37
  A 1.37 1.36 -54.6 0 1 414.59 281.64
  C 416.69 278.04 419.91 274.71 423.72 272.80
  C 426.61 271.37 430.41 270.23 431.68 266.93
  Q 433.37 262.49 434.13 257.83
  A 2.26 2.26 0.0 0 0 432.87 255.43
  Q 431.48 254.77 429.87 255.53
  Q 421.63 259.44 413.34 263.25
  Q 409.25 265.13 406.56 261.74
  C 404.62 259.31 402.50 254.86 399.00 254.94
  C 393.20 255.07 387.77 256.13 382.27 252.78
  C 380.83 251.90 379.02 251.63 377.88 252.88
  Q 374.47 256.67 367.10 263.61
  Q 363.99 266.54 363.41 270.83
  C 363.05 273.46 364.55 279.27 363.56 281.52
  C 359.74 290.24 366.62 293.37 366.79 300.80
  Q 367.00 309.70 361.19 316.31
  C 357.33 320.70 347.74 322.91 348.42 330.36
  Q 348.55 331.83 348.99 332.53
  Q 352.21 337.67 353.82 343.47
  C 355.84 350.71 362.74 349.08 364.96 354.79
  Q 365.64 356.53 367.80 362.49
  C 368.99 365.77 371.62 366.17 374.28 367.13
  A 2.27 2.27 0.0 0 1 375.71 368.74
  C 379.15 383.56 383.38 398.17 386.31 413.10
  Q 386.67 414.96 388.02 415.63
  A 1.83 1.83 0.0 0 0 390.18 415.23
  Q 396.21 408.68 403.21 402.72
  C 405.82 400.50 405.37 397.79 404.96 394.89
  Q 404.05 388.46 403.39 381.98
  C 402.92 377.28 412.93 380.31 413.22 373.98
  A 1.68 1.67 78.7 0 1 414.17 372.55
  Q 419.92 369.82 425.98 367.42
  C 433.88 364.29 427.42 356.15 427.24 350.43
  C 427.15 347.51 427.97 343.65 424.51 342.16
  Q 420.58 340.47 418.84 337.23
  C 417.48 334.69 415.57 332.05 412.93 335.49
  Q 412.48 336.07 412.09 336.26"
/>
<path stroke="#64728c" vector-effect="non-scaling-stroke" d="
  M 369.81 304.37
  C 368.72 311.06 366.10 317.33 360.17 321.11
  C 356.41 323.50 352.87 325.36 351.59 328.77
  A 2.85 2.85 0.0 0 0 351.84 331.29
  Q 354.89 336.11 356.50 341.92
  C 358.31 348.45 364.79 346.97 367.43 352.79
  Q 368.85 355.93 370.15 360.37
  C 371.47 364.86 377.65 363.23 378.61 367.44
  Q 382.12 382.81 386.16 398.05
  C 387.21 402.01 388.02 406.58 389.10 410.83
  A 0.35 0.35 0.0 0 0 389.68 411.00
  L 401.15 400.28
  A 3.51 3.50 64.3 0 0 402.23 397.18
  Q 401.07 389.61 400.31 382.25
  C 399.64 375.86 405.32 376.71 409.18 374.97
  A 1.01 0.98 -7.7 0 0 409.75 374.24
  C 410.42 370.26 412.70 369.77 416.65 368.03
  Q 420.95 366.14 425.33 364.38
  Q 427.54 363.49 426.77 361.24
  C 425.30 356.92 423.86 352.50 424.11 348.39
  Q 424.17 347.32 424.02 346.23
  Q 423.95 345.73 423.55 345.42
  C 420.23 342.87 417.34 342.44 415.86 337.90
  A 0.53 0.53 0.0 0 0 414.95 337.73
  C 408.68 345.32 400.77 326.90 399.34 322.83
  C 398.85 321.42 398.92 319.43 400.07 318.57
  Q 405.23 314.70 415.07 306.32
  C 417.46 304.29 418.79 302.86 418.78 299.48
  Q 418.77 293.15 417.54 290.49
  C 415.43 285.90 408.13 285.28 412.80 278.78
  Q 418.43 270.92 426.18 268.33
  A 4.43 4.43 0.0 0 0 429.01 265.41
  L 430.50 260.44
  Q 431.11 258.41 429.18 259.28
  Q 423.02 262.05 416.12 265.19
  C 408.42 268.69 404.97 266.57 401.26 259.52
  A 2.93 2.91 -15.7 0 0 398.49 257.97
  C 392.03 258.38 386.48 258.89 380.77 255.23
  A 0.81 0.81 0.0 0 0 379.73 255.37
  Q 374.68 260.91 368.91 266.16
  C 366.37 268.48 366.01 271.90 366.72 275.46
  C 367.49 279.28 366.46 282.51 365.53 285.76
  A 4.62 4.61 -49.6 0 0 365.79 289.00
  C 368.17 294.10 370.82 298.11 369.81 304.37"
/>
</g>
<path fill="#1b1919" fill-opacity="0.996" d="
  M 826.05 154.30
  Q 823.87 153.19 820.96 152.56
  Q 806.50 149.43 792.00 146.47
  C 779.73 143.97 779.34 146.68 772.19 155.44
  C 767.18 161.60 746.27 162.81 742.68 156.01
  C 740.54 151.96 737.98 151.52 733.00 150.96
  Q 728.50 150.45 719.54 147.35
  C 718.01 146.82 716.51 147.07 715.52 148.27
  C 710.60 154.28 704.27 152.68 698.03 150.41
  A 1.74 1.74 0.0 0 0 695.74 151.61
  C 693.74 159.53 692.32 168.46 682.53 169.73
  Q 680.68 169.97 678.68 168.95
  C 674.07 166.60 673.16 160.96 671.36 156.70
  Q 671.08 156.04 670.84 156.72
  Q 668.80 162.42 668.19 168.39
  C 667.31 176.94 671.46 183.27 674.76 190.88
  C 676.70 195.37 677.04 198.64 673.80 202.25
  C 671.03 205.35 677.28 210.32 680.39 212.86
  Q 689.04 219.95 697.77 226.96
  C 700.15 228.88 702.03 232.04 701.38 235.11
  C 700.06 241.34 686.33 235.65 683.04 233.51
  C 679.07 230.94 675.09 226.50 671.40 222.85
  C 668.53 219.99 660.78 221.14 656.84 221.08
  Q 656.76 221.08 652.17 220.49
  Q 648.43 220.01 644.03 221.88
  C 641.83 222.82 638.24 222.43 636.55 220.34
  C 633.73 216.87 634.91 212.66 636.92 208.85
  Q 637.84 207.10 635.70 205.53
  C 632.74 203.37 629.88 201.31 626.69 199.50
  C 623.86 197.88 623.65 195.65 621.66 193.52
  Q 621.30 193.14 620.79 193.07
  C 610.39 191.73 610.21 186.59 610.80 177.68
  A 3.39 3.39 0.0 0 0 608.50 174.25
  C 605.76 173.33 600.93 172.33 600.68 168.51
  C 600.08 159.63 598.98 150.51 598.89 141.83
  C 598.81 133.77 598.08 126.44 603.44 121.28
  A 0.92 0.92 0.0 0 0 603.23 119.80
  Q 596.76 116.45 590.75 113.07
  C 585.58 110.18 582.49 104.96 579.63 99.95
  Q 578.96 98.78 577.77 99.42
  Q 572.33 102.37 567.00 99.29
  C 560.53 95.55 554.11 87.64 549.36 81.62
  C 545.36 76.54 539.17 77.25 533.52 75.52
  C 524.14 72.66 521.09 63.95 513.16 59.16
  C 507.41 55.69 498.93 50.20 500.97 42.26
  C 501.57 39.93 501.74 38.71 499.88 36.90
  C 497.72 34.79 492.74 30.34 489.71 30.19
  Q 488.83 30.14 486.87 30.82
  Q 479.54 33.37 476.37 27.67
  Q 474.89 25.00 474.86 19.54
  C 474.85 16.91 476.21 5.16 471.50 5.17
  C 467.86 5.17 464.46 5.79 461.01 4.21
  A 1.15 1.14 22.6 0 0 459.47 4.84
  C 456.58 12.44 452.81 10.30 446.25 9.94
  C 441.90 9.71 441.94 13.47 443.20 16.52
  Q 444.93 20.72 448.34 22.22
  Q 448.82 22.42 448.96 22.92
  C 450.60 28.56 446.21 28.41 445.24 32.09
  C 443.55 38.55 443.50 43.14 448.44 47.85
  Q 456.86 55.90 459.34 57.92
  C 461.33 59.55 464.77 60.17 466.73 61.94
  Q 469.16 64.12 470.00 67.50
  C 471.42 73.22 472.08 78.54 474.86 84.19
  Q 478.82 92.22 483.46 98.53
  C 488.14 104.90 495.28 109.51 501.89 113.87
  Q 505.57 116.29 509.25 116.26
  C 514.90 116.21 541.29 113.14 524.81 127.59
  Q 522.85 129.31 525.45 131.08
  C 530.18 134.30 537.41 134.89 541.75 136.04
  C 547.64 137.61 547.92 144.00 552.80 147.20
  C 559.61 151.67 567.57 156.11 573.24 161.24
  C 576.47 164.17 577.99 172.31 575.37 175.61
  Q 575.07 176.00 574.59 176.09
  C 570.00 176.95 560.87 174.80 558.25 170.49
  C 555.83 166.52 552.07 164.47 548.54 161.49
  Q 548.11 161.12 547.76 161.57
  Q 542.29 168.43 537.27 175.48
  Q 536.62 176.40 537.13 178.31
  C 537.77 180.76 538.16 184.27 540.88 185.32
  C 545.43 187.08 549.36 188.43 550.18 194.01
  C 551.06 199.96 553.48 209.92 543.39 207.30
  Q 541.97 206.93 541.42 208.30
  Q 540.11 211.58 538.73 215.75
  C 537.49 219.49 533.32 219.19 531.65 222.80
  Q 529.92 226.51 528.36 230.30
  C 526.79 234.10 521.17 235.68 518.66 231.78
  C 516.42 228.29 518.94 222.55 517.01 218.26
  C 515.51 214.93 520.54 213.47 522.63 212.39
  C 526.63 210.32 527.82 206.77 526.93 202.50
  Q 526.83 202.01 526.42 201.74
  C 523.08 199.45 522.08 194.35 521.91 190.58
  Q 521.61 183.96 520.92 177.37
  Q 520.86 176.87 520.45 176.58
  C 516.88 174.16 515.69 178.16 512.81 177.89
  C 507.44 177.39 501.52 174.75 500.93 168.79
  Q 500.46 164.06 499.69 159.50
  A 1.81 1.81 0.0 0 0 497.84 157.99
  C 493.04 158.14 489.02 159.68 487.19 153.68
  Q 486.41 151.11 483.02 151.18
  C 479.69 151.24 478.52 147.12 477.78 143.92
  C 476.62 138.83 467.51 139.15 464.44 139.22
  C 459.88 139.32 459.53 135.05 456.50 135.15
  Q 449.31 135.39 446.67 128.88
  C 444.92 124.56 444.27 121.63 439.80 118.45
  C 434.93 114.97 426.23 109.63 425.77 103.27
  C 425.58 100.66 421.59 98.43 418.81 96.44
  Q 415.64 94.19 412.96 89.70
  Q 412.70 89.26 412.20 89.18
  C 410.61 88.91 408.79 89.20 407.43 88.56
  Q 401.19 85.63 404.19 77.73
  Q 404.50 76.93 403.88 76.33
  C 401.86 74.40 400.16 72.04 399.78 69.14
  C 399.32 65.71 400.55 63.59 400.77 60.77
  Q 400.93 58.74 398.94 58.27
  C 392.95 56.86 389.57 54.74 384.62 50.30
  Q 378.24 44.59 371.55 39.38
  A 1.32 1.31 50.6 0 0 370.17 39.24
  C 363.40 42.50 360.25 49.98 356.09 56.12
  C 353.21 60.37 348.47 61.14 343.74 61.29
  Q 338.62 61.46 334.84 64.85
  Q 324.93 73.75 314.57 82.09
  C 307.79 87.55 294.95 80.33 290.28 74.77
  C 289.77 74.15 289.28 72.96 288.63 72.17
  A 1.10 1.08 -17.5 0 0 287.85 71.77
  C 283.79 71.55 280.32 73.10 276.75 73.44
  C 273.36 73.76 271.45 71.53 269.02 69.65
  C 266.15 67.44 254.96 74.29 251.55 76.34
  C 244.10 80.84 245.64 88.80 244.15 96.25
  Q 243.86 97.73 244.66 100.44
  C 246.01 105.00 250.06 107.99 249.36 113.20
  C 248.09 122.68 239.94 125.55 232.60 129.19
  C 227.32 131.81 225.92 137.56 219.25 138.91
  Q 216.25 139.52 206.29 140.31
  C 201.67 140.68 195.99 147.77 193.74 151.99
  C 192.36 154.57 193.62 157.83 190.98 159.46
  Q 187.07 161.89 184.93 166.03
  Q 179.49 176.62 173.95 187.17
  Q 171.88 191.09 172.06 197.24
  C 172.35 207.77 181.68 200.84 184.13 206.74
  Q 187.42 214.61 179.80 218.01
  C 173.15 220.97 168.83 222.90 166.31 229.78
  Q 163.73 236.79 161.74 244.00
  Q 161.42 245.16 159.94 247.72
  C 157.60 251.78 152.02 247.63 148.63 248.48
  C 143.30 249.83 137.32 257.83 135.09 262.31
  C 133.37 265.76 132.03 273.25 126.05 273.08
  C 122.77 272.99 120.99 270.71 117.52 273.79
  C 110.95 279.63 104.20 275.52 97.26 273.31
  C 94.24 272.34 90.76 274.48 88.07 275.87
  C 83.54 278.21 80.04 273.09 75.57 276.44
  Q 71.89 279.21 67.27 279.00
  C 64.64 278.88 63.29 279.38 61.88 281.42
  Q 57.71 287.45 56.21 289.22
  C 52.37 293.73 45.13 294.64 41.81 288.96
  C 40.42 286.57 39.07 282.68 36.73 280.11
  C 33.47 276.54 31.21 274.77 30.97 269.44
  C 30.86 266.99 31.56 262.88 29.15 261.34
  C 24.26 258.19 20.23 257.17 14.85 259.55
  C 11.53 261.03 5.60 263.74 2.99 262.92
  C 1.86 262.56 1.30 261.55 1.75 260.48
  A 0.83 0.82 11.2 0 1 2.51 259.98
  C 4.17 259.98 5.50 260.00 7.09 259.41
  C 11.03 257.98 14.58 256.50 18.67 255.42
  C 22.55 254.40 28.57 257.11 31.38 259.35
  C 36.53 263.45 31.50 270.74 36.77 275.78
  Q 41.01 279.83 43.57 286.13
  C 45.61 291.15 51.11 290.86 54.07 287.05
  Q 56.02 284.55 60.31 278.57
  C 63.42 274.24 68.12 277.09 71.90 275.10
  C 73.89 274.05 76.00 272.28 78.43 272.19
  C 81.51 272.09 83.63 274.26 86.92 273.09
  Q 88.55 272.50 90.06 271.65
  C 99.04 266.58 107.14 277.63 114.26 272.48
  Q 117.19 270.36 119.28 269.44
  C 123.04 267.80 127.61 272.99 129.86 267.07
  C 133.45 257.60 142.96 241.00 155.17 246.62
  C 157.38 247.64 158.60 244.23 158.94 243.01
  Q 160.71 236.68 162.97 230.52
  C 166.65 220.53 170.51 219.11 179.53 214.79
  C 182.31 213.46 183.36 207.88 179.61 207.11
  C 174.34 206.02 170.01 205.99 169.14 199.47
  Q 168.15 192.02 171.36 185.77
  Q 176.11 176.48 181.12 167.31
  C 183.87 162.28 185.07 159.53 189.31 157.24
  A 1.06 1.06 0.0 0 0 189.87 156.21
  C 189.39 150.82 195.46 143.47 199.25 140.47
  Q 203.18 137.34 209.00 137.08
  C 212.98 136.90 220.61 136.67 223.36 133.40
  C 225.38 131.00 227.27 128.64 230.04 127.11
  C 235.09 124.33 240.44 123.08 244.32 118.08
  Q 248.48 112.71 244.98 107.54
  Q 241.69 102.68 241.63 98.25
  Q 241.52 90.28 243.29 82.51
  C 244.60 76.76 247.94 74.95 253.34 71.70
  Q 259.82 67.80 265.78 66.29
  C 270.84 65.00 273.35 71.55 277.42 70.43
  Q 281.65 69.27 285.98 68.71
  C 291.43 68.00 291.20 72.29 294.09 74.66
  C 298.01 77.88 307.41 83.43 312.21 79.85
  C 319.55 74.35 326.46 68.16 333.30 62.05
  C 337.00 58.73 342.73 58.02 348.74 57.77
  C 350.29 57.70 352.68 55.85 353.69 54.31
  C 359.12 46.13 361.30 40.38 369.43 36.07
  C 370.78 35.35 371.81 35.76 372.89 36.61
  Q 381.01 42.94 388.63 49.87
  C 392.41 53.32 396.32 54.40 401.00 56.00
  C 405.55 57.57 403.06 63.48 402.67 66.76
  C 402.11 71.39 405.34 72.84 406.97 75.53
  C 408.97 78.83 403.93 81.60 407.12 84.91
  C 409.42 87.30 412.43 84.40 414.86 87.84
  Q 418.72 93.30 424.44 96.81
  Q 428.45 99.26 429.00 103.98
  C 429.50 108.29 439.62 114.59 443.00 117.24
  C 445.47 119.18 446.71 120.97 447.90 124.12
  C 449.60 128.65 450.30 131.70 455.72 131.82
  Q 459.71 131.91 461.87 135.31
  A 2.40 2.39 67.8 0 0 464.37 136.37
  C 470.91 135.04 480.62 137.70 481.48 145.74
  C 481.91 149.74 486.69 146.87 488.83 150.82
  C 489.94 152.87 490.99 156.38 494.14 155.42
  C 507.12 151.48 500.59 167.75 505.81 172.13
  Q 508.83 174.67 512.96 174.87
  A 1.23 1.22 25.7 0 0 513.85 174.56
  C 517.73 171.08 524.37 173.18 524.34 178.75
  Q 524.31 186.80 525.53 194.76
  C 526.21 199.19 529.78 198.78 530.11 202.75
  C 530.78 210.83 527.50 213.72 520.60 216.54
  A 0.92 0.92 0.0 0 0 520.06 217.65
  Q 521.54 222.76 520.82 228.00
  C 520.25 232.15 524.68 231.52 525.90 228.63
  C 527.97 223.74 528.88 218.65 534.47 216.47
  Q 535.10 216.23 535.75 214.67
  Q 537.23 211.13 538.40 207.47
  C 540.15 201.99 543.62 205.17 547.05 204.77
  Q 547.60 204.70 547.68 204.16
  Q 548.68 197.59 546.74 192.49
  C 544.94 187.77 537.72 189.91 535.73 184.00
  C 534.61 180.69 532.90 176.92 534.74 174.21
  C 538.31 168.96 542.12 162.93 546.74 158.57
  A 2.17 2.16 43.5 0 1 549.63 158.50
  C 553.90 162.14 558.20 164.36 561.27 169.72
  C 562.46 171.79 570.40 173.22 572.67 173.48
  A 0.88 0.88 0.0 0 0 573.65 172.72
  Q 574.66 164.95 568.13 160.61
  Q 560.05 155.25 551.92 150.01
  Q 547.64 147.24 546.46 145.03
  C 544.70 141.76 543.63 139.14 539.51 138.44
  Q 533.93 137.49 528.51 135.91
  C 524.49 134.74 518.05 130.49 522.71 125.72
  Q 524.71 123.67 526.94 121.31
  Q 527.83 120.36 526.62 119.90
  C 522.43 118.28 513.88 119.16 509.25 119.22
  Q 504.21 119.29 500.09 116.45
  Q 493.15 111.68 488.60 108.15
  C 481.28 102.47 475.40 92.70 471.59 84.31
  C 469.50 79.70 468.24 73.34 467.36 69.13
  C 465.90 62.11 461.22 63.54 456.92 59.75
  Q 451.17 54.67 445.61 49.40
  C 440.59 44.65 440.86 37.69 442.42 31.52
  Q 443.11 28.79 445.55 26.84
  A 1.48 1.47 45.6 0 0 445.57 24.55
  C 442.04 21.64 439.39 17.54 439.67 12.76
  C 440.10 5.64 446.65 6.43 451.75 7.75
  C 456.64 9.02 456.01 0.80 460.23 1.04
  Q 460.51 1.06 462.97 1.86
  Q 465.91 2.82 469.49 1.95
  Q 472.81 1.14 475.39 3.86
  C 481.29 10.12 474.41 24.81 480.93 28.22
  C 483.16 29.39 485.98 27.99 488.25 27.24
  C 492.24 25.92 500.06 32.69 502.64 35.38
  C 506.66 39.56 501.53 44.30 505.07 48.94
  Q 507.00 51.47 511.92 54.51
  Q 518.29 58.44 523.26 63.94
  C 528.15 69.36 530.97 72.62 537.25 73.53
  C 543.35 74.42 547.66 74.93 551.40 79.43
  C 555.27 84.08 559.16 88.96 563.71 92.97
  C 568.58 97.26 571.04 99.44 577.54 96.28
  Q 579.70 95.23 581.48 97.78
  C 585.13 103.00 587.09 107.53 593.37 111.10
  C 597.07 113.21 603.74 115.81 606.43 118.88
  A 2.59 2.58 -45.3 0 1 606.44 122.26
  C 604.14 124.95 601.98 127.22 602.05 131.35
  C 602.13 136.45 602.02 141.56 602.09 146.66
  C 602.18 152.80 603.30 160.16 603.41 167.00
  C 603.46 170.08 607.05 170.54 609.37 171.40
  C 619.01 175.01 607.10 189.00 620.52 189.91
  C 624.56 190.18 624.53 193.85 627.08 196.09
  C 628.40 197.25 630.17 197.19 631.62 198.58
  C 634.24 201.07 640.12 204.00 640.07 208.00
  Q 640.06 208.79 638.67 211.77
  C 637.56 214.14 637.20 220.35 641.74 219.13
  C 645.19 218.20 648.51 216.83 652.19 217.45
  Q 657.91 218.42 664.75 217.84
  C 670.62 217.33 674.84 221.55 679.33 226.42
  Q 686.06 233.70 696.00 234.87
  Q 697.03 234.99 697.71 234.83
  A 1.38 1.38 0.0 0 0 698.57 232.79
  Q 697.09 230.24 694.80 228.44
  Q 685.50 221.15 676.43 213.59
  Q 671.80 209.73 670.04 205.70
  C 668.30 201.70 675.30 198.96 672.68 193.24
  C 669.94 187.29 665.97 180.56 665.16 173.99
  C 664.44 168.09 666.14 161.40 668.13 155.78
  C 668.59 154.48 669.09 153.10 670.49 152.61
  C 675.61 150.83 675.17 168.61 682.74 166.65
  C 690.58 164.62 691.02 157.78 692.82 151.25
  C 694.53 145.02 701.83 148.41 705.75 149.45
  C 712.22 151.18 713.40 142.29 719.76 144.36
  Q 728.21 147.11 736.96 148.67
  C 742.25 149.61 743.30 151.57 746.17 155.57
  C 748.50 158.83 761.95 157.23 764.96 156.43
  C 771.91 154.59 773.48 145.89 780.50 143.00
  Q 782.87 142.02 788.97 143.11
  Q 805.57 146.10 822.02 149.84
  C 824.25 150.34 830.55 151.82 830.07 154.88
  C 829.78 156.77 827.38 157.57 825.74 157.95
  Q 819.05 159.50 812.28 160.66
  C 805.92 161.75 802.81 162.52 798.74 167.31
  C 792.59 174.53 780.00 173.74 771.98 174.55
  C 764.68 175.28 757.07 175.18 750.38 176.38
  Q 749.22 176.59 748.68 178.15
  C 747.44 181.69 746.07 187.90 748.06 191.17
  C 749.24 193.13 753.44 193.37 755.50 193.73
  C 761.47 194.78 762.18 197.28 763.97 202.29
  Q 768.46 214.83 766.70 228.21
  Q 766.40 230.49 765.19 237.26
  C 764.54 240.92 766.11 241.97 769.24 243.70
  Q 773.37 245.99 776.21 249.80
  Q 776.51 250.20 776.98 250.38
  Q 777.87 250.71 777.79 251.63
  Q 777.76 252.09 777.19 252.83
  C 774.69 256.13 777.77 261.23 779.86 264.42
  C 783.86 270.52 796.02 256.56 798.16 270.55
  Q 798.23 271.03 798.55 271.40
  Q 799.85 272.95 800.60 273.20
  Q 809.00 276.00 815.50 282.98
  Q 817.16 284.77 819.99 284.83
  C 827.29 284.98 830.89 285.29 835.74 279.10
  Q 841.15 272.19 843.66 269.18
  Q 846.75 265.47 851.72 266.13
  Q 860.78 267.34 869.75 268.98
  C 880.01 270.87 884.09 277.02 889.15 285.19
  A 3.24 3.24 0.0 0 0 892.78 286.59
  Q 901.93 284.01 911.47 280.91
  C 918.59 278.60 923.12 269.76 927.66 265.18
  Q 931.62 261.19 936.45 263.05
  C 942.22 265.28 945.55 273.22 952.28 268.56
  Q 955.97 266.01 959.59 263.33
  C 963.23 260.65 967.65 261.71 967.15 267.00
  C 966.41 274.92 961.69 281.34 961.33 289.00
  Q 961.09 294.09 962.33 296.22
  C 964.47 299.87 966.89 302.24 965.56 307.21
  C 963.63 314.43 963.53 320.99 964.87 328.30
  C 965.63 332.46 964.64 335.02 962.19 338.78
  C 955.74 348.65 954.40 358.95 949.96 369.91
  Q 948.33 373.96 945.16 380.83
  Q 935.52 401.72 927.10 423.13
  C 925.45 427.33 923.46 430.81 918.63 431.02
  C 908.24 431.48 895.61 432.99 886.25 431.86
  C 878.85 430.96 871.22 425.41 864.46 421.90
  C 857.19 418.12 855.22 421.86 850.51 426.55
  Q 845.78 431.25 839.60 430.03
  C 834.49 429.03 832.25 428.58 828.29 431.29
  Q 822.14 435.49 815.94 439.65
  C 813.48 441.31 812.03 440.72 809.63 439.09
  Q 791.80 427.01 770.25 424.44
  C 763.34 423.61 752.58 423.81 741.81 422.44
  C 738.49 422.02 735.68 422.12 732.25 420.87
  Q 731.77 420.70 731.53 420.26
  Q 729.64 416.73 728.14 413.08
  C 726.88 410.02 724.86 409.29 721.50 409.20
  C 715.34 409.04 710.09 408.14 704.97 404.91
  C 701.23 402.56 697.13 403.29 692.98 402.50
  C 684.45 400.86 680.88 393.19 677.28 386.26
  C 675.90 383.60 674.18 382.39 671.08 381.94
  C 662.61 380.70 654.46 381.31 646.01 382.23
  C 633.93 383.53 631.34 394.50 627.55 403.76
  Q 625.21 409.49 618.89 411.86
  Q 616.67 412.69 617.09 415.51
  Q 618.46 424.77 619.98 434.00
  C 620.71 438.48 620.85 445.74 616.78 448.81
  Q 614.26 450.71 609.54 451.98
  Q 598.74 454.89 594.00 455.47
  C 583.04 456.83 580.43 441.97 570.52 439.42
  C 566.45 438.37 564.22 438.09 560.85 435.55
  C 556.88 432.56 554.71 430.20 548.75 430.16
  Q 544.98 430.13 536.01 430.56
  C 530.00 430.85 525.56 428.42 520.40 424.22
  C 514.97 419.81 511.80 417.43 510.36 411.24
  Q 509.37 407.00 508.54 402.73
  Q 507.96 399.77 504.90 399.57
  Q 495.40 398.95 490.04 397.65
  C 483.30 396.02 478.17 393.08 472.19 389.79
  C 469.66 388.40 468.32 386.46 466.72 384.24
  Q 466.19 383.51 465.32 383.70
  L 441.50 388.64
  A 0.42 0.41 74.0 0 0 441.20 389.19
  L 455.08 427.54
  A 1.31 1.31 0.0 0 1 453.87 429.29
  Q 452.84 429.30 451.62 428.98
  Q 431.65 423.68 411.64 419.28
  A 1.06 1.05 20.6 0 0 410.50 419.79
  Q 408.66 422.99 406.39 426.15
  Q 397.45 438.60 388.44 451.23
  A 1.76 1.74 31.8 0 1 386.18 451.75
  Q 384.62 450.92 383.88 448.87
  Q 377.60 431.55 372.64 413.85
  A 0.64 0.63 74.5 0 0 371.86 413.40
  Q 357.04 417.44 341.78 420.63
  Q 338.67 421.28 335.67 422.18
  A 1.89 1.88 -54.6 0 1 335.20 422.26
  Q 332.23 422.44 333.09 419.79
  Q 338.88 401.80 344.44 383.45
  A 0.37 0.37 0.0 0 0 344.07 382.97
  Q 327.21 383.45 310.25 382.04
  C 306.83 381.76 304.42 380.05 306.72 376.52
  Q 315.24 363.38 324.42 350.34
  A 0.74 0.73 34.6 0 0 324.23 349.31
  L 295.75 330.02
  A 1.51 1.51 0.0 0 1 295.89 327.43
  L 327.00 310.87
  Q 327.65 310.53 327.31 309.88
  Q 319.64 295.42 311.85 280.89
  C 310.46 278.29 311.57 277.29 314.13 276.95
  Q 329.18 274.98 344.17 271.82
  Q 344.44 271.76 344.33 271.52
  L 340.50 263.04
  Q 340.38 262.79 340.13 262.89
  C 335.65 264.60 329.87 265.94 325.10 264.79
  Q 324.83 264.73 320.59 262.72
  Q 315.38 260.26 310.98 264.80
  C 306.67 269.24 303.72 269.18 298.57 271.19
  C 292.08 273.72 288.76 276.17 282.42 271.02
  C 274.72 264.77 261.62 269.16 253.26 272.83
  Q 250.73 273.94 247.79 274.02
  C 245.08 274.09 242.58 272.14 239.63 273.46
  C 237.17 274.57 233.36 277.29 230.90 275.89
  C 228.47 274.51 227.05 272.81 223.76 273.35
  Q 213.38 275.07 203.21 277.77
  Q 195.97 279.69 190.54 282.30
  C 186.23 284.37 185.81 289.03 182.66 292.16
  Q 179.44 295.36 178.05 296.57
  C 174.35 299.78 169.27 295.58 166.15 294.54
  C 163.68 293.71 162.07 295.14 160.19 297.06
  Q 157.34 299.97 153.58 301.54
  Q 149.83 303.11 149.31 303.50
  C 145.28 306.46 144.86 311.91 141.90 315.76
  Q 137.24 321.79 129.74 322.70
  C 124.39 323.36 117.68 319.06 112.96 316.54
  C 109.35 314.62 106.49 316.56 103.24 317.88
  C 97.91 320.05 92.22 317.60 88.00 317.08
  C 81.97 316.33 78.64 318.43 73.98 320.97
  C 70.45 322.89 67.96 321.37 65.58 317.93
  Q 58.92 308.26 51.21 298.33
  A 0.96 0.96 0.0 0 0 49.61 298.46
  C 39.46 317.18 38.70 338.14 18.87 350.90
  Q 17.66 351.67 16.84 350.50
  L 16.63 350.19
  A 1.11 1.11 0.0 0 1 16.94 348.63
  Q 29.72 340.44 35.26 326.07
  C 39.00 316.36 41.94 307.69 46.86 297.37
  C 48.89 293.12 52.22 294.81 54.61 297.89
  Q 61.79 307.14 67.06 315.18
  Q 68.53 317.42 70.45 318.79
  A 0.90 0.90 0.0 0 0 71.37 318.86
  Q 74.25 317.41 77.01 315.99
  C 84.60 312.10 90.80 314.78 97.25 315.85
  C 101.67 316.58 104.74 313.03 108.95 312.78
  C 116.91 312.30 122.87 321.81 131.24 319.40
  C 136.62 317.85 139.44 314.76 141.81 309.74
  C 143.47 306.22 145.01 301.94 148.63 300.36
  Q 151.42 299.14 154.22 297.96
  C 156.69 296.92 158.84 293.52 161.21 292.34
  C 165.45 290.23 169.75 292.49 173.49 294.62
  A 2.23 2.22 -50.8 0 0 176.07 294.35
  Q 181.37 289.65 184.56 283.56
  C 188.28 276.47 218.35 271.05 224.50 270.30
  Q 227.84 269.89 231.32 272.67
  Q 232.02 273.23 233.34 273.08
  C 237.85 272.57 238.50 268.45 244.41 270.45
  Q 248.16 271.72 251.03 270.55
  Q 261.43 266.33 267.71 265.10
  Q 277.48 263.19 285.91 270.12
  Q 288.01 271.85 291.64 270.45
  Q 297.10 268.34 302.74 266.74
  C 308.66 265.07 310.52 258.76 317.70 258.83
  C 321.19 258.87 323.21 261.71 326.59 262.01
  Q 332.83 262.58 338.51 260.29
  A 0.66 0.65 67.2 0 0 338.86 259.42
  Q 334.32 249.23 329.68 239.00
  Q 329.12 237.75 329.52 237.33
  A 2.46 2.25 30.2 0 1 332.01 236.79
  L 366.48 248.57
  A 0.98 0.97 -67.4 0 0 367.66 248.08
  Q 373.60 236.28 379.91 224.34
  Q 384.20 216.21 387.03 209.33
  Q 388.93 204.70 390.87 209.32
  Q 397.90 226.10 406.33 242.29
  A 0.56 0.56 0.0 0 0 407.06 242.53
  L 447.56 223.58
  A 1.64 1.64 0.0 0 1 449.84 225.46
  L 440.94 261.21
  A 0.42 0.42 0.0 0 0 441.27 261.73
  C 452.22 263.65 463.11 267.96 474.32 268.16
  A 2.05 2.05 0.0 0 1 475.96 271.40
  L 452.89 304.15
  A 0.45 0.44 30.7 0 0 453.06 304.81
  Q 468.53 312.20 484.03 319.46
  Q 485.23 320.02 486.10 320.20
  A 1.59 1.59 0.0 0 1 486.64 323.08
  L 453.93 344.40
  A 0.63 0.63 0.0 0 0 453.76 345.27
  Q 465.00 361.69 476.37 377.87
  C 478.96 381.55 472.03 382.21 470.05 382.49
  A 0.54 0.53 -23.6 0 0 469.71 383.35
  C 474.27 389.07 485.10 393.88 492.19 394.93
  C 493.94 395.19 495.56 395.77 497.30 395.81
  Q 502.21 395.93 507.03 396.92
  C 512.08 397.96 512.32 407.32 513.36 411.24
  C 514.95 417.22 521.37 421.28 526.11 424.65
  C 533.32 429.77 540.72 426.66 548.24 427.04
  C 555.23 427.40 558.33 429.41 563.72 434.09
  Q 564.75 434.98 568.05 435.61
  Q 575.72 437.07 581.50 443.75
  C 585.33 448.18 588.43 453.58 594.04 452.48
  Q 603.28 450.67 612.24 447.78
  Q 617.43 446.10 617.34 440.51
  C 617.19 431.80 614.74 422.70 614.31 414.76
  C 614.11 411.03 615.91 410.14 619.21 408.54
  Q 623.24 406.60 624.91 402.44
  C 628.83 392.66 631.28 383.68 641.10 380.24
  Q 644.47 379.06 654.54 378.49
  Q 664.53 377.93 672.50 379.04
  C 681.66 380.30 682.01 395.62 691.85 399.18
  Q 692.90 399.56 698.21 399.98
  Q 702.56 400.33 706.43 402.27
  Q 711.58 404.85 712.40 405.09
  C 717.00 406.43 721.77 405.53 726.25 407.05
  C 730.02 408.33 732.04 414.35 733.49 417.62
  A 2.04 2.03 77.9 0 0 735.35 418.83
  C 738.57 418.82 741.82 419.74 744.92 419.82
  C 750.54 419.96 755.95 420.62 761.70 420.80
  C 779.95 421.38 796.90 426.73 811.93 437.18
  A 2.35 2.34 43.9 0 0 814.67 437.13
  Q 821.14 432.33 827.39 428.37
  Q 832.45 425.17 839.24 426.88
  C 850.48 429.69 851.50 413.05 863.26 418.27
  Q 869.61 421.09 877.73 425.84
  C 883.36 429.14 887.94 428.97 895.54 428.93
  Q 906.42 428.86 918.75 428.01
  C 921.75 427.80 923.02 425.26 924.16 422.48
  C 930.97 405.85 938.08 389.50 945.35 373.06
  C 948.72 365.44 951.03 357.99 953.35 350.19
  C 954.91 344.92 957.56 341.10 960.24 336.45
  C 963.38 331.01 961.27 328.35 960.89 322.98
  C 960.43 316.35 962.09 310.88 962.84 306.25
  C 963.62 301.43 959.98 299.81 959.08 296.01
  C 957.58 289.67 958.92 283.12 961.31 276.92
  C 962.85 272.93 964.15 270.27 964.16 265.71
  A 0.84 0.84 0.0 0 0 962.94 264.96
  C 956.42 268.30 950.70 276.85 942.57 270.90
  Q 939.39 268.57 936.17 266.33
  Q 933.26 264.30 930.54 266.79
  C 923.60 273.17 921.14 280.87 912.51 283.70
  Q 906.01 285.83 894.62 289.13
  C 890.54 290.31 888.24 289.25 885.90 285.67
  C 880.12 276.86 877.74 273.51 866.77 271.57
  Q 859.75 270.33 852.74 269.07
  Q 847.75 268.17 844.82 272.11
  Q 840.67 277.68 836.41 283.14
  C 832.77 287.80 824.55 288.52 819.25 287.98
  C 814.68 287.52 810.99 282.44 808.22 280.29
  C 803.72 276.80 794.85 276.40 794.88 268.82
  A 1.78 1.78 0.0 0 0 792.78 267.06
  Q 787.99 267.95 783.94 268.85
  C 777.73 270.23 774.51 261.82 773.28 257.01
  C 772.91 255.53 773.31 254.41 773.73 253.02
  Q 773.88 252.54 773.73 252.05
  C 771.51 245.28 760.78 246.75 762.24 237.27
  Q 762.81 233.60 763.52 229.99
  C 765.51 219.95 763.88 211.71 760.67 201.76
  C 759.11 196.92 756.33 196.47 751.75 195.93
  Q 744.21 195.04 744.21 187.23
  C 744.21 182.84 744.53 174.71 750.49 173.25
  Q 754.94 172.16 770.04 171.74
  Q 771.94 171.69 774.91 171.27
  C 780.57 170.46 788.62 171.15 793.42 167.89
  C 795.93 166.19 798.09 162.97 800.38 161.36
  Q 802.98 159.54 807.89 158.50
  C 813.93 157.22 819.98 156.24 825.99 154.81
  Q 826.72 154.63 826.05 154.30
  Z
  M 438.23 386.24
  L 472.65 378.94
  Q 473.28 378.80 472.91 378.27
  L 449.91 345.08
  A 1.39 1.39 0.0 0 1 450.30 343.12
  L 482.02 322.51
  A 0.43 0.43 0.0 0 0 481.97 321.76
  L 449.50 306.48
  A 1.35 1.34 30.3 0 1 448.97 304.49
  L 471.97 271.72
  Q 472.24 271.34 471.80 271.17
  C 471.16 270.92 470.05 271.06 469.57 270.97
  Q 456.80 268.64 444.21 265.45
  Q 441.52 264.77 438.95 264.39
  Q 437.08 264.12 437.54 262.28
  L 446.14 228.35
  A 0.40 0.40 0.0 0 0 445.59 227.89
  L 406.39 246.09
  A 1.27 1.27 0.0 0 1 404.73 245.53
  Q 396.24 229.58 389.13 212.96
  A 0.08 0.08 0.0 0 0 388.98 212.96
  L 369.69 250.82
  A 2.11 2.11 0.0 0 1 367.13 251.86
  L 334.26 240.75
  Q 333.81 240.60 334.00 241.03
  Q 340.31 255.18 346.69 269.28
  Q 347.58 271.23 347.80 272.54
  A 1.85 1.84 -9.8 0 1 346.30 274.66
  L 315.48 280.03
  A 0.42 0.42 0.0 0 0 315.18 280.64
  L 330.97 310.34
  A 1.57 1.56 -28.2 0 1 330.33 312.45
  L 300.04 328.71
  A 0.26 0.26 0.0 0 0 300.01 329.15
  Q 312.18 337.86 324.70 345.82
  Q 326.41 346.90 328.07 347.64
  A 1.30 1.30 0.0 0 1 328.62 349.57
  L 309.34 377.86
  A 0.76 0.76 0.0 0 0 309.88 379.05
  C 321.97 380.56 335.04 379.88 347.10 379.79
  A 1.33 1.33 0.0 0 1 348.38 381.52
  L 336.74 418.10
  A 0.39 0.38 2.1 0 0 337.20 418.59
  L 372.64 410.29
  A 1.96 1.96 0.0 0 1 374.95 411.60
  L 386.33 447.53
  A 0.54 0.54 0.0 0 0 387.28 447.68
  Q 396.47 434.87 405.56 421.85
  Q 407.36 419.27 408.70 416.81
  A 1.95 1.95 0.0 0 1 410.88 415.85
  L 450.85 425.73
  A 0.25 0.25 0.0 0 0 451.15 425.40
  L 437.43 387.69
  A 1.10 1.09 74.1 0 1 438.23 386.24
  Z"
/>
<path fill="#1b1919" fill-opacity="0.996" d="
  M 363.16 117.93
  Q 363.23 113.43 362.80 108.93
  Q 362.43 105.17 362.97 103.58
  C 364.19 99.97 366.83 99.82 369.36 97.74
  C 372.46 95.20 374.92 92.31 377.76 89.54
  Q 379.36 87.98 381.28 88.72
  Q 381.78 88.91 381.97 89.42
  C 383.00 92.19 383.07 95.68 383.49 97.85
  Q 384.32 102.16 384.91 106.51
  C 386.12 115.31 381.77 120.17 376.11 125.90
  Q 374.15 127.89 371.56 126.88
  Q 367.41 125.25 364.64 122.36
  C 363.46 121.13 363.12 119.74 363.16 117.93
  Z
  M 381.93 108.50
  C 381.64 102.70 380.35 97.81 379.66 92.49
  A 0.32 0.31 62.0 0 0 379.11 92.32
  Q 376.01 95.91 372.54 99.28
  C 371.12 100.65 364.94 102.91 365.44 106.01
  Q 366.47 112.47 366.18 119.07
  A 1.27 1.26 24.1 0 0 366.54 120.00
  Q 368.99 122.53 372.15 124.12
  Q 373.13 124.62 373.92 123.85
  C 378.54 119.36 382.28 115.38 381.93 108.50
  Z"
/>
<path fill="#adcbff" d="
  M 379.66 92.49
  C 380.35 97.81 381.64 102.70 381.93 108.50
  C 382.28 115.38 378.54 119.36 373.92 123.85
  Q 373.13 124.62 372.15 124.12
  Q 368.99 122.53 366.54 120.00
  A 1.27 1.26 24.1 0 1 366.18 119.07
  Q 366.47 112.47 365.44 106.01
  C 364.94 102.91 371.12 100.65 372.54 99.28
  Q 376.01 95.91 379.11 92.32
  A 0.32 0.31 62.0 0 1 379.66 92.49
  Z"
/>
<path fill="#1b1919" fill-opacity="0.996" d="
  M 375.62 143.12
  C 379.13 139.11 382.34 140.15 383.76 144.97
  Q 386.41 153.98 389.08 162.98
  Q 389.99 166.07 388.21 171.74
  C 387.65 173.52 388.08 176.38 388.65 178.68
  Q 391.10 188.53 385.34 197.02
  C 382.91 200.59 378.82 200.25 375.00 200.00
  C 372.35 199.82 370.68 202.26 369.04 204.57
  A 1.49 1.44 -77.7 0 1 368.17 205.15
  C 363.50 206.16 359.74 200.49 358.65 196.79
  C 357.74 193.69 359.08 189.28 358.86 185.50
  Q 358.49 179.00 358.97 172.50
  C 359.24 168.83 355.97 164.97 355.16 162.39
  Q 352.16 152.83 359.95 149.69
  Q 360.76 149.36 365.59 148.66
  Q 371.51 147.80 375.62 143.12
  Z
  M 361.88 190.38
  Q 359.64 197.39 365.71 201.82
  A 1.35 1.35 0.0 0 0 367.59 201.54
  C 371.47 196.37 373.60 197.09 379.50 197.01
  C 383.89 196.95 386.17 189.18 386.42 185.80
  C 386.79 180.75 383.98 176.22 385.38 171.13
  Q 386.95 165.46 385.68 161.59
  Q 382.89 153.12 380.58 144.48
  A 0.91 0.91 0.0 0 0 379.08 144.05
  C 376.60 146.36 373.11 150.14 370.01 150.76
  C 367.12 151.33 361.27 151.76 359.26 153.46
  C 356.31 155.96 357.41 161.01 359.04 163.74
  C 361.95 168.62 362.22 171.50 361.72 177.10
  C 361.34 181.25 362.83 187.37 361.88 190.38
  Z"
/>
<path fill="#adcbff" d="
  M 361.88 190.38
  C 362.83 187.37 361.34 181.25 361.72 177.10
  C 362.22 171.50 361.95 168.62 359.04 163.74
  C 357.41 161.01 356.31 155.96 359.26 153.46
  C 361.27 151.76 367.12 151.33 370.01 150.76
  C 373.11 150.14 376.60 146.36 379.08 144.05
  A 0.91 0.91 0.0 0 1 380.58 144.48
  Q 382.89 153.12 385.68 161.59
  Q 386.95 165.46 385.38 171.13
  C 383.98 176.22 386.79 180.75 386.42 185.80
  C 386.17 189.18 383.89 196.95 379.50 197.01
  C 373.60 197.09 371.47 196.37 367.59 201.54
  A 1.35 1.35 0.0 0 1 365.71 201.82
  Q 359.64 197.39 361.88 190.38
  Z"
/>
<path fill="#3582ff" d="
  M 438.23 386.24
  A 1.10 1.09 74.1 0 0 437.43 387.69
  L 451.15 425.40
  A 0.25 0.25 0.0 0 1 450.85 425.73
  L 410.88 415.85
  A 1.95 1.95 0.0 0 0 408.70 416.81
  Q 407.36 419.27 405.56 421.85
  Q 396.47 434.87 387.28 447.68
  A 0.54 0.54 0.0 0 1 386.33 447.53
  L 374.95 411.60
  A 1.96 1.96 0.0 0 0 372.64 410.29
  L 337.20 418.59
  A 0.39 0.38 2.1 0 1 336.74 418.10
  L 348.38 381.52
  A 1.33 1.33 0.0 0 0 347.10 379.79
  C 335.04 379.88 321.97 380.56 309.88 379.05
  A 0.76 0.76 0.0 0 1 309.34 377.86
  L 328.62 349.57
  A 1.30 1.30 0.0 0 0 328.07 347.64
  Q 326.41 346.90 324.70 345.82
  Q 312.18 337.86 300.01 329.15
  A 0.26 0.26 0.0 0 1 300.04 328.71
  L 330.33 312.45
  A 1.57 1.56 -28.2 0 0 330.97 310.34
  L 315.18 280.64
  A 0.42 0.42 0.0 0 1 315.48 280.03
  L 346.30 274.66
  A 1.85 1.84 -9.8 0 0 347.80 272.54
  Q 347.58 271.23 346.69 269.28
  Q 340.31 255.18 334.00 241.03
  Q 333.81 240.60 334.26 240.75
  L 367.13 251.86
  A 2.11 2.11 0.0 0 0 369.69 250.82
  L 388.98 212.96
  A 0.08 0.08 0.0 0 1 389.13 212.96
  Q 396.24 229.58 404.73 245.53
  A 1.27 1.27 0.0 0 0 406.39 246.09
  L 445.59 227.89
  A 0.40 0.40 0.0 0 1 446.14 228.35
  L 437.54 262.28
  Q 437.08 264.12 438.95 264.39
  Q 441.52 264.77 444.21 265.45
  Q 456.80 268.64 469.57 270.97
  C 470.05 271.06 471.16 270.92 471.80 271.17
  Q 472.24 271.34 471.97 271.72
  L 448.97 304.49
  A 1.35 1.34 30.3 0 0 449.50 306.48
  L 481.97 321.76
  A 0.43 0.43 0.0 0 1 482.02 322.51
  L 450.30 343.12
  A 1.39 1.39 0.0 0 0 449.91 345.08
  L 472.91 378.27
  Q 473.28 378.80 472.65 378.94
  L 438.23 386.24
  Z
  M 412.09 336.26
  Q 411.14 336.71 410.44 335.93
  Q 404.90 329.70 402.19 321.78
  A 1.23 1.23 0.0 0 1 402.63 320.39
  Q 410.41 314.61 417.79 308.31
  C 423.19 303.71 421.85 295.85 420.78 290.49
  C 420.17 287.44 417.06 285.24 414.88 283.37
  A 1.37 1.36 -54.6 0 1 414.59 281.64
  C 416.69 278.04 419.91 274.71 423.72 272.80
  C 426.61 271.37 430.41 270.23 431.68 266.93
  Q 433.37 262.49 434.13 257.83
  A 2.26 2.26 0.0 0 0 432.87 255.43
  Q 431.48 254.77 429.87 255.53
  Q 421.63 259.44 413.34 263.25
  Q 409.25 265.13 406.56 261.74
  C 404.62 259.31 402.50 254.86 399.00 254.94
  C 393.20 255.07 387.77 256.13 382.27 252.78
  C 380.83 251.90 379.02 251.63 377.88 252.88
  Q 374.47 256.67 367.10 263.61
  Q 363.99 266.54 363.41 270.83
  C 363.05 273.46 364.55 279.27 363.56 281.52
  C 359.74 290.24 366.62 293.37 366.79 300.80
  Q 367.00 309.70 361.19 316.31
  C 357.33 320.70 347.74 322.91 348.42 330.36
  Q 348.55 331.83 348.99 332.53
  Q 352.21 337.67 353.82 343.47
  C 355.84 350.71 362.74 349.08 364.96 354.79
  Q 365.64 356.53 367.80 362.49
  C 368.99 365.77 371.62 366.17 374.28 367.13
  A 2.27 2.27 0.0 0 1 375.71 368.74
  C 379.15 383.56 383.38 398.17 386.31 413.10
  Q 386.67 414.96 388.02 415.63
  A 1.83 1.83 0.0 0 0 390.18 415.23
  Q 396.21 408.68 403.21 402.72
  C 405.82 400.50 405.37 397.79 404.96 394.89
  Q 404.05 388.46 403.39 381.98
  C 402.92 377.28 412.93 380.31 413.22 373.98
  A 1.68 1.67 78.7 0 1 414.17 372.55
  Q 419.92 369.82 425.98 367.42
  C 433.88 364.29 427.42 356.15 427.24 350.43
  C 427.15 347.51 427.97 343.65 424.51 342.16
  Q 420.58 340.47 418.84 337.23
  C 417.48 334.69 415.57 332.05 412.93 335.49
  Q 412.48 336.07 412.09 336.26
  Z"
/>
<path fill="#1b1919" fill-opacity="0.996" d="
  M 676.48 255.23
  C 680.57 261.02 686.92 269.85 687.93 276.07
  C 688.39 278.88 687.23 282.57 683.74 282.30
  C 679.26 281.96 676.29 277.96 673.46 274.89
  Q 673.12 274.52 672.93 274.99
  C 671.98 277.33 671.53 279.42 668.22 278.09
  Q 666.88 277.55 665.34 274.45
  Q 662.57 268.87 660.14 265.15
  Q 657.72 261.44 658.48 265.81
  C 658.95 268.51 659.59 273.90 654.77 273.11
  Q 652.88 272.80 651.46 271.51
  Q 644.87 265.57 647.34 257.40
  Q 648.00 255.24 647.24 254.04
  C 643.67 248.38 637.91 238.26 646.54 234.29
  Q 653.19 231.23 657.51 231.01
  C 659.25 230.92 662.06 232.38 664.02 233.61
  Q 669.53 237.05 676.04 237.88
  C 680.18 238.41 686.69 246.73 687.72 248.73
  C 689.84 252.86 687.67 256.06 683.41 256.32
  C 680.85 256.48 678.81 255.50 676.83 254.77
  Q 675.91 254.43 676.48 255.23
  Z
  M 672.27 252.62
  C 673.81 247.24 682.83 257.04 685.65 251.89
  A 0.82 0.81 43.4 0 0 685.62 251.06
  Q 682.61 246.41 678.57 242.65
  C 676.33 240.57 673.71 240.22 670.81 239.92
  Q 667.43 239.58 661.48 235.54
  C 657.36 232.75 651.49 235.19 647.23 237.19
  C 641.83 239.73 647.64 248.57 649.47 251.86
  C 651.17 254.93 650.54 255.79 650.01 258.99
  Q 648.78 266.41 654.99 270.26
  A 0.55 0.54 -74.4 0 0 655.82 269.79
  C 655.80 267.52 655.04 262.53 656.77 260.86
  A 2.44 2.43 38.7 0 1 659.75 260.54
  C 663.49 262.88 666.60 270.54 668.68 274.51
  Q 669.90 276.85 669.93 274.21
  L 669.97 271.69
  A 1.13 1.13 0.0 0 1 670.39 270.81
  Q 672.09 269.44 673.58 270.91
  C 676.47 273.77 679.51 277.58 683.16 279.43
  A 1.19 1.18 17.4 0 0 684.87 278.54
  C 685.78 271.87 675.43 259.60 672.35 253.50
  Q 672.14 253.08 672.27 252.62
  Z"
/>
<path fill="#1b1919" fill-opacity="0.996" d="
  M 412.09 336.26
  Q 412.48 336.07 412.93 335.49
  C 415.57 332.05 417.48 334.69 418.84 337.23
  Q 420.58 340.47 424.51 342.16
  C 427.97 343.65 427.15 347.51 427.24 350.43
  C 427.42 356.15 433.88 364.29 425.98 367.42
  Q 419.92 369.82 414.17 372.55
  A 1.68 1.67 78.7 0 0 413.22 373.98
  C 412.93 380.31 402.92 377.28 403.39 381.98
  Q 404.05 388.46 404.96 394.89
  C 405.37 397.79 405.82 400.50 403.21 402.72
  Q 396.21 408.68 390.18 415.23
  A 1.83 1.83 0.0 0 1 388.02 415.63
  Q 386.67 414.96 386.31 413.10
  C 383.38 398.17 379.15 383.56 375.71 368.74
  A 2.27 2.27 0.0 0 0 374.28 367.13
  C 371.62 366.17 368.99 365.77 367.80 362.49
  Q 365.64 356.53 364.96 354.79
  C 362.74 349.08 355.84 350.71 353.82 343.47
  Q 352.21 337.67 348.99 332.53
  Q 348.55 331.83 348.42 330.36
  C 347.74 322.91 357.33 320.70 361.19 316.31
  Q 367.00 309.70 366.79 300.80
  C 366.62 293.37 359.74 290.24 363.56 281.52
  C 364.55 279.27 363.05 273.46 363.41 270.83
  Q 363.99 266.54 367.10 263.61
  Q 374.47 256.67 377.88 252.88
  C 379.02 251.63 380.83 251.90 382.27 252.78
  C 387.77 256.13 393.20 255.07 399.00 254.94
  C 402.50 254.86 404.62 259.31 406.56 261.74
  Q 409.25 265.13 413.34 263.25
  Q 421.63 259.44 429.87 255.53
  Q 431.48 254.77 432.87 255.43
  A 2.26 2.26 0.0 0 1 434.13 257.83
  Q 433.37 262.49 431.68 266.93
  C 430.41 270.23 426.61 271.37 423.72 272.80
  C 419.91 274.71 416.69 278.04 414.59 281.64
  A 1.37 1.36 -54.6 0 0 414.88 283.37
  C 417.06 285.24 420.17 287.44 420.78 290.49
  C 421.85 295.85 423.19 303.71 417.79 308.31
  Q 410.41 314.61 402.63 320.39
  A 1.23 1.23 0.0 0 0 402.19 321.78
  Q 404.90 329.70 410.44 335.93
  Q 411.14 336.71 412.09 336.26
  Z
  M 369.81 304.37
  C 368.72 311.06 366.10 317.33 360.17 321.11
  C 356.41 323.50 352.87 325.36 351.59 328.77
  A 2.85 2.85 0.0 0 0 351.84 331.29
  Q 354.89 336.11 356.50 341.92
  C 358.31 348.45 364.79 346.97 367.43 352.79
  Q 368.85 355.93 370.15 360.37
  C 371.47 364.86 377.65 363.23 378.61 367.44
  Q 382.12 382.81 386.16 398.05
  C 387.21 402.01 388.02 406.58 389.10 410.83
  A 0.35 0.35 0.0 0 0 389.68 411.00
  L 401.15 400.28
  A 3.51 3.50 64.3 0 0 402.23 397.18
  Q 401.07 389.61 400.31 382.25
  C 399.64 375.86 405.32 376.71 409.18 374.97
  A 1.01 0.98 -7.7 0 0 409.75 374.24
  C 410.42 370.26 412.70 369.77 416.65 368.03
  Q 420.95 366.14 425.33 364.38
  Q 427.54 363.49 426.77 361.24
  C 425.30 356.92 423.86 352.50 424.11 348.39
  Q 424.17 347.32 424.02 346.23
  Q 423.95 345.73 423.55 345.42
  C 420.23 342.87 417.34 342.44 415.86 337.90
  A 0.53 0.53 0.0 0 0 414.95 337.73
  C 408.68 345.32 400.77 326.90 399.34 322.83
  C 398.85 321.42 398.92 319.43 400.07 318.57
  Q 405.23 314.70 415.07 306.32
  C 417.46 304.29 418.79 302.86 418.78 299.48
  Q 418.77 293.15 417.54 290.49
  C 415.43 285.90 408.13 285.28 412.80 278.78
  Q 418.43 270.92 426.18 268.33
  A 4.43 4.43 0.0 0 0 429.01 265.41
  L 430.50 260.44
  Q 431.11 258.41 429.18 259.28
  Q 423.02 262.05 416.12 265.19
  C 408.42 268.69 404.97 266.57 401.26 259.52
  A 2.93 2.91 -15.7 0 0 398.49 257.97
  C 392.03 258.38 386.48 258.89 380.77 255.23
  A 0.81 0.81 0.0 0 0 379.73 255.37
  Q 374.68 260.91 368.91 266.16
  C 366.37 268.48 366.01 271.90 366.72 275.46
  C 367.49 279.28 366.46 282.51 365.53 285.76
  A 4.62 4.61 -49.6 0 0 365.79 289.00
  C 368.17 294.10 370.82 298.11 369.81 304.37
  Z"
/>
<path fill="#adcbff" d="
  M 369.81 304.37
  C 370.82 298.11 368.17 294.10 365.79 289.00
  A 4.62 4.61 -49.6 0 1 365.53 285.76
  C 366.46 282.51 367.49 279.28 366.72 275.46
  C 366.01 271.90 366.37 268.48 368.91 266.16
  Q 374.68 260.91 379.73 255.37
  A 0.81 0.81 0.0 0 1 380.77 255.23
  C 386.48 258.89 392.03 258.38 398.49 257.97
  A 2.93 2.91 -15.7 0 1 401.26 259.52
  C 404.97 266.57 408.42 268.69 416.12 265.19
  Q 423.02 262.05 429.18 259.28
  Q 431.11 258.41 430.50 260.44
  L 429.01 265.41
  A 4.43 4.43 0.0 0 1 426.18 268.33
  Q 418.43 270.92 412.80 278.78
  C 408.13 285.28 415.43 285.90 417.54 290.49
  Q 418.77 293.15 418.78 299.48
  C 418.79 302.86 417.46 304.29 415.07 306.32
  Q 405.23 314.70 400.07 318.57
  C 398.92 319.43 398.85 321.42 399.34 322.83
  C 400.77 326.90 408.68 345.32 414.95 337.73
  A 0.53 0.53 0.0 0 1 415.86 337.90
  C 417.34 342.44 420.23 342.87 423.55 345.42
  Q 423.95 345.73 424.02 346.23
  Q 424.17 347.32 424.11 348.39
  C 423.86 352.50 425.30 356.92 426.77 361.24
  Q 427.54 363.49 425.33 364.38
  Q 420.95 366.14 416.65 368.03
  C 412.70 369.77 410.42 370.26 409.75 374.24
  A 1.01 0.98 -7.7 0 1 409.18 374.97
  C 405.32 376.71 399.64 375.86 400.31 382.25
  Q 401.07 389.61 402.23 397.18
  A 3.51 3.50 64.3 0 1 401.15 400.28
  L 389.68 411.00
  A 0.35 0.35 0.0 0 1 389.10 410.83
  C 388.02 406.58 387.21 402.01 386.16 398.05
  Q 382.12 382.81 378.61 367.44
  C 377.65 363.23 371.47 364.86 370.15 360.37
  Q 368.85 355.93 367.43 352.79
  C 364.79 346.97 358.31 348.45 356.50 341.92
  Q 354.89 336.11 351.84 331.29
  A 2.85 2.85 0.0 0 1 351.59 328.77
  C 352.87 325.36 356.41 323.50 360.17 321.11
  C 366.10 317.33 368.72 311.06 369.81 304.37
  Z"
/>
<path fill="#1b1919" fill-opacity="0.996" d="
  M 777.43 286.98
  Q 780.74 279.14 789.84 279.82
  C 794.04 280.13 793.47 286.11 792.76 288.76
  Q 792.63 289.25 792.22 289.56
  Q 786.67 293.71 781.68 298.44
  Q 780.90 299.17 778.60 299.94
  Q 778.14 300.09 777.70 299.91
  C 772.95 297.99 776.06 290.23 777.43 286.98
  Z
  M 788.93 282.58
  C 781.13 282.85 778.90 289.11 778.13 295.76
  Q 778.08 296.20 778.17 296.37
  Q 778.50 297.06 779.09 296.56
  L 789.62 287.52
  A 0.96 0.94 75.4 0 0 789.94 286.96
  Q 790.26 285.24 790.02 283.50
  Q 789.89 282.55 788.93 282.58
  Z"
/>
<path fill="#1b1919" fill-opacity="0.996" d="
  M 691.36 310.48
  C 690.39 309.09 690.94 306.94 692.39 306.13
  C 693.69 305.40 696.40 305.84 698.01 305.88
  Q 699.70 305.92 701.93 305.28
  C 705.80 304.19 709.37 306.31 712.73 307.82
  Q 713.53 308.18 714.90 307.56
  C 720.41 305.05 737.57 307.77 738.18 315.72
  C 739.24 329.57 721.72 325.20 715.51 320.96
  Q 712.60 318.97 709.84 317.96
  C 704.05 315.85 692.26 320.07 691.67 311.37
  Q 691.64 310.88 691.36 310.48
  Z
  M 694.19 308.70
  Q 693.64 309.23 693.40 309.96
  Q 693.23 310.50 693.63 310.90
  C 695.11 312.39 695.41 314.02 698.00 314.09
  C 702.13 314.19 706.36 313.74 710.50 314.99
  C 713.84 316.01 717.18 318.56 719.82 319.92
  C 723.75 321.95 735.75 324.69 735.53 316.76
  C 735.38 311.39 722.56 308.78 718.46 309.66
  C 716.43 310.09 714.62 311.49 712.49 310.79
  C 709.43 309.77 705.89 307.21 701.31 308.48
  C 698.87 309.15 697.08 309.04 694.79 308.53
  A 0.69 0.66 28.2 0 0 694.19 308.70
  Z"
/>
</svg>
