<?xml version="1.0" encoding="UTF-8" standalone="no"?>
<!DOCTYPE svg PUBLIC "-//W3C//DTD SVG 1.1//EN" "http://www.w3.org/Graphics/SVG/1.1/DTD/svg11.dtd">
<svg xmlns="http://www.w3.org/2000/svg" version="1.1" viewBox="0.00 0.00 1009.00 463.00">
<g stroke-width="2.00" fill="none" stroke-linecap="butt">
<path stroke="#345695" vector-effect="non-scaling-stroke" d="
  M 559.73 184.30
  Q 559.86 183.39 560.60 183.24
  L 593.80 176.67
  Q 594.31 176.57 594.01 176.15
  L 571.13 143.58
  Q 569.36 141.06 572.00 139.46
  L 603.10 120.62
  A 0.25 0.24 42.6 0 0 603.08 120.19
  L 571.05 104.66
  A 2.12 2.12 0.0 0 1 570.25 101.51
  L 593.82 68.58
  A 0.51 0.51 0.0 0 0 593.49 67.78
  L 559.17 62.49
  A 1.47 1.47 0.0 0 1 557.98 60.64
  L 567.72 25.56
  Q 567.86 25.04 567.37 25.25
  Q 547.58 33.52 528.64 43.58
  A 1.58 1.58 0.0 0 1 526.56 43.02
  C 520.15 32.72 515.08 21.02 509.72 10.14
  A 0.16 0.16 0.0 0 0 509.44 10.14
  L 490.81 47.77
  A 0.89 0.88 -68.7 0 1 489.78 48.23
  L 454.74 38.25
  A 0.27 0.27 0.0 0 0 454.42 38.62
  Q 461.05 53.27 467.11 68.23
  Q 467.69 69.67 468.48 70.65
  A 1.27 1.26 -33.8 0 1 468.10 72.56
  C 465.62 73.92 463.94 73.81 461.54 74.33
  C 453.11 76.12 444.93 78.42 436.38 79.54
  A 0.46 0.45 69.2 0 0 436.07 80.25
  L 453.76 106.26
  A 1.94 1.93 56.1 0 1 453.23 108.96
  L 424.16 128.20
  A 0.42 0.41 -45.3 0 0 424.16 128.89
  L 448.35 144.62
  A 2.07 2.07 0.0 0 1 448.97 147.45
  L 430.83 176.53
  A 0.25 0.25 0.0 0 0 431.03 176.92
  L 463.83 178.02
  Q 465.60 178.08 465.20 179.80
  L 457.20 214.48
  A 0.24 0.24 0.0 0 0 457.48 214.77
  Q 473.34 211.67 489.24 208.59
  Q 489.78 208.48 490.57 208.03
  Q 491.38 207.56 492.06 207.78
  A 2.43 1.70 5.0 0 1 493.51 209.00
  L 506.72 245.53
  A 0.41 0.41 0.0 0 0 507.41 245.66
  L 532.02 217.35
  A 3.41 3.41 0.0 0 1 535.44 216.28
  L 569.49 224.96
  A 0.45 0.44 -0.3 0 0 570.03 224.42
  Q 564.91 204.87 559.85 185.23
  Q 559.68 184.59 559.73 184.30"
/>
<path stroke="#436947" vector-effect="non-scaling-stroke" d="
  M 453.74 217.95
  A 1.09 1.08 -62.1 0 1 453.37 216.74
  Q 453.89 215.24 454.31 213.46
  Q 458.08 197.45 461.78 181.44
  Q 461.88 180.99 461.42 180.97
  L 428.10 179.77
  A 1.60 1.59 16.9 0 1 426.80 177.34
  L 445.43 147.34
  A 0.82 0.82 0.0 0 0 445.18 146.22
  L 420.29 129.99
  A 1.74 1.74 0.0 0 1 420.28 127.09
  L 449.83 107.44
  A 0.81 0.81 0.0 0 0 450.05 106.31
  L 432.25 80.00
  A 1.89 1.89 0.0 0 1 433.50 77.08
  C 437.47 76.42 441.58 75.93 445.47 75.00
  Q 454.91 72.75 464.35 70.74
  A 0.38 0.38 0.0 0 0 464.62 70.22
  L 461.82 63.78
  A 1.78 1.78 0.0 0 0 460.29 62.72
  Q 456.77 62.55 453.87 60.53
  A 2.55 2.54 -44.5 0 0 450.99 60.51
  Q 448.21 62.38 444.75 62.92
  C 441.12 63.47 439.99 63.79 437.19 65.44
  C 431.33 68.90 426.82 61.92 420.76 63.05
  Q 409.45 65.14 398.01 66.22
  Q 391.75 66.80 369.26 70.25
  Q 355.22 72.40 350.49 73.75
  C 345.14 75.28 343.39 79.24 340.17 83.16
  C 337.70 86.17 333.03 86.55 329.33 86.98
  Q 328.29 87.09 324.22 87.91
  C 319.78 88.81 316.08 86.61 312.60 90.35
  Q 310.43 92.68 308.33 95.09
  C 305.78 98.03 299.54 99.50 295.44 100.11
  C 290.05 100.92 279.88 105.34 277.78 97.15
  A 1.21 1.20 -24.1 0 0 275.94 96.45
  C 271.56 99.40 267.54 99.69 261.90 99.21
  Q 254.69 98.60 247.50 97.77
  C 240.81 96.99 238.43 90.89 235.27 85.93
  A 1.51 1.51 0.0 0 0 233.36 85.37
  Q 229.87 87.00 226.02 87.02
  A 0.65 0.63 -81.3 0 0 225.41 87.48
  C 220.65 103.07 214.37 115.78 201.77 125.29
  C 196.17 129.52 189.23 132.30 182.53 134.83
  Q 178.82 136.24 176.70 138.44
  Q 168.66 146.79 160.16 154.68
  Q 157.98 156.70 157.80 159.24
  C 157.51 163.40 156.60 164.78 153.76 168.31
  C 149.38 173.73 148.24 183.58 146.83 192.37
  Q 146.19 196.39 143.82 200.04
  A 1.31 1.31 0.0 0 0 144.01 201.68
  C 147.18 204.78 150.92 208.42 148.55 213.34
  C 145.33 220.02 138.24 232.73 131.83 236.12
  C 127.44 238.44 120.49 241.51 117.16 245.15
  C 113.57 249.07 108.71 255.86 103.76 257.52
  Q 94.43 260.64 85.09 263.77
  Q 82.20 264.74 81.28 266.76
  C 78.90 271.95 76.68 278.20 73.35 282.55
  C 69.43 287.69 64.01 292.01 59.09 296.16
  C 55.00 299.60 53.49 302.17 51.35 306.81
  Q 45.36 319.80 42.17 329.98
  Q 40.25 336.10 38.10 338.81
  C 35.51 342.08 27.26 346.96 26.20 351.73
  Q 24.22 360.70 18.80 368.02
  Q 18.18 368.85 17.92 369.57
  C 16.39 373.85 15.79 378.18 14.07 382.43
  C 12.07 387.36 7.72 390.56 6.06 395.38
  Q 4.38 400.23 4.03 406.10
  Q 3.99 406.82 4.71 406.84
  Q 35.52 407.83 66.71 408.08
  C 69.53 408.10 70.06 408.52 71.31 406.06
  C 76.63 395.51 72.89 389.91 71.08 380.25
  C 69.90 373.94 73.70 370.68 77.43 366.54
  C 81.64 361.88 86.43 362.24 92.13 361.46
  Q 92.65 361.39 92.66 360.86
  L 93.87 306.45
  Q 93.89 305.56 94.79 305.53
  L 160.54 303.59
  Q 160.92 303.58 160.93 303.20
  L 161.94 276.10
  A 1.43 1.43 0.0 0 1 164.21 275.00
  Q 253.51 340.11 343.05 405.31
  C 344.83 406.61 346.32 406.88 347.01 409.29
  Q 348.48 414.44 349.53 419.63
  A 2.61 2.60 0.4 0 0 351.53 421.65
  C 357.69 422.99 357.41 424.37 359.70 429.52
  A 2.13 2.12 -16.0 0 0 361.95 430.76
  C 365.51 430.23 368.49 430.03 371.74 432.12
  C 374.37 433.82 382.34 437.99 382.98 440.99
  Q 384.63 448.66 385.26 456.51
  A 1.53 1.51 -83.9 0 0 386.33 457.85
  Q 392.00 459.60 397.81 458.47
  C 402.23 457.62 407.97 454.42 412.24 453.26
  C 416.23 452.18 421.68 452.12 426.72 451.30
  C 429.28 450.88 432.88 450.88 434.96 449.21
  C 437.74 446.99 440.87 443.32 443.88 440.80
  C 467.75 420.73 492.76 401.31 518.97 384.39
  Q 533.28 375.15 547.51 365.80
  Q 552.04 362.82 556.23 359.35
  C 558.19 357.72 560.22 357.27 562.52 357.98
  Q 567.68 359.59 587.34 366.51
  C 592.67 368.38 596.43 374.12 600.23 377.28
  A 1.13 1.12 58.8 0 0 601.18 377.52
  Q 602.38 377.27 603.48 376.72
  Q 619.32 368.70 635.16 360.67
  C 638.96 358.75 638.98 360.57 641.91 362.28
  Q 713.95 404.44 786.12 446.87
  A 0.42 0.42 0.0 0 0 786.75 446.54
  L 787.48 437.44
  A 1.48 1.47 1.7 0 1 788.92 436.09
  L 806.76 435.67
  A 0.90 0.90 0.0 0 0 807.64 434.75
  L 806.59 393.56
  Q 806.55 391.90 808.21 391.91
  Q 864.73 392.00 921.00 391.68
  Q 924.39 391.66 926.78 391.35
  Q 927.30 391.28 927.66 390.91
  C 929.52 388.94 933.17 384.79 935.74 384.50
  C 939.38 384.09 939.10 387.76 939.22 390.03
  A 0.73 0.72 -87.5 0 0 939.83 390.70
  Q 950.70 392.39 961.39 392.88
  C 966.81 393.13 970.87 395.20 975.53 397.51
  Q 978.33 398.90 979.57 396.34
  Q 980.88 393.60 982.52 391.04
  C 985.67 386.12 993.17 389.61 994.94 385.96
  C 997.09 381.54 1002.16 371.66 1000.38 366.44
  C 998.34 360.43 996.35 354.73 996.65 348.25
  Q 997.10 338.38 996.72 328.51
  Q 996.63 326.22 996.10 325.42
  Q 988.49 314.14 976.63 294.66
  Q 973.89 290.15 974.35 285.40
  C 974.58 282.95 974.52 280.56 972.92 279.09
  C 967.81 274.39 966.97 271.98 965.65 265.29
  A 5.58 5.56 13.2 0 0 963.60 261.99
  C 959.50 258.85 954.50 255.91 952.54 250.75
  C 949.48 242.71 947.22 234.29 942.59 226.48
  Q 941.14 224.03 940.87 222.88
  C 940.07 219.40 943.06 212.44 946.83 211.42
  Q 949.13 210.80 949.64 213.36
  C 950.73 218.87 954.02 224.05 957.56 229.40
  Q 960.94 234.50 961.74 237.24
  C 962.93 241.28 961.11 244.11 964.69 248.05
  Q 971.65 255.70 980.21 260.78
  Q 982.05 261.87 982.56 259.80
  Q 984.25 252.93 985.18 245.50
  Q 985.79 240.57 988.83 227.46
  Q 989.70 223.73 989.01 222.24
  Q 981.46 205.79 974.13 188.86
  A 1.11 1.10 -31.4 0 0 972.41 188.45
  C 971.15 189.50 969.81 190.00 968.06 190.11
  Q 961.72 190.53 955.49 191.71
  Q 948.49 193.04 943.38 189.27
  Q 942.36 188.52 941.38 189.31
  C 936.93 192.87 929.83 189.38 928.40 184.26
  A 2.14 2.13 78.0 0 0 926.04 182.72
  Q 923.44 183.10 921.19 182.90
  C 918.53 182.66 917.73 181.25 914.78 182.68
  C 913.41 183.35 912.53 183.92 910.88 183.93
  C 906.59 183.93 904.78 187.59 902.40 187.93
  C 900.18 188.24 898.24 188.31 896.59 190.05
  C 893.80 192.99 892.12 195.19 887.51 196.55
  Q 882.00 198.19 876.25 198.24
  C 872.54 198.28 869.70 196.15 866.66 193.83
  C 863.50 191.42 858.55 192.41 854.47 188.99
  C 851.64 186.62 848.45 187.48 845.37 185.78
  C 839.98 182.80 836.50 181.01 829.25 180.86
  Q 818.13 180.63 807.00 180.71
  Q 803.20 180.73 800.41 178.44
  A 1.59 1.59 0.0 0 1 799.90 177.64
  C 799.32 175.41 798.49 172.27 795.75 171.87
  C 790.31 171.07 784.66 171.60 779.67 169.00
  C 775.65 166.90 770.75 166.39 766.33 165.52
  C 762.14 164.68 761.31 162.28 760.00 159.12
  Q 759.40 157.69 757.87 157.47
  C 748.41 156.07 739.22 153.67 729.44 153.94
  C 722.77 154.13 713.87 161.04 708.29 164.76
  A 3.20 3.18 72.6 0 0 706.87 167.49
  C 707.06 174.85 708.23 181.49 710.99 191.99
  Q 712.02 195.93 710.18 197.65
  Q 706.75 200.87 694.76 209.06
  Q 692.56 210.57 690.24 211.36
  A 1.99 1.97 50.0 0 1 688.62 211.21
  Q 671.15 201.26 654.84 190.12
  C 648.76 185.98 642.64 186.71 635.50 187.72
  Q 628.59 188.70 625.41 182.81
  Q 619.75 172.31 613.57 160.33
  A 3.56 3.54 69.1 0 0 609.55 158.52
  C 602.78 160.26 599.34 160.72 592.90 157.10
  Q 586.04 153.23 579.79 149.47
  Q 578.12 148.47 579.25 150.05
  L 597.58 175.90
  A 2.14 2.13 -23.3 0 1 596.25 179.23
  L 563.72 185.64
  A 0.73 0.72 77.6 0 0 563.16 186.53
  L 574.05 227.42
  A 1.18 1.17 -0.3 0 1 572.62 228.86
  L 535.22 219.20
  A 0.99 0.99 0.0 0 0 534.23 219.51
  L 507.86 249.75
  A 1.86 1.85 55.5 0 1 504.72 249.16
  L 491.26 212.23
  A 1.07 1.06 74.8 0 0 490.07 211.54
  Q 472.68 214.73 455.24 218.21
  Q 454.33 218.39 453.74 217.95"
/>
<path stroke="#345695" vector-effect="non-scaling-stroke" d="
  M 536.71 77.28
  C 538.84 73.56 541.84 72.52 545.41 71.35
  Q 547.63 70.63 548.67 69.34
  C 551.27 66.13 552.79 60.99 553.78 57.03
  A 2.28 2.28 0.0 0 0 552.24 54.29
  C 545.88 52.35 535.38 64.30 529.89 59.66
  C 526.98 57.21 523.48 53.79 520.03 52.24
  Q 518.52 51.56 516.38 51.85
  Q 509.05 52.82 501.72 51.86
  C 500.03 51.64 498.07 51.83 497.17 53.20
  C 494.56 57.18 492.48 60.69 488.57 62.33
  C 486.42 63.23 485.33 63.93 485.27 66.25
  C 485.17 69.94 485.34 74.22 484.25 77.76
  C 483.64 79.75 482.25 81.94 483.30 84.13
  C 488.53 95.04 491.60 103.17 482.72 112.55
  C 477.58 117.97 466.52 119.80 470.41 129.36
  Q 472.71 135.01 473.17 139.49
  C 473.67 144.35 476.86 145.49 480.20 147.64
  C 485.00 150.73 486.37 155.33 488.41 160.30
  C 490.36 165.04 496.32 162.64 497.65 167.67
  C 501.01 180.31 503.27 193.40 505.90 206.23
  C 506.53 209.27 507.19 217.85 512.75 213.33
  C 517.19 209.72 526.64 201.15 525.43 194.80
  Q 523.91 186.80 524.03 180.26
  Q 524.07 178.32 525.49 177.70
  C 528.80 176.27 531.89 175.52 533.06 171.69
  C 535.09 165.07 553.73 168.54 550.44 158.65
  C 549.28 155.16 547.96 152.83 548.60 149.35
  C 549.23 145.91 550.57 141.67 546.08 140.20
  Q 544.10 139.56 542.37 138.41
  Q 541.95 138.13 541.75 137.67
  C 539.57 132.62 540.28 131.62 534.01 132.81
  Q 533.47 132.91 533.02 132.59
  C 529.37 129.96 525.90 124.39 523.72 120.45
  Q 522.92 119.02 524.17 117.95
  Q 532.25 111.08 540.91 104.62
  C 544.00 102.31 543.26 97.73 543.12 93.90
  C 542.90 88.03 541.64 85.47 537.39 81.85
  C 536.15 80.80 535.82 78.81 536.71 77.28"
/>
<path stroke="#838895" vector-effect="non-scaling-stroke" d="
  M 534.38 82.86
  C 529.12 75.21 538.69 70.25 544.57 68.44
  A 4.42 4.40 1.6 0 0 547.40 65.78
  L 550.18 58.41
  Q 550.92 56.46 549.05 57.39
  Q 540.33 61.70 535.70 63.15
  C 529.35 65.14 523.94 57.71 519.05 54.76
  Q 518.58 54.48 518.04 54.58
  Q 509.41 56.19 500.73 54.61
  A 0.96 0.95 -64.3 0 0 499.83 54.93
  C 496.24 59.24 494.60 63.41 488.85 65.52
  A 0.76 0.75 -9.9 0 0 488.35 66.23
  C 488.33 71.85 488.36 75.75 486.28 81.04
  C 485.93 81.92 485.90 83.30 486.24 84.02
  Q 489.32 90.43 491.02 97.32
  C 493.10 105.73 486.16 114.27 479.82 118.68
  C 476.79 120.79 470.92 123.00 473.08 127.91
  Q 475.56 133.54 476.21 139.00
  C 476.48 141.28 477.20 142.38 479.17 143.33
  Q 486.67 146.93 489.40 154.78
  Q 490.18 157.02 491.38 159.07
  C 493.59 162.83 498.97 160.20 500.58 166.49
  C 503.72 178.76 505.85 191.29 508.26 203.72
  Q 508.93 207.18 510.18 210.69
  Q 510.39 211.30 510.90 210.89
  C 514.92 207.60 522.57 200.27 522.25 195.76
  C 521.93 191.26 518.31 178.22 523.22 175.43
  Q 525.83 173.95 528.57 172.94
  A 2.01 2.01 0.0 0 0 529.86 171.36
  Q 530.40 167.84 534.06 166.49
  Q 539.85 164.34 546.58 162.08
  A 1.68 1.67 -22.4 0 0 547.55 159.75
  C 544.80 154.17 545.52 150.50 546.05 144.47
  Q 546.14 143.46 545.18 143.13
  C 541.42 141.82 538.42 140.48 537.85 136.08
  Q 537.74 135.28 536.95 135.45
  Q 532.16 136.43 529.68 133.81
  C 526.41 130.37 516.73 120.01 522.05 115.59
  Q 530.51 108.57 538.93 102.47
  A 2.85 2.85 0.0 0 0 540.11 100.22
  Q 540.21 94.71 539.77 90.31
  C 539.47 87.31 535.59 84.61 534.38 82.86"
/>
</g>
<path fill="#322b2b" d="
  M 164.84 279.77
  Q 163.83 292.02 164.17 304.34
  Q 164.23 306.60 161.97 306.66
  L 97.28 308.52
  Q 96.61 308.54 96.60 309.25
  L 95.80 362.91
  A 1.70 1.69 2.4 0 1 93.99 364.57
  C 90.30 364.31 83.78 364.82 81.11 367.37
  Q 75.68 372.54 74.62 374.46
  C 72.80 377.74 75.05 384.27 75.98 387.95
  C 78.06 396.11 77.32 402.98 72.47 410.03
  Q 71.62 411.26 70.00 411.23
  C 47.78 410.94 25.46 409.87 3.34 410.13
  A 2.40 2.39 1.7 0 1 0.92 407.57
  C 1.51 399.15 2.64 391.81 9.22 385.22
  C 12.08 382.34 13.18 374.76 14.59 370.19
  C 16.03 365.50 20.21 361.66 21.45 357.45
  C 23.12 351.81 23.88 347.79 27.79 344.31
  C 32.35 340.25 36.57 337.47 38.63 330.96
  Q 43.79 314.61 51.03 300.74
  C 52.35 298.21 54.29 296.20 56.76 294.18
  Q 63.81 288.43 68.96 283.22
  C 73.43 278.70 75.61 272.04 78.18 266.22
  C 79.43 263.37 81.34 262.13 84.43 261.03
  Q 93.67 257.75 102.98 254.71
  C 106.86 253.45 112.34 245.81 114.56 243.56
  C 118.83 239.25 125.08 236.43 130.46 233.45
  C 136.33 230.20 142.15 219.22 145.64 212.66
  C 147.75 208.69 143.65 205.51 141.21 203.03
  C 138.81 200.59 143.32 195.98 143.71 193.50
  Q 145.11 184.50 147.19 175.63
  Q 148.57 169.77 152.39 165.25
  Q 154.07 163.26 154.47 161.83
  C 154.98 159.98 154.65 158.10 155.42 156.48
  Q 156.55 154.08 158.50 152.25
  Q 166.90 144.40 174.81 136.06
  C 178.40 132.28 185.79 130.47 190.68 128.27
  C 208.40 120.29 216.81 105.27 222.56 87.03
  Q 222.71 86.56 222.64 86.07
  Q 222.41 84.48 223.53 83.95
  Q 224.03 83.72 225.46 83.84
  Q 228.70 84.14 232.55 82.52
  Q 235.75 81.18 237.82 84.44
  C 240.51 88.67 242.47 94.13 248.17 94.82
  Q 255.79 95.75 263.45 96.32
  C 268.41 96.69 271.03 95.79 275.21 93.61
  C 278.67 91.80 280.36 95.69 281.40 98.05
  A 1.16 1.16 0.0 0 0 282.12 98.70
  C 285.26 99.69 289.43 98.28 292.57 97.58
  C 296.07 96.80 300.40 96.54 304.25 94.37
  C 306.86 92.91 308.44 90.10 310.54 88.07
  Q 314.23 84.51 319.13 85.16
  C 323.05 85.68 324.39 84.14 327.75 83.94
  C 331.77 83.70 336.04 83.98 338.77 80.16
  C 341.79 75.95 343.75 72.81 349.50 71.01
  Q 355.91 68.99 374.46 66.31
  Q 388.69 64.26 402.99 62.66
  Q 412.16 61.64 421.28 60.18
  Q 424.85 59.60 427.22 60.81
  C 429.51 61.98 432.55 64.39 435.16 62.86
  Q 439.37 60.40 444.17 59.95
  Q 446.12 59.77 447.69 59.03
  C 449.42 58.21 451.80 56.83 453.74 57.58
  Q 456.91 58.81 459.24 60.08
  Q 460.81 60.93 460.11 59.30
  Q 455.21 47.78 450.03 36.30
  C 449.77 35.73 449.81 35.14 449.93 34.56
  A 1.05 1.04 19.2 0 1 451.43 33.84
  Q 452.49 34.39 453.80 34.78
  Q 471.11 39.88 488.26 44.80
  A 0.83 0.83 0.0 0 0 489.23 44.38
  Q 498.91 24.86 508.50 5.22
  Q 509.10 3.99 510.60 4.68
  Q 511.02 4.87 511.11 5.32
  Q 511.41 6.79 511.66 7.32
  Q 519.33 23.14 527.58 39.28
  Q 528.18 40.44 529.34 39.84
  Q 549.05 29.66 569.48 21.02
  A 0.88 0.87 52.1 0 1 570.34 21.13
  Q 571.58 22.08 571.00 24.26
  Q 566.39 41.79 561.35 59.22
  Q 561.19 59.79 561.77 59.88
  L 597.22 65.38
  A 1.46 1.46 0.0 0 1 598.18 67.67
  L 573.60 101.95
  A 0.54 0.53 -59.7 0 0 573.80 102.74
  L 607.34 119.04
  A 1.40 1.40 0.0 0 1 607.45 121.50
  L 574.48 141.48
  A 1.08 1.08 0.0 0 0 574.43 143.30
  C 576.73 144.87 579.47 145.79 581.48 147.01
  C 586.90 150.30 598.37 158.57 604.49 156.78
  C 613.05 154.29 614.72 155.61 618.78 163.72
  Q 624.74 175.59 628.81 182.43
  Q 630.28 184.90 633.50 184.87
  C 642.86 184.76 648.03 182.08 657.03 188.00
  C 667.67 195.00 678.27 201.96 689.35 208.11
  A 1.71 1.70 -48.2 0 0 691.17 208.00
  L 707.68 196.02
  Q 708.16 195.68 708.16 195.09
  Q 708.15 192.44 707.80 191.24
  Q 705.08 181.91 704.08 172.24
  C 703.72 168.75 703.01 165.14 705.82 163.09
  C 711.79 158.74 722.02 150.97 730.17 150.84
  C 739.42 150.69 747.91 153.24 757.00 154.25
  C 764.28 155.06 761.72 161.71 767.02 162.64
  Q 771.04 163.35 775.04 164.16
  C 778.96 164.95 782.17 167.60 786.18 167.90
  Q 794.45 168.53 797.25 169.02
  C 799.97 169.49 801.97 174.04 803.07 176.12
  A 3.18 3.17 75.9 0 0 805.89 177.81
  Q 812.73 177.78 819.63 177.81
  C 831.97 177.86 838.53 177.48 847.30 183.63
  A 1.79 1.71 -24.6 0 0 848.20 183.94
  Q 853.31 184.24 854.65 185.31
  C 856.98 187.18 858.63 188.47 861.79 189.01
  C 866.05 189.73 868.37 191.57 871.54 193.60
  Q 873.57 194.90 875.77 195.01
  C 883.13 195.38 889.97 193.93 894.53 187.79
  C 896.63 184.96 900.54 186.37 902.53 184.54
  C 906.38 181.00 910.19 181.85 914.28 179.59
  C 917.47 177.83 919.07 179.82 921.99 179.87
  C 926.80 179.96 928.79 178.53 931.22 183.65
  Q 932.90 187.17 937.57 187.94
  A 1.71 1.68 -68.4 0 0 939.26 187.19
  C 941.35 183.96 944.89 186.75 947.14 188.04
  C 949.35 189.31 954.25 189.25 956.01 188.80
  Q 960.67 187.58 965.50 187.57
  Q 968.89 187.56 971.42 185.47
  Q 971.79 185.16 972.26 185.13
  Q 975.62 184.88 976.91 187.88
  Q 984.22 204.83 991.95 221.59
  C 992.47 222.72 992.22 226.27 991.85 227.95
  Q 990.09 235.83 988.71 243.78
  Q 987.41 251.35 985.76 258.85
  C 985.37 260.65 984.81 263.70 982.74 264.28
  C 977.89 265.64 964.10 251.93 961.00 248.27
  C 957.99 244.72 960.01 238.63 957.20 234.31
  Q 953.12 228.06 949.33 221.62
  C 948.31 219.88 947.65 217.66 946.64 215.74
  Q 946.33 215.14 945.98 215.72
  C 944.28 218.61 942.58 221.09 944.74 224.24
  C 949.52 231.18 952.48 241.40 955.26 249.76
  C 957.94 257.83 968.03 256.88 969.07 267.72
  C 969.71 274.53 976.69 276.04 977.37 281.75
  C 977.86 285.86 976.25 288.46 978.80 292.72
  Q 988.27 308.58 998.66 323.84
  Q 1000.32 326.28 1000.21 330.75
  C 1000.03 338.24 998.82 346.75 999.88 353.40
  Q 1000.78 359.00 1003.05 364.97
  C 1005.48 371.34 999.83 383.25 996.97 388.46
  C 994.88 392.27 987.24 389.44 985.19 392.61
  Q 983.15 395.77 981.15 398.94
  C 978.49 403.17 972.33 399.27 968.08 397.38
  Q 965.50 396.23 962.70 396.04
  C 954.23 395.45 945.74 394.92 937.43 393.02
  A 1.82 1.81 -83.4 0 1 936.01 391.22
  L 936.06 388.25
  A 0.56 0.56 0.0 0 0 935.12 387.82
  Q 932.13 390.51 929.50 393.03
  C 927.36 395.08 925.90 394.48 923.32 394.50
  Q 866.65 394.86 810.01 395.02
  A 0.48 0.47 -1.1 0 0 809.53 395.51
  L 810.59 436.93
  A 1.33 1.33 0.0 0 1 809.33 438.30
  L 790.72 439.26
  A 0.53 0.52 89.4 0 0 790.22 439.78
  L 789.93 449.45
  A 1.77 1.77 0.0 0 1 787.27 450.93
  L 638.55 363.73
  A 2.84 2.84 0.0 0 0 635.84 363.64
  Q 620.14 371.55 604.11 379.70
  Q 601.90 380.82 600.24 380.34
  C 596.49 379.24 591.35 372.87 589.84 371.15
  Q 589.07 370.26 586.19 369.23
  Q 574.63 365.11 563.01 361.18
  Q 560.62 360.38 558.85 361.62
  C 544.72 371.56 529.08 380.96 515.69 390.06
  Q 486.17 410.11 455.41 435.17
  Q 445.66 443.11 439.18 449.38
  C 436.09 452.36 433.86 453.52 429.88 453.95
  C 426.28 454.34 422.95 454.81 418.95 455.13
  C 412.72 455.63 407.17 458.30 401.35 460.62
  C 396.94 462.39 392.06 461.74 387.18 461.15
  C 384.01 460.77 382.52 459.36 382.26 456.23
  Q 381.86 451.40 380.50 443.50
  C 379.84 439.61 374.77 437.59 371.76 435.71
  C 367.85 433.26 365.86 433.17 361.51 433.78
  C 357.92 434.29 356.10 429.37 355.23 426.76
  A 2.67 2.66 81.5 0 0 352.76 424.93
  C 344.72 424.77 346.26 415.15 344.22 410.53
  C 343.57 409.08 341.05 407.60 339.88 406.74
  Q 252.65 343.06 165.27 279.57
  Q 164.88 279.29 164.84 279.77
  Z
  M 559.73 184.30
  Q 559.86 183.39 560.60 183.24
  L 593.80 176.67
  Q 594.31 176.57 594.01 176.15
  L 571.13 143.58
  Q 569.36 141.06 572.00 139.46
  L 603.10 120.62
  A 0.25 0.24 42.6 0 0 603.08 120.19
  L 571.05 104.66
  A 2.12 2.12 0.0 0 1 570.25 101.51
  L 593.82 68.58
  A 0.51 0.51 0.0 0 0 593.49 67.78
  L 559.17 62.49
  A 1.47 1.47 0.0 0 1 557.98 60.64
  L 567.72 25.56
  Q 567.86 25.04 567.37 25.25
  Q 547.58 33.52 528.64 43.58
  A 1.58 1.58 0.0 0 1 526.56 43.02
  C 520.15 32.72 515.08 21.02 509.72 10.14
  A 0.16 0.16 0.0 0 0 509.44 10.14
  L 490.81 47.77
  A 0.89 0.88 -68.7 0 1 489.78 48.23
  L 454.74 38.25
  A 0.27 0.27 0.0 0 0 454.42 38.62
  Q 461.05 53.27 467.11 68.23
  Q 467.69 69.67 468.48 70.65
  A 1.27 1.26 -33.8 0 1 468.10 72.56
  C 465.62 73.92 463.94 73.81 461.54 74.33
  C 453.11 76.12 444.93 78.42 436.38 79.54
  A 0.46 0.45 69.2 0 0 436.07 80.25
  L 453.76 106.26
  A 1.94 1.93 56.1 0 1 453.23 108.96
  L 424.16 128.20
  A 0.42 0.41 -45.3 0 0 424.16 128.89
  L 448.35 144.62
  A 2.07 2.07 0.0 0 1 448.97 147.45
  L 430.83 176.53
  A 0.25 0.25 0.0 0 0 431.03 176.92
  L 463.83 178.02
  Q 465.60 178.08 465.20 179.80
  L 457.20 214.48
  A 0.24 0.24 0.0 0 0 457.48 214.77
  Q 473.34 211.67 489.24 208.59
  Q 489.78 208.48 490.57 208.03
  Q 491.38 207.56 492.06 207.78
  A 2.43 1.70 5.0 0 1 493.51 209.00
  L 506.72 245.53
  A 0.41 0.41 0.0 0 0 507.41 245.66
  L 532.02 217.35
  A 3.41 3.41 0.0 0 1 535.44 216.28
  L 569.49 224.96
  A 0.45 0.44 -0.3 0 0 570.03 224.42
  Q 564.91 204.87 559.85 185.23
  Q 559.68 184.59 559.73 184.30
  Z
  M 453.74 217.95
  A 1.09 1.08 -62.1 0 1 453.37 216.74
  Q 453.89 215.24 454.31 213.46
  Q 458.08 197.45 461.78 181.44
  Q 461.88 180.99 461.42 180.97
  L 428.10 179.77
  A 1.60 1.59 16.9 0 1 426.80 177.34
  L 445.43 147.34
  A 0.82 0.82 0.0 0 0 445.18 146.22
  L 420.29 129.99
  A 1.74 1.74 0.0 0 1 420.28 127.09
  L 449.83 107.44
  A 0.81 0.81 0.0 0 0 450.05 106.31
  L 432.25 80.00
  A 1.89 1.89 0.0 0 1 433.50 77.08
  C 437.47 76.42 441.58 75.93 445.47 75.00
  Q 454.91 72.75 464.35 70.74
  A 0.38 0.38 0.0 0 0 464.62 70.22
  L 461.82 63.78
  A 1.78 1.78 0.0 0 0 460.29 62.72
  Q 456.77 62.55 453.87 60.53
  A 2.55 2.54 -44.5 0 0 450.99 60.51
  Q 448.21 62.38 444.75 62.92
  C 441.12 63.47 439.99 63.79 437.19 65.44
  C 431.33 68.90 426.82 61.92 420.76 63.05
  Q 409.45 65.14 398.01 66.22
  Q 391.75 66.80 369.26 70.25
  Q 355.22 72.40 350.49 73.75
  C 345.14 75.28 343.39 79.24 340.17 83.16
  C 337.70 86.17 333.03 86.55 329.33 86.98
  Q 328.29 87.09 324.22 87.91
  C 319.78 88.81 316.08 86.61 312.60 90.35
  Q 310.43 92.68 308.33 95.09
  C 305.78 98.03 299.54 99.50 295.44 100.11
  C 290.05 100.92 279.88 105.34 277.78 97.15
  A 1.21 1.20 -24.1 0 0 275.94 96.45
  C 271.56 99.40 267.54 99.69 261.90 99.21
  Q 254.69 98.60 247.50 97.77
  C 240.81 96.99 238.43 90.89 235.27 85.93
  A 1.51 1.51 0.0 0 0 233.36 85.37
  Q 229.87 87.00 226.02 87.02
  A 0.65 0.63 -81.3 0 0 225.41 87.48
  C 220.65 103.07 214.37 115.78 201.77 125.29
  C 196.17 129.52 189.23 132.30 182.53 134.83
  Q 178.82 136.24 176.70 138.44
  Q 168.66 146.79 160.16 154.68
  Q 157.98 156.70 157.80 159.24
  C 157.51 163.40 156.60 164.78 153.76 168.31
  C 149.38 173.73 148.24 183.58 146.83 192.37
  Q 146.19 196.39 143.82 200.04
  A 1.31 1.31 0.0 0 0 144.01 201.68
  C 147.18 204.78 150.92 208.42 148.55 213.34
  C 145.33 220.02 138.24 232.73 131.83 236.12
  C 127.44 238.44 120.49 241.51 117.16 245.15
  C 113.57 249.07 108.71 255.86 103.76 257.52
  Q 94.43 260.64 85.09 263.77
  Q 82.20 264.74 81.28 266.76
  C 78.90 271.95 76.68 278.20 73.35 282.55
  C 69.43 287.69 64.01 292.01 59.09 296.16
  C 55.00 299.60 53.49 302.17 51.35 306.81
  Q 45.36 319.80 42.17 329.98
  Q 40.25 336.10 38.10 338.81
  C 35.51 342.08 27.26 346.96 26.20 351.73
  Q 24.22 360.70 18.80 368.02
  Q 18.18 368.85 17.92 369.57
  C 16.39 373.85 15.79 378.18 14.07 382.43
  C 12.07 387.36 7.72 390.56 6.06 395.38
  Q 4.38 400.23 4.03 406.10
  Q 3.99 406.82 4.71 406.84
  Q 35.52 407.83 66.71 408.08
  C 69.53 408.10 70.06 408.52 71.31 406.06
  C 76.63 395.51 72.89 389.91 71.08 380.25
  C 69.90 373.94 73.70 370.68 77.43 366.54
  C 81.64 361.88 86.43 362.24 92.13 361.46
  Q 92.65 361.39 92.66 360.86
  L 93.87 306.45
  Q 93.89 305.56 94.79 305.53
  L 160.54 303.59
  Q 160.92 303.58 160.93 303.20
  L 161.94 276.10
  A 1.43 1.43 0.0 0 1 164.21 275.00
  Q 253.51 340.11 343.05 405.31
  C 344.83 406.61 346.32 406.88 347.01 409.29
  Q 348.48 414.44 349.53 419.63
  A 2.61 2.60 0.4 0 0 351.53 421.65
  C 357.69 422.99 357.41 424.37 359.70 429.52
  A 2.13 2.12 -16.0 0 0 361.95 430.76
  C 365.51 430.23 368.49 430.03 371.74 432.12
  C 374.37 433.82 382.34 437.99 382.98 440.99
  Q 384.63 448.66 385.26 456.51
  A 1.53 1.51 -83.9 0 0 386.33 457.85
  Q 392.00 459.60 397.81 458.47
  C 402.23 457.62 407.97 454.42 412.24 453.26
  C 416.23 452.18 421.68 452.12 426.72 451.30
  C 429.28 450.88 432.88 450.88 434.96 449.21
  C 437.74 446.99 440.87 443.32 443.88 440.80
  C 467.75 420.73 492.76 401.31 518.97 384.39
  Q 533.28 375.15 547.51 365.80
  Q 552.04 362.82 556.23 359.35
  C 558.19 357.72 560.22 357.27 562.52 357.98
  Q 567.68 359.59 587.34 366.51
  C 592.67 368.38 596.43 374.12 600.23 377.28
  A 1.13 1.12 58.8 0 0 601.18 377.52
  Q 602.38 377.27 603.48 376.72
  Q 619.32 368.70 635.16 360.67
  C 638.96 358.75 638.98 360.57 641.91 362.28
  Q 713.95 404.44 786.12 446.87
  A 0.42 0.42 0.0 0 0 786.75 446.54
  L 787.48 437.44
  A 1.48 1.47 1.7 0 1 788.92 436.09
  L 806.76 435.67
  A 0.90 0.90 0.0 0 0 807.64 434.75
  L 806.59 393.56
  Q 806.55 391.90 808.21 391.91
  Q 864.73 392.00 921.00 391.68
  Q 924.39 391.66 926.78 391.35
  Q 927.30 391.28 927.66 390.91
  C 929.52 388.94 933.17 384.79 935.74 384.50
  C 939.38 384.09 939.10 387.76 939.22 390.03
  A 0.73 0.72 -87.5 0 0 939.83 390.70
  Q 950.70 392.39 961.39 392.88
  C 966.81 393.13 970.87 395.20 975.53 397.51
  Q 978.33 398.90 979.57 396.34
  Q 980.88 393.60 982.52 391.04
  C 985.67 386.12 993.17 389.61 994.94 385.96
  C 997.09 381.54 1002.16 371.66 1000.38 366.44
  C 998.34 360.43 996.35 354.73 996.65 348.25
  Q 997.10 338.38 996.72 328.51
  Q 996.63 326.22 996.10 325.42
  Q 988.49 314.14 976.63 294.66
  Q 973.89 290.15 974.35 285.40
  C 974.58 282.95 974.52 280.56 972.92 279.09
  C 967.81 274.39 966.97 271.98 965.65 265.29
  A 5.58 5.56 13.2 0 0 963.60 261.99
  C 959.50 258.85 954.50 255.91 952.54 250.75
  C 949.48 242.71 947.22 234.29 942.59 226.48
  Q 941.14 224.03 940.87 222.88
  C 940.07 219.40 943.06 212.44 946.83 211.42
  Q 949.13 210.80 949.64 213.36
  C 950.73 218.87 954.02 224.05 957.56 229.40
  Q 960.94 234.50 961.74 237.24
  C 962.93 241.28 961.11 244.11 964.69 248.05
  Q 971.65 255.70 980.21 260.78
  Q 982.05 261.87 982.56 259.80
  Q 984.25 252.93 985.18 245.50
  Q 985.79 240.57 988.83 227.46
  Q 989.70 223.73 989.01 222.24
  Q 981.46 205.79 974.13 188.86
  A 1.11 1.10 -31.4 0 0 972.41 188.45
  C 971.15 189.50 969.81 190.00 968.06 190.11
  Q 961.72 190.53 955.49 191.71
  Q 948.49 193.04 943.38 189.27
  Q 942.36 188.52 941.38 189.31
  C 936.93 192.87 929.83 189.38 928.40 184.26
  A 2.14 2.13 78.0 0 0 926.04 182.72
  Q 923.44 183.10 921.19 182.90
  C 918.53 182.66 917.73 181.25 914.78 182.68
  C 913.41 183.35 912.53 183.92 910.88 183.93
  C 906.59 183.93 904.78 187.59 902.40 187.93
  C 900.18 188.24 898.24 188.31 896.59 190.05
  C 893.80 192.99 892.12 195.19 887.51 196.55
  Q 882.00 198.19 876.25 198.24
  C 872.54 198.28 869.70 196.15 866.66 193.83
  C 863.50 191.42 858.55 192.41 854.47 188.99
  C 851.64 186.62 848.45 187.48 845.37 185.78
  C 839.98 182.80 836.50 181.01 829.25 180.86
  Q 818.13 180.63 807.00 180.71
  Q 803.20 180.73 800.41 178.44
  A 1.59 1.59 0.0 0 1 799.90 177.64
  C 799.32 175.41 798.49 172.27 795.75 171.87
  C 790.31 171.07 784.66 171.60 779.67 169.00
  C 775.65 166.90 770.75 166.39 766.33 165.52
  C 762.14 164.68 761.31 162.28 760.00 159.12
  Q 759.40 157.69 757.87 157.47
  C 748.41 156.07 739.22 153.67 729.44 153.94
  C 722.77 154.13 713.87 161.04 708.29 164.76
  A 3.20 3.18 72.6 0 0 706.87 167.49
  C 707.06 174.85 708.23 181.49 710.99 191.99
  Q 712.02 195.93 710.18 197.65
  Q 706.75 200.87 694.76 209.06
  Q 692.56 210.57 690.24 211.36
  A 1.99 1.97 50.0 0 1 688.62 211.21
  Q 671.15 201.26 654.84 190.12
  C 648.76 185.98 642.64 186.71 635.50 187.72
  Q 628.59 188.70 625.41 182.81
  Q 619.75 172.31 613.57 160.33
  A 3.56 3.54 69.1 0 0 609.55 158.52
  C 602.78 160.26 599.34 160.72 592.90 157.10
  Q 586.04 153.23 579.79 149.47
  Q 578.12 148.47 579.25 150.05
  L 597.58 175.90
  A 2.14 2.13 -23.3 0 1 596.25 179.23
  L 563.72 185.64
  A 0.73 0.72 77.6 0 0 563.16 186.53
  L 574.05 227.42
  A 1.18 1.17 -0.3 0 1 572.62 228.86
  L 535.22 219.20
  A 0.99 0.99 0.0 0 0 534.23 219.51
  L 507.86 249.75
  A 1.86 1.85 55.5 0 1 504.72 249.16
  L 491.26 212.23
  A 1.07 1.06 74.8 0 0 490.07 211.54
  Q 472.68 214.73 455.24 218.21
  Q 454.33 218.39 453.74 217.95
  Z"
/>
<path fill="#3581ff" d="
  M 559.73 184.30
  Q 559.68 184.59 559.85 185.23
  Q 564.91 204.87 570.03 224.42
  A 0.45 0.44 -0.3 0 1 569.49 224.96
  L 535.44 216.28
  A 3.41 3.41 0.0 0 0 532.02 217.35
  L 507.41 245.66
  A 0.41 0.41 0.0 0 1 506.72 245.53
  L 493.51 209.00
  A 2.43 1.70 5.0 0 0 492.06 207.78
  Q 491.38 207.56 490.57 208.03
  Q 489.78 208.48 489.24 208.59
  Q 473.34 211.67 457.48 214.77
  A 0.24 0.24 0.0 0 1 457.20 214.48
  L 465.20 179.80
  Q 465.60 178.08 463.83 178.02
  L 431.03 176.92
  A 0.25 0.25 0.0 0 1 430.83 176.53
  L 448.97 147.45
  A 2.07 2.07 0.0 0 0 448.35 144.62
  L 424.16 128.89
  A 0.42 0.41 -45.3 0 1 424.16 128.20
  L 453.23 108.96
  A 1.94 1.93 56.1 0 0 453.76 106.26
  L 436.07 80.25
  A 0.46 0.45 69.2 0 1 436.38 79.54
  C 444.93 78.42 453.11 76.12 461.54 74.33
  C 463.94 73.81 465.62 73.92 468.10 72.56
  A 1.27 1.26 -33.8 0 0 468.48 70.65
  Q 467.69 69.67 467.11 68.23
  Q 461.05 53.27 454.42 38.62
  A 0.27 0.27 0.0 0 1 454.74 38.25
  L 489.78 48.23
  A 0.89 0.88 -68.7 0 0 490.81 47.77
  L 509.44 10.14
  A 0.16 0.16 0.0 0 1 509.72 10.14
  C 515.08 21.02 520.15 32.72 526.56 43.02
  A 1.58 1.58 0.0 0 0 528.64 43.58
  Q 547.58 33.52 567.37 25.25
  Q 567.86 25.04 567.72 25.56
  L 557.98 60.64
  A 1.47 1.47 0.0 0 0 559.17 62.49
  L 593.49 67.78
  A 0.51 0.51 0.0 0 1 593.82 68.58
  L 570.25 101.51
  A 2.12 2.12 0.0 0 0 571.05 104.66
  L 603.08 120.19
  A 0.25 0.24 42.6 0 1 603.10 120.62
  L 572.00 139.46
  Q 569.36 141.06 571.13 143.58
  L 594.01 176.15
  Q 594.31 176.57 593.80 176.67
  L 560.60 183.24
  Q 559.86 183.39 559.73 184.30
  Z
  M 536.71 77.28
  C 538.84 73.56 541.84 72.52 545.41 71.35
  Q 547.63 70.63 548.67 69.34
  C 551.27 66.13 552.79 60.99 553.78 57.03
  A 2.28 2.28 0.0 0 0 552.24 54.29
  C 545.88 52.35 535.38 64.30 529.89 59.66
  C 526.98 57.21 523.48 53.79 520.03 52.24
  Q 518.52 51.56 516.38 51.85
  Q 509.05 52.82 501.72 51.86
  C 500.03 51.64 498.07 51.83 497.17 53.20
  C 494.56 57.18 492.48 60.69 488.57 62.33
  C 486.42 63.23 485.33 63.93 485.27 66.25
  C 485.17 69.94 485.34 74.22 484.25 77.76
  C 483.64 79.75 482.25 81.94 483.30 84.13
  C 488.53 95.04 491.60 103.17 482.72 112.55
  C 477.58 117.97 466.52 119.80 470.41 129.36
  Q 472.71 135.01 473.17 139.49
  C 473.67 144.35 476.86 145.49 480.20 147.64
  C 485.00 150.73 486.37 155.33 488.41 160.30
  C 490.36 165.04 496.32 162.64 497.65 167.67
  C 501.01 180.31 503.27 193.40 505.90 206.23
  C 506.53 209.27 507.19 217.85 512.75 213.33
  C 517.19 209.72 526.64 201.15 525.43 194.80
  Q 523.91 186.80 524.03 180.26
  Q 524.07 178.32 525.49 177.70
  C 528.80 176.27 531.89 175.52 533.06 171.69
  C 535.09 165.07 553.73 168.54 550.44 158.65
  C 549.28 155.16 547.96 152.83 548.60 149.35
  C 549.23 145.91 550.57 141.67 546.08 140.20
  Q 544.10 139.56 542.37 138.41
  Q 541.95 138.13 541.75 137.67
  C 539.57 132.62 540.28 131.62 534.01 132.81
  Q 533.47 132.91 533.02 132.59
  C 529.37 129.96 525.90 124.39 523.72 120.45
  Q 522.92 119.02 524.17 117.95
  Q 532.25 111.08 540.91 104.62
  C 544.00 102.31 543.26 97.73 543.12 93.90
  C 542.90 88.03 541.64 85.47 537.39 81.85
  C 536.15 80.80 535.82 78.81 536.71 77.28
  Z"
/>
<path fill="#322b2b" d="
  M 536.71 77.28
  C 535.82 78.81 536.15 80.80 537.39 81.85
  C 541.64 85.47 542.90 88.03 543.12 93.90
  C 543.26 97.73 544.00 102.31 540.91 104.62
  Q 532.25 111.08 524.17 117.95
  Q 522.92 119.02 523.72 120.45
  C 525.90 124.39 529.37 129.96 533.02 132.59
  Q 533.47 132.91 534.01 132.81
  C 540.28 131.62 539.57 132.62 541.75 137.67
  Q 541.95 138.13 542.37 138.41
  Q 544.10 139.56 546.08 140.20
  C 550.57 141.67 549.23 145.91 548.60 149.35
  C 547.96 152.83 549.28 155.16 550.44 158.65
  C 553.73 168.54 535.09 165.07 533.06 171.69
  C 531.89 175.52 528.80 176.27 525.49 177.70
  Q 524.07 178.32 524.03 180.26
  Q 523.91 186.80 525.43 194.80
  C 526.64 201.15 517.19 209.72 512.75 213.33
  C 507.19 217.85 506.53 209.27 505.90 206.23
  C 503.27 193.40 501.01 180.31 497.65 167.67
  C 496.32 162.64 490.36 165.04 488.41 160.30
  C 486.37 155.33 485.00 150.73 480.20 147.64
  C 476.86 145.49 473.67 144.35 473.17 139.49
  Q 472.71 135.01 470.41 129.36
  C 466.52 119.80 477.58 117.97 482.72 112.55
  C 491.60 103.17 488.53 95.04 483.30 84.13
  C 482.25 81.94 483.64 79.75 484.25 77.76
  C 485.34 74.22 485.17 69.94 485.27 66.25
  C 485.33 63.93 486.42 63.23 488.57 62.33
  C 492.48 60.69 494.56 57.18 497.17 53.20
  C 498.07 51.83 500.03 51.64 501.72 51.86
  Q 509.05 52.82 516.38 51.85
  Q 518.52 51.56 520.03 52.24
  C 523.48 53.79 526.98 57.21 529.89 59.66
  C 535.38 64.30 545.88 52.35 552.24 54.29
  A 2.28 2.28 0.0 0 1 553.78 57.03
  C 552.79 60.99 551.27 66.13 548.67 69.34
  Q 547.63 70.63 545.41 71.35
  C 541.84 72.52 538.84 73.56 536.71 77.28
  Z
  M 534.38 82.86
  C 529.12 75.21 538.69 70.25 544.57 68.44
  A 4.42 4.40 1.6 0 0 547.40 65.78
  L 550.18 58.41
  Q 550.92 56.46 549.05 57.39
  Q 540.33 61.70 535.70 63.15
  C 529.35 65.14 523.94 57.71 519.05 54.76
  Q 518.58 54.48 518.04 54.58
  Q 509.41 56.19 500.73 54.61
  A 0.96 0.95 -64.3 0 0 499.83 54.93
  C 496.24 59.24 494.60 63.41 488.85 65.52
  A 0.76 0.75 -9.9 0 0 488.35 66.23
  C 488.33 71.85 488.36 75.75 486.28 81.04
  C 485.93 81.92 485.90 83.30 486.24 84.02
  Q 489.32 90.43 491.02 97.32
  C 493.10 105.73 486.16 114.27 479.82 118.68
  C 476.79 120.79 470.92 123.00 473.08 127.91
  Q 475.56 133.54 476.21 139.00
  C 476.48 141.28 477.20 142.38 479.17 143.33
  Q 486.67 146.93 489.40 154.78
  Q 490.18 157.02 491.38 159.07
  C 493.59 162.83 498.97 160.20 500.58 166.49
  C 503.72 178.76 505.85 191.29 508.26 203.72
  Q 508.93 207.18 510.18 210.69
  Q 510.39 211.30 510.90 210.89
  C 514.92 207.60 522.57 200.27 522.25 195.76
  C 521.93 191.26 518.31 178.22 523.22 175.43
  Q 525.83 173.95 528.57 172.94
  A 2.01 2.01 0.0 0 0 529.86 171.36
  Q 530.40 167.84 534.06 166.49
  Q 539.85 164.34 546.58 162.08
  A 1.68 1.67 -22.4 0 0 547.55 159.75
  C 544.80 154.17 545.52 150.50 546.05 144.47
  Q 546.14 143.46 545.18 143.13
  C 541.42 141.82 538.42 140.48 537.85 136.08
  Q 537.74 135.28 536.95 135.45
  Q 532.16 136.43 529.68 133.81
  C 526.41 130.37 516.73 120.01 522.05 115.59
  Q 530.51 108.57 538.93 102.47
  A 2.85 2.85 0.0 0 0 540.11 100.22
  Q 540.21 94.71 539.77 90.31
  C 539.47 87.31 535.59 84.61 534.38 82.86
  Z"
/>
<path fill="#d4e4ff" d="
  M 544.57 68.44
  C 538.69 70.25 529.12 75.21 534.38 82.86
  C 535.59 84.61 539.47 87.31 539.77 90.31
  Q 540.21 94.71 540.11 100.22
  A 2.85 2.85 0.0 0 1 538.93 102.47
  Q 530.51 108.57 522.05 115.59
  C 516.73 120.01 526.41 130.37 529.68 133.81
  Q 532.16 136.43 536.95 135.45
  Q 537.74 135.28 537.85 136.08
  C 538.42 140.48 541.42 141.82 545.18 143.13
  Q 546.14 143.46 546.05 144.47
  C 545.52 150.50 544.80 154.17 547.55 159.75
  A 1.68 1.67 -22.4 0 1 546.58 162.08
  Q 539.85 164.34 534.06 166.49
  Q 530.40 167.84 529.86 171.36
  A 2.01 2.01 0.0 0 1 528.57 172.94
  Q 525.83 173.95 523.22 175.43
  C 518.31 178.22 521.93 191.26 522.25 195.76
  C 522.57 200.27 514.92 207.60 510.90 210.89
  Q 510.39 211.30 510.18 210.69
  Q 508.93 207.18 508.26 203.72
  C 505.85 191.29 503.72 178.76 500.58 166.49
  C 498.97 160.20 493.59 162.83 491.38 159.07
  Q 490.18 157.02 489.40 154.78
  Q 486.67 146.93 479.17 143.33
  C 477.20 142.38 476.48 141.28 476.21 139.00
  Q 475.56 133.54 473.08 127.91
  C 470.92 123.00 476.79 120.79 479.82 118.68
  C 486.16 114.27 493.10 105.73 491.02 97.32
  Q 489.32 90.43 486.24 84.02
  C 485.90 83.30 485.93 81.92 486.28 81.04
  C 488.36 75.75 488.33 71.85 488.35 66.23
  A 0.76 0.75 -9.9 0 1 488.85 65.52
  C 494.60 63.41 496.24 59.24 499.83 54.93
  A 0.96 0.95 -64.3 0 1 500.73 54.61
  Q 509.41 56.19 518.04 54.58
  Q 518.58 54.48 519.05 54.76
  C 523.94 57.71 529.35 65.14 535.70 63.15
  Q 540.33 61.70 549.05 57.39
  Q 550.92 56.46 550.18 58.41
  L 547.40 65.78
  A 4.42 4.40 1.6 0 1 544.57 68.44
  Z"
/>
<path fill="#53a763" d="
  M 453.74 217.95
  Q 454.33 218.39 455.24 218.21
  Q 472.68 214.73 490.07 211.54
  A 1.07 1.06 74.8 0 1 491.26 212.23
  L 504.72 249.16
  A 1.86 1.85 55.5 0 0 507.86 249.75
  L 534.23 219.51
  A 0.99 0.99 0.0 0 1 535.22 219.20
  L 572.62 228.86
  A 1.18 1.17 -0.3 0 0 574.05 227.42
  L 563.16 186.53
  A 0.73 0.72 77.6 0 1 563.72 185.64
  L 596.25 179.23
  A 2.14 2.13 -23.3 0 0 597.58 175.90
  L 579.25 150.05
  Q 578.12 148.47 579.79 149.47
  Q 586.04 153.23 592.90 157.10
  C 599.34 160.72 602.78 160.26 609.55 158.52
  A 3.56 3.54 69.1 0 1 613.57 160.33
  Q 619.75 172.31 625.41 182.81
  Q 628.59 188.70 635.50 187.72
  C 642.64 186.71 648.76 185.98 654.84 190.12
  Q 671.15 201.26 688.62 211.21
  A 1.99 1.97 50.0 0 0 690.24 211.36
  Q 692.56 210.57 694.76 209.06
  Q 706.75 200.87 710.18 197.65
  Q 712.02 195.93 710.99 191.99
  C 708.23 181.49 707.06 174.85 706.87 167.49
  A 3.20 3.18 72.6 0 1 708.29 164.76
  C 713.87 161.04 722.77 154.13 729.44 153.94
  C 739.22 153.67 748.41 156.07 757.87 157.47
  Q 759.40 157.69 760.00 159.12
  C 761.31 162.28 762.14 164.68 766.33 165.52
  C 770.75 166.39 775.65 166.90 779.67 169.00
  C 784.66 171.60 790.31 171.07 795.75 171.87
  C 798.49 172.27 799.32 175.41 799.90 177.64
  A 1.59 1.59 0.0 0 0 800.41 178.44
  Q 803.20 180.73 807.00 180.71
  Q 818.13 180.63 829.25 180.86
  C 836.50 181.01 839.98 182.80 845.37 185.78
  C 848.45 187.48 851.64 186.62 854.47 188.99
  C 858.55 192.41 863.50 191.42 866.66 193.83
  C 869.70 196.15 872.54 198.28 876.25 198.24
  Q 882.00 198.19 887.51 196.55
  C 892.12 195.19 893.80 192.99 896.59 190.05
  C 898.24 188.31 900.18 188.24 902.40 187.93
  C 904.78 187.59 906.59 183.93 910.88 183.93
  C 912.53 183.92 913.41 183.35 914.78 182.68
  C 917.73 181.25 918.53 182.66 921.19 182.90
  Q 923.44 183.10 926.04 182.72
  A 2.14 2.13 78.0 0 1 928.40 184.26
  C 929.83 189.38 936.93 192.87 941.38 189.31
  Q 942.36 188.52 943.38 189.27
  Q 948.49 193.04 955.49 191.71
  Q 961.72 190.53 968.06 190.11
  C 969.81 190.00 971.15 189.50 972.41 188.45
  A 1.11 1.10 -31.4 0 1 974.13 188.86
  Q 981.46 205.79 989.01 222.24
  Q 989.70 223.73 988.83 227.46
  Q 985.79 240.57 985.18 245.50
  Q 984.25 252.93 982.56 259.80
  Q 982.05 261.87 980.21 260.78
  Q 971.65 255.70 964.69 248.05
  C 961.11 244.11 962.93 241.28 961.74 237.24
  Q 960.94 234.50 957.56 229.40
  C 954.02 224.05 950.73 218.87 949.64 213.36
  Q 949.13 210.80 946.83 211.42
  C 943.06 212.44 940.07 219.40 940.87 222.88
  Q 941.14 224.03 942.59 226.48
  C 947.22 234.29 949.48 242.71 952.54 250.75
  C 954.50 255.91 959.50 258.85 963.60 261.99
  A 5.58 5.56 13.2 0 1 965.65 265.29
  C 966.97 271.98 967.81 274.39 972.92 279.09
  C 974.52 280.56 974.58 282.95 974.35 285.40
  Q 973.89 290.15 976.63 294.66
  Q 988.49 314.14 996.10 325.42
  Q 996.63 326.22 996.72 328.51
  Q 997.10 338.38 996.65 348.25
  C 996.35 354.73 998.34 360.43 1000.38 366.44
  C 1002.16 371.66 997.09 381.54 994.94 385.96
  C 993.17 389.61 985.67 386.12 982.52 391.04
  Q 980.88 393.60 979.57 396.34
  Q 978.33 398.90 975.53 397.51
  C 970.87 395.20 966.81 393.13 961.39 392.88
  Q 950.70 392.39 939.83 390.70
  A 0.73 0.72 -87.5 0 1 939.22 390.03
  C 939.10 387.76 939.38 384.09 935.74 384.50
  C 933.17 384.79 929.52 388.94 927.66 390.91
  Q 927.30 391.28 926.78 391.35
  Q 924.39 391.66 921.00 391.68
  Q 864.73 392.00 808.21 391.91
  Q 806.55 391.90 806.59 393.56
  L 807.64 434.75
  A 0.90 0.90 0.0 0 1 806.76 435.67
  L 788.92 436.09
  A 1.48 1.47 1.7 0 0 787.48 437.44
  L 786.75 446.54
  A 0.42 0.42 0.0 0 1 786.12 446.87
  Q 713.95 404.44 641.91 362.28
  C 638.98 360.57 638.96 358.75 635.16 360.67
  Q 619.32 368.70 603.48 376.72
  Q 602.38 377.27 601.18 377.52
  A 1.13 1.12 58.8 0 1 600.23 377.28
  C 596.43 374.12 592.67 368.38 587.34 366.51
  Q 567.68 359.59 562.52 357.98
  C 560.22 357.27 558.19 357.72 556.23 359.35
  Q 552.04 362.82 547.51 365.80
  Q 533.28 375.15 518.97 384.39
  C 492.76 401.31 467.75 420.73 443.88 440.80
  C 440.87 443.32 437.74 446.99 434.96 449.21
  C 432.88 450.88 429.28 450.88 426.72 451.30
  C 421.68 452.12 416.23 452.18 412.24 453.26
  C 407.97 454.42 402.23 457.62 397.81 458.47
  Q 392.00 459.60 386.33 457.85
  A 1.53 1.51 -83.9 0 1 385.26 456.51
  Q 384.63 448.66 382.98 440.99
  C 382.34 437.99 374.37 433.82 371.74 432.12
  C 368.49 430.03 365.51 430.23 361.95 430.76
  A 2.13 2.12 -16.0 0 1 359.70 429.52
  C 357.41 424.37 357.69 422.99 351.53 421.65
  A 2.61 2.60 0.4 0 1 349.53 419.63
  Q 348.48 414.44 347.01 409.29
  C 346.32 406.88 344.83 406.61 343.05 405.31
  Q 253.51 340.11 164.21 275.00
  A 1.43 1.43 0.0 0 0 161.94 276.10
  L 160.93 303.20
  Q 160.92 303.58 160.54 303.59
  L 94.79 305.53
  Q 93.89 305.56 93.87 306.45
  L 92.66 360.86
  Q 92.65 361.39 92.13 361.46
  C 86.43 362.24 81.64 361.88 77.43 366.54
  C 73.70 370.68 69.90 373.94 71.08 380.25
  C 72.89 389.91 76.63 395.51 71.31 406.06
  C 70.06 408.52 69.53 408.10 66.71 408.08
  Q 35.52 407.83 4.71 406.84
  Q 3.99 406.82 4.03 406.10
  Q 4.38 400.23 6.06 395.38
  C 7.72 390.56 12.07 387.36 14.07 382.43
  C 15.79 378.18 16.39 373.85 17.92 369.57
  Q 18.18 368.85 18.80 368.02
  Q 24.22 360.70 26.20 351.73
  C 27.26 346.96 35.51 342.08 38.10 338.81
  Q 40.25 336.10 42.17 329.98
  Q 45.36 319.80 51.35 306.81
  C 53.49 302.17 55.00 299.60 59.09 296.16
  C 64.01 292.01 69.43 287.69 73.35 282.55
  C 76.68 278.20 78.90 271.95 81.28 266.76
  Q 82.20 264.74 85.09 263.77
  Q 94.43 260.64 103.76 257.52
  C 108.71 255.86 113.57 249.07 117.16 245.15
  C 120.49 241.51 127.44 238.44 131.83 236.12
  C 138.24 232.73 145.33 220.02 148.55 213.34
  C 150.92 208.42 147.18 204.78 144.01 201.68
  A 1.31 1.31 0.0 0 1 143.82 200.04
  Q 146.19 196.39 146.83 192.37
  C 148.24 183.58 149.38 173.73 153.76 168.31
  C 156.60 164.78 157.51 163.40 157.80 159.24
  Q 157.98 156.70 160.16 154.68
  Q 168.66 146.79 176.70 138.44
  Q 178.82 136.24 182.53 134.83
  C 189.23 132.30 196.17 129.52 201.77 125.29
  C 214.37 115.78 220.65 103.07 225.41 87.48
  A 0.65 0.63 -81.3 0 1 226.02 87.02
  Q 229.87 87.00 233.36 85.37
  A 1.51 1.51 0.0 0 1 235.27 85.93
  C 238.43 90.89 240.81 96.99 247.50 97.77
  Q 254.69 98.60 261.90 99.21
  C 267.54 99.69 271.56 99.40 275.94 96.45
  A 1.21 1.20 -24.1 0 1 277.78 97.15
  C 279.88 105.34 290.05 100.92 295.44 100.11
  C 299.54 99.50 305.78 98.03 308.33 95.09
  Q 310.43 92.68 312.60 90.35
  C 316.08 86.61 319.78 88.81 324.22 87.91
  Q 328.29 87.09 329.33 86.98
  C 333.03 86.55 337.70 86.17 340.17 83.16
  C 343.39 79.24 345.14 75.28 350.49 73.75
  Q 355.22 72.40 369.26 70.25
  Q 391.75 66.80 398.01 66.22
  Q 409.45 65.14 420.76 63.05
  C 426.82 61.92 431.33 68.90 437.19 65.44
  C 439.99 63.79 441.12 63.47 444.75 62.92
  Q 448.21 62.38 450.99 60.51
  A 2.55 2.54 -44.5 0 1 453.87 60.53
  Q 456.77 62.55 460.29 62.72
  A 1.78 1.78 0.0 0 1 461.82 63.78
  L 464.62 70.22
  A 0.38 0.38 0.0 0 1 464.35 70.74
  Q 454.91 72.75 445.47 75.00
  C 441.58 75.93 437.47 76.42 433.50 77.08
  A 1.89 1.89 0.0 0 0 432.25 80.00
  L 450.05 106.31
  A 0.81 0.81 0.0 0 1 449.83 107.44
  L 420.28 127.09
  A 1.74 1.74 0.0 0 0 420.29 129.99
  L 445.18 146.22
  A 0.82 0.82 0.0 0 1 445.43 147.34
  L 426.80 177.34
  A 1.60 1.59 16.9 0 0 428.10 179.77
  L 461.42 180.97
  Q 461.88 180.99 461.78 181.44
  Q 458.08 197.45 454.31 213.46
  Q 453.89 215.24 453.37 216.74
  A 1.09 1.08 -62.1 0 0 453.74 217.95
  Z"
/>
</svg>
