<svg width="27" height="28" viewBox="0 0 27 28" fill="none" xmlns="http://www.w3.org/2000/svg">
<path d="M13.2833 14.0216C12.0791 14.0216 11.0938 13.0363 11.0938 11.8321C11.0938 10.6279 12.0791 9.64263 13.2833 9.64263C14.4875 9.64263 15.4727 10.6279 15.4727 11.8321C15.4727 13.0363 14.4875 14.0216 13.2833 14.0216ZM19.8517 12.0511C19.8517 8.07716 16.9506 5.26369 13.2833 5.26369C9.61591 5.26369 6.71486 8.07716 6.71486 12.0511C6.71486 14.6127 8.8496 18.0064 13.2833 22.0569C17.717 18.0064 19.8517 14.6127 19.8517 12.0511ZM13.2833 3.07422C17.8812 3.07422 22.0412 6.59927 22.0412 12.0511C22.0412 15.6856 19.1182 19.9879 13.2833 24.9689C7.44833 19.9879 4.52539 15.6856 4.52539 12.0511C4.52539 6.59927 8.68539 3.07422 13.2833 3.07422Z" fill="white"/>
</svg>
